<?xml version="1.0" encoding="utf-8"?>
<!-- Generator: Adobe Illustrator 24.1.0, SVG Export Plug-In . SVG Version: 6.00 Build 0)  -->
<svg version="1.0" xmlns="http://www.w3.org/2000/svg" xmlns:xlink="http://www.w3.org/1999/xlink" x="0px" y="0px"
	 viewBox="0 0 900 600" style="enable-background:new 0 0 900 600;" xml:space="preserve">
<style type="text/css">
	.st0{fill:#D53119;}
	.st1{fill:#DF862C;}
	.st2{fill:#DFCF33;}
	.st3{fill:#018AC7;}
	.st4{fill:#028AC8;}
	.st5{fill:#5B4085;}
	.st6{fill:#E6E6E6;}
	.st7{fill:#EACE62;}
	.st8{fill:#D1E8B2;}
	.st9{fill:#B0E1B7;}
	.st10{fill:#DCE9B0;}
	.st11{fill:#FBD000;}
	.st12{fill:#D3E5C0;}
	.st13{fill:#9691C1;}
	.st14{fill:#EE7F00;}
	.st15{fill:#DE151C;}
	.st16{fill:#CCECF9;}
	.st17{fill:#898989;}
	.st18{fill:#F8D32B;}
	.st19{fill:#94C23B;}
	.st20{fill:#F15A24;}
	.st21{fill:#F14B94;}
	.st22{fill:#FBB03B;}
	.st23{fill:#99DDD8;}
	.st24{fill:none;}
	.st25{fill:#66CBEF;}
	.st26{fill:#8888D1;}
	.st27{fill:#FF1D25;}
	.st28{fill:#FFD800;}
	.st29{fill:#E6411C;}
	.st30{fill:#0090CF;}
	.st31{fill:#474D9B;}
	.st32{fill:#66C8EE;}
	.st33{fill:#D7D612;}
	.st34{fill:#ED830E;}
	.st35{fill:#DE0914;}
	.st36{fill:#EAD915;}
	.st37{fill:#59BAA7;}
	.st38{fill:#F09A14;}
	.st39{fill:none;stroke:#000000;stroke-width:0.9;stroke-linecap:round;stroke-miterlimit:10;}
	.st40{fill:none;stroke:#000000;stroke-width:0.9;stroke-linecap:round;stroke-linejoin:round;stroke-miterlimit:10;}
	.st41{fill:none;stroke:#000000;stroke-width:0.872;stroke-linecap:round;stroke-linejoin:round;stroke-miterlimit:10;}
</style>
<g id="Images">
</g>
<g id="Shading">
	<path class="st6" d="M324.41,48.34c-15.61-0.67-31.02,4.67-44.39,12.75c-6.28,3.79-12.24,8.25-16.92,13.9
		c-4.63,5.6-7.86,12.19-11.53,18.46c-18.53,31.69-48.58,55.45-81.39,71.91c-6.54,3.28-13.56,4.06-19.46,9.78
		c-4.97,4.82-10.14,11.62-14.24,17.19c-14.98,20.33-28,42.02-41,63.68c-17.73,29.53-36.02,60.99-36,95.44
		c-0.36-0.58,0.17-1.41,0.6-0.89c7.55,8.94,17.14,16.15,27.83,20.93c-22.7,40.35-45.45,80.55-68.15,120.9
		c3.87,1.19,7.7-1.74,10.59-4.58c12.42-12.18,22.81-26.3,35.14-38.58s27.26-22.94,44.44-25.71c20.32-3.27,40.57,4.84,59.41,13.12
		c8.77,3.85,18.02,7.88,27.84,4.59c4.75-1.59,8.55-5.44,9.61-10.34c2.33-10.77-9.16-18.1-18.7-22.88
		c-28.34-14.22-54.7-32.38-78.09-53.78c3.8-0.93,3.47-7.03,0.33-9.35c-3.15-2.32-7.38-2.21-11.24-2.8
		c-3.86-0.59-8.22-2.69-8.69-6.57l0.81-0.74c2.71-2.49,2-6.98-1.38-8.44c-2.08-0.89-3.93-2.21-5.31-4.25
		c-1.48-2.18-1.8-5.02-0.51-7.32c1.96-3.49,5.71-3.22,9-3.86c8.29-1.61,13.9-9.15,18.67-16.12c22.44-32.79,44.89-65.58,67.33-98.36
		c4.34-6.34,8.79-12.8,14.96-17.37c6.17-4.57,14.48-6.98,21.67-4.27c6.5,2.46,10.83,8.45,15.69,13.42c0.07,0.07,0.13,0.13,0.2,0.2
		c6.88,6.94,18.69,3.14,20.48-6.46c4.77-25.62,12.56-51.17,30.95-69.14c13.93-13.62,33.28-21.53,52.76-21.57
		c11.74-0.03,24.6,2.4,34.36-4.12c1.06-0.71,2.14-1.64,2.35-2.9c0.21-1.24-0.47-2.44-1.16-3.5
		C360.9,64.65,343.48,49.16,324.41,48.34z"/>
	<path class="st6" d="M353.26,133.13c-7.13,3.23-15.16,4.31-21.95,8.21c-3.7,2.13-6.9,5.02-10.06,7.89
		c-4.29,3.9-8.59,7.79-12.88,11.69c-3.25,2.95-6.59,6.02-8.36,10.03c-2.91,6.57-1.05,14.17,0.86,21.11
		c-4.03-3.8-8.06-7.6-12.08-11.39c-1.37,7.5-2.25,15.09-2.63,22.7c-1.19-17.24-0.92-34.59,0.81-51.79c0.19-1.88,0.39-3.8,0.03-5.65
		c-0.37-1.88-1.29-3.59-2.03-5.36c-1.87-4.48-2.49-9.91,0.16-13.98c2.65-4.06,9.39-5.35,12.35-1.5c0.99,1.29,1.5,3.01,2.87,3.9
		c0.84,0.55,1.88,0.69,2.88,0.81c11.94,1.43,24.08,2.12,35.97,0.3c12.11-1.86,21.25-6.96,31.5-13.05
		C369.03,123.98,359.35,130.37,353.26,133.13z"/>
	<path class="st6" d="M187.61,238.25c-4.59,6.22-9.97,11.81-15.22,17.48c-13.35,14.4-25.98,29.46-37.86,45.1
		c-2.19,2.89-4.44,6.01-4.75,9.62c-0.2,2.34,0.44,4.73-0.1,7.01c-0.54,2.28-3.12,4.37-5.13,3.18c2.17,0.58,2.67,3.72,1.43,5.6
		s-3.5,2.76-5.61,3.54c2.31-1.03,5.1-0.28,7.13,1.23c2.03,1.51,3.46,3.67,4.84,5.79c2.34,3.58,4.68,7.15,7.01,10.73
		c4.59-18.03,14.58-34.66,28.34-47.18c4.8-4.37,10.1-8.31,13.9-13.56c2.58-3.57,4.39-7.63,6.03-11.71
		c3.77-9.4,6.72-19.13,8.83-29.04c1.93-9.07,4.65-20.2,3.54-29.43c-2.65,2.3-3.93,7.78-5.63,10.95
		C192.38,231.28,190.12,234.85,187.61,238.25z"/>
	<path class="st6" d="M134.27,447.77c0.01-0.54-0.8-0.64-1.28-0.39c-1.67,0.89-1.69,3.47-0.51,4.95s3.09,2.13,4.9,2.68
		c18.33,5.62,37.34,9.11,55.1,16.32c-0.8-0.15-1.6-0.31-2.41-0.46c1.29,4.53,4.69,8.25,4.6,12.96c-0.05,2.57-0.31,5.19,0.31,7.69
		c0.62,2.5,2.36,4.92,4.88,5.47c2.15,0.46,4.31-0.5,6.33-1.36c5.34-2.27,10.94-3.95,16.65-4.99c-4.09,25.93-6.08,52.18-5.95,78.43
		c-8.2,0.73-16.44,1-24.67,0.83c-1.52-24.03-3.04-48.05-4.56-72.08c-2.19-1.26-5.4-2.58-7.93-2.44
		c-11.07,0.58-21.91,4.85-30.41,11.97c1.77,0.32,1.8,2.95,0.87,4.48c-0.35,0.57-0.78,1.12-1.37,1.44c-1.69,0.91-3.9-0.62-4.3-2.5
		c-0.4-1.88,0.47-3.8,1.55-5.39c4.85-7.17,13.55-10.47,21.71-13.36c6.49-2.3,12.99-4.6,19.48-6.9c0.4-0.14,0.91-0.37,1.2-0.05
		s-0.64,0.57-0.39,0.22c0.23-2.93,0.55-5.51,1.19-8.37c-0.02,0.38-0.03,0.75-0.05,1.13c-18.15-5.2-36.81-11.81-54.96-17.01
		c-1.33-0.38-2.69-0.78-3.77-1.64c-3.24-2.58-2.34-7.87,0.07-11.24c0.4-0.55,0.92-1.14,1.6-1.14S134.85,447.41,134.27,447.77z"/>
	<path class="st6" d="M323.3,320.18c3.61,1.89,6.53,5.07,8.1,8.84c-6.05-0.9-12.11-1.79-18.16-2.69c1.23,3.48,2.76,6.86,4.56,10.09
		c-4.52-0.19-9.05-0.39-13.57-0.58c1.28,2,2.55,4,3.83,6c-2.64-0.09-5.47,0.73-7.08,2.83c-0.91,1.19-1.35,2.67-1.83,4.1
		c-3.79,11.26-11.36,20.78-18.8,30.04c-1.17,1.46-2.38,2.96-3.96,3.96c-1.24,0.79-2.67,1.25-3.87,2.09c-4,2.81-4.11,8.79-2.54,13.42
		c1.59,4.68,4.56,8.98,8.72,11.65c4.16,2.67,9.56,3.56,14.19,1.83c-8.15,5.39-12.56,15.89-10.71,25.48
		c-5.02-2.68-12.31-3.27-17.81-4.7c3.81-4.44,3.63-13.96-1.88-15.92c-12.85-4.56-21.53-18.64-27.33-30.97
		c-5.8-12.33-7.44-26.83-3.24-39.8c0.13-0.39,0.22-0.9-0.1-1.14c-0.33-0.24-0.76,0.5-0.35,0.51c-1.22-1.16-2.27-2.6-3.92-2.94
		c-1.65-0.34-3.38-2.12-2.4-3.49c-4.56,0.58-7.34,5.34-8.49,9.79c-2.15,8.35-1.05,17.13-0.44,25.72c0.61,8.59,0.63,17.65-3.38,25.28
		c0.19-3.2,0.06-6.41-0.39-9.58c-0.45,0.56-0.9,1.11-1.35,1.67c-2.23-6.31-6.38-11.14-10.65-16.29
		c-9.45-11.39-13.05-27.39-9.38-41.73c1.55-6.04,4.44-11.94,9.27-15.89c4.83-3.95,11.82-5.59,17.51-3.03
		c-3.89,1.64-6.59,5.77-6.54,9.99c1.25-0.66,2.5-1.32,3.75-1.98c-1.62,3.76-2.34,7.89-2.09,11.98c4.31-1.66,8.91-3.13,13.48-2.49
		c4.58,0.64,9.08,3.99,9.59,8.59c3.84-3.49,6.87-8.07,10.31-11.95c6.6-7.44,15.92-12.4,25.77-13.71c-0.79,0.07-1.58,0.14-2.36,0.21
		C286.41,310.37,307.87,312.12,323.3,320.18z"/>
	<path class="st6" d="M319.67,362.2c-0.68-0.12-1.44-0.23-2.02,0.14c-0.48,0.3-0.72,0.85-0.95,1.37
		c-2.18,5.08-4.36,10.16-6.54,15.24c-0.95,2.21-1.9,4.77-0.85,6.94c0.98,2.02,3.33,2.9,5.05,4.35c2.37,1.99,3.55,5.3,2.99,8.34
		c-0.47,2.54-2.02,4.74-2.84,7.19c-2.69,8.05,3.54,17.03,11.54,19.87c1.97,0.7,4.13,1.18,5.63,2.64c-4.83-1.1-9.65-2.2-14.48-3.3
		c-7.99-1.82-16.62-3.59-24.14-0.35c-5.99,2.57-10.49,8.33-11.55,14.76c-3.63-3.06-2.48-8.76-3.08-13.47
		c-0.71-5.53-4.18-10.27-7.63-14.64c-3.46-4.37-7.13-8.88-8.36-14.32c-1.23-5.44,0.87-12.1,6.08-14.06
		c6.95-2.62,14.6,4.13,21.78,2.24c2.51-0.66,4.63-2.32,6.58-4.04c5.74-5.07,10.69-11.04,14.61-17.62c2.07-3.47,3.65-8.44,0.62-11.13
		c4.6,4.78,10.57,8.22,17.02,9.8c-4-4.19-7.1-9.23-9.02-14.69c3.58,4.79,11.28,11.22,17.31,13.91
		C328.8,366.89,323.64,362.89,319.67,362.2z"/>
	<path class="st6" d="M216.81,420.39c-3.6,3.09-7.26,6.26-9.71,10.33c-2.45,4.06-3.53,9.25-1.63,13.6c0.84,1.92,2.2,3.56,3.48,5.22
		c6.28,8.11,11.2,17.28,14.48,27c0.47,1.4,1.19,3.05,2.65,3.23c1.13-4.22,2.26-8.44,3.38-12.67c0.81-3.02,1.66-6.14,3.58-8.61
		c2.87-3.69,8.09-5.36,12.57-4.03c2.52,0.75,4.94-0.92,7.57-0.83c4.85,0.15,8.47,4.26,12.12,7.46c6.15,5.42,13.96,8.93,22.09,9.96
		c0.9,2.28,2.43,4.3,4.38,5.78c0.82-5.17-0.88-10.67-4.47-14.48c-1.93-2.05-4.35-3.61-6.14-5.78c-3.19-3.85-4.11-9.23-7.45-12.94
		c-2.77-3.08-6.84-4.6-10.75-5.96c-10.89-3.78-21.94-7.11-33.1-10c-3.78-0.98-7.9-2.12-10.18-5.29c-0.51-0.71-0.92-1.51-1.62-2.02
		C217.37,419.84,217.47,419.83,216.81,420.39z"/>
	<path class="st6" d="M229.22,471.31c1.57-6.02,3.76-12.6,9.2-15.63c3.42-1.91,7.52-2.02,11.43-2.03c3.88-0.01,8.53,0.46,10.33,3.9
		c-2.42,0.16-4.28,2.44-4.68,4.83c-0.4,2.39,0.34,4.82,1.27,7.05c7.06,16.94,24.49,27.56,32.75,43.95
		c3.19,6.33,5.21,13.76,10.9,17.99c4.54,3.37,10.49,3.97,16.12,4.46c13.96,1.2,27.91,2.41,41.87,3.61
		c12.21,1.05,25.04,2.01,36.2-3.06c5.94-2.7,11.42-7.1,17.94-7.46c3.55-0.19,7.03,0.85,10.41,1.94c9.13,2.92,18.14,6.18,27.03,9.78
		c-2.21,2.72,0.89,7.59,4.29,6.73c0.09,2.55-1.84,4.82-4.13,5.91s-4.91,1.27-7.46,1.42c-11.06,0.65-22.13,1.3-33.19,1.95
		c-4.4,0.26-8.94,0.5-13.07-1.02c-2.01-0.74-3.88-1.88-5.98-2.3c-1.88-0.38-3.82-0.17-5.72,0.04c-33.81,3.67-67.83,5.41-101.83,5.2
		c-4.77-0.03-9.64-0.12-14.3-1.04c-3.49-0.69-3.63-5.63-0.19-6.55c5.82-1.56,13-1.03,18.28-4.23c0.99-0.6,1.77-1.55,1.98-2.69
		c0.36-1.92-1.06-2.97-2.35-3.88c-12.86-9.09-24.66-19.67-35.09-31.47c-15.37,14.29-22.56,31.45-28.47,51.07
		c-1.33,4.41-3.63,6.51-5.08,0.82c-1.26-4.92-0.04-11.33,0.23-16.37c0.62-11.66,1.79-23.3,3.53-34.85
		C223.34,496.55,225.94,483.84,229.22,471.31z"/>
	<path class="st6" d="M346.8,469c-0.11-1.02,0.46-2.05,1.42-2.41c1.08-0.41,1.68,0.25,2.16,0.89c2.22,2.99,3.35,6.77,3.13,10.49
		c-0.08,1.31-0.31,2.64-0.05,3.93c0.26,1.29,1.2,2.56,2.5,2.69c0.45-1.13,1.2-2.14,2.16-2.88c1.13,2.62-1.26,5.95,1.88,8.23
		c0.65,0.47,1.43,0.77,2.23,0.85c2.5,0.24,4.7-1.21,6.3-3.01c0.51-0.57,1-1.21,1.72-1.47c0.89-0.33,1.87,0,2.76,0.33
		c4.1,1.52,8.2,3.04,12.29,4.56c1.95,0.72,4.06,1.46,6.07,0.9c2-0.56,3.57-3.04,2.42-4.78c5.3,0.22,10.58,0.72,15.83,1.49
		c3.13,0.46,6.19-1.21,7.49-4.09l0.07-0.17c0.25-0.56,0.52-1.14,1.01-1.5c0.42-0.31,0.95-0.42,1.47-0.51
		c9.69-1.59,20.04,5.02,22.67,14.48c0.19,0.68,0.29,1.55-0.28,1.97c-0.56,0.42-1.46,0.13-1.99,0.59c-0.49,0.42-0.37,1.21-0.64,1.8
		c-0.43,0.95-2.42,3.29-3.36,2.85c-4.5-2.08-8.69-1.52-12.57-2.08c-4.95-0.71-6.72-2.05-8.52-2.33c-4.01-0.62-6.93-0.72-11.86-2.39
		c-1.66-0.56-3.43-0.72-5.15-0.4c-0.91,0.17-1.75,0.27-2.67,0.64c-2.63,1.05-6.9,1.29-9.53,0.24c-4.2-1.69-5.9-4.01-9.87-4.53
		c-2.96-0.39-6.12,0.75-9.08,1.1c-4.63,0.55-17.67-0.23-21.07-4.23C342.13,486,347.24,473.25,346.8,469z"/>
	<path class="st6" d="M461.99,494.93c0.5,0.34-0.07,1.05-0.36,1.57c-0.42,0.77-0.14,1.72,0.15,2.54c1.97,5.6,3.95,11.19,5.92,16.79
		c0.07,0.2,0.15,0.42,0.3,0.57c0.25,0.25,0.64,0.29,0.99,0.31c4.83,0.26,9.69,0.07,14.49-0.58c0.75-0.1,1.53-0.21,2.26,0.01
		c1.84,0.57,2.39,2.86,3.59,4.38c0.71,0.9,1.71,1.56,2.82,1.86c0.99,0.27,2.05,0.25,3.03,0.56s1.93,1.13,1.9,2.15
		c-0.02,0.83-0.7,1.53-1.46,1.84c-0.77,0.31-1.62,0.31-2.45,0.31c-15.13-0.12-30.25-1.35-45.38-0.84c-0.86,0.03-1.77,0.05-2.53-0.37
		c-0.75-0.42-1.23-1.46-0.74-2.18c0.71-0.33,1.43-0.65,2.14-0.98c1.27-0.58,2.76-1.57,2.49-2.94c-0.21-1.04-1.38-1.57-2.43-1.69
		s-2.16,0.02-3.13-0.39c-0.54-5.77-1.07-11.55-1.61-17.32c-0.02-0.2-0.04-0.4,0.04-0.59c0.1-0.25,0.34-0.41,0.57-0.56
		c0.91-0.58,1.82-1.16,2.73-1.74c0.44-0.28,0.95-0.56,1.44-0.41c0.4,0.13,0.68,0.54,1.09,0.65c1.09,0.29,1.8-1.54,2.64-1.99
		c0.82-0.44,1.48-0.3,2.37-0.34c1.49-0.06,2.98-0.2,4.47-0.31C458.21,495.21,461.31,494.47,461.99,494.93z"/>
	<path class="st6" d="M283.6,260.56c16.71,17.75,33.51,35.57,52.64,50.67c4.96,3.91,10.11,7.66,15.89,10.22
		c5.77,2.56,12.25,3.86,18.46,2.7c4.33-0.81,7.66-0.6,12.06-0.41c26.74,1.2,53.47,2.6,80.19,4.19c4.39,0.26,9.91-0.13,11.58-4.21
		c0.6-1.46,0.81-3.46,2.33-3.87c0.63-0.17,1.3,0.03,1.92,0.23c7.17,2.31,14.15,5.23,20.82,8.73c3.31,1.73,5.17,2.62,8,5.05
		c1.58-0.54,0.68-2.93-0.46-4.16c-4.22-4.52-8.43-9.03-12.65-13.55c-1.26-1.35-2.57-2.74-4.24-3.53c-2.9-1.38-6.3-0.73-9.51-0.84
		c-3.37-0.12-6.72-1.1-10.07-0.72c-4.7,0.54-8.64,3.66-12.97,5.59c-8.38,3.73-17.98,2.89-27.11,1.98
		c-14.95-1.49-29.91-2.98-44.86-4.47c-10.94-1.09-22.15-2.25-32.05-7.03c-8.26-3.98-15.15-10.26-21.91-16.44
		c-9.1-8.32-18.2-16.65-27.3-24.97c-5.52-5.05-11.12-10.16-17.77-13.6c-1.41-0.73-3.31-1.31-4.42-0.18
		c-1.23,1.24-0.36,3.29,0.32,4.89C283.17,258.44,285.32,260.27,283.6,260.56z"/>
	<path class="st6" d="M550.92,310.92c-1.76,1.38-4.26,1.08-6.45,0.62c-7.27-1.53-15.46-3.58-22.19-6.6
		c2.52-3.06,9.49,0.19,12.52,1.06C536.83,306.58,549.71,311.86,550.92,310.92z"/>
	<polygon class="st6" points="559.6,275.54 552,307.46 550.17,306.68 558.06,263.71 635.37,251.78 638.31,258.87 603.19,413.73 
		588.33,482.66 587.04,485.37 581.38,487.68 591.45,452.22 522.28,423.3 546.28,312.57 551.56,312.57 529.92,411.93 590.54,435.3 
		628.18,270.47 625.59,268.27 	"/>
	<polygon class="st6" points="558.02,508.38 580.3,521 580.3,523.66 630.63,521.89 636.72,520.9 642.5,517.25 646.15,511.7 
		647.46,505.6 645.84,494.78 611.69,388.04 603.8,415.72 614.92,455.85 620.83,477.65 622.56,490.92 621.8,497.5 618.64,501.92 
		614.54,505.39 604.43,506.97 	"/>
	<path class="st24" d="M634.27,452.03c-0.05,0-0.11,0-0.16,0"/>
	<path class="st6" d="M634.19,453.76c0.25,0.5-0.89-0.03-0.46-0.39c0.43-0.36,1.07-0.05,1.62,0c7.42,0.67,13.38,6.11,19,11
		c37.72,32.86,87.48,52.87,137.45,50.61c21.8-0.98,44.02-4.02,65.72-1.7c1.32,0.14,2.84,0.43,3.49,1.59
		c-9.06-0.81-18.26-0.18-27.36-0.43c-0.23-0.01-0.42-1.13-0.47-0.91c-0.05,0.22,0.45,0.2,0.3,0.03
		c-25.81,2.14-51.83,4.38-77.52,1.14c-4.04-0.51-8.07-1.14-12.03-2.06c-6.52-1.51-12.83-3.78-19.12-6.04
		c-10.5-3.78-20.76-8.58-30.79-13.52c-4.82-2.38-9.61-4.86-14.14-7.75c-2.83-1.8-5.56-3.76-8.29-5.71
		c-5.18-3.71-10.36-7.42-15.4-11.3c-3.45-2.66-6.84-5.4-9.96-8.43c-1.73-1.68-3.48-3.52-5.77-4.29c-2.48-0.84-5.27-0.31-7.73-1.19"
		/>
	<polygon class="st1" points="559.6,275.54 555.18,297.32 621.81,298.37 628.18,270.47 627.16,268.27 	"/>
	<g>
		<path class="st25" d="M591.24,377.93c-1.22,1.3-3.05,2.38-4.73,1.78c-1.53-0.55-2.32-2.35-2.19-3.97c0.14-1.62,1-3.08,1.93-4.42
			c0.92-1.34,1.94-2.65,2.47-4.18c0.64-1.88,0.37-4.22-1.17-5.48c-1.51-1.23-3.92-1.23-5.05-2.82c-0.59-0.83-0.68-1.92-0.6-2.93
			c0.18-2.3,1.29-4.55,3.02-6.08c1.29-1.14,4.59-1.41,4.8-3.27c-0.07-0.07-0.79-0.34-0.77-0.16c-0.06-0.54-0.12-1.09-0.18-1.63
			c-1.36-0.15-2.64,0.61-3.98,0.83c-1.35,0.22-3.12-0.57-2.95-1.93c0.1-0.77,0.79-1.3,1.35-1.84c0.56-0.54,1.07-1.36,0.71-2.05
			c-0.23-0.44-0.8-0.8-0.66-1.28c0.07-0.26,0.33-0.41,0.57-0.52c1.11-0.49,2.4-0.56,3.55-0.19c-0.51-0.55,0.26-1.38,0.96-1.64
			c0.71-0.26,1.62-0.64,1.55-1.39c-0.96-0.01-1.72-1.13-1.39-2.02c0.07-0.18,0.18-0.36,0.35-0.45c0.44-0.24,0.95,0.2,1.19,0.64
			s0.44,0.99,0.91,1.15c0.49-0.58-0.23-1.43-0.15-2.19c0.13-1.3,2.12-1.18,3.13-2.01c1.14-0.95,1.1-3.26,2.57-3.39
			c-0.1-1.75,0.28-3.52,1.07-5.08c-1.5-3.17-3.58-5.97-6.44-8.06c-7.54-5.49-18.58-4.11-26.11,1.37c-0.18,0.13-0.36,0.28-0.54,0.42
			c0.18,1.96-0.47,4.48-0.72,6.23c-0.31,2.09,0.98,4.86,3.04,4.44c0.28,1.35-0.89,2.52-1.85,3.51c-0.96,1-1.82,2.58-0.95,3.66
			c0.76,0.95,2.54,0.94,2.87,2.12c0.44,1.58-2.17,2.11-3.01,3.52c-0.79,1.32,0.27,3.01,1.55,3.87c1.28,0.85,2.84,1.35,3.79,2.55
			c1.54,1.94,0.83,4.77,0.05,7.12c-2.36,7.11-4.72,14.23-7.08,21.34c-0.24,0.72-0.87,1.61-1.53,1.24
			c-2.24-4.17,2.39-10.47-1.16-13.6c-0.7-0.62-1.64-0.97-2.24-1.68c-1.49-1.77-0.2-4.42,1.12-6.33c1.31-1.9,2.63-4.54,1.17-6.33
			c-1.1-1.35-3.42-1.57-3.96-3.23c-0.49-1.49,0.86-3.28,0.01-4.59c-0.4-0.61-1.14-0.88-1.76-1.26c-1.22-0.76-1.89-2.46-2.01-4.33
			c-0.57,1.49-1.09,2.99-1.55,4.51c-4.43,14.47-4.24,32.1,3.31,45.65c7.86,14.1,26.29,11.93,35.67,0.92
			c4.79-5.62,7.52-12.71,9.3-19.87c0.12-0.48,0.22-0.97,0.33-1.45c-0.99,1.47-1.77,3.12-2.43,4.75
			C594.98,371.4,593.83,375.17,591.24,377.93z"/>
		<path class="st25" d="M596.98,340.91c-0.51,0.29-0.91,0.88-0.76,1.45c0.16,0.57,0.81,0.94,0.82,1.53
			c0.01,0.73-1.08,1.02-1.65,0.58c-0.58-0.44-0.72-1.24-0.77-1.96c-0.68,0.12-1.32,0.43-1.83,0.9c0.77,0.3,0.59,1.49,0.03,2.1
			c-0.56,0.61-1.37,1.07-1.59,1.86c0.55,0.09,1.09,0.18,1.64,0.27c0.62,1.16,2.23,1.14,3.54,1.25c1.65,0.13,3.35,0.88,4.38,2.1
			c0.36-3.79,0.47-7.59,0.35-11.4c-0.78,0.4-1.62,0.7-2.48,0.87C598.1,340.56,597.49,340.62,596.98,340.91z"/>
		<path class="st12" d="M553.77,337.71c0.62,0.39,1.36,0.65,1.76,1.26c0.85,1.32-0.5,3.1-0.01,4.59c0.54,1.65,2.86,1.88,3.96,3.23
			c1.46,1.79,0.14,4.43-1.17,6.33c-1.32,1.9-2.61,4.56-1.12,6.33c0.61,0.72,1.54,1.06,2.24,1.68c3.55,3.13-1.08,9.43,1.16,13.6
			c0.66,0.37,1.29-0.52,1.53-1.24c2.36-7.11,4.72-14.23,7.08-21.34c0.78-2.35,1.49-5.18-0.05-7.12c-0.95-1.2-2.52-1.7-3.79-2.55
			c-1.28-0.85-2.33-2.55-1.55-3.87c0.84-1.41,3.45-1.94,3.01-3.52c-0.33-1.18-2.1-1.17-2.87-2.12c-0.87-1.08-0.01-2.67,0.95-3.66
			c0.96-1,2.14-2.16,1.85-3.51c-2.07,0.42-3.35-2.35-3.04-4.44c0.26-1.75,0.9-4.28,0.72-6.23c-5.96,4.55-9.97,11.17-12.69,18.24
			C551.89,335.25,552.55,336.95,553.77,337.71z"/>
		<path class="st12" d="M597.54,321.41c-0.79,1.56-1.18,3.33-1.07,5.08c-1.47,0.14-1.43,2.45-2.57,3.39c-1,0.83-2.99,0.72-3.13,2.01
			c-0.08,0.75,0.64,1.61,0.15,2.19c-0.48-0.16-0.68-0.71-0.91-1.15s-0.75-0.88-1.19-0.64c-0.17,0.09-0.28,0.27-0.35,0.45
			c-0.33,0.9,0.43,2.01,1.39,2.02c0.08,0.75-0.84,1.13-1.55,1.39c-0.71,0.26-1.47,1.09-0.96,1.64c-1.15-0.38-2.44-0.31-3.55,0.19
			c-0.24,0.11-0.5,0.26-0.57,0.52c-0.14,0.48,0.43,0.84,0.66,1.28c0.36,0.69-0.15,1.51-0.71,2.05c-0.56,0.54-1.25,1.07-1.35,1.84
			c-0.17,1.35,1.6,2.15,2.95,1.93c1.35-0.22,2.63-0.98,3.98-0.83c0.06,0.54,0.12,1.09,0.18,1.63c-0.02-0.17,0.7,0.09,0.77,0.16
			c-0.21,1.86-3.51,2.12-4.8,3.27c-1.72,1.53-2.83,3.78-3.02,6.08c-0.08,1.02,0.01,2.1,0.6,2.93c1.13,1.59,3.54,1.58,5.05,2.82
			c1.54,1.26,1.82,3.6,1.17,5.48c-0.53,1.54-1.55,2.85-2.47,4.18c-0.92,1.34-1.79,2.8-1.93,4.42c-0.14,1.62,0.65,3.42,2.19,3.97
			c1.68,0.6,3.51-0.48,4.73-1.78c2.59-2.76,3.74-6.53,5.15-10.05c0.65-1.63,1.44-3.28,2.43-4.75c0.93-4,1.6-8.07,1.98-12.16
			c-1.03-1.22-2.73-1.97-4.38-2.1c-1.31-0.1-2.92-0.09-3.54-1.25c-0.55-0.09-1.09-0.18-1.64-0.27c0.22-0.8,1.03-1.25,1.59-1.86
			c0.56-0.61,0.74-1.8-0.03-2.1c0.51-0.46,1.15-0.78,1.83-0.9c0.04,0.72,0.19,1.52,0.77,1.96c0.58,0.44,1.66,0.15,1.65-0.58
			c0-0.59-0.66-0.97-0.82-1.53c-0.16-0.57,0.24-1.16,0.76-1.45c0.51-0.29,1.11-0.35,1.69-0.46c0.86-0.17,1.7-0.47,2.48-0.87
			c-0.03-0.91-0.06-1.82-0.11-2.73C600.73,331.61,599.77,326.1,597.54,321.41z"/>
	</g>
	<path class="st1" d="M540.58,394.59c-0.36-1.05-0.25-2.26,0.28-3.23c0.3-0.55,0.92-1.08,1.5-0.83c0.21,0.09,0.37,0.27,0.51,0.46
		c0.51,0.69,0.85,1.55,0.73,2.4c-0.12,0.85-0.77,1.65-1.62,1.77c-0.85,0.12-1.76-0.64-1.66-1.49"/>
	<path class="st26" d="M561.11,417.2c-0.22-0.94-0.18-1.94,0.12-2.86c0.23-0.7,0.75-1.44,1.48-1.42c0.8,0.02,1.28,0.92,1.35,1.72
		c0.07,0.71-0.06,1.44-0.35,2.08c-0.15,0.33-0.35,0.64-0.64,0.85c-0.75,0.53-1.98,0.02-2.13-0.88"/>
	<path class="st27" d="M538.81,405c0.22-0.25,0.48-0.47,0.79-0.57c0.31-0.1,0.69-0.06,0.93,0.17c0.33,0.31,0.33,0.83,0.29,1.28
		c-0.05,0.58-0.12,1.16-0.27,1.72c-0.27,0.97-1.38,1.76-2.23,0.87C537.48,407.6,538.14,405.77,538.81,405z"/>
	<path class="st21" d="M567.39,398.29c0.38,0.96,0.03,3.31-1.47,3.75c-0.9,0.26-1.35-0.33-1.63-1c-0.33-0.81-0.29-1.86,0.25-2.61
		C565.13,397.62,566.78,396.78,567.39,398.29z"/>
	<path class="st6" d="M556.3,397.97c0.93,0.23,1.94,0.44,2.84,0.11c-0.14-0.71-0.95-1.04-1.65-1.26c-1.79-0.55-3.57-1.09-5.36-1.64
		c-1.14-0.35-3.18-1.37-4.3-1.12C548.16,396.47,554.32,397.97,556.3,397.97z"/>
	<path class="st6" d="M553.51,413.15c0.33,0.08,0.73,0.15,0.99-0.08c0.28-0.24,0.23-0.72,0-1s-0.59-0.44-0.94-0.57
		c-1.95-0.78-3.89-1.55-5.84-2.33c-1.04-0.42-2.34-1.48-2.26-0.07C545.59,411.65,551.78,412.72,553.51,413.15z"/>
	<path class="st6" d="M585.33,405.96c0.43,0.08,1.02,0.06,1.11-0.36c0.05-0.22-0.08-0.44-0.23-0.62c-0.78-0.95-2.02-1.37-3.2-1.74
		c-2.27-0.7-4.56-1.34-6.87-1.92c-1.34-0.34-3.38-1.33-2.32,0.58C575.48,404.85,582.42,405.39,585.33,405.96z"/>
	<path class="st6" d="M576.68,420.79c1.12,0.4,2.27,0.8,3.46,0.8c0.32,0,0.71-0.08,0.8-0.39c0.1-0.34-0.27-0.63-0.59-0.78
		c-1.19-0.58-2.48-0.94-3.71-1.46c-1.47-0.61-2.84-1.44-4.3-2.07c-1.12-0.48-6.76-1.9-4.19,0.49
		C570.17,419.28,574.16,419.9,576.68,420.79z"/>
	<polygon class="st6" points="375.16,460.06 529.15,460.06 543.62,466.46 	"/>
	<polyline class="st6" points="593.27,460.06 832.31,460.06 591.68,467.13 593.27,460.06 	"/>
</g>
<g id="Stroke">
	<path class="st40" d="M192.62,569.85c-2.69-24.11-5.32-48.32-4.6-72.56c-6.06-0.31-12.16,0.02-18.15,0.99
		c-7.54,1.22-15.77,3.82-19.89,10.25c2.54,2.41-0.96,8.24-4.71,5.05c-0.94-0.8-1.54-1.96-1.65-3.19c-0.21-2.36,1.01-4.54,2.46-6.37
		c3.4-4.29,8.16-7.29,13.06-9.76c9.21-4.64,20.05-6.59,30.28-7.85c-0.81-3.29-0.11-5.73-0.1-9.12
		c-12.93-2.6-44.32-12.44-56.87-16.19c-2.92-0.87-5.07-3.5-5.18-6.54c0-0.05,0-0.1,0-0.15c-0.12-4.96,4.84-8.48,9.58-6.99
		c12.4,3.92,43.49,14.33,56.35,17.1c2.21,0.48,4.08,1.99,4.9,4.09c0.92,2.35,0.91,4.95,0.89,7.48l-0.1,10.54
		c2.1,1.36,2.73,1.77,4.83,3.12c7.54-3.51,15.14-7.06,22.66-10.55c1.73-6.19,4.21-11.88,5.94-18.06c0.56-2.01,1.25-4.19,3.01-5.31
		c1.05-0.67,2.34-0.85,3.58-0.99c4.81-0.55,9.67-0.76,14.51-0.64c0.94,0.02,1.91,0.06,2.79,0.4c1.08,0.41,1.95,1.23,2.81,2.02
		c6.43,5.88,13.9,10.64,21.94,13.98c1.62,0.67,3.35,1.3,5.11,0.72c0.87-0.29,1.61-0.94,1.9-1.81c0.63-1.93-1.09-3.5-2.64-4.58
		c-8.03-5.6-19.68-18.37-20.39-17.76c-1-0.26-1.89,0.05-1.39,0.95c0.43,0.77,1.45,0.92,2.33,1.03c9.5,1.25,16.82,8.82,25.65,12.54
		c0.94,0.4,1.97,0.8,2.51,1.67c0.38,0.61,0.45,1.35,0.52,2.06l0.56,6.09c0.08,0.86,0.02,1.75-0.27,2.56
		c-1.14,3.16-4.23,2.49-5.69,0.77c-1.01-1.18-1.44-2.74-1.83-4.24"/>
	<path class="st40" d="M286.37,458.32c-1.81-4.6-3.61-9.2-5.42-13.8c-0.26-0.66-0.54-1.35-1.07-1.82c-0.53-0.48-1.39-0.66-1.95-0.23
		c4.8,6.4,9.6,12.8,14.4,19.2c-1.56-6.3-3.64-12.46-6.22-18.41c-0.5-1.15-1.03-2.3-1.86-3.23c-1.17-1.29-2.82-2-4.42-2.67
		c-2.54-1.07-5.08-2.15-7.62-3.22c-3.46,0.45-6.53-1.11-9.8-2.34c-8.85-3.33-17.74-6.55-26.57-9.92
		c-8.38-3.2-17.08-6.08-24.64-10.98c-1.49-0.97-2.93-2.01-4.37-3.04c-18.95-13.69-38.58-25.51-54.41-42.72
		c-8.87-9.65-16.34-20.49-23.7-31.34c-0.69-1.02-1.81-1.65-3.03-1.73c-8.24-0.52-17.07-0.58-23.98,3.14
		c-1.06,0.57-0.45,2.2,0.72,1.88c8.31-2.25,16.33-5.56,23.81-9.82c1.32-0.75,1.32-2.68-0.02-3.38c-6.55-3.43-13.89-5.35-21.28-5.57
		c-2.51-0.07-5.64,0.51-6.31,2.92c-0.16,3.87,14.49-0.78,21.65,0.28c2.56,0.38,5.39,0.82,7.57-0.59c1.45-0.94,2-3.09,1.45-4.58
		c-0.59-1.62-0.62-3.38,0.2-4.9c1.5-2.78,2.94-5.59,4.33-8.43c5.97-12.18,27.07-32.48,53.16-64.02
		c0.29-0.35,35.09-53.12,10.58-67.94c-14.09-8.52-30.64-10.44-46.85,4.08c-12.67,11.35-88.05,125.77-92.34,169.42
		c-0.18,1.88-0.34,3.83,0.28,5.62c0.74,2.14,2.48,3.75,4.16,5.27c13.4,12.09,88.85,61.02,136.21,82.49
		c6.82-4.86,8.57-9.66,14.61-15.46c1.05-1.01,2.13-2.1,2.55-3.5c0.42-1.4-0.07-3.19-1.43-3.72c-6.75,7.91-5.87,12.92-11.17,21.86
		c-0.29,0.49-1.3,6.2,4.1,10.67c5.89,4.88,6.26,13.03,11.02,19.02c2.94,3.7,5.02,8.77,5.34,13.49c0.65-0.11,1.7-1.32,2.31-1.07
		c1.02-3.89,2.21-7.57,3.23-11.46c0.11-0.41,0.22-0.84,0.19-1.26c-0.03-0.49-0.25-0.94-0.44-1.38c-1.6-3.68-2.1-7.82-1.42-11.78
		c-0.48-0.95-2.24-1.17-3.3-1.24c-5.13-0.36-4.48-0.58-9.63-0.63c-0.44,0.43,0.35,1.02,0.96,1.12c8.13,1.31,16.88,1.84,25.12,2.05"
		/>
	<path class="st40" d="M226.36,479.2c-6.59,30.1-9.36,59.78-8.03,90.57c-0.3,0.68-1.4,0.55-1.82-0.05
		c-0.42-0.61-0.36-1.42-0.29-2.15c2.96-28.31,7.87-56.42,14.68-84.07l0,0c1.54-1.56,4.07-1.55,5.6,0.03
		c4.94,5.11,8.28,11.75,12.11,17.84c11.48,18.29,28.23,32.67,45.71,45.35c6.15,4.47,14.66,1.92,22.26,1.97
		c21.03,0.15,42.06,0.3,63.08,0.45c4.11-8.77,1.39-19.56-2.76-28.31c-0.33-0.7-1.2-1.5-1.72-0.93c-0.19,0.2-0.22,0.51-0.22,0.78
		c-0.12,4.92,2.63,9.39,5.07,13.66c2.44,4.28,4.73,9.16,3.61,13.95c5.13,3.42,11.97,0.82,17.44-2.04s10.41-6.92,16.37-8.51
		c5.73,3.41,11.46,6.82,17.2,10.23c1.9,1.13,4,2.3,6.22,1.63c1.23-0.37,2.2-1.42,2.24-2.7c0.04-1.47-1.03-2.16-2.04-2.77
		c-6.15-3.71-12.51-7.08-19.03-10.09c7.71,2.91,15.48,5.14,23.19,8.05c1.21,0.46,2.47,0.92,3.75,0.8c0.15-0.01,0.29-0.04,0.44-0.07
		c1.62-0.36,1.98-2.52,0.63-3.5c-8.14-5.93-18.02-9.1-27.67-12.16c7.72,2.7,15.96,4.4,23.65,7.18c2.53,0.91,5.1,1.86,7.17,3.57
		c2.07,1.71,3.55,4.38,3.14,7.03c-0.43,2.73-2.77,4.84-5.36,5.8c-2.59,0.96-5.42,0.96-8.18,0.96c-12.27-0.01-24.55-0.24-36.82-0.03
		c-6.55,0.11-8.44-1.57-10.11-3.08"/>
	<path class="st40" d="M308.38,222.49c-2.55-1.54-18.82-26.72-19.42-29.63c-0.1-0.47-3.58-15.36,1-10.15
		c3.31,3.77,27.36,28.36,35.52,14.84c2.09-3.46,7.85-7.83,8.47-8.12c7.07-3.33,1.07-7.2-1.15-8.51c-7.63-4.53-9.18-10.21-11.74-9.89
		c-0.53-0.04-1.05,0.84,0.32,3.05c3.16,5.1,12.97,8.71,18.93,9.12c0.67,0.05,1.44,0.06,1.91-0.43c0.37-0.38,0.43-0.95,0.48-1.48
		c0.34-3.95,2.05-5.05,4.16-8.9c3.16,1.6,7.2,2.47,10.7,2.94c1.74,0.23,3.95,0.06,4.61-1.56c0.2-0.49,0.21-1.04,0.19-1.57
		c-0.08-1.8-0.49-3.56-0.69-5.35c-0.47-4.27,0.32-8.68,2.24-12.52c-0.27-1.13-0.98-1.94-2.07-1.57s-1.89,1.31-2.63,2.2
		c-1.89,2.29-3.77,4.59-5.66,6.88c-0.41,0.5-0.85,1.02-1.44,1.3c-0.56,0.26-1.19,0.27-1.8,0.24c-2.59-0.11-5.16-0.79-7.48-1.97
		c-0.67-0.34-0.5-1.33-0.42-2.13c0.08-0.79,0.27-1.57,0.59-2.3c2.11-4.82,4.71-9.42,7.75-13.72c-5.38-1.75-7.59-2.74-10.9-4.27
		c-7.12-3.28-8.84-3.46-17.29-7.78c-2.66,0.13-6.2-0.7-6.97,1.17c-0.64,1.56-1.58,1.31-2.16,1.19c-0.93-0.19-0.79-1.77,0.16-1.84
		c5.07-0.4,25.31,10.1,33.2,14.05c-0.38,0.77-5.64,8.62-6.01,9.39c-0.45,0.95-0.9,1.98-0.73,3.02c0.16,1.04,1.19,2.01,2.2,1.7
		c0.37-0.11,0.68-0.38,0.96-0.65c0.83-0.81,1.15-1.22,1.64-2.27c3.02-5.94,3.29-6.35,6.96-11.11c0.25-0.33,0.52-0.66,0.88-0.87
		c0.47-0.27,1.05-0.29,1.59-0.31c2.18-0.05,4.54-0.04,6.27,1.28c1.8,1.38,2.81,4.1,5.07,4.32c0.97,0.09,1.91-0.34,2.84-0.63
		c2.17-0.69,4.56-0.66,6.72,0.09c0.58,0.2,1.21,0.53,1.35,1.13c0.11,0.45-0.1,0.9-0.31,1.31c-2.22,4.3-5.32,8.16-9.04,11.25
		c-1.06,0.88-2.61,1.72-3.72,0.9c0.28-3.98,0.85-8.09,2.96-11.48c2.12-3.38,7.53-4.13,11.42-3.28c-8-3.05-16.73-5.63-13.73-1.79
		c4.05,4.68,8.47-22.69,8.28-31.68c-13.91,16.73-60.01,17.42-72.32,12.31c-0.83-1.59-1.59-3.41-2.96-4.57
		c-2.56-2.17-6.57-2.14-9.38-0.32s-4.44,5.17-4.65,8.51c-0.21,3.35,0.87,6.68,2.56,9.58c1.2,2.06,1.26,4.39,1.73,6.73
		c0.22,1.11,1.08,2.56,2.08,2.02c0.32-0.17,0.51-0.51,0.67-0.84c0.34-0.7,0.64-1.48,0.48-2.24c-0.16-0.76-0.97-1.43-1.7-1.17
		c-0.53,0.19-0.81,0.75-1.02,1.27c-1.92,4.66-2.28,9.8-2.61,14.83c-0.99,14.88-1.02,47.88,3.07,62.22c0.28,0.97,0.65,2.02,1.53,2.5
		c1.5-0.81,0.44-4.13-1.27-4.02c-51.71,3.46-65.19-43.17-75.99-50.94c-9.63-6.93-33.78-7.42-33.78-7.42
		c-6.6,0.6-11.77,2.35-17.13,6.25c-0.25,0.18-0.51,0.39-0.59,0.69c-0.12,0.49,0.36,0.96,0.85,1.02c0.5,0.07,0.98-0.15,1.43-0.37
		c4.65-2.25,15.31-8.97,16.8-10.02c0,0,53.67-34.36,76.5-78.55c12.52-24.25,40.49-36.22,61.03-35.15
		c20.54,1.08,40.28,12.47,51.48,29.73c4.06,6.25,7.02,13.14,9.53,20.15c1.42,3.96,1.92,8.11,2,12.32
		c0.21,11.14-5.38,20.17-9.59,20.11"/>
	<path class="st40" d="M308.19,222.22c18.96,23.59,41.03,44.68,65.47,62.54c0.15,5.46-1.95,11-5.56,15.11
		c-0.51-3.16,1.96-5.99,4.47-7.98s5.42-3.9,6.41-6.95c1.59,6.8,0.69,14.15-2.5,20.36c-1.28-2.36,0.45-5.16,2.1-7.27
		c2.33-2.98,4.66-5.96,6.99-8.95c0.47-0.6,1.05-1.25,1.81-1.23c0.54,0.02,1,0.38,1.45,0.7c3.88,2.71,9.09,1.95,13.81,1.63
		c5.72-0.38,11.46,0.08,17.18,0.54c19.1,1.53,38.19,3.06,57.29,4.59c0.3,5.81,0.53,10.85-0.29,16.61
		c-0.82,5.76-2.85,11.49-6.7,15.85c-1.37-5.13,0.97-10.45,3.26-15.24c2.83-5.94,5.66-11.87,8.48-17.81
		c11.43,1.97,29.7-0.63,32.3-0.13c2.27,0.44,4.46,1.21,6.65,1.97c10.4,3.63,20.8,7.27,31.2,10.9c1.43,0.5,2.13,2.06,1.44,3.41
		c-0.69,1.35-2.25,2.07-3.76,2.16c-1.51,0.09-3-0.34-4.45-0.76l-22.91-6.71c-1.27-0.37-3.34-0.33-4.59,0.1
		c-5.71,1.95-10.97,5.22-15.24,9.48c2.96,3.36,6.44,6.6,10.14,9.13c-0.54,1.2-1.87,2.31-3.06,1.74c-0.62-0.3-0.9-1.04-0.75-1.71
		c0.25-1.09,1.18-1.71,2.07-2.25c2.03-1.21,4.19-2.24,6.04-3.72s3.42-3.48,3.75-5.82c0.23-1.65-0.19-3.38-1.15-4.74
		c-0.4-0.56-1.48-0.9-1.57-0.23c2.97,3.88,5.72,7.94,8.23,12.13c0.7,1.16,1.39,2.55,0.91,3.81c-0.35,0.91-1.22,1.48-2.05,1.99
		c-5.79,3.53-11.99,6.38-18.44,8.47c-0.05-0.94-1.26-1.39-2.11-1.8c-6.19-2.97-12.38-5.93-18.57-8.9
		c-5.52-2.64-10.65-3.82-16.74-4.34c-0.44-0.04-0.94-0.05-1.27,0.24c-0.29,0.26-0.36,0.68-0.41,1.07c-0.33,2.4-0.65,4.8-0.98,7.19
		c-34.24-1.31-68.35-2.27-102.59-3.57c-7.66,1.45-16.19-3.58-22.25-8.48c-21.68-17.54-41.98-36.79-60.64-57.51
		c-1.73-1.92-2.77-6.23,1.57-6.42c0.14-0.01,0.29,0.02,0.41,0.09c1.2,0.72,1.17,2.45,0.99,3.84c-0.93,6.95-1.96,14.02-0.89,20.95
		c0.84,5.43,2.96,10.68,2.92,16.17c-0.04,6.04-2.88,12.01-7.55,15.86c-1.29,0.86-1.37,2.6-1.5,4.15c-0.13,1.55-0.16,3.22-1.1,4.46
		s-4.59,1.55-3.89,0.16c0.62-1.23,5.85-2.11,9.01-1.79c7.3,0.75,16.62-3.14,38.82,5.25c9.47,3.58,16.94,11.02,21.73,17.91
		c1.53,2.19,2.95,4.49,4.89,6.33c1.93,1.84,4.49,3.22,7.15,3.08c-3.19-0.91-3.72-2.68-5.32-5.59
		c-5.93-10.83-15.71-19.36-26.96-24.46c-12.89-5.85-27.61-7.3-41.55-5.13c-14.68,2.28-28.12,9.91-37.33,21.58
		c-2.79,3.54-5.18,7.41-6.47,11.59c-4.32-4.68-8.69-9.58-14.56-5.31c-2.48,1.81-3.99,4.62-4.58,7.63
		c-1.38,6.95-1.96,23.58-0.7,30.26c2.32,12.25,0.19,16.53-7.22,26.56c2.23-0.42,3.81-2.6,4.18-4.84c0.37-2.24-0.23-4.52-0.96-6.67
		c-3.49-10.27-16.45-20.1-19.87-30.39c-3.47-10.47-3.51-22.04-0.1-32.53c1.88-5.78,4.85-11.41,10.31-14.64
		c17.48-10.31,28.07,8.21,36.53,12.72c1.75,0.94,4.01,1.58,5.64,0.43c-2.17-2.38-5.02-4.13-8.13-4.98
		c-5.92,4.39-10.35,10.76-12.41,17.84c6.27,2.24,3.78,1.35,10.05,3.6c2.3-5.14,4.95-10.13,7.93-14.91
		c-5.62,3.64-9.45,9.93-11.35,16.35c-4.15,14.02-1.2,29.52,5.92,42.28c7.12,12.76,17.59,23.33,29.64,31.61
		c1.77,1.14,3.15,6.18,1.38,9.25c-0.2,0.35-0.58,0.59-0.97,0.7c-1.49,0.42-1.74,0.2-1.69-1.02c0.11-2.63,13.49-12.82,11.93-15.62
		c2.18,0.22,4.36,0.44,6.54,0.66c1.79,0.18,3.62,0.36,5.37-0.05s3.45-1.51,4.08-3.2c0.72-1.92-0.08-4.05-0.85-5.95
		c-0.84-2.07-1.66-4.15-2.46-6.24c1.36,0.03,2.52,1.12,3.05,2.38s0.56,2.66,0.58,4.02c0.02,1.26,0.02,2.59-0.55,3.71
		c-1,1.96-3.43,2.72-5.63,2.75c-4.3,0.04-8.45-2.05-11.45-5.14c-2.99-3.09-4.91-7.08-6.09-11.22c-0.93-3.25-1.43-6.83,1.9-9.77
		c1.64-1.45,3.77-2.29,5.95-2.32c4.53-0.05,11.41,4.29,11.63,2.89c0,0,17.36-8.88,22.39-23.33c0.44-1.26,1.48-2.24,1.82-3.53
		c0.64-2.45-0.27-5.01-1.17-7.38c4.79,5.09,10.94,8.22,17.66,10.14c-1.84-2.46-4.15-4.52-6.1-6.9c-1.95-2.37-3.57-5.2-3.65-8.27
		c0.93,0.63,1.53,1.64,2.18,2.56c3.46,4.86,9.43,7.8,15.39,7.59c-3.22-3.01-6.16-6.3-7.47-10.51c3.01,1.96,6.02,3.92,9.03,5.88
		c1.06,0.69,2.18,1.4,3.44,1.49c-1.73-2.47-3.45-4.93-5.18-7.4c-0.88-1.26-1.8-2.77-1.3-4.22c3.43,1.51,6.62,3.58,9.41,6.09
		c1.16,1.05,2.35,2.46,2.02,3.99c-1.58-0.43-3.13-0.84-3.73-2.36c0.42,1.69,0.56,3.46,0.4,5.19c-0.14,1.5-0.6,2.97-0.7,4.48
		c-0.68,10.58,3.61,16.89,5.21,18.17c1.59,1.27,3.39,2.28,4.92,3.63c0.41,0.36,0.82,0.78,0.88,1.31c0.04,0.39-0.11,0.77-0.26,1.12
		c-0.86,2-4.82,5.59-4.79,5.77c0.39,2.37,4.07,5.17,5.44,7.15c0.15,0.22,0.31,0.44,0.33,0.71c0.04,0.47-0.38,0.85-0.76,1.13
		c-3.55,2.62-7.61,4.62-10.58,7.88c-1.04,1.14-2.3,2.56-3.8,2.2c-0.2-0.68,0.55-1.24,1.18-1.55c3.14-1.58,5.92-3.06,9.06-4.63
		c1.38,0.61,1.89,2.28,2.23,3.76c0.11,0.47,0.22,0.96,0.15,1.44c-0.25,1.64-2.29,2.18-3.55,3.26c-1.71,1.45-1.98,3.96-1.92,6.2
		c0.06,2.24,0.12,4.64-0.85,6.65c-0.75,1.54-2.22,2.64-3.82,3.26s-3.32,0.83-5.03,0.99c-5.7,0.55-20.53-3.08-26.25-3.29
		c-0.78-0.03-1.79-0.26-1.87-1.04c-0.06-0.54,0.42-0.99,0.9-1.24c0.61-0.31,1.37-0.45,1.97-0.13c0.81,0.42,0.92,1.47,0.38,2.2
		c-2.8,3.73-0.16,12.47,0.99,16.98c1.14,4.47,14.5,17.94,16.17,20.54c0.77,1.2,1.3,2.56,1.54,3.96c0.24,1.39,0.2,2.84,0.88,4.12
		c0.47,0.88,1.3,1.46,2.29,1.57c2.69,0.32,2.7-2.6,1.61-2.27c-5.55,1.68-28.97,1.11-39.65-7.39c-1.34,1.36-2.01,3.79-1.39,5.59
		c0.62,1.81,3.1,4.46,3.14,6.37c0.04,1.91-0.12,3.84-3.3,3.8c-1.01-0.01-1.32-0.34-2.54-0.53c3.03,4.77,5.27,6.12,7.02,11.25
		c0.44,1.3,0.73,2.64,0.94,3.99c0.53,3.36,1.57,7.53,4.58,9.66c0.92,0.65,2.11,1.26,2.22,2.37c0.11,1.08-0.9,2.08-0.66,3.13
		c0.2,0.85,1.09,1.3,1.81,1.79c0.72,0.49,1.48,1.19,1.07,1.96c-1.81,3.39-3.3,8.9-5.04,12.74c-0.74,1.63-3.2,0.54-2.53-1.11
		c2.38-5.84,4.66-6.2,8.41-7.97c0.6-0.28,1.25,0.22,1.14,0.87c-0.51,2.88,0.01,6.88-0.87,9.52c-0.48,1.45-2.72,0.9-2.44-0.6
		c0.31-1.63,1.46-3.35,2.2-4.8c0.89-1.75,2.19-3.34,3.93-4.24c2.61-1.36,5.75-0.98,8.67-0.57c19.16,2.72,36.74,5.54,55.9,8.26
		c8.89-1.92,17.78-3.84,26.67-5.77c1.84-0.4,3.7-0.8,5.58-0.91c1.79-0.1,3.59,0.05,5.38,0.15c9.8,0.54,19.69-0.69,29.41,0.66
		c1.42,0.2,3.16,0.76,3.19,2.28c0.02,0.84-0.57,1.58-1.33,1.92c-0.9,0.4-1.72,0.82-2.69,0.95c-8.88,1.13-19.27,2.73-26.59,0.61
		c-2.93-0.85-2.07-4.01,2.05-1.71c6.36,3.55,13.87,4.47,20.94,6.21c2.86,0.7,5.76,1.36,8.46,2.53c0.85,0.37,1.78,0.89,1.52,2.15
		c-0.29,1.39-1.71,2.2-3.09,1.87c-0.82-0.2-1.66-0.51-2.19-0.78"/>
	<path class="st40" d="M32.9,468.57c-5.74,5.95-9.75,10.57-14.58,15.26c-1.61,1.56-3.31,4.01-1.95,5.79
		c1.86-0.47,3.16-2.1,4.31-3.64c19.8-26.53,35.6-55.78,51.33-84.91c5.4-10,13.44-25.46,17.78-35.97c0.29-0.71,0.44-1.33,0.02-1.97
		s-1.35-0.96-2.01-0.55c-0.47,0.29-0.69,0.84-0.86,1.36c-0.68,2.13-0.04,8.51-0.49,8.72"/>
	<path class="st40" d="M550.17,306.68c-0.68-0.95-2.19-1.32-3.07-0.55s-0.4,2.6,0.78,2.62c1.2,0.02,1.74-1.48,1.94-2.66
		c2.36-14.13,5.88-28.25,8.24-42.38c24.94-4.35,51.6-8.65,76.72-11.85c0.2-0.03,0.39-0.05,0.59-0.08c0.27-0.71,1.43-0.08,1.84,0.56
		c0.82,1.27,1.31,2.74,1.41,4.25c0.2,2.98-15.47,72.13-29.38,133.19l-0.08,0.21c-1.26,5.44-2.47,8.57-3.42,13.33
		c-0.31,1.54-0.91,4.04,0.21,4.4c1.28,0.4,1.93-4.18,2-4.45c1.64-6.68,2.1-8.54,3.74-15.22c9.32,38.77,28.77,74.56,35.52,113.86
		c0.56,3.28,0.19,6.72-1.05,9.81c-1.7,4.2-5.13,7.76-9.43,9.2c-2.31,0.77-4.78,0.92-7.21,1.06c-25.57,1.45-51.18,2.02-76.79,1.69
		c-0.67-0.01-1.39-0.01-1.95,0.36c-0.56,0.37-0.83,1.25-0.35,1.72c0.57,0.55,1.61-0.01,1.79-0.78c0.18-0.77-0.63-1.49-0.99-2.2
		c0.17,0.05,0.35,0.1,0.52,0.14c-2.83-1.92-5.65-3.84-8.48-5.76c-3.76-2.55-7.52-5.1-10.96-8.08c-0.59-0.51-1.24-1-2-1.19
		c-0.07-0.02-0.15-0.03-0.23-0.02c-0.29,0.01-0.57,0.31-0.47,0.58c0.11,0.29,0.52,0.29,0.82,0.24c0.83-0.13,1.48-0.2,2.32-0.21
		c29.91-0.04,55.42-0.01,77.72-2.23c6.26-0.63,11.63-6.29,12.01-12.57c0.53-8.62-1.81-17.1-4.12-25.4
		c-5.06-18.17-10.12-36.35-15.18-54.52c-0.37-1.31-0.57-3.05,0.61-3.73c0.98,1.61,0.11,3.18-0.31,5.02
		c-8.35,36.68-14.95,65.73-15.16,67.64c-0.35,3.26-3.69,4.66-6.95,5.02c1.66-0.89,2.89-4.1,3.35-5.92
		c1.5-5.86,47.69-212.33,49.06-218.22c0.37-1.61,0.72-3.59,0.66-5.24c-0.03-0.79-0.09-1.6-0.48-2.29c-0.38-0.69-1.17-1.22-1.94-1.06
		c-0.77,0.15-1.27,0.89-1.66,1.57c-2.99,5.18-4.92,10.97-5.63,16.91c-0.03,0.22-0.04,0.46,0.09,0.63c0.29,0.37,0.89,0.03,1.19-0.33
		c0.87-1.06,1.46-2.36,1.69-3.71c0.09-0.52,0.09-1.14-0.3-1.5c-0.36-0.33-0.91-0.3-1.4-0.25c-1.94,0.22-64.52,6.81-66.42,7.28
		c-0.75,4.25-29.16,133.18-30.31,137.34c-0.33,1.18-0.39,1.03-0.08,2.22c0.78,0.44,1.47-0.72,1.63-1.61
		c5.48-30.44,10.95-60.88,16.43-91.32c0.48-2.67,0.93-5.55-0.25-7.99c-6.05,26.18-12.1,52.36-18.15,78.54
		c-4.62,19.99-9.24,40-12.46,60.26c2.26,1.88,5.16,2.91,7.73,4.33c19.07,10.55,38.17,19.81,57.24,30.36"/>
	<path class="st40" d="M547.27,519.86c2.55,1.37,4.63,1.93,78.94-0.79c1.2-0.04,2.5-0.29,3.69-0.39c2.85-0.24,5.74-0.8,8.21-2.24
		c2.56-1.49,4.81-5.22,5.03-8.17c0.24-3.24,0.27-6.49-0.11-9.72c-1.07-9.21-5.11-17.79-7.79-26.66c-1.34-4.42-3.62-11.63-5.14-15.99
		c-6.05-17.39-11.19-35.14-18.15-52.19c-0.62-1.51-1.17-3.45-0.01-4.6c1.13,1.64,1.42,3.7,1.73,5.67c0.85,5.47,2.03,10.88,3.56,16.2
		c0.98,3.43,2.11,6.81,3.23,10.2c0.94,2.82,1.87,5.64,2.81,8.46c1.63,4.9,3.26,9.8,4.88,14.69c0.11,0.32,0.23,0.66,0.5,0.86
		c0.25,0.18,0.57,0.22,0.87,0.24c2.47,0.16,4.96-0.11,7.43,0.1c2.18,0.19,5.29,1.57,6.93,3.02c30.86,27.36,68.31,48.54,108.91,55.67
		c39.3,6.9,79.9-3.83,119.43,1.5c0.25,0.03,0.49,0.11,0.72,0.22c1.63,0.78,0.33,3.27-1.3,2.49c-10.53-5.02-19.32-7.68-29.02-7.75
		c-33.47-0.23-61.79,6.64-94.4-0.87c-31.51-7.26-59.04-18.82-89.51-43.47c-7.81-6.32-12.31-14.84-25.68-14.31"/>
	<path class="st40" d="M628.18,270.5c-1.36,4.45-35.62,157.17-37.32,165.11c-22.24-8.4-43.09-17.78-63.25-25.05
		c-0.55,3.35-2.43,11.63-2.84,14c22.01,8.66,44.68,19,66.68,27.66"/>
	<path class="st40" d="M550.26,524.49c-1.74-1.17-3.48-2.34-5.21-3.51c-2.18-1.47-4.37-2.94-6.55-4.41
		c-3.81-2.56-7.62-5.13-11.43-7.69c-2.74,0.23-24.83,0.51-34.96,0.99c-0.47,0.02-0.69-0.6-0.36-0.93c0.01-0.01,0.02-0.02,0.03-0.03
		c0.64-0.66,1.76-0.45,2.09,0.41c1.15,2.96,2.07,6.57,2.74,9.37c0.46,1.9,0.76,4.06-0.37,5.66c-0.94,1.33-2.63,1.88-4.23,2.15
		c-1.5,0.25-3.11,0.29-4.47-0.4c-1.41-0.72-2.36-2.21-2.52-3.78c-0.17-1.57,0.42-3.18,1.48-4.36c2.19-2.44,6.68-2.82,8.48,0.62
		c0.56,1.06,0.64,2.36,0.18,3.47c-1.23,2.92-4.92,3-7.3,1.5c-2.02-1.28-3.31-3.4-4.54-5.45c-10.42,0.33-20.62,1.2-30.89,3.02
		c-0.77-0.71-0.63-2.15,0.25-2.71c0.51-0.33,1.15-0.36,1.76-0.38c9.22-0.36,18.41-1.26,27.52-2.69c0.04-0.41-4.69-14.21-7.09-19.83
		c4.62-0.71,7.86-0.44,11.31,1.37c4.59,2.42,6.38,7.15,4.97,10.12c-0.87-2.37-1.74-4.74-2.61-7.11c-0.89-2.41-1.98-5.06-4.31-6.14
		c-1.51-0.7-3.25-0.59-4.91-0.47c-7.45,0.55-14.89,1.1-22.34,1.66c-1.78-0.39-2.29-2.57-2.89-4.29c-1.05-3-2.1-6.01-3.14-9.01
		c-0.24-0.7-0.5-1.42-1.03-1.95c-0.49-0.49-1.15-0.75-1.81-0.97c-5.44-1.8-11.51-1.39-16.71-3.8c-2.21-1.02-4.43-2.58-6.83-2.19
		c-1.45,0.23-2.68,1.15-3.85,2.04c-2.64,2.01-5.28,4.01-7.92,6.02c-3.28,2.49-7.28,0.4-11.37-0.15c-2.03-0.27-4.41-0.62-5.83,0.86
		c-0.39,0.41-0.66,0.91-0.9,1.42c-1.9,4.01-2.48,8.62-1.63,12.97c0.55,0.32,1.28-0.06,1.58-0.62c0.3-0.56,0.29-1.22,0.28-1.86
		c-0.01-2.22,0.18-4.44,0.58-6.63c0.3-1.63,0.75-3.32,1.88-4.54c0.86-0.93,2.04-1.49,3.22-1.96c2.94-1.15,6.08-1.8,9.24-1.89
		c-0.29-0.26-0.57-0.52-0.86-0.78c-3.27-2.97-7.1-3.7-11.13-5.52c-1.77-0.79-3.69-1.74-4.43-3.54c-2.71,1.2-5.71-0.59-8.26-2.09
		c-3.87-2.27-8.03-4.03-12.36-5.22c-0.82,3.79-2,7.16-2.98,10.91c-0.94,3.61-1.98,7.25-3.83,10.49c-1.42,2.49-3.29,4.69-5.31,6.72
		c-0.31,0.31-0.63,0.64-0.71,1.07c-0.19,1.03,1.28,1.69,2.21,1.21c0.93-0.48,1.36-1.55,1.7-2.54c3.37-9.75,5.49-19.92,6.29-30.2
		c0.84-0.92-0.36-3-1.53-3.42c-1.18-0.42-2.48-0.17-3.72-0.33c-2.9-0.36-5.05-2.79-6.75-5.17c-3.38-4.72-7.73-9.04-10.65-14.06
		c-1.19-2.04-3.54-4.54-5.47-5.89c-1.93-1.36-5.13-0.97-7.89-1.39"/>
	<path class="st40" d="M475.6,516.05c-0.69-2.72-1.61-5.37-2.53-8.02c-1.4-4.02-2.8-8.05-4.2-12.07c-3.34-0.15-6.7,0.05-10,0.59
		c0.93,5.55,2.49,10.99,4.64,16.19c0.13,0.32,0.26,0.72,0.04,0.99c-0.15,0.19-0.42,0.24-0.66,0.27c-3.19,0.46-6.38,0.92-9.57,1.37
		c-0.8-6.06-1.59-12.13-2.39-18.19c-0.6-4.57-2.76-9.01-3.95-13.46c1.29,3.71,2.11,7.59,2.43,11.5c0.08,0.96-0.17,2.27-1.13,2.29
		c-0.71,0.01-1.15-0.75-1.42-1.41c-1.39-3.29-2.79-6.58-4.18-9.88c-0.39-0.92-0.8-1.87-1.56-2.51c-0.62-0.53-1.4-0.8-2.17-1.06
		c-1.95-0.67-3.9-1.33-5.84-2c6.56,3.01,10.48,10.9,8.91,17.95c-0.2,0.89-0.91,1.99-1.75,1.62c-0.31-0.14-0.5-0.46-0.67-0.76
		c-1.59-2.82-3.04-5.73-4.33-8.71c-0.44-1.01-0.88-2.06-1.72-2.77c-0.88-0.74-2.06-1-3.19-1.23c-3.16-0.65-6.31-1.3-9.47-1.94
		c0.17,6.64,5.27,12.84,11.75,14.28c1.33,0.3,2.77,0.44,3.85,1.26c1.09,0.82,1.54,2.67,0.46,3.51c-1.22,0.95-2.9-0.18-4.32-0.8
		c-3.19-1.4-7.06-0.01-10.3-1.28c-1.16-0.45-2.18-1.23-3.36-1.63c-2.03-0.69-4.26-0.2-6.4-0.33c-2.94-0.17-5.68-1.48-8.5-2.33
		c-2.82-0.85-6.08-1.19-8.54,0.43c-3.61,2.37-8.65,0.64-12.49-1.33c-1.46-0.75-2.74-1.84-4.24-2.51c-4.85-2.14-10.37,0.7-15.67,0.76
		c-2.16,0.02-4.29-0.42-6.4-0.86c-2.73-0.57-5.46-1.14-8.18-1.71c-1.36-0.28-1.48-1.55-2.78-2.05c-0.24-0.09-0.5-0.2-0.64-0.42
		c-0.13-0.2-0.13-0.45-0.12-0.69c0.11-7.03,0.22-14.06,0.32-21.09c0.01-0.85,0.12-1.87,0.87-2.28c0.87,0.55,1.17,1.66,1.33,2.68
		c0.71,4.42,0.12,8.94-0.47,13.38c-1.3,9.8-2.6,19.6-3.9,29.4c-0.25,1.91-0.43,2.42-1.16,4.21c-0.37,0.11-0.78,0.04-1.1-0.17
		c2.41-7.37,4.97-14.69,7.67-21.95"/>
	<path class="st40" d="M339.17,362.68c0.68,1.77-0.29,3.81-1.72,5.05c-1.43,1.24-3.26,1.91-4.96,2.76c-3.74,1.87-7.01,4.77-9,8.44
		c4.44-2.82,8.79-5.77,13.06-8.85c-0.97,0.05-1.83,0.64-2.6,1.23c-0.9,0.69-1.84,1.54-1.97,2.67s1.09,2.37,2.08,1.81
		c0.24-0.45,0.46-0.97,0.33-1.47c-0.13-0.5-0.75-0.88-1.17-0.59"/>
	<path class="st40" d="M349.63,389.83c-1.16,0.92-2.47,1.65-3.87,2.14c-0.71,0.25-1.48,0.43-2.2,0.23c-1.01-0.28-1.7-1.3-1.84-2.35
		s0.17-2.1,0.6-3.06c0.62-1.37,1.49-2.63,2.56-3.69"/>
	<path class="st40" d="M342.28,135.66c5.92-0.94,11.74,1.8,17.66,2.74c0.74,0.12,1.54,0.2,2.19-0.17c1.06-0.59,1.23-2.03,1.24-3.24"
		/>
	<path class="st40" d="M368.36,142.83c0.33-1.11,0.29-2.04-0.25-2.55c-0.54-0.51-1.27-0.88-1.53-1.58c-0.24-0.64,0-1.35,0.24-1.98
		c0.1-0.27,0.22-0.56,0.44-0.75c0.23-0.18,0.61-0.21,0.79,0.02c0.1,0.13,0.12,0.3,0.12,0.47c0.03,0.91-0.12,1.83-0.46,2.68"/>
	<path class="st40" d="M346.85,172.39c-0.85-0.44-2.06-1.17-2.54-1.99c-0.51-0.88-0.22-1.84,0.16-2.72c0.38-0.88,1.6-1.35,2.36-0.77
		c0.52,0.4,0.31,0.98-0.04,1.53c-0.35,0.55-0.84,1.02-1.06,1.63C345.4,170.93,346.1,171.86,346.85,172.39z"/>
</g>
</svg>
