<?xml version="1.0" encoding="utf-8"?>
<!-- Generator: Adobe Illustrator 24.1.0, SVG Export Plug-In . SVG Version: 6.00 Build 0)  -->
<svg version="1.0" xmlns="http://www.w3.org/2000/svg" xmlns:xlink="http://www.w3.org/1999/xlink" x="0px" y="0px"
	 viewBox="0 0 900 600" style="enable-background:new 0 0 900 600;" xml:space="preserve">
<style type="text/css">
	.st0{display:none;}
	.st1{display:inline;}
	.st2{fill:#D53119;}
	.st3{fill:#DF862C;}
	.st4{fill:#DFCF33;}
	.st5{fill:#018AC7;}
	.st6{fill:#028AC8;}
	.st7{fill:#5B4085;}
	.st8{fill:#E6E6E6;}
	.st9{fill:#EACE62;}
	.st10{fill:#D1E8B2;}
	.st11{fill:#B0E1B7;}
	.st12{fill:#DCE9B0;}
	.st13{fill:#FBD000;}
	.st14{fill:#D3E5C0;}
	.st15{fill:#9691C1;}
	.st16{fill:#EE7F00;}
	.st17{fill:#DE151C;}
	.st18{fill:#CCECF9;}
	.st19{fill:#898989;}
	.st20{fill:#F8D32B;}
	.st21{fill:#94C23B;}
	.st22{fill:none;stroke:#000000;stroke-width:0.9;stroke-linecap:round;stroke-miterlimit:10;}
	.st23{fill:none;stroke:#000000;stroke-width:0.9;stroke-linecap:round;stroke-linejoin:round;stroke-miterlimit:10;}
	.st24{fill:none;stroke:#000000;stroke-width:0.872;stroke-linecap:round;stroke-linejoin:round;stroke-miterlimit:10;}
</style>
<g id="Images" class="st0">
</g>
<g id="Shading">
	<path class="st8" d="M245.26,300.43c-2.7-2.43-6.61-2.84-10.24-3.12c-5.65-0.43-11.5-0.89-16.44-3.66s-8.67-8.57-7.17-14.03
		c1.34-4.86,6.31-8.14,7.37-13.07c0.58-2.71-0.01-5.88,1.78-8c2.08-2.46,5.93-1.92,9.03-2.82c7.37-2.15,9.35-12.05,15.76-16.27
		c2.71-1.79,6.75-4.61,4.66-7.09c-1.44-1.71-4.18-0.61-6.13,0.48c-5.6,3.13-11.77,5.25-18.11,6.23c-2.1,0.33-4.32,0.51-6.28-0.3
		c-8.7-3.64-2.83-20.61-11.56-24.2c3.04-0.61,6.08-1.21,9.12-1.82c-9.83-4.97-18.96-11.31-27.04-18.79
		c2.23,0.68,4.61,0.82,6.91,0.42c-7.6-2.38-12.08-11.07-11.16-18.98c0.92-7.91,6.31-14.77,12.96-19.16
		c-2.57-1.05-5.66-0.71-7.94,0.87c1.36-1.62,2.72-3.23,4.08-4.85c-3.8,0.38-7.52,1.51-10.88,3.31c1.14-2,2.28-4,3.42-6
		c-8.77,4.64-16.33,11.53-21.78,19.83c-0.82-1.26-1.64-2.52-2.45-3.77c-2.42,4.82-5.72,9.2-9.7,12.85c-0.05-1.35-0.1-2.69-0.14-4.04
		c-1.54,6.16-5.63,11.64-11.1,14.87c2.48-0.94,4.95-1.88,7.43-2.83c-8.24,7.27-12.87,18.45-12.18,29.42
		c0.83-4.21,2.28-8.3,4.29-12.09c-3.22,16.1-0.3,33.35,8.03,47.49c4.3,7.29,10.1,14.08,11.53,22.42
		c-8.79,4.76-17.57,9.52-26.36,14.28c-10.37,5.62-20.78,11.26-30.33,18.18c-8.04,5.83-15.4,12.52-22.75,19.19
		c-7.68,6.98-15.36,13.95-23.03,20.93c-15.92,14.46-32.48,29.89-39.09,50.35c-3.5,10.84-3.47,23.96,4.32,32.26
		c8.21,8.74,21.72,9.15,33.71,8.96c35.72-0.58,71.44-1.15,107.16-1.73c6.34-0.1,16.49,1.61,22.74-0.37
		c1.01-0.32,1.13-4.46,2.08-4.87c2.41-1.05,2.52-0.66,4.39-2.46c7.69-7.38,7.46-9.94,8.17-23.26c0.13-2.4-1.26-5.1-3.28-6.39
		c-1.06-0.68-2.42-0.73-3.67-0.53c-5.36,0.86-9.06,5.68-13.76,8.4s-12.82,1.4-12.78-4.02c0.02-2.73,1.48-6.81-1.22-7.23
		c-0.68-0.11-1.36,0.18-1.99,0.45c-29.92,12.96-63.55,13.39-96.16,13.62c-4.38,0.03-9.52-0.31-11.95-3.96
		c-2.93-4.39,0.18-10.31,3.88-14.08c9.83-10,23.83-14.95,37.74-16.75c3.24-0.42,6.73-0.78,9.22-2.89s3.06-6.74,0.23-8.36
		c-2.13-1.22-5.21-0.29-6.95-2.02c-2.13-2.12-0.13-5.68,1.9-7.9c17.49-19.12,37.69-35.76,59.8-49.28c4.12-2.52,8.66-5.01,13.46-4.54
		c4.22,0.41,7.84,3.04,11.46,5.25c16.43,10.01,37.33,12.34,55.56,6.21c1.43-0.48,2.25-1.22,1.49-2.42
		C248.78,309.09,247.15,302.13,245.26,300.43z"/>
	<path class="st8" d="M223.9,409.06c2.56-1.73,5.82,1.55,8.22,3.49c7.35,5.93,16.59,10.66,25.92,9.2
		c-5.87-3.64-11.74-7.28-17.61-10.91c-4.97-3.08-10.27-6.57-12.18-12.09c-0.24-0.71-0.4-1.56,0.06-2.15
		c0.63-0.8,1.89-0.54,2.82-0.15c8.06,3.43,13.09,11.48,20.14,16.69c5.12,3.78,11.36,6.03,17.71,6.37c0.46,0.03,0.97,0.02,1.32-0.28
		c0.89-0.77-0.23-2.13-1.24-2.74c-13.5-8.04-26.19-17.43-37.82-27.99c-0.78-0.71-1.62-1.45-2.66-1.58c-0.7-0.08-1.39,0.13-2.04,0.38
		c-5.07,1.99-8.44,6.7-12.21,10.62c-4.44,4.63-9.73,7.11-14.78,10.82c-3.77,2.77-5.49,6.81-1.48,10.24
		c3.21,2.75,7.32,5.64,11.06,4.05C214.5,420.77,219.43,412.08,223.9,409.06z"/>
	<path class="st8" d="M387.58,388.27c-5.52,8.7-14.47,15.86-24.75,16.59c-3.41,0.24-6.84-0.22-10.22-0.76
		c-9.31-1.47-18.85-3.47-28.07-1.5c-6.5,1.39-13.19,4.72-19.46,2.51c-3.88-1.37-6.73-4.62-9.4-7.75c-0.37-0.43-0.76-0.93-0.74-1.5
		c0.02-0.6,0.47-1.07,0.87-1.52c3.99-4.43,4.73-10.81,5.28-16.75c2.58-27.64,4.97-56.65-6.01-82.14
		c5.64,4.11,8.54,10.94,10.76,17.56c5.45,16.27,8.4,33.37,8.72,50.52c0.12,6.49-0.04,13.36,3.25,18.95
		c4.32,7.34,14.63,10.4,22.25,6.62c2.94-1.46,5.51-3.78,8.71-4.5c7.57-1.71,14.27,6.07,22.03,6.25c7.16,0.16,12.78-6.13,16.03-12.51
		c3.11-6.11,5.16-14.2,10.7-18.64c1.34,3.3-2.01,10.35-3.16,13.75C392.63,378.61,390.5,383.66,387.58,388.27z"/>
	<path class="st8" d="M362.84,322.53c-2.08,1.17-3.55,3.16-4.96,5.09c-3.26,4.5-6.52,9-9.79,13.5c-1.7,2.35-3.49,5.14-2.72,7.93
		c0.34,1.24,1.16,2.29,1.67,3.47c0.96,2.26,0.72,4.82,0.93,7.26c0.22,2.44,1.18,5.15,3.46,6.08c1.26,0.51,2.68,0.37,4.03,0.21
		c5.85-0.67,11.71-1.33,17.56-2c-4.21,4.21-7.75,9.07-10.46,14.36c-0.19,0.37-0.38,0.76-0.35,1.18c0.03,0.49,0.36,0.89,0.67,1.27
		c1.7,2.06,3.4,4.12,5.1,6.18c-0.01-1.42-0.03-2.85-0.04-4.27c0.81,0.22,1.61,0.44,2.42,0.66c-0.76-6.28,0.58-12.8,3.76-18.27
		c1.99,1.14,4.86,0.97,6.21-0.88c1.35-1.85-0.02-5.14-2.3-4.97c-0.59,1.08-1.22,2.22-2.26,2.87c-1.04,0.66-2.63,0.63-3.32-0.39
		c-0.33-0.48-0.4-1.07-0.58-1.62c-1.21-3.74-6.14-4.23-9.77-5.74c-3.75-1.57-6.77-5.14-7.03-9.2s2.68-8.26,6.71-8.83
		c2.91-0.41,5.9,1.07,7.71,3.38c1.81,2.32,2.53,5.36,2.42,8.29c-0.13,3.55-0.99,8.01,2.02,9.89c2-8.58,4-17.16,6-25.74
		c0.54-2.33,2.05-5.3,4.37-4.68c2.48,0.66,3.22,5.17,5.71,4.56c0.72-0.17,1.24-0.77,1.84-1.19c2.46-1.72,5.81-0.41,8.5,0.93
		c-0.3-2.59-0.89-5.61-3.24-6.76c-1.39-0.68-3.07-0.49-4.53-1.02c-2.67-0.97-4.08-4.09-7.1-4.31c-2.13-0.16-3.64,1.38-5.65,1.85
		C374.25,322.95,368.19,319.54,362.84,322.53z"/>
	<path class="st8" d="M632.37,156.37c-5.58-2.01-11.17-4.02-16.75-6.02c2.87,1.97,5.74,3.94,8.61,5.91
		c-8.97-0.86-18.14,0.33-26.59,3.44c4.45,0.09,8.91,0.18,13.36,0.27c-8.22,0.79-15.59,5.45-21.81,10.89
		c-12.04,10.55-21,24.57-25.51,39.93c3.72-6.14,8.02-11.93,12.83-17.27c-8.24,13.64-12.1,29.88-10.88,45.77
		c0.25,3.19-0.1,8.51,2.12,10.81c8.65,8.94,16.69,10.35,19.85,14.67c-1.93,3.03-4.63,6.27-6.56,9.3
		c3.86,4.76,11.14,10.51,16.99,9.93c-0.43-5.4-7.5-11.26-12.51-13.32c7.23-3.75,8.87-15.06,3-20.71c2.84,3.63,6.92,6.28,11.39,7.39
		c-1.75-7.31-3.34-12.25-3.36-19.76c3.34,3.72,7.01,5.96,12.71,9.26c-0.65-3.46-0.62-8.8-1.27-12.26c4,2.02,4.82,2.25,7.13,4.58
		c2.31,2.34,4.78,4.68,6.19,7.64c-0.67-11.56-7.33-21.79-13.77-31.41c2.26,2.15,4.79,4.01,7.51,5.54
		c-3.45-11.4-2.42-24.09,2.84-34.78c0.23,1.66,0.46,3.31,0.69,4.97c2.11-14.61,12.06-27.86,25.51-33.95
		c-2.41-0.83-5.04-1.05-7.56-0.61c2.75-1.46,5.39-3.12,7.89-4.97C639.87,151.16,635.15,152.7,632.37,156.37z"/>
	<path class="st8" d="M600.82,295.09c0.24,1.57,0.86,3.48,2.43,3.71c0.82,0.12,1.62-0.29,2.35-0.7c2.03-1.12,4.05-2.23,6.08-3.35
		c-0.22,2.43-0.43,4.87-0.65,7.3c1.9-0.34,3.94,0.18,5.45,1.39c1.56,2.59,3.12,5.19,4.68,7.78c0.96,1.6,1.94,3.22,3.38,4.42
		c2.78,2.32,6.84,2.58,10.32,1.58c3.48-1.01,4.47-0.2,9.6-2.83c10.2-5.24,23.95-19.21,30.66-31.92
		c-10.54,7.09-21.07,14.18-31.61,21.26c-2.67,1.79-5.67,3.67-8.85,3.22c-3.18-0.45-5.74-4.66-3.51-6.98
		c-2.92-2.49-7.32,3.32-10.76,1.61c-2.63-1.3-2.8-6.29-5.73-6.12c1.72-0.92,3.5-1.9,4.56-3.54s1.07-4.12-0.49-5.27
		c-2.08-1.53-4.93,0.2-6.9,1.87c-2.32,1.97-4.63,3.94-6.95,5.9c-0.4-2.18-2.26-17.54-4.41-16.89
		C598.03,278.27,600.49,292.94,600.82,295.09z"/>
	<path class="st8" d="M656.42,251.64c0.31,1.16,1.02,2.63,2.21,2.41c-0.04-3.72-0.08-7.44-0.13-11.15c-0.01-1.3,0.53-3.11,1.81-2.86
		c0.7,0.14,1.08,0.88,1.36,1.54c0.93,2.21,1.87,4.41,2.8,6.62c1.77-1.9,2.56-4.54,4.29-6.49c1.72-1.95,5.25-2.83,6.72-0.68
		c0.48,0.7,0.63,1.57,1.06,2.29c0.44,0.72,1.42,1.27,2.12,0.79c0.3-0.2,0.47-0.55,0.62-0.88c0.86-1.95,1.36-4.2,0.64-6.21
		s-3.01-3.54-5.02-2.82c-1.31,0.47-2.16,1.7-3.15,2.67c-0.99,0.98-2.5,1.77-3.73,1.13c-0.91-0.48-1.29-1.55-1.94-2.34
		c-1.65-2.01-5.31-1.73-6.64,0.51c0.27-0.46-12.01-8.89-13.13-9.66c-0.96-0.65-5.51-4.53-6.52-3.79c-1.69,1.24,1.93,3.16,2.85,4.04
		C649.59,233.38,653.95,242.45,656.42,251.64z"/>
	<path class="st8" d="M412.45,428.36c-4.18,2.81-10.19,3.34-14.12,0.18c-3.92-3.16-4.17-10.31,0.16-12.88
		c-4.94,6.92-7.42,15.56-6.9,24.04c-5.89-1.65-9.55-8.03-9.6-14.14c-0.05-6.11,2.85-11.89,6.44-16.84c0.6,1.03-1.44,1.87-2.17,0.94
		c-0.74-0.93-0.36-2.29,0.1-3.39c4.79-11.21,15.31-18.74,25.46-25.48c17.92-11.9,36.25-23.19,54.94-33.85
		c-4.47,11-16.03,16.99-26.12,23.26c-10.09,6.27-20.45,15.69-19.71,27.55c9.25,2.02,18.09-4.04,25.94-9.33
		c8.4-5.65,17.16-10.77,26.21-15.3c5.57-2.79,11.37-5.39,17.56-6.11c4.66-0.54,9.38,0.02,14.04,0.56
		c32.51,3.81,65.2,7.26,97.91,6.01c32.71-1.26,65.63-7.39,94.98-21.89c16.42-8.12,31.57-18.77,48.43-25.91
		c16.87-7.15,36.47-10.53,53.39-3.49c1.37,0.57,2.88,1.39,3.21,2.84c0.28,1.23-0.39,2.47-1.17,3.46
		c-6.23,7.99-20.17,9.68-22.21,19.6c-0.47,2.28-0.19,4.78-1.38,6.78c-1.81,3.04,48.92,69.44,45.39,69.64
		c-10.96,0.62-119.52-1.26-120.96-1.17c-29.22,1.87-62.42,1.85-85.96-15.55c-6.02-4.45-11.47-10.1-18.63-12.29
		c-12.62-3.85-25.89,4.49-34.28,14.68c-8.39,10.18-14.12,22.56-23.76,31.56c-0.14-7.67,3.93-15.28,10.4-19.41
		c-5.16,4.35-10.32,8.69-15.49,13.04c1.02-7.03,4.05-13.76,8.65-19.17c-2.62,4.7-7.37,8.14-12.65,9.17
		c9.93-17.54,23.5-30.66,42.06-38.52c-23.29-2.11-46.12-3.74-69.41-5.85c-6.84-0.62-10.71-0.72-17.4-0.34
		c-8.29,0.47-17.63,8.22-24.83,12.36c-17.72,10.2-34.64,16.84-52.35,27.04c2.17-0.96,10.85-4.96,11.62-1.89
		C420.93,421.04,414.4,427.04,412.45,428.36z"/>
	<polygon class="st8" points="753.93,470.38 497.76,523.32 212.39,469.22 277.98,459.89 183.36,471.86 495.13,531.85 	"/>
	<path class="st14" d="M462.67,428.06l-94.77,18.25L214.9,468.8l-2.51,0.41l285.37,54.1l256.17-52.94l-156.46-20.8L462.67,428.06z
		 M303.24,470.28l159.27-30.78c0,0,216.81,33.22,216.3,33.49c-0.51,0.28-178.32,28.89-178.32,28.89L303.24,470.28z"/>
	<polygon class="st15" points="258.15,441.84 276.81,438.95 305.84,449.56 286.11,453.09 	"/>
	<polygon class="st16" points="294.99,437.88 311.5,435.24 342.25,443.78 321.6,448.16 	"/>
	<polygon class="st17" points="426.81,459.91 424.2,473.92 537.9,473.19 535.26,460.48 	"/>
	<polygon class="st18" points="464.36,446.8 461.67,452.45 493.21,453.43 489.83,446.93 	"/>
	<polygon class="st16" points="470.33,480.45 469.86,489.17 505.98,489.47 502.89,480.89 	"/>
	<path class="st19" d="M365.3,382.38c-0.48,1.67,0,2.75,1.01,4.16c0.24,0.33,1.05,1.12,1.43,0.99c0.44-0.15,0.85-1.34,0.82-1.8
		c-0.07-0.98-0.53-1.46-0.61-2.44c1.19,0.31,2.43-0.28,3.04,1.21c0.32,0.79,0.85,1.42,1.27,2.16s1.7,1.05,2.02,0.27
		c0.11-0.28,0.06-0.6-0.01-0.89c-0.21-0.96-0.47-1.91-0.78-2.84c0.92,0.09,2.95,0.53,3.21-0.35c0.79-2.73,2.35-22.51-1.32-21.62
		c-1.85,0.45-12.09,15.37-13.73,18.72C362.87,380.58,364,381.86,365.3,382.38z"/>
	<path class="st19" d="M386.88,443.22c1.5-0.91,3.45-0.51,5.12-1.04c1.88-0.6,3.38-1.94,4.82-3.29c0.78-0.74,2.32-1.16,3.09-0.4
		c0.79,0.78-0.2,2.3,0.46,3.2c0.61,0.83,2.08,0.22,2.36-0.77s-0.22-2.02-0.69-2.94c2.21-1.25,5.11,0.2,7.64,0.07
		c1.9-0.1,3.9-0.71,5.21,0.65c0.93,0.96,1.59,3.3,1.05,4.52c-0.46,1.05-1.91,1.93-2.82,2.63c-1.41,1.1-4.21,1.37-5.99,1.54
		c-5.45,0.53-9.97,1.91-15.38,2.33c-1.33,0.1-5.92,0.29-6.81-0.72C383.5,447.37,385.46,444.08,386.88,443.22z"/>
	<polygon class="st20" points="625.08,448.16 653.83,437.46 670.85,440.15 645.73,451.38 	"/>
	<polygon class="st21" points="681.66,454.47 698.06,457.46 719.35,448.03 702.91,445.77 	"/>
</g>
<g id="Stroke">
	<path class="st23" d="M264.85,398.62c-5.15-3.97-19.37-13.34-18.14-14.97c0.8-1.06,20.92,17.7,30.26,25.66
		c0.61,0.52,1.25,1.08,0.9,2.22c-0.41,1.38-1.97,2.06-3.34,1.62c-14.24-4.56-25.55-13.88-36.23-24.33
		c-0.94-0.92,0.39-2.38,1.37-1.51c0.01,0.01,0.02,0.02,0.03,0.03l31.48,27.48c1.06,0.96,1.7,2.36,1.55,3.79
		c-0.22,2.08-1.8,2.6-3.27,2.77c-5.88,0.69-11.29-2.97-16.08-6.45c-7.85-5.72-15.69-11.43-23.54-17.15
		c-1.17-0.85,0.03-2.61,1.26-1.85c7.95,4.97,18.81,16.62,28.03,24.52c0.38,0.33,0.79,0.69,0.88,1.19c0.21,1.2-1.42,1.79-2.64,1.82
		c-11.14,0.29-19.59-7.7-29.33-13.13c-0.92-0.51-1.89-1.04-2.94-1.01c-1.29,0.03-2.69,0.62-3.38,1.7
		c-4.3,6.67-12.01,15.09-19.42,12.16c-0.89-0.25-0.74-1.26-0.67-1.76c0.11-0.81,1.2-1.28,1.89-0.85c0.69,0.43,0.79,1.45,0.43,2.18
		c-0.35,0.73-1.03,1.24-1.69,1.72l-0.68,0.5c-1.35,0.99-0.61,3.14,1.07,3.07c6.92-0.28,15.29-0.66,21.04-0.82
		c25.99-0.72,124.42,1.54,154.38-2c1.47-0.17,2.87-1.18,2.51-2.18c-0.22-0.6-2.04-1.86-2.72-0.54
		c-9.78,18.71-25.46-15.82-28.77-18.54c-6.16-5.07-8.74-13.2-10.92-20.88c-0.28-0.99-0.6-2.05-1.42-2.67
		c-0.81-0.63-2.27-0.48-2.58,0.5c-0.13,0.42-0.02,0.87,0.12,1.29c0.68,1.96,1.7,3.78,2.94,5.43c5.62,7.47,12.14,16.65,21.74,17.97
		c4.65,0.64,9.38-0.74,13.52-2.95c8.28-4.42,14.53-12.05,18.65-20.48c4.12-8.43,6.28-17.69,7.92-26.93c0.5-2.84,2.57-9.84,3.27-7.84
		c0.9,2.58-5.22,11.88-9.55,16.67c-1.18,1.31-2.91,2.66-4.55,1.79c-0.76-0.4-1.23-1.22-1.35-2.07c-0.22-1.56,0.5-2.95,1.21-4.29
		c3.74-7.11,8.35-14.38,9.8-22.28c0.35-1.92,0.6-3.9,1.41-5.68c1.27-0.13,1.26,1.89,0.7,3.04c-3.92,8.01-8.47,15.72-13.6,23.02
		c-0.53,0.76-1.26,1.38-2.14,1.67c-2.38,0.79-3.65-1.31-3.57-3.14c0.06-1.31,0.65-2.53,1.16-3.74c3.34-7.9,3.69-17.02,0.94-25.15
		c0.18-0.49,0.95-0.47,1.29-0.09c0.35,0.39,0.38,0.95,0.38,1.47c0.02,4.58-1.21,9.06-2.43,13.47c-1.48,5.36-2.96,10.71-4.44,16.07
		c-0.37,1.34-0.77,2.72-1.88,3.64c-0.63,0.52-1.48,0.77-2.27,0.55c-1.71-0.48-1.99-2.62-1.9-4.32c0.19-3.47,0.78-6.94,0.47-10.4
		c-0.37-4.01-2.23-8.19-6.19-9.66c-2.34-0.87-5.04-0.43-6.7,1.43c-2.46,2.76-1.21,6.59,0.8,9.28c0.55,0.73,1.16,1.42,1.94,1.9
		c1.8,1.09,7.98,3.09,10.06,2.75"/>
	<path class="st23" d="M200.13,392.63c-2.82,0.4-5.58,0.94-8.39,1.34c-0.69,0.1-1.43,0.22-1.9,0.72c-0.42,0.44-0.54,1.09-0.62,1.7
		c-1.43,10.94-2.56,18.43-2.54,30.39c0.01,3.04,1.65,2.42,2.07,1.78c0.41-0.64,0.42-1.45,0.39-2.21c-0.3-8.37-2.67-16.55-2.99-24.92
		c-0.13-3.53,0.46-7.69,3.56-9.39c0.61-0.33,1.3-0.56,1.79-1.05c0.76-0.77,0.83-2.02,0.52-3.06c-0.93-3.18-4.58-4.81-7.89-4.88
		c-5.39-0.11-10.41,2.73-15.54,4.15c-4.43,1.23-10.93-0.22-14.47-3.15c-0.23-0.19-0.47-0.38-0.71-0.57
		c-3.61-2.75-8.17-3.83-12.59-4.85c-5.1-1.18-10.2-2.35-15.29-3.53c-6.47-1.49-13.01-3-19.65-2.99c-9.82,0.01-19.3,3.32-28.57,6.58
		c-5.89,2.08-11.79,4.15-17.68,6.23c-1.65,0.58-3.67,2.29-2.54,3.63c4.09,0.42,7.27-3.25,10.12-6.22
		c9.71-10.13,24.29-15.36,38.23-13.73c7.82,0.92,15.29,3.85,23.11,4.79c1.12,0.14,2.29,0.22,3.34-0.19c1.86-0.73,2.81-2.77,3.5-4.64
		c1.5-4.03,2.62-8.19,3.32-12.42c0.34-2.05,0.56-4.13,0.25-6.18c-1.08-7.23-8.27-11.91-15.23-14.16
		c-12.16-3.94-25.31-3.4-38.02-3.36c-7.52,0.03-14.85,2.48-20.75,7.15c-11.99,9.5-22.69,20.62-31.73,32.96
		c-5.31,7.25-10.11,15.06-12.39,23.75c-1.99,7.6-1.97,15.72,0.07,23.31c1.55,5.75,4.38,11.38,9.12,14.99
		c7.54,5.74,17.95,5.23,27.41,4.57c43.5-3,87.15-3.2,130.75-3.4c-0.22-1.84,0.77-3.25,1.44-4.98c6.95-2.19,11.38-9.35,12.5-16.55
		C203.26,407.06,201.69,399.75,200.13,392.63c9.75-5.28,19.67-10.25,29.73-14.9c2.01-0.93,4.09-1.86,6.3-1.87
		c2.18-0.01,4.25,0.87,6.25,1.74l14.99,6.52c2.15,0.93,4.09,2.3,5.64,4.06c1.89,2.13,3.15,4.02,4.39,7.76
		c0.42,1.29,1.21,2.42,2.23,3.31c2.56,2.23,5.08,4.46,7.65,6.69c1.2,1.04,2.44,2.13,3.04,3.6c0.5,1.22,0.6,2.75,2.03,3.26
		c0.78,0.28,1.67,0.07,2.33-0.43c1.42-1.07,1.77-2.8,2.22-4.42c1.39-4.98,4.17-9.56,7.95-13.09c1.42-1.33,3-2.54,4.02-4.19
		c0.89-1.44,1.3-3.13,1.63-4.79c4.48-22.16,4.76-47.11,0.8-68.85c-1.21-6.66-3.24-13.16-5.91-19.38c-2.3-5.36-4.01-7.07-5.73-9.02
		c-0.86-0.97-2.26-2.01-3.81-2.89c-13.55-7.76-24.98-7.72-29.52-7.3c-0.54,0.05-0.62,0.81-0.1,0.98
		c14.39,4.58,30.99,1.99,59.61,36.31c6.86,8.22,10.22,18.81,12.66,29.23c0.97,4.15,1.8,8.44,1.19,12.66
		c-0.09,0.66-0.41,1.48-1.07,1.47c-0.72-0.01-0.98-0.97-0.91-1.69c0.13-1.34,0.61-2.64,1.38-3.73c2.63-3.71,5.42-5.41,9.14-8.01
		c6.43-4.48,12.43-10.67,17.72-16.45"/>
	<path class="st23" d="M398.84,357.75c1.68,5.08,5.79,9.3,10.83,11.1c1.42,0.51,3.02,0.83,4.41,0.09c0.95-0.5,1.59-1.55,1.37-2.61
		c-0.35-1.73-2.51-2.19-4-3.11c-1.86-1.14-2.86-3.28-3.47-5.38s-0.91-4.3-1.87-6.27c-0.92-1.88-2.42-3.51-2.83-5.56
		c-0.78-3.85,2.46-8.17,0.43-11.54c-0.43-0.72-1.06-1.29-1.57-1.95c-0.83-1.08-1.21-1.82-1.24-2.98c-0.02-0.94-0.22-1.88-0.7-2.69
		c-0.61-1.04-1.45-1.65-2.26-1.91c-1.21-0.39-2.52-0.08-3.78-0.22c-2.49-0.27-2.72-1.28-4.5-3.04c-0.49-0.48-1-0.98-1.65-1.23
		c-0.64-0.25-1.35-0.25-2.03-0.18c-2.35,0.25-4.55,1.22-6.85,1.77c-2.94,0.71-6.05,0.71-8.99,0.02c-1.12-0.26-2.23-0.63-3.38-0.7
		c-4.18-0.24-7.5,3.35-9.96,6.74c-3.41,4.7-6.47,9.65-9.16,14.8c-1.21,2.31-2.37,4.96-1.6,7.46c0.43,1.4,1.43,2.56,1.91,3.94
		c1.33,3.83-1.53,8.62,3.14,11.46c0.79,0.48,1.67,0.77,2.57,0.95c7.89,1.59,15.97-3.01,23.73-1.18c1.28,0.3,2.81,0.71,3.75-0.2
		c0.43-0.41,0.62-1.01,0.72-1.6c0.56-3.18-0.34-3.71-2.94-5.65c-3.13,7.88,0.06,17-2.47,25.1c-0.83-0.02-2.35,0.15-3.18,0.27
		c1.14,1.92,1.29,3.37,1.29,3.37s-0.72,0.34-1.4,0.1c-1.1-0.38-2.08-1.4-2.35-3.29c-1.25,0.04-1.76,0.08-2.83-0.57
		c0.78,2.18,0.85,3.3-0.24,4.43c-1.33-0.92-2.59-2.25-2.46-5.03c-1.5-0.47-2.14-0.96-3.36-1.97c1.7-4.06,2.91-6.19,4.79-8.8
		c1.88-2.61,3.68-3.88,4.85-7.55c0.11-0.33,0.01-0.72-0.2-0.99c-0.37-0.46-1.21-0.28-1.47,0.26c-0.26,0.53-0.01,1.21,0.46,1.59
		c0.46,0.37-0.13,0.36,0.46,0.37"/>
	<path class="st23" d="M260.47,266.62c1.99-3.24,2.34-7.31,1.59-11.04s-2.51-7.19-4.52-10.42c-0.85-1.37-1.75-2.73-2.24-4.27
		c-1.33-4.23,0.91-8.89,4.2-11.86c0.45,0.73-0.01,1.88-0.56,2.54c-1.7,2.01-3.25,4.14-4.65,6.36c-1.14,1.82-2.2,3.77-2.48,5.9
		c-0.29,2.23,0.31,4.48,1.01,6.62c1.48,4.48,3.49,8.79,5.96,12.81c0.97,1.57,2.05,3.29,1.77,5.11c-0.22,1.48-1.34,2.7-2.64,3.43
		c-1.3,0.73-2.79,1.04-4.26,1.33c-4.56,0.9-9.87,1.49-13.33-1.62c-1.77-1.59-2.67-4.3-1.82-6.46c0.17-0.43,0.71-0.58,1.09-0.32
		l0.03,0.02c0.79,0.56,0.98,1.66,0.45,2.47c-4.31,6.57-10.61,11.83-17.85,14.88c1.1,4.47,4.18,7.44,5.73,8.22
		c3.22,1.62,7.09,1.08,10.68,0.82c2.49-0.18,4.98-0.35,7.46-0.53c-5.98,4.54-13.74,0.8-18.83-5.01c-1.12-1.28-0.22-3.29,1.48-3.27
		c7.18,0.09,15.12,3.51,21.66,0.6c3.05-1.36,3.3-9.72,2.6-8.26c-0.61,1.27-3.1,8.34-4.09,11.17c-1.45,4.16-2.47,8.84-1.88,13.21
		c0.37,2.71,1.23,5.54,0.27,8.1c-1.22,3.23-4.85,4.77-8.18,5.71c-13.89,3.9-29.12,3.31-42.4-2.34
		c-13.28-5.65-24.43-16.43-29.86-29.79c2.7,0.49,5.5,0.97,8.14,0.25c2.65-0.71,5.08-2.98,5.04-5.72c-0.03-2.31-1.67-4.96-0.13-6.69
		c3.28,2.36,2.26,8.11-1.24,10.13c-3.5,2.02-8.13,0.89-11.29-1.63c-2.61-2.08-6-5.79-6.9-8.31c-0.32-0.9,0.47-1.9,1.38-1.61
		c2.07,0.65,0.16,6.21-1.8,7.84c-2.33,1.93-5.52,2.3-8.41,3.18c-9.57,2.89-16.25,11.57-25.24,15.94c-3.99,1.94-8.39,3.01-12.28,5.14
		c-3.91,2.14-7.42,4.81-10.97,7.49c-5.04,3.81-10.78,7.91-15.53,12.08c-8.39,7.38-11.29,12.09-21.43,22.43
		c-1.36,1.39-3.34,4.08-5.05,5c-0.54,0.29-1.22,0.53-1.73,0.19c-0.35-0.24-0.49-0.69-0.49-1.12c0.01-0.83,0.53-1.18,1.87-2.32"/>
	<path class="st23" d="M235.21,247.33c-3.46,3.51-8.6,5.3-13.5,4.69c-2.67-0.33-5.27-1.33-7.96-1.15c-0.71,0.05-1.62,0.44-1.52,1.14
		c2.19,0.58,4.27-1.04,6.11-2.36c3.73-2.67,8.09-4.45,12.63-5.15c2.86-0.45,5.87-0.49,8.47-1.76c3.27-1.59,5.49-5.13,5.5-8.76"/>
	<path class="st23" d="M252.04,243.11c1.02,0.16,2.1-0.08,2.96-0.66"/>
	<path class="st23" d="M170.87,253.74c-3.98,0.35-6.79,5.26-5.09,8.88c1.7,3.62,7.26,4.59,10.09,1.76c0.27-0.27,0.53-0.59,0.6-0.96
		c0.26-1.28-1.48-1.95-2.18-3.05c-0.95-1.47,0.1-3.34,0.65-4.99c1.4-4.19-0.68-8.86-3.81-11.99c-1.9-1.9-4.34-3.46-7.02-3.56
		c-4.58-0.18-8.38,4.02-9.39,8.48s0.09,9.11,1.19,13.55c0.46,1.86,1.21,4.03,3.07,4.49c-0.65-2.32-1.67-4.54-2.99-6.56
		c-2.24-3.4-5.34-6.2-7.38-9.73c-1.72-2.99-2.61-6.37-3.48-9.71c-2.81-10.83-5.65-21.96-4.44-33.08c0.12-1.09,0.64-2.48,1.73-2.38
		c-1.51,4.5-3.01,9.01-4.52,13.51c-0.87-11.2,3.17-22.7,10.86-30.89c-2.29,0.76-4.41,2.01-6.19,3.64c0.98-3.86,5.73-5.34,8.03-8.58
		c1.64-2.31,1.9-5.29,2.1-8.12c0.71,0.91,1.19,1.98,1.4,3.11c4.19-2.53,7.32-6.75,8.54-11.49c0.61,0.95,1.23,1.89,1.84,2.84
		c6.18-8.65,14.72-15.6,24.44-19.9c-2.2,1.91-3.98,4.3-5.17,6.96c3.73-2.52,8.22-3.9,12.72-3.9c-1.87,1.47-3.74,2.94-5.61,4.41
		c2.76-0.96,5.72-1.34,8.64-1.12c-1.74,0.87-3.28,2.12-4.5,3.63c1.7-0.94,3.94-0.32,5.85,0.01c6.34,1.12,12.71,2.24,18.78,4.4
		c8.99,3.2,17.03,8.58,24.85,14.06c3.02,2.12,6.06,4.29,8.48,7.09c4.48,5.17,6.5,12.12,6.88,18.95c0.38,6.83-0.74,13.65-1.86,20.41
		c-0.19,1.16-0.28,1.69-0.16,2.86c0.55,0.44,1.13-0.54,1.14-1.25c0.08-4.79-1.11-9.5-2.29-14.15c-1.6,5.33-2.93,10.74-4.01,16.2
		c0.73,0.29,1.16-0.84,1.1-1.62c-0.41-5.59-3.43-10.94-8.01-14.18c1.58,5.55,1.65,11.53,0.2,17.11
		c-1.82-7.26-8.68-12.94-16.15-13.39c1.45,2.01,3.05,3.92,4.78,5.71c-7.31-2.47-14.47-5.39-21.55-8.46
		c2.68,4.3,5.37,8.61,8.05,12.91c-6-6.93-14.13-11.98-23.01-14.28c4.4,5.87,5.96,13.77,4.1,20.87c-1.42-1.39-2.34-3.27-2.58-5.23
		c-0.82,6.36-0.82,12.82-0.01,19.18c-2.76-2.46-4.92-5.6-6.24-9.06c0.13,3.37,0.68,6.73,1.63,9.97c-3.21-2.63-5.53-6.33-6.5-10.37
		c1.48,7.39-4.12,14.8-2.74,22.21c0.19,1.01,1.11,2.24,1.96,1.67c0.27-0.19,0.41-0.52,0.49-0.84c0.4-1.62-0.34-3.34-1.48-4.56
		c-1.14-1.21-2.65-2.01-4.12-2.78c-2.91-1.53-5.65-0.32-8.9-5.76"/>
	<path class="st23" d="M291.14,399.24c2.16-3.12,1.57-2.3,3.66-5.46c0.42-0.63,0.85-1.3,0.93-2.05s-0.3-1.62-1.03-1.82
		c-3.57,0.96,0.2,9.68,3.74,12.78c3.54,3.1,8.58,4.2,13.24,3.5c2.16-0.32,4.26-1,6.4-1.41c11.5-2.19,26.96-2.6,31.58-0.34"/>
	<path class="st23" d="M599.02,270.17c-1.37,0.3-1.74,0.35-3.13,0.19c-0.51-0.06-1.07-0.14-1.51,0.14
		c-0.11,0.22,0.23,0.38,0.48,0.38c1.86,0.01,3.68-0.55,5.46-1.1c0.08-0.02,0.16-0.05,0.21-0.12c0.06-0.09,0.03-0.21-0.02-0.31
		c-0.28-0.59-0.89-0.93-1.47-1.23c-1.49-0.79-2.99-1.58-4.48-2.37c-0.75-0.4-1.6-0.8-2.41-0.56c-0.48,0.14-0.87,0.49-1.23,0.83
		c-0.69,0.64-5.3,5.85-6.88,7.67c4.26-1.69,9.08-1.97,13.51-0.78c0.84,0.23,1.69,0.5,2.56,0.44c0.95-0.07,1.82-0.54,2.68-0.98
		c6.23-3.15,13.36-4.48,20.3-3.8c0.62,0.06,1.27,0.14,1.87-0.07c0.63-0.21,1.12-0.71,1.58-1.19c8.02-8.36,26.72-26.92,27.54-27.78
		s-2.52-3.23-2.11-0.36c0.76,5.41,3.27,9.22,4.9,14.43c0.69,0.23,1.24-0.62,1.42-1.33c1.73-6.79-0.81-14.58,2.59-20.71
		c1.59-2.87,2.86-4.19,5.5-6.14c5.01-3.71,9.83-4.54,14.45-2.68c1.84,0.74,3.47,1.97,4.68,3.55c2.91,3.77,3.74,8.34,5.18,12.68
		c2.46,7.42,6.78,14.21,12.44,19.6c0.6,0.57,1.25,1.14,2.06,1.29c0.81,0.15,1.79-0.32,1.89-1.14c0.09-0.78-0.59-1.41-1.21-1.89
		c-4.56-3.53-9.95-5.16-13.3-9.79c-1.78-2.46-2.55-5.52-2.32-8.54c1.95-24.98-6.75-50.56-23.4-69.25
		c-4.68-5.26-10.57-10.25-17.6-10.64c1.51-0.34,3.03-0.69,4.54-1.03c-5.29-2.74-11.68-3.25-17.33-1.4c2.71-1.83,5.71-3.22,8.85-4.11
		c-5.15-0.38-10.41,1.1-14.6,4.11c-5.06-2.97-10.95-4.5-16.82-4.38c3.46,0.34,6.74,2.25,8.76,5.08c-4.54-0.95-9.17-1.77-13.79-1.42
		s-9.3,1.98-12.52,5.32c6.4-1.81,13.14-2.42,19.77-1.81c-7.89-0.98-15.95,1.63-22.52,6.1c-6.57,4.47-11.78,10.69-16.15,17.33
		c-6.18,9.4-10.83,19.81-13.72,30.68c4.15-6.23,8.31-12.45,12.46-18.68c-8.08,10.43-10.39,24.16-11.25,37.33
		c-0.52,7.93-0.1,17.06,6.03,22.12c2.61,2.16,5.92,3.24,8.93,4.79c3.13,1.62,5.97,3.78,8.36,6.36c-2.21,2.81-4.43,5.61-6.64,8.42
		c-0.64,0.81-1.36,1.68-2.37,1.91s-2.28-0.59-2.05-1.6c1.5-1.42,3.88,0.08,5.33,1.55c4.32,4.41,9.42,9.45,15.55,8.73
		c0.48-0.06,0.99-0.17,1.3-0.53c0.29-0.34,0.34-0.81,0.36-1.25c0.11-2.58-0.3-5.71,2.04-7.08c1.1-0.64,2.45-0.59,3.62-0.1
		c2.55,1.07,3.92,3.47,5.94,5.14c4.87,4.02,12.17,2.84,18.01,0.45c0.63-0.26,1.26-0.57,1.66-1.11c0.9-1.22,0.05-2.42-0.36-2.98
		c-2.45-3.38-5.91-6.68-6.24-5.07c-0.48,2.38,4.51-0.83,6.1-2.65c10.67-12.18,20.46-23.2,31.08-34.44c0.96-1.02,2.81-1.98,3.52-0.77
		c1.03,2.51-2.58,5.72-3.34,5.24c-2.16-1.37,3.88-8.58,7.54-11.37c3.67-2.79,9.03-3.76,12.93-1.3c2.72,1.71,4.33,4.76,5.14,7.86
		c2.46,9.45-2.27,20.28-10.88,24.89c-1.61,0.86-3.51,1.53-5.25,0.99c-1.75-0.54-3-2.79-1.96-4.29c3.06,3.79,3.87,8.21,5.6,12.76
		c5.41,14.23-7.27,28.41-18.77,38.39c14.74,6.57,35.02,4.63,30.17,7.19c-37.78,19.91-111.56,15.6-156.38,25.18
		c-37.41,7.99-56.89,0.44-88.09,22.7c-8.41,6-20.54,13.5-26.33,16.85c-10.29,5.95-22.6,12.96-30.07,29.79
		c-0.51,1.16,0.74,2.32,1.86,1.72c8.6-4.6,21.25-13.73,20.19-15.17c-1.32-1.79-18.7,10.76-23.12,20.2
		c-3.68,7.86-1.93,18.67,4.55,23.69c2.4,1.86,5.89,0.03,5.66-3.01c-0.2-2.53-1.05-5.23-1.35-7.76c-1.42-12.05,22.83-23,20.83-25.72
		c-1.85-2.52-13.92,9.31-16.65,17.51c-1.54,4.62-1.55,10.92,3.78,12.46c1.84,0.53,3.81,0.28,5.56-0.5
		c5.95-2.66,11.14-6.96,14.95-12.25c1.36-1.89-0.57-4.44-2.77-3.67c-5.27,1.85-10.19,4.68-14.44,8.31c-1.1,0.94,0.25,2.69,1.41,1.82
		c1.46-1.09,2.79-3.04,3.71-4.68c4.09-7.27,8.6-7.56,16.45-10.38c7.99-2.87,25.56-10.62,39.41-21.17c8.35-6.36,8.17-6.67,15.98-8.44
		c8.19-1.85,16.53-0.58,24.92-0.2c19.01,0.87,37.98,2.47,56.87,4.8c16.9,2.09,46.65,1.96,63.67,1.28
		c29.46-1.19,44.69-9.55,72.04-20.56c25.88-10.42,77.11-32.54,76.17-34.51c-1.62-3.39-13.04,5.97-18.72,10.31
		c-3.09,2.36-2.3,7.25,1.37,8.52c6.59,2.28,15.6-0.53,21.47-5.35c8.01-6.58,14.31-16.01,24.22-19.06
		c-9.3,9.65-18.61,19.29-27.91,28.94c0.21,2.15,3.95,1.79,4.65-0.25c0.7-2.04-0.54-4.2-1.78-5.96
		c-16.34-23.27-42.5-39.4-70.64-43.54c10.61-18.63,28.77-32.81,49.41-38.6c-14.73,3.27-30.42,7.08-40.63,18.19
		c-4.22,4.59-7.28,10.09-11.06,15.05c-5.79,7.58-20.55,12.96-16.25,12.75c1.46-0.07,2.82-0.79,3.79-1.89
		c11.54-13.09,14.97-33.56,18.14-51.48c0.31-1.77-2.33-2.41-2.78-0.67c-0.25,0.94-0.24,1.94,0.07,2.84
		c0.25,0.71,1.02,1.09,1.74,0.88c17.37-4.93,35.66-6.62,53.64-4.95c5.4,0.5,10.94,1.36,15.61,4.12c4.77,2.83,8.22,7.39,11.53,11.84
		c30.18,40.5,60.48,81.17,84.53,125.58c4.22,7.79,8.24,20.04,12.26,27.94c1.14,2.24,4.95-0.41,3.49-2.46
		c-74.08,0.3-181.8-3.26-222.25-0.73c-1.16,0.07-1.12,2.16,2,2.36c1.8,0.12,2.85-2.01,1.72-3.42
		c-8.73-10.86-16.38-24.59-19.51-37.85c3.67,11.75,7.43,26.94,9.47,39.08c0.13,0.74,0.27,1.49,0.58,2.13
		c0.52,1.08,2.27,0.67,2.15-0.52c-0.04-0.36-0.21-0.71-0.54-0.99c-0.99-0.84-2.83-1.08-4.11-1.33c-23.08-4.49-37.28-7-65.6-12.9
		c0.83-4.72,1.71-10.18,2.98-9.72c1.18,0.43-0.15,2.73-0.92,3.91c-5.37,8.21-11.04,16.52-13.35,26.06c-0.3,1.22-0.57,2.53-1.6,3.35
		c-0.57,0.46-1.36,0.64-2.03,0.34c-1.02-0.47-1.13-1.66-1.13-2.69c0.04-9.8,5.51-28.7,9.25-27.37c1.89,0.67-0.36,2.23-1.03,3.17
		c-8.42,11.76-18.08,22.64-28.77,32.38c-2.14,1.95-4.36,3.89-7.08,4.96c-0.71,0.28-1.52,0.32-2.19-0.04
		c-1.81-0.99-0.92-3.39,0.1-4.97c6.66-10.26,21.16-31.49,20.27-25.41c-0.14,0.98-0.63,1.89-1.35,2.57l-24.54,23.45
		c-0.84,0.81-2.04,1.67-3.06,1.1c-0.5-0.28-0.78-0.85-0.92-1.41c-0.67-2.6,0.89-5.19,2.38-7.42c3.04-4.55,6.08-9.11,9.12-13.66
		c2.45-3.67,7.21-11.32,8.74-9.79c0.81,0.82-0.42,2.18-1.22,3.01c-6.97,7.22-13.94,14.45-20.91,21.67
		c-0.75,0.77-1.75,1.62-2.77,1.27c-1.08-1.43-0.33-3.46,0.47-5.06c1.85-3.73,3.78-7.42,5.78-11.08c2.63-4.8,8.4-14.34,9.79-13.05
		c0.83,0.77-0.41,2.15-1.18,2.98c-4.48,4.91-8.97,9.81-13.45,14.72c-1.2,1.31-2.71,2.74-4.47,2.48c-0.83-0.88-0.21-2.3,0.46-3.31
		c6.57-9.96,14.81-18.74,23.62-26.8c2.98-2.73,6.09-5.42,9.75-7.13c3.4-1.59,7.37-2.46,11.11-2.19"/>
	<path class="st23" d="M624.99,253.05c-3.85,1.79-7.71,3.59-11.56,5.38c-2.49,1.16-5.01,2.33-7.72,2.78
		c-0.87,0.15-2.11-0.09-2.08-0.97c1.49-1.08,3.66-0.66,5.14,0.43c1.49,1.08,2.49,2.69,3.58,4.17c0.14,0.2,0.3,0.4,0.53,0.49
		c0.25,0.09,0.53,0.03,0.79-0.04c5.68-1.52,11.42-3.08,16.52-6c-0.02-0.41-0.51-0.66-0.91-0.58c-0.4,0.07-0.72,0.36-1.01,0.65
		c-2.51,2.44-4.84,5.27-8.07,6.61c-1.31,0.54-2.73,0.81-4.15,0.79"/>
	<path class="st23" d="M579.87,258.65c4.59,2.43,14.33-0.62,16,1.93c0.42,0.64-0.94,1.24-1.64,0.94c-0.7-0.3-1.1-1.04-1.44-1.72
		c-1.47-2.91-2.93-5.82-4.4-8.73c5.05,0.87,9.43,4.87,10.74,9.83c0.49-0.31,0.69-0.92,0.81-1.49c1.58-7.4-3.91-14.67-3.46-22.23
		c3.86,4.05,7.97,8.26,13.32,9.88c1.32,0.4,2.78,0.68,3.71,1.69c0.93,1.02,1.46,3.29-0.59,3.34c-1.57,0.06-1.28-2.92-1.22-4.46
		c0.18-4.75-1.25-8.23-2.45-12.84c4.76,2.88,8.86,6.83,11.93,11.47c0.39-4.7-0.11-9.47-1.45-13.98c2.89,4.63,8.08,7.76,13.53,8.14
		c-2.66-1.63-4.84-4.04-6.21-6.84c2.95,2.23,6.63,3.48,10.33,3.52c-2.73-1.43-3.65-4.94-3.46-8.01c0.19-3.07,1.19-6.08,1.1-9.16
		c-0.02-0.91-0.16-1.85-0.65-2.62c-0.49-0.77-1.78-1.87-2.31-1.13c-1.87,2.64,15.81,12.38,20.29,25.07"/>
	<path class="st23" d="M599.91,278.49c-0.05,5.59,0.16,11.19,0.63,16.77c0.08,0.88,0.17,1.81,0.65,2.55
		c0.77,1.18,1.69,1.76,3.09,1.94c1.4,0.18,2.87-0.37,3.81-1.42c0.47-0.52,0.8-1.15,1.24-1.7c1.38-1.75,3.57-2.6,5.62-3.47
		c2.05-0.88,4.2-2,5.17-4c0.31-0.64,0.48-1.42,0.15-2.05c-0.27-0.52-0.83-0.82-1.37-1.04c-1.84-0.75-5.55-1.55-5.84-0.41
		c-0.33,1.25,4.06,0.64,6.14,0.98c0.83,0.13,1.74,0.53,2,1.33c0.31,0.94,0.19,2.56-0.99,3.56c-2.93,2.48-7.53,3.85-9.35,5.53
		c0.93,1.39-0.51,2.97,0.07,4.54c0.67,1.82,2.98,1.27,4.89,1.6c0.72,0.12,1.53,0.33,1.86,0.98c0.33,0.65-0.44,1.64-1.02,1.21
		c-0.37-0.27-0.31-0.87-0.01-1.21c0.3-0.34,0.76-0.49,1.19-0.63c5.21-1.7,10.16-3.23,14.59-6.46c1.73-1.26,3.06-2.13,4.17-3.95
		c-1.14-1.15-3.3-3.3-4.11-1.9c-0.65,1.14,3.98,1.62,5.88,2.64c0.52,0.28,1.07,0.85,0.8,1.38c-0.91,0.22-1.78-0.95-2.67-0.64
		c-0.22,0.08-0.4,0.23-0.57,0.38c-1.35,1.19-2.69,2.39-4.04,3.58c-1.2,1.07-2.42,2.14-3.37,3.44c-0.63,0.86-1.92,2.61-3.82,3.74
		c-1.74,1.04-3.86,1.24-5.8,1.85c-0.33,0.1-1.75,0.09-1.24-1.03c0.82-1.14,2.45,1.58,2.92,2.79c0.54,1.38,1.21,2.72,1.99,3.98
		c1.37,2.22,3.22,4.31,5.7,5.14c1.65,0.55,3.44,0.5,5.15,0.24c6.32-0.99,11.81-4.75,17.13-8.31c0.15-0.1,0.93-0.75,0.27-1.43
		c-0.44-0.45-1.32,0.12-1.67,0.38c-3.94,2.99-8.17,7.03-11.92,10.24c-2.48,2.12-2.58,2.51-3.13,3.69c-0.66,1.42-0.91,2.99-1,4.56"/>
	<path class="st23" d="M426.81,459.91c-1.08,5.75-1.7,8.1-2.61,14.01c36.6,0,77.17-0.22,113.7-0.73c-0.2-3.56-2.43-9.15-2.63-12.71
		C514.92,460.36,443.69,459.78,426.81,459.91"/>
	<path class="st23" d="M399.41,451.78c-32.93,6.22-65.62,12.24-97.54,18.5c63.32,11.86,133.45,25.45,197.35,31.7
		c1.52,0.15,1.65,2.33,0.15,2.64c-0.06,0.01-0.12,0.02-0.18,0.03c-1.7,0.27-2.07-2.35-0.37-2.65l187.6-30.26
		c1.81-0.32,2.78,1.21,1.07,1.89c-1.55,0.62-3.14,0.01-5.16-0.26c-71.8-9.6-129.82-20.46-204.49-31.78
		c-1.33-0.12-1.47-0.76-1.45-1.43c0.02-0.85,0.66-1.34,1.24-1c0.48,0.28,0.51,0.94,0.49,1.49c-0.11,2.54-0.22,3.76-0.33,6.3
		c-4.53,0.04-8.9-0.2-13.43-0.16c-0.9,1.88-1.79,3.77-2.69,5.65c-0.37,0.77-1.69,2.76-2.42,1.85c-0.34-0.38,0.59-1.27,1.45-1.28
		c10.83-0.15,21.67,0.28,32.5,0.41c-0.93-1.89-1.85-3.79-2.78-5.68c-0.15-0.31-0.31-0.63-0.6-0.82c-0.34-0.23-0.78-0.23-1.19-0.22
		c-2.62,0.07-8.22,0.17-10.85,0.24"/>
	<path class="st23" d="M420.6,421.06l-0.01,0.03c-0.86,1.82,0.45,3.92,2.46,3.96c38.98,0.76,68.52,2,63.35-1.03
		c-0.87-0.51-1.91-0.62-2.89-0.41c-89.59,19.44-180.09,34.66-271.11,45.59c43.06,10.23,285.37,54.1,285.37,54.1
		s182.73-36.81,256.17-52.94c-89.64-11.65-175.57-22.57-264.78-36.85c-1.25-0.2-1.06-2.12,0.2-1.99c0.02,0,0.05,0,0.07,0.01
		c1.54,0.18,0.45,2.33-1.06,2.65c-24.82,5.25-49.78,10.14-74.64,14.88c-1.17,0.22-2.58-0.13-3.44-0.96
		c-0.86-0.83-1.91-2.28-1.36-3.34c0.44-0.84,1.07-1.05,1.66-1c0.94,0.08,1.71,1.49,1.17,2.27c-0.49,0.72-0.63,0.64-1.33,0.76
		c-5.53,0.94-10.24,1.74-15.77,2.68c-0.34,0.06-0.69,0.12-1.04,0.07c-1.27-0.16-1.98-1.94-1.16-2.92c0.81-0.99,2.7-0.63,3.09,0.59
		c0.37,1.16-0.49,2.63-1.69,2.84c-3.1,0.54-4.82,0.24-6.03,0.06c-1.67-0.25-3.16-0.83-3.35-1.03c-0.28-0.3-0.2-0.79-0.09-1.19
		c0.5-1.91,1.14-4.01,2.85-4.99c0.69-0.4,1.49-0.57,2.28-0.71c2.11-0.38,4.39-0.66,6.01-2.07c1.09-0.95,2.14-2.46,3.55-2.13
		c1.24,0.3,1.65,1.89,1.48,3.16c-0.03,0.23-0.07,0.47,0.04,0.67c0.13,0.23,0.43,0.32,0.69,0.31c0.88-0.04,1.49-1,1.47-1.88
		c-0.01-0.88-0.47-1.69-0.91-2.45c1.16-1.03,2.95-0.55,4.47-0.24c1.78,0.36,3.62,0.39,5.41,0.09c0.56-0.09,1.13-0.22,1.7-0.12
		c0.75,0.13,1.39,0.64,1.85,1.24c0.94,1.24,1.22,2.96,0.73,4.44c-0.49,1.48-2.71,2.97-4.79,3.4"/>
	<path class="st23" d="M662.32,424.56c-23.86,0.29-47.73,0.57-71.59,0.86c-0.82,0.01-1.65,0.02-2.4,0.35
		c-0.39,0.17-0.76,0.44-1.01,0.79c-0.39,0.53-0.06,1.34,0.6,1.4c0.06,0.01,0.12,0.01,0.18,0.01c0.62,0,1.05-0.62,0.86-1.2
		c-0.76-2.27-1.22-3.73,0.11-8.54"/>
	<path class="st23" d="M501.18,481.13c0.58,0.01,1.19,0.02,1.71-0.24c0.52-0.26,0.92-0.87,0.73-1.42c-0.19-0.55-1.11-0.72-1.35-0.18
		c0.76,3.54,3.7,10.18,3.7,10.18s-23.35,0.1-36.12-0.3c-0.89-0.03-1.38,1.1-0.69,1.67c0.02,0.02,0.05,0.04,0.07,0.06
		c0.67,0.5,1.63-0.07,1.53-0.91c-0.39-3.07-0.45-9.53-0.45-9.53s6.72,0.19,8.97,0.24C486.59,480.84,493.89,480.99,501.18,481.13z"/>
	<path class="st23" d="M653.83,437.46c-9.47,3.86-19.06,7.43-28.75,10.7c6.34,1.04,12.68,2.07,19.02,3.11
		c0.54,0.09,1.09,0.18,1.63,0.11c0.6-0.07,1.16-0.32,1.71-0.57c8.33-3.79,16.66-7.58,24.99-11.37c0.37-0.17,0.93-0.27,1.09,0.11
		c0.04,0.6-0.81,0.78-1.41,0.72c-6.08-0.55-11.54-1.27-17.55-2.38c1.71-0.73,3.51-1.72,3.51-1.72s1.95,0.16,4.63,0.5
		c6.88,0.86,9.69,1.16,16.94,2.41c-2.49,1.47-5.36,2.74-8.02,3.87c-4.85,2.05-16.63,7.17-16.63,7.17s-1.66-0.4-4.2-0.82"/>
	<path class="st23" d="M311.5,435.24c9.47,3.86,21.06,6.43,30.75,9.7c-6.34,1.04-12.68,2.07-19.02,3.11
		c-0.54,0.09-1.09,0.18-1.63,0.11c-0.6-0.07-1.16-0.32-1.71-0.57c-8.33-3.79-18.66-6.58-26.99-10.37c-0.37-0.17-0.93-0.27-1.09,0.11
		c-0.04,0.6,0.81,0.78,1.41,0.72c6.08-0.55,11.54-1.27,17.55-2.38c-1.71-0.73-2.51-1.72-2.51-1.72s-1.95,0.16-4.63,0.5
		c-6.88,0.86-10.69,1.16-17.94,2.41c2.49,1.47,5.36,2.74,8.02,3.87c4.85,2.05,18.63,6.17,18.63,6.17s1.66-0.4,4.2-0.82"/>
	<path class="st23" d="M281.07,451c-2.54,0.42-4.2,0.82-4.2,0.82s-14.79-5.11-19.63-7.17c-2.66-1.13-5.54-2.39-8.02-3.87
		c7.24-1.24,10.06-1.54,16.94-2.41c2.69-0.34,4.63-0.5,4.63-0.5s1.8,0.99,3.51,1.72c-6,1.11-11.47,1.83-17.55,2.38
		c-0.6,0.05-1.45-0.12-1.41-0.72c0.16-0.38,0.72-0.28,1.09-0.11c8.33,3.79,19.66,7.58,27.99,11.37c0.55,0.25,1.11,0.5,1.71,0.57
		c0.54,0.06,1.09-0.02,1.63-0.11c6.34-1.04,12.68-2.07,19.02-3.11c-9.69-3.27-20.47-7.05-29.94-10.92l-4.49,1"/>
	<path class="st23" d="M678.34,455.69c-0.57,0.16-1.05-0.94,0.18-1.44c0.55-0.23,1.15-0.18,1.73-0.06
		c6.47,1.32,14.02,2.98,18.86,3.65c3.85,0.53-5.61,2.13-1.79,0.04c11.7-6.42,14.88-6.64,22.03-9.83c-5.37-0.91-8.03-1.28-10.18-1.54
		c-3.84-0.48-6.27-0.72-6.27-0.72S681.14,454.89,678.34,455.69z"/>
</g>
</svg>
