<?xml version="1.0" encoding="utf-8"?>
<!-- Generator: Adobe Illustrator 24.1.0, SVG Export Plug-In . SVG Version: 6.00 Build 0)  -->
<svg version="1.0" xmlns="http://www.w3.org/2000/svg" xmlns:xlink="http://www.w3.org/1999/xlink" x="0px" y="0px"
	 viewBox="0 0 960 364" style="enable-background:new 0 0 960 364;" xml:space="preserve">
<style type="text/css">
	.st0{display:none;}
	.st1{display:inline;}
	.st2{fill:#D53119;}
	.st3{fill:#DF862C;}
	.st4{fill:#DFCF33;}
	.st5{fill:#018AC7;}
	.st6{fill:#028AC8;}
	.st7{fill:#5B4085;}
	.st8{fill:#E6E6E6;}
	.st9{fill:#EACE62;}
	.st10{fill:#D1E8B2;}
	.st11{fill:#B0E1B7;}
	.st12{fill:#DCE9B0;}
	.st13{fill:#FBD000;}
	.st14{fill:#D3E5C0;}
	.st15{fill:#9691C1;}
	.st16{fill:#EE7F00;}
	.st17{fill:#DE151C;}
	.st18{fill:#CCECF9;}
	.st19{fill:#898989;}
	.st20{fill:#F8D32B;}
	.st21{fill:#94C23B;}
	.st22{fill:none;stroke:#000000;stroke-width:0.9;stroke-linecap:round;stroke-miterlimit:10;}
	.st23{fill:none;stroke:#000000;stroke-width:0.9;stroke-linecap:round;stroke-linejoin:round;stroke-miterlimit:10;}
	.st24{fill:none;stroke:#000000;stroke-width:0.872;stroke-linecap:round;stroke-linejoin:round;stroke-miterlimit:10;}
</style>
<g id="Images" class="st0">
</g>
<g id="Shading">
	<path class="st2" d="M114.14,150.21c0.29-1.13,0.24-2.73-0.9-2.97c-0.44-0.09-0.88,0.08-1.28,0.27c-2.5,1.21-4.5,3.42-5.45,6.02
		c-0.01-1.46,0.61-2.86,0.74-4.32c0.13-1.46-0.48-3.21-1.9-3.54c-1.36-0.32-2.61,0.82-3.44,1.94c-2.71,3.66-4.04,8.33-3.66,12.87
		c-1.78-1.31-4.11-1.62-6.32-1.61c-1.79,0.01-3.69,0.24-5.06,1.38c-6.79,5.7,11.21,7.86,14.79,6.59
		C107.94,164.62,112.58,156.22,114.14,150.21z"/>
	<path class="st3" d="M293.7,32.62c-0.24-0.24-0.5-0.48-0.83-0.57c-0.56-0.15-1.16,0.22-1.46,0.72c-0.3,0.5-0.38,1.1-0.44,1.67
		c-0.27,2.43-0.61,5.11-2.47,6.69c-0.89,0.75-2.01,1.15-3,1.77c-0.99,0.62-1.89,1.6-1.86,2.76c0.01,0.22,0.05,0.45-0.02,0.66
		c-0.07,0.23-0.26,0.41-0.44,0.57c-1.23,1.13-2.35,2.37-3.36,3.71c-0.74,0.97-1.43,2.03-1.67,3.23s0.04,2.57,0.97,3.35
		c0.55,0.46,1.27,0.67,1.98,0.72c2.96,0.2,5.38-2.24,8.16-3.29c1.4-0.53,2.91-0.69,4.4-0.51c1.45,0.18,2.4,0.55,3.11-1.07
		c0.36-0.83,0.19-1.64,0.29-2.51c0.14-1.23,0.66-2.39,0.89-3.61C298.87,41.87,297.37,36.3,293.7,32.62z"/>
	<path class="st4" d="M489.34,94c-0.17,1.25-0.18,2.56,0.27,3.74c0.45,1.18,1.43,2.21,2.66,2.46c1.97,0.39,3.76-1.23,4.92-2.88
		c2.02-2.89,3.29-6.31,3.65-9.82c1.6,1.49,4.01,1.58,6.19,1.59c1.65,0.01,3.37,0,4.85-0.75c1.47-0.74,2.6-2.47,2.09-4.04
		c-0.38-1.17-1.51-1.92-2.59-2.5c-1.61-0.86-3.31-1.56-5.05-2.1c-0.36-0.11-0.75-0.23-0.99-0.52c-0.3-0.37-0.29-0.9-0.26-1.37
		c0.33-5.4-0.11-10.85-1.3-16.13c-1.72,2.55-4.97,3.71-6.8,6.18c-1.4,1.9-1.81,4.39-1.6,6.74c0.21,2.35,0.98,4.61,1.75,6.84
		c-1.9-3.1-5.37-5.02-8.95-5.6c-3.58-0.58-7.27,0.05-10.72,1.19c2.32,0.39,3.09,3.25,4.26,5.29c1.6,2.78,4.41,3.99,7.46,4.36
		c1.85,0.23,2.33-0.03,1.86,2.02C490.63,90.52,489.6,92.07,489.34,94z"/>
	<path class="st5" d="M620.5,112.68c-0.95-1.72-2.35-3.19-3.1-5.01c-1.66-4.03,0.22-8.67-0.47-12.97c-0.08-0.52-0.24-1.09-0.67-1.39
		c-0.63-0.44-1.51-0.09-2.12,0.38c-1.51,1.19-2.32,3.04-2.93,4.86c-2.8,8.25-2.87,17.15-2.91,25.87c2.78-1.27,6.12-0.31,8.63,1.43
		c2.51,1.74,4.44,4.17,6.67,6.26c1.11,1.04,2.34,2.02,3.78,2.49c1.45,0.47,3.16,0.35,4.33-0.63c1.21-1.02,1.59-2.74,1.48-4.32
		c-0.23-3.24-2.38-6.27-5.36-7.56c-1.36-0.59-2.84-0.83-4.2-1.4C619.46,118.98,622.31,115.96,620.5,112.68z"/>
	<path class="st6" d="M781.41,89.98c-0.41,1.97-0.28,4.2,0.97,5.77c1.24,1.56,3.37,2.19,5.35,2.08s3.87-0.86,5.7-1.64
		c11.19-4.78,22.23-11.69,27.72-22.55c0.69-1.37,1.29-2.96,0.73-4.39c-0.66-1.69-2.79-2.43-4.57-2.07
		c-1.78,0.36-3.27,1.54-4.63,2.76c-1.92,1.72-3.71,3.57-5.37,5.54c0.55-3.91-1.06-7.76-2.76-11.32c-0.95-2-2.04-4.08-3.94-5.21
		c-2.9-1.72-6.88-0.49-9.03,2.1s-2.75,6.16-2.56,9.52c0.14,2.5,0.72,4.92,1.12,7.39c0.42,2.59-0.34,2.38-2.4,3.53
		C784.57,83.26,782.15,86.4,781.41,89.98z"/>
	<path class="st7" d="M892.71,186.28c2.21-4.64,5.95-8.97,10.97-10.05c-2.56,4.64-2.33,10.7,0.58,15.13
		c1.29,1.97,3.05,3.6,4.41,5.53s2.36,4.32,1.81,6.62c-0.09,0.38-0.23,0.76-0.53,1.01c-0.62,0.53-1.55,0.25-2.31-0.04
		c-5.03-1.9-10.91-2.84-15.6-0.22c-0.35,0.2-0.71,0.43-0.88,0.8c-0.29,0.64,0.15,1.42,0.77,1.74s1.36,0.32,2.06,0.3
		c3.47-0.08,6.94-0.15,10.41-0.23c1.03-0.02,2.11-0.03,3.03,0.43c1.27,0.65,1.94,2.05,2.46,3.37c1.38,3.46,2.42,7.05,3.1,10.72
		c0.28,1.52,0.49,3.16-0.12,4.58c-6.53-2.6-12.04-7.1-17.15-11.83c-2.01-1.86-5.91-4.41-6.17-7.34c-0.1-1.12,0.3-2.37,0.27-3.52
		c-0.06-1.82-0.23-3.59-0.11-5.41C889.97,193.87,890.98,189.91,892.71,186.28z"/>
	<path class="st8" d="M148.6,117.78c-32.82,10.72-16.17,34.45-17.48,57.86c-8.83,10.28-25.09,10.94-35.29,19.59
		c-15.27,23.28-25.55,52.79-26.16,80.54c-0.33,5.54,2.44,10.42,8.14,11.24c13.92,3.45,27.7,9.53,42.17,9.62
		c-5.75-4.55-13.11-6.29-20.02-8.64c-32.99-8.08-16.04-45.31-9.34-67.44c4.45-27.01,38.87-24.63,49.9-45.81
		c0.55-10.41-9.15-19.43-7.8-29.88c2.33-20.65,26.65-20.24,41.52-25.42C169.68,113.88,154.53,116.08,148.6,117.78z"/>
	<path class="st8" d="M50.89,311.58c22.64-44.51,9.66,32.24,8.75,43.82C32.71,368.65,47.46,323.67,50.89,311.58z"/>
	<path class="st8" d="M125.01,267.46c4.86,0.29,3.56,9.58,7.54,11.98c15.66,7.12,41.68,7.89,49.38-11.11
		c6.79,12.43-1.23,19.19-13.51,19.35C151.62,291.87,118.94,293.37,125.01,267.46z"/>
	<path class="st8" d="M183.05,217.94c-0.17-3.14-0.39-6.32,0.21-9.41c1.74,0.41,2.24,2.62,2.37,4.4
		c2.28,14.99-1.89,31.97,5.08,45.38c-11.24,9.89-9.49-2.47-7.85-10.51C183.51,237.86,183.57,227.89,183.05,217.94z"/>
	<path class="st8" d="M182.04,98.54c9.66-3.28,11.7-11.18,10.21-20.82c-2.21-14.25,8.56-34.43,24.95-30.76
		c-27.24,20.22,17.84,15.49-3.84,31.28c1.67-1.22,2.98-6.03,1.89-5.78c-4.95,1.17-6.86,0.55-8.78-0.49
		c-2.29-1.25-1.31-4.13-1.78-3.35c-1.5,2.47-8.08,15.86,8.81,17.48c2.19,2.78,4.71,4.19,8.4,3.97c8.88,3.61-0.09,4.27-4.5,3.12
		c-13.52-0.65-7.25,19.45-2.54,25.83c3.56,4.13,9.23,6.15,12.32,10.64c-9.49-1.14-16.5-7.65-23.97-12.82
		c-16.19-5.88-11.43,13.03-6.3,21.18c4.09,13.01-7.03,27.07-3.39,40.21c18.95,30.24,15.18,67.9,13.87,102.31
		c2.46,10.19-19.64,13.08-15.19,2.75c14.7-9.65,11.34-27.65,8.09-42.49c-3.72-17.91,5.11-59.11-23.89-55.57
		c12.1-10.55,6.69-27.65,12.09-40.51C202.92,123.03,155.44,118.4,182.04,98.54z"/>
	<path class="st8" d="M255.25,267.15c7.26,21.97,11.95,7.6,5.66-6.11c-16.48-37.01-4.43-93.98-26.84-124.91
		C249.08,178.12,241.09,224.83,255.25,267.15z"/>
	<path class="st8" d="M103.36,334.59c-20.04-2.72-10.37-27.89-19.39-40.4c8.87,1.41,11.48,10.19,14.26,17.39
		c4.06,7.52,13.33,10.45,19.25,16.63c8.52,8.87,8.93,25.69-1.83,32.74C114.25,349.19,117.23,334.88,103.36,334.59z"/>
	<path class="st8" d="M296.85,84.96c-2.74,6.56-2.17,14.09-0.1,20.89c-12.56,7.4,23.98,32.23-8.25,27.13
		c-2.53-0.49-4.62,0.79-5.27,3.3c-7.45,28.85-18.99,56.71-26.62,85.46c-1.03,14.65,19.02,20.02,27.63,29.48
		c4.9,4.84,12.8,2.08,17.63,7.18c-48.15-38.05-40.49-20.59-22.97-80.67c1.67-20.1,30.21-8.59,31.78-24.91
		c-1.4-5.19-20.44-6.6-8.39-15.49c6.38-1.7,10.8,8.99,17.29,7.84c-6.82-7.28-18.31-20.33,0.09-20.58
		c9.15-0.07,8.55-10.16-0.42-10.03c-7.73,0.32-11.24-2.8-4.91-8.51c0.6,0.84,0.91,1.88,0.87,2.91c2.36-0.69,4.61-1.77,6.63-3.18
		c0.33,0.74,0.67,1.48,1,2.22c2.23-1.78,6.16-0.29,6.64,2.53c9.2-7.93-9.81-13.84-7.45-23.08
		C332.43,62.45,302.78,69.77,296.85,84.96z"/>
	<path class="st8" d="M306.76,253.75c-4.16,7.47-9.6,5.65-16.5,4.18c2.28,6.43-2.99,13.52-1.4,20.16
		c2.58,5.59,5.07,10.67,5.22,16.78c2.82,2.6,5.11,5.37,5.13,9.53c2.17,16.85,4.33,33.7,6.5,50.55c0.32,2.49,0.73,5.21,5.9,5.25
		c2.43,0.07,7.07-0.97,4.01-3.99c-13.42-15.84-7.43-38.91-13.55-57.43c-3.28-9.79-10.19-21.33-5.79-31.62
		c5.68-5.06,14.84-3.14,17.71-11.64C319.34,240.49,312.31,243.89,306.76,253.75z"/>
	<path class="st8" d="M340.75,304.44c5.63-1.55,11.14-3.51,16.48-5.87c-12.13,16.75-16.99,29.64-15.06,51.4
		c0.07,2.08,0.69,5.69-1.91,6.3C337.75,342.86,338.8,317.18,340.75,304.44z"/>
	<path class="st8" d="M348.46,67.6c2.27-3.44,4.02-7.74,7.86-9.22c1.05-0.4,2.48-0.94,2.33-2.06c0.15-4.43-2.65-14.8,2.34-16.3
		c0.41,2.07-0.4,5.69-0.67,8.91c-0.25,3.04,4.25,3.72,4.88,0.73c1.01-4.8,1.04-10.12,4.59-13.41c1.19,3.59-0.95,7.53-2.13,11.34
		c-0.95,3.05,3.49,4.64,4.67,1.67c2-5.05,2.92-10.85,6.69-14.72c-1.49,8.64-7.68,19.04-6.03,27.93c0.74,3.99-3.03,7.23-6.95,6.15
		c-1.73-0.47-3.39-0.54-4.98,0.6c-20.26,9.03-4.47,29.03-14.65,42.83l0.41-15.66c0.81,0.64,2.01,0.73,2.9,0.22l-6.17-8.36
		c1.02,0.44,2.32,0.09,2.97-0.81C332.91,76.26,339.37,76.37,348.46,67.6z"/>
	<path class="st8" d="M386.59,58.3c2.31-0.86,5.1-0.23,6.82,1.54c-1.72,3.22-5.43,4.13-7.97,6.32c-3.76,6.89,0.64,27.55-12.18,23.94
		c0.35,5.01-5.46,8.41-5.9,12.28c1.67,0.34,2.79,1.9,1.3,3.39c-4.73,2.3-10.8,0.25-15.75,2.12c-8.37,7.19-9.26,20.86-12.62,31.01
		c7.4-8.2,32.66-8.8,31.21,6.86c-3.04,6.13,0.69,15.16,2.14,21.3c1.06,4.11,7.16,3.64,7.43-0.6c0.52-7.57-3.92-14.45-4.02-21.9
		l2.99,0.88c-2.41-5.24-2.75-11.4-0.92-16.86c11.81,0.43,3.03-15.19,5.34-21.81c6.03-5.62,12.53,4.48,16.74,10.74
		c1.19,1.77,3.82,1.91,5.09,0.18c13.2-17.92-23.66-52.38,10.27-55.25c14.32-3.88,4.36-7.04,1.72-14.32
		C414.36,29.91,389.69,47.05,386.59,58.3z"/>
	<path class="st8" d="M369.23,199.02c-0.4-15.15,15.42-25.31,16.14-38.75c-1.23-5.04-7.45-8.81-6.14-13.82
		c1.19,3.73,3.85,6.96,7.28,8.85c-0.77-7.91-8.37-15.11-5.75-22.61c1.76,5.41,4.65,10.45,8.42,14.71
		c2.84-5.19-2.79-13.34,2.58-17.52c-0.37,5.72-0.13,11.48,0.73,17.15c4.85-2.46,2.03-12.85,8.5-13.39
		c-7.38,16.8-8.69,35.22-21.52,49.32c-4.59,8.1-5.78,17.67-9.47,26.21c-7.61,10.3-1.53-14.26,0.48-17.37"/>
	<path class="st8" d="M411.65,242.61c-7.79-27.98,2.12-56.67,0.87-84.84c-7.77,42.89-23.13,99.27,20.4,128.03
		c1.65,1.13,4.06,1.51,3.65-1.01C424.11,273.98,415.23,258.9,411.65,242.61z"/>
	<path class="st8" d="M422.64,142.09c7.93-12.3,18.52-27.17,13.95-42.05c0.73-1.21,2.53,0.13,3.11,1.42
		c8.58,18.78-4.89,38.68-22.35,48.36C415.3,150.95,420.9,144.55,422.64,142.09z"/>
	<path class="st8" d="M464.91,160.29c3.91,11.85,4.91,25.2-4.15,36.04c-0.42,0.5,0.31,1.19,0.87,0.84
		c7.37-4.61,9.06-14.42,9.18-22.71c-1.19-9.11,5.2-23.49-2.08-30.04c-14.6,4.43-20.38,29.5-18.33,43.52c1.67,9.84,4.22-1.46,5-5.14
		C457.11,174.74,462.41,168.08,464.91,160.29z"/>
	<path class="st8" d="M441.9,324.43c5.27-8.18-0.46-17.47,10.29-23.78c9.76-11.03,22.84-10.56,36.1-13.49
		c7.68-5.62-4.46-1.72-8.19-2.22c-5.25-3.26,17.17-9.81,18.36-12.87c-9.63,0.29-16.53,1.31-24.74,2.96
		c-16.14,4.47-36.59-4.66-7.99-9.34c-23.65,10.79,41.42,2.68,44.61-3.18c-1.11-21.23,16.78-31.69-1.76-52.59
		c-9.37-17.39-33.09-33.5-25.11-55.27c4.31-20.45,24.17-30.8,34.01-47.13c14.87,4.91,22.22-20.03,22.87-31.53
		c3.01-0.39,5.96,2.63,5.49,5.64c0.1-3.44,0.82-6.87,2.11-10.06l0.76,7.67c1.85-3.76,2.89-7.92,3.01-12.1
		c1.37,1.28,2.09,3.22,1.9,5.08c0.19-1.68,0.89-3.31,1.99-4.6c0.45,43.32-71.04,56.06-63.39,101.83
		c12.82,25.43,29.96,33.3,30.74,64.45c16.43-11.28-0.35-35.92,20.04-45.91c-4.53,18.56-15.33,39.04-13.89,57.71
		c2.44,1.04,5.91,3.12,3.65,6.51c-17.59,9.48-22.54,34.17-40.26,41.89c-3.28,1.19-7.49,2.24-8.19,5.66
		c-4.94,0.92-9.87,1.85-14.81,2.77c-4.06,0.17-5.4,3.85-5.02,7.53c0.12,12.82-5.96,46.02-18.49,50.49
		c-2.78-0.37-4.53-1.75-4.29-3.88C443.63,339.5,438.03,330.44,441.9,324.43z"/>
	<path class="st8" d="M580.41,136.66c-17.21,4.47-21.65,24.64-26.03,39.57c-4.22-0.13-8.98,4.62-5.66,8.43
		c8.84,4.61,3.33,17.44,4.13,25.63c5-0.97,2.22-14.62,3.74-19.23c1.38,6.6,6.79,14.35,14.35,12.5c-2.19-6.41-9.91-10.95-9.08-17.67
		c0.95-6.7,8.71-9.22,12.05-14.45c3.9-6.57-0.1-9.54-6.47-9.1c2.85-8.24,10.51-14.61,19.12-15.91c-1.78,1.7-3.22,3.76-4.22,6.01
		c2.56-1.67,13.49-4.18,10.78-7.84c-2.41-2.42,0.23-5.55-1.31-7.54C590.27,135.07,582.47,136.21,580.41,136.66z"/>
	<path class="st8" d="M603.6,212.12c-11.35,12.64-31.96,13.57-39.55,29.19c-8.11,8.75,5.23,16.98,9.1,24.32
		c3.86,5.77-5.97,6.77-2.33,14.31c5.06,7.95,11.23,14.09-0.93,18.42c-5.42,2.6,1.07,8.1,4.62,8.83c8.8,8.81-25.64,3.23-30.99,6.84
		c-9.01,3.29,4.75,3.81,6.93,7.32c-5.25-0.03-11.13-0.31-16.02-1.05c-0.46,0.45-1.29,2.32-1.47,2.94c-0.48,4.79-4.8,18.64-3.6,23.24
		c2.25,6.41,14.68,1.97,14.44,9.55c-1.57,6.29,3.53,1.83,3.81-1c0.65-3.27,0.52-7.2-2.33-8.93c-6.7-1.34-8.19-10.61-4.56-15.69
		c5.99-0.92,21.4,0.16,15.55-10.2c8.9-1.06,22.68-0.75,24.61-11.54c15.03,0.18,30.92,1.58,45.87-2.84c3.37-1.11,1.55-5.1-1.67-4.25
		c-9.99-0.68-38.56,3.48-43.4-5.41c3.09-0.8,5.02-4.17,4.99-7.36c0.33-6.84-8.26-10.7-6.3-17.75c3.87-11.36-11.99-16.28-9.79-26.48
		c14.4-13.12,30.89-26.53,48.03-35.99c-4.17,2.7-6.86,7.54-6.94,12.51c1.99-2.91,3.97-5.83,5.96-8.74
		c-2.53,3.12-3.26,7.61-1.85,11.37c1.88-3.36,3.65-6.79,5.29-10.28c-2.69,3.46-2.37,8.89,0.7,12.01
		c-0.21-9.96,7.24-19.56,16.95-21.84C626.01,205.41,614.44,204.25,603.6,212.12z"/>
	<path class="st8" d="M633.15,168.56c18.12,16,1.44-22.65,9.81-39.11c4.67-10.18,12.6-41.2,27.76-33.59
		c3.21,1.86,5.28,7.05,8.78,5.83c-22.06-20.79-18.87-64.97,16.99-75.08c6.55-2.44,16.27-1.2,18.2,6.55
		c-17.95,3.62-1.82,5.95-10.09,14.62c-10.61,8.32,6.57,13.61-3.75,18.52c-10.47-0.11-16.88-4.67-23.09,7.4
		c-4.88,6.2,3.07,9.36,5.15,13.95c1.07,4.74-0.88,12.21,6.23,10.61c8.41,0.38-2.8,4.88,2.71,12.13c4.72,5.07,7.21,14.42-1.74,16.16
		c-5.46,0.97-10.05-2.05-14.31-4.96c-2.57,1.27-3.82,5.9-6.45,4.79c-2.74-2.16-3.18-6.44-3.94-9.69
		c-6.96-9.83-12.68,14.66-12.59,20.04c-1.08,18.96,6.11,42.74-9.66,57.32c-7.5,6.64-20.81,7.13-26.63-1.02
		c-0.77-1.08,1.33-11.4,0.94-13.81C607.87,159.82,619.27,156.34,633.15,168.56z"/>
	<path class="st8" d="M711.79,83.88c8.24,44.61-21.32,31.35-24.5,75.71c-1.06,16.31,0.72,35.56,0.75,50.34
		c16.36,8.17-3.18,13.65-7.33,20.85c7.2-0.39,13.32-5.14,18.92-9.68c1.32,6.5-7.54,8.3-9.42,13.07c3.4,2.12,8.56-3.12,11.39-5.21
		c1.85,4.58-5.39,5.79-7,8.98c1.79,2.13,7.28-3.76,9.58-5.19c3.97-3.23,4.95-7.89,0.88-11.04c-1.74-7.95-2.68-10.1-9.32-15.34
		c-4.88-11.53-2.66-25.44-4.59-37.8c-4.86-31.29,11.56-32.8,28.48-51.53C725.54,106.47,726.16,87.5,711.79,83.88z"/>
	<path class="st8" d="M721.69,135.07c-3.48,7.45-2.2,17.33-7.28,24.91c-4.09,5.9,4.4,2.83,2.77,9.86c3.64,0.62,6.77,0.78,10.37-0.07
		c-1.65,4.32-6.57,2.02-9.49,4.34c-1.42,7.36,7.84,17.31,15.58,15.11c8.42-0.85,3.39,5.08,1.27,9.15
		c-1.52,16.56,2.65,33.62,5.87,49.87c2.25,6.23,0.2,12.33-6.27,14.56c-10.23,5.77-21.36,9.33-32.18,13.59
		c-13.11,7.27-32.02,42.73-6.71,44.09c-5.38-1.27-9.59-6.41-9.78-11.94c5.81,8.13,20.03,14.4,7.55-0.52c2.08,3.8,9.76,4.61,7.86-1.2
		c-1.63-6.05-0.39-12.8,3.28-17.88c8.4-11.36,23.99-11.93,36.25-16.66c46.5-18.94-23.01-73.95,13.34-91.72
		c-5.24-0.8-34.54,4.66-21.48-8.75c1.93-1.87,3.95-4.73,2.48-6.98c-1.43-2.18-4.97-1.72-6.79-3.59c-3.65-4.56,5.03-15.04-4.59-15.63
		c-2.52-2.65,5.06-1.76,4.19-3.79c-0.98-9.24,10.78-12.34,14.98-18.77C735.99,119.7,724.54,128.94,721.69,135.07z"/>
	<path class="st8" d="M792.98,255.88c-4.5,12.28-13.98,22.65-25.81,28.24c-2.44,0.92-4.48,2.62-4.89,5.31
		c-0.81,15.33-2.53,41.4,12.89,49.48c22.42,0.95-26.85-36.42,6.43-55.39c15.32-13.4,23.49-34.54,21.15-54.76
		c-0.22-1.93-1.49-7.44-4.5-5.72C795.4,233.23,797.7,245.63,792.98,255.88z"/>
	<path class="st8" d="M698.58,325.43c-0.48-6.27,2.48-11.85,9.09-12.03c11.98-2.51,24.9-12.78,37.1-6.06
		c-25.08,3.49-7.53,37.92-11.69,54.19c-6.07-16.37-6.84-34.17-6.99-51.18c-34.4,2.01-18.24,29.54-21.24,50.36
		C698.87,352.24,698.6,335.45,698.58,325.43z"/>
	<path class="st8" d="M781.2,177.49c24.77,46.62,85.93,82.66,74.47,142.83c-5.27,37.49-51.33,21.82-75.57,30.97
		c5.44-2.45,49.36,7.54,76.99-6.05c5.09-10.9,4.77-23.34,4.5-35.21c-2.62-15.88,5.66-39.29-10.3-49.22
		c-15.33-17.38-24.16-40.56-42.85-55.58c-27.5-21.67-18.69-29.28-26.01-54.67C777.56,157.65,778.37,169.5,781.2,177.49z"/>
</g>
<g id="Stroke">
	<path class="st22" d="M43.16,359.67c-0.11-18.9,0.02-38.77,9.26-55.26c2.83-5.04,8.34-10.3,13.85-6.58
		c0.64,0.43,1.21,0.96,1.72,1.54c6.91,7.77,8.46,18.61,9.46,28.86c0.97,9.98,1.66,20.04,0.78,30.02c0,0.05-0.01,0.1-0.02,0.16
		c-0.27,2.18-3.46,2.13-3.69-0.05c-1.44-13.61-2.88-27.22-4.32-40.83c-0.63-5.94-1.54-12.46-5.98-16.46
		c-1.12-1.01-2.57-1.87-4.35-0.48c-0.89,0.69-1.45,1.71-1.68,2.81c-3.38,15.96-5.91,32.09-7.57,48.32
		c-0.26,2.51-0.62,5.27-1.99,7.28c-0.45,0.66-1.5,0.36-1.53-0.44c-0.73-20.76,4.43-41.54,13.32-60.33
		c2.54-5.37,6.14-11.23,12.82-10.93c1.73,0.08,3.41,0.63,4.9,1.51c4.61,2.72,6.94,7.53,8.43,12.41c2.12,6.94,2.73,14.19,3.1,21.4
		c0.43,8.49,3.04,9.29,11.62,11.04c3.51,0.72,7.37,1.16,9.9,3.69c2.54,2.53,3.01,6.41,3.33,9.97c0.38,4.12,0.75,8.24,1.13,12.36"/>
	<path class="st22" d="M188.29,140.7c-3.99-0.94-7.67-3.14-10.39-6.21c-0.34,3.33,1.7,6.77,4.78,8.07
		c-6.58,0.61-13.37-1.47-18.47-5.66c0.65,3.45,2.04,6.77,4.06,9.64c-5.85-1.89-11.22-5.22-15.51-9.62
		c-0.31-0.32-0.65-0.66-1.09-0.72c-0.35-0.05-0.7,0.09-1.01,0.26c-1.04,0.54-1.98,1.28-2.67,2.23c-4.24,5.86,1.1,12.65-0.16,18.99
		c-0.14,0.69-0.65,1.54-1.32,1.32c-0.32-0.11-0.51-0.43-0.66-0.73c-1.14-2.33-1.28-2.79-1.93-4.6c-0.51-1.42-1.74-2.51-3.24-2.74
		c-4.04-0.62-3.14,5.05-2.19,7.57c2.07,5.45,5.89,6.86,3.02,11.95c-1.41,2.5-4.88,2.74-7.47,1.39c-1.29-0.67-2.84,0.27-2.71,1.71
		c0.04,0.5,0.16,0.99,0.34,1.46c0.6,1.58,2.96,1.07,2.83-0.62c-0.54-7.09-3.31-13.42-5.14-20.57c-2.13-8.31-2.79-17.86,2.28-24.79
		c4.14-5.66,11.28-8.37,18.01-9.96c5.97-1.41,12.11-2,18.24-1.9c5.04,0.08,11.54,0.64,14.69,5.02c3.81,5.29,5.38,11.61,8.05,17.56
		c0.37,0.83,0.79,1.71,1.58,2.16c0.79,0.45,2.04,0.15,2.21-0.74c0.15-0.82-0.73-1.53-1.56-1.56c-0.91-0.03-1.75,0.48-2.56,0.86
		C189.66,140.77,188.96,140.86,188.29,140.7z"/>
	<path class="st22" d="M167.5,188.5c-6,5-6.78,9.52-11.48,11.44c-0.76,0.31-1.6,0.55-2.39,0.36c-0.75-0.18-1.36-0.71-1.93-1.22
		c-6.57-5.93-12.73-12.33-18.41-19.12c-0.54-0.65-1.17-1.35-2-1.44c-0.54-0.06-1.07,0.16-1.57,0.37c-5.3,2.2-9.72,4-14,5.88
		c-4.43,1.95-9.41,3.42-13.74,5.57c-2.89,1.43-5.84,3.15-7.44,5.95c1.15,0.66,2.7-0.06,3.4-1.18s0.79-2.51,0.86-3.84
		c0.34-6.61,0.69-13.22,1.03-19.83c0.06-1.06-1.17-1.72-2-1.06c-0.01,0-0.01,0.01-0.02,0.01c-4.88,3.9-9.77,7.8-14.65,11.7
		c-1.2,0.96-2.47,2-2.7,3.63c-0.11,0.77,0.13,1.59,0.73,2.1c1.11,0.94,2.51,0.33,3.63-0.3c3.98-2.23,7.71-4.91,11.08-7.97
		c0.64-0.58,1.3-1.23,1.48-2.07c0.18-0.85-0.38-1.89-1.24-1.88c-1.28,0.32-1.62,1.94-1.71,3.26c-0.39,5.33-0.78,10.66-1.16,15.99
		c-0.05,0.65-0.09,1.31,0.09,1.94c0.24,0.82,0.85,1.48,1.45,2.09c4.39,4.44,9.55,8.1,15.19,10.77c1.32,0.63,2.84,1.39,2.79,3.06
		c-0.03,1.1-0.92,1.72-1.88,1.19c-0.58-0.32-0.62-0.96-0.68-1.54c-0.4-3.66-2.68-6.9-5.51-9.25c-2.83-2.35-6.21-3.93-9.55-5.48
		c-0.53-0.25-1.1-0.5-1.68-0.39c-0.89,0.17-1.37,1.11-1.73,1.94c-9.82,22.79-17.95,34.73-20.41,59.43
		c-0.59,5.92-0.92,15.93,0.43,21.68c0.52,2.24,2.09,4.09,4.17,5.07c11.76,5.55,23.38,10.27,39.03,12.43"/>
	<path class="st23" d="M110.21,212.34c2,14-2.29,36.87-1.71,50.16l-20.82-3.01c-1.53-0.26-2.88-1.4-3.08-2.94c0-0.01,0-0.03,0-0.05
		c-0.07-0.8,0.85-1.3,1.64-1.46c3.17-0.62,6.34,0.77,9.34,1.99c10.79,4.39,17.28,8.01,28.92,8.47c-8.51,7.89-9.35,17.44-11.54,28.84
		c-0.21,1.09-0.36,2.34,0.84,3.06c0.97,0.58,2.21,0.44,3.13-0.23c2.64-1.92,5.39-3.8,7.52-6.29c0.8-0.94,1.54-2.03,1.57-3.26
		c0.03-1.44-1.3-3-2.82-2.3c-0.87,0.4-1.15,1.47-0.48,2.16c0.76,0.8,1.95,0.24,2.39-0.62c0.37-0.73,0.34-1.58,0.3-2.4
		c-0.29-6.33-0.59-12.66-0.88-18.99c4.25,1.63,9.06,1.3,13.42-0.04c3.61-1.11,6.98-2.87,10.27-4.73c1.34-0.76,2.81,0.84,1.91,2.09
		c-0.18,0.24-0.39,0.47-0.61,0.7c-1.58,1.58-4.22,3.41-7,4c4.14,1.54,7.89,1.62,12.26,1.01c1-0.14,2.04-0.33,3-0.03
		c0.96,0.31,1.78,1.33,1.47,2.29c-0.23,0.69-0.93,1.09-1.61,1.36c-3.82,1.51-8.28,0.6-12.21,1.48c-1.02,0.23-1.16,1.64-0.2,2.03
		c4.19,1.71,8.78,2.45,13.3,2.14c0.5,0.73,0.04,1.8-0.72,2.25c-0.76,0.45-1.69,0.46-2.58,0.45l-10.85-0.08
		c-1.24-0.01-1.48,1.77-0.28,2.07c0.23,0.06,0.46,0.11,0.69,0.15c3.95,0.79,7.97,1.26,11.99,1.42c0.2,1.14-1.28,1.76-2.42,1.92
		c-3.13,0.44-6.28,0.69-9.44,0.73c-0.87,0.01-1.1,1.2-0.3,1.54c1.34,0.56,2.76,0.93,4.2,1.09c0.04,1.16-1.53,1.56-2.69,1.51
		c-6.99-0.26-13.91-2.24-19.99-5.71"/>
	<path class="st22" d="M141.5,290.5c3.45,2.8,7.96,3.54,12.23,2.34c2.67-0.75,5.07-2.28,7.74-3.03c4.49-1.27,9.27-0.24,13.94-0.38
		s9.98-2.13,11.29-6.61c0.16-0.56,0.28-1.18,0.44-1.76c0.24-0.88,1.54-0.73,1.6,0.18c0.18,2.67-0.06,5.36-1.16,7.77
		c-1.42,3.11-4.53,5.63-7.95,5.53c-3.42-0.09-6.63-3.45-5.89-6.79c4.26,0.5,8.5-2.35,10.28-6.25c1.78-3.9,1.33-8.58-0.51-12.46
		c-0.34-0.72-0.75-1.44-1.39-1.91c-1.21-0.88-2.86-0.62-4.34-0.4c-7.9,1.18-16.11,0.25-23.55-2.67c-0.42-0.17-0.6-0.32-0.86-0.57
		c-0.66-0.65-1.79-0.31-1.96,0.6c-0.08,0.42-0.05,0.87,0.09,1.4c0.32,1.24,1.79,2.58,3,3"/>
	<path class="st22" d="M190.5,140.5c-6,2-3.33,25.11-6.71,34.2c-2.15,5.79-5.19,7.28-10.89,9.66c-5.7,2.39-14.08,4.29-19.4,1.14
		c-0.85-0.5-1.15-1.06-0.88-1.57c0.27-0.5,0.95-0.67,1.51-0.54c0.56,0.13,1.03,0.5,1.47,0.86c2.84,2.27,5.92,4.69,9.55,4.83
		c2.67,0.1,3.77-2.26,10.35-3.58c5-1,11,1,14,2"/>
	<path class="st22" d="M163.96,154.25c-0.03-0.78,0.46-1.56,1.18-1.86c0.72-0.3,1.62-0.1,2.15,0.47"/>
	<path class="st22" d="M178.77,151.52c0.25-0.61,0.9-1.04,1.56-1.03c0.66,0,1.3,0.44,1.54,1.06"/>
	<path class="st22" d="M146.44,292.98c4.12,1.13,9.3,4.79,10.48,9.48c1.83,7.27,2.19,15.2,2.37,17.07
		c1.85,19.54,0.56,21.15,2.41,40.69"/>
	<path class="st22" d="M201,362.69c0.7-3.61,1.08-7.28,1.15-10.95c0.05-3.09-0.32-6.6-2.76-8.49c-2.07-1.61-5.21-1.66-6.88-3.69
		c-1.24-1.51-1.27-3.65-1.29-5.6c-0.07-6.2-0.69-12.45-2.61-18.35c-1.64-5.06-4.2-9.76-6.74-14.42c-1.21-2.22-2.42-4.45-3.63-6.67"
		/>
	<path class="st22" d="M208.23,363.21c0.55-5.47,0.68-10.97,0.37-16.46c-0.17-3-0.48-6.07-1.76-8.79c-1.28-2.72-3.71-5.07-6.68-5.51
		c-1.24-0.18-2.68-0.11-3.52-1.03c-0.54-0.59-0.66-1.44-0.77-2.23c-1.54-11.11-4.98-21.96-10.12-31.93
		c-1.09-2.11-3.13-7.29-1.25-8.75c1.63-1.27,5.02,2.06,6.68,3.3c10.59,7.91,17.5,20.04,20.95,32.8s3.67,26.18,2.82,39.37"/>
	<path class="st22" d="M179.5,266.5c7-2,17-11,19.04-9.74c1.03,0.64,0.02,1.53-0.61,1.93c-0.63,0.4-1.42,0.45-2.17,0.48
		c-4.29,0.19-8.58,2.37-12.86,2.56c-0.49,0.02-1.03,0.02-1.4-0.3c-0.49-0.44-0.42-1.21-0.3-1.86c2.84-15.94,3.29-34.3,1.33-50.37"/>
	<path class="st22" d="M187.94,288.21c2.65-3.82,6.21-6.89,9.36-10.29c3.16-3.41,6.01-7.37,6.71-11.96c0.48-3.12-0.07-6.3-0.59-9.42
		c-2.19-13.21-3.78-26.53-4.76-39.88c-0.63-8.57-1.06-17.38-4.54-25.23c-0.4-0.9-0.85-1.81-1.6-2.46c-0.89-0.78-2.08-1.14-3.03-1.46
		"/>
	<path class="st22" d="M717.49,176.39c2.33,7.68,4.79,11.84,13.51,12.6c1.03,0.09,1.9,0.14,2.94,0.13c1.03-0.01,2.17,0.08,2.92,0.8
		c0.85,0.8,0.92,2.18,0.47,3.27c-0.44,1.08-0.88,1.7-1.71,2.53"/>
	<path class="st23" d="M717.6,176.58c0.07-0.6-1.02-0.68-1.16-1.26c-0.07-0.3,0.17-0.6,0.45-0.72c0.28-0.12,0.61-0.11,0.91-0.12
		c2.31-0.09,5.99-1.14,7.78-2.6s2.32-2.87,4.16-4.07c0.3-0.19,0.75-0.16,1.02,0.07c0.33,0.27,0.28,0.83,0,1.15
		c-0.28,0.32-0.71,0.46-1.13,0.58c-4.1,1.12-8.24,0.69-12.46,0.24c0.31-2.33,1.06-4.96-3.31-5.38c-0.18-0.02-0.32-0.16-0.49-0.23
		c-0.87-0.4-1.03-1.57-0.29-2.18c2.09-1.72,3.39-4.36,4.05-7.02c0.79-3.21,0.82-6.55,1.27-9.82c1.23-8.98,4.24-16.69,14.26-20.92
		c3.22-1.36,6.51-2.43,10-2.29l0.03,0c1.11,0.05,1.43,1.55,0.43,2.05c-2.77,1.38-5.79,2.24-8.68,3.37
		c-2.51,0.98-5.02,2.24-6.98,4.05c-0.81,0.75,0.03,2.05,1.05,1.62c1.89-0.8,3.71-2.05,5.57-2.25c0.73-0.08,1.12,0.86,0.53,1.3
		c-1.79,1.34-4.15,2.2-4.6,4.32c-0.06,0.3-0.07,0.64,0.09,0.9c0.41,0.63,1.39,0.29,2.02-0.13c2.89-1.9,6.04-4.19,9.46-3.63
		c0.13,0.02,0.27,0.05,0.35,0.16c0.16,0.2-0.01,0.49-0.18,0.68c-1.91,2.13-4.96,3.28-6.15,5.88c-0.18,0.4-0.31,0.88-0.08,1.26
		c0.43,0.71,1.52,0.35,2.23-0.08c2.44-1.45,5.19-2.69,8.01-2.36c0.29,0.03,0.6,0.1,0.81,0.3c0.61,0.61-0.19,1.58-0.93,2.02
		c-2.18,1.28-4.68,2.36-5.97,4.54c-0.34,0.58-0.44,1.56,0.21,1.73c0.27,0.07,0.54-0.04,0.79-0.16c1.48-0.71,2.84-1.66,4.32-2.37
		c0.54-0.26,1.1-0.48,1.67-0.64c0.89-0.25,1.5,0.89,0.77,1.45c-1.66,1.28-3.18,2.75-4.51,4.37c-0.24,0.29-0.47,0.71-0.23,1
		c0.22,0.27,0.64,0.17,0.97,0.04c2.5-1,4.94-2.26,7.53-2.9c0.81-0.2,1.33,0.88,0.67,1.39c-1.22,0.93-2.96,1.55-3.51,2.98
		c-0.06,0.15-0.1,0.31-0.07,0.46c0.07,0.39,0.53,0.58,0.92,0.56c0.39-0.02,0.77-0.19,1.16-0.2c0.12-0.01,0.27,0.02,0.32,0.13
		c0.05,0.11-0.16,0.24-0.19,0.12"/>
	<path class="st22" d="M721.25,156.71c-0.07,1.06-0.05,2.13,0.04,3.19c0.04,0.4,0.21,0.92,0.61,0.91c0.24,0,0.42-0.21,0.55-0.41
		c0.58-0.91,0.61-2.04,0.63-3.12c0.05-2.96,0.61-8.71-1.14-8.72c-0.91-0.01-0.58,3.33-0.42,5c0.04,0.39,0.13,0.84,0.47,1.04
		c0.2,0.11,0.44,0.11,0.67,0.1c9.01-0.24,18.02-0.37,27.03-0.39c1.11,0,2.59,0.31,2.66,1.42c0.07,0.96-1.31,1.56-2.09,0.99
		c-0.78-0.57-0.79-1.83-0.19-2.58c0.6-0.75,1.63-1.05,2.6-1c2.03,0.1,3.83,1.56,4.72,3.39s0.98,3.95,0.68,5.96
		c-0.7,4.65-3.91,9.23-8.54,10.07c-0.3,0.05-0.7-0.35-0.4-0.4c-0.57,0.2-0.96-0.77-0.56-1.23c0.39-0.46,1.15-0.4,1.66-0.07
		s0.85,0.85,1.26,1.31c1.89,2.1,5.01,2.48,7.83,2.58c4.04,0.15,8.27-0.04,11.8-2.02c3.29-1.85,5.61-5.11,7.04-8.61
		c1.43-3.5,2.05-7.26,2.67-10.99c0.46-2.79,0.93-5.59,1.39-8.38c0.13-0.78,0.26-1.56,0.22-2.35c-0.11-2.24-1.56-4.17-3-5.9
		c-2.99-3.59-6.27-6.99-10.16-9.58c-6.11-4.07-13.63-5.97-20.94-5.27c-0.78,0.07-1.6,0.2-2.19,0.7c-0.59,0.51-0.81,1.53-0.24,2.06
		c0.43,0.4,1.09,0.37,1.67,0.32c3.71-0.3,7.47-0.45,11.11,0.31c5.32,1.11,10.19,4.23,13.43,8.59c1.27,1.71,2.47,3.74,4.5,4.39
		c0.98,0.31,2.04,0.26,3.07,0.13c2.36-0.28,4.67-0.89,6.86-1.81c2.71-1.13,5.34-2.76,8.27-2.8c3.47-0.04,6.66,2.25,8.54,5.17
		c1.88,2.92,2.67,6.4,3.24,9.83c0.78,4.64,1.23,9.37,0.84,14.06c-0.96,11.72-7.1,23.02-5.43,34.67c0.15,1.02,0.37,2.07,1,2.88
		c0.63,0.81,1.78,1.3,2.72,0.89c1.37-0.61,1.4-2.7,0.45-3.86c-0.94-1.17-2.44-1.69-3.81-2.31c-7.4-3.36-12.24-10.88-14.35-18.73
		c-2.11-7.85-1.88-16.11-1.67-24.23c0.04-1.6,0.07-3.26-0.59-4.72c-0.66-1.46-2.21-2.64-3.78-2.33c-2.24,0.45-2.92,3.26-3.17,5.52
		c-0.6,5.41-0.86,7.11-3.36,13.24c-1.2,2.96-2.67,4.92-4.68,7.4c-1.41,1.73-5.72,5.47-7.16,7.17c-1.96,2.32-4.49,4.07-6.86,5.98
		c-9.33,7.51-16.4,17.8-20.08,29.2c-2.54-2.75-3.31-6.64-3.98-10.32c-0.15-0.81-0.29-1.63-0.17-2.45c0.16-1.1,0.8-2.06,1.47-2.94
		c6.79-9.01,17.84-13.47,27.57-19.18c1.95-1.14,2.8-2.08,4.42-4.02"/>
	<path class="st22" d="M736.01,212.51c0.51,13.27,2.84,26.46,6.91,39.1c0.35,1.09,1.39,1.88,2.53,1.77
		c1.61-0.16,1.92-1.84,1.96-3.22c0.4-12.72-4.31-26.27,1.3-37.69c1.57,0.27,1.94,2.33,1.94,3.92c0,7.52,0.01,15.05,0.01,22.57
		c0,6.79-0.55,14.7-6.16,18.52c-1.38,0.94-2.96,1.54-4.53,2.13c-14.81,5.64-29.32,12.07-43.44,19.26c-0.82,0.42-1.74,0.96-1.93,1.86
		c-0.11,0.51,0.05,1.04,0.2,1.53c2.31,7.54,4.89,15,7.74,22.36c0.43,1.1,0.97,2.32,2.07,2.76c1.1,0.44,2.66-0.7,2.1-1.74
		c-3.89-1.14-6.51-4.76-8.33-8.39c-1.83-3.62-3.25-7.57-6.08-10.48c-3.57,4.24-7.2,8.59-9.21,13.76s-2.14,11.4,1.06,15.93
		s10.27,6.34,14.55,2.83c-3.04,0.21-6.25,0.4-8.99-0.94c-2.74-1.34-4.7-4.78-3.34-7.51c2.61,3.76,7.02,6.21,11.59,6.46
		c1.69,0.09,4.01-1.04,3.32-2.58c-2.93,0.55-6.08-1.71-6.51-4.66c1.18-0.06,2.09,0.96,3.13,1.52c3.09,1.65,6.63-0.93,9.33-3.15
		c15.52-12.79,35.36-20.62,54.97-25.04c4.09-0.92,10.53-2,17.2-7.15c10.69-8.27,13.17-19.18,14.41-26.63
		c1.5-9.04,1.26-17.33,2.18-26.45c0-0.02,0-0.04,0.01-0.06c0.2-1.82,2.96-1.52,2.82,0.31l-1.06,14.02
		c-0.36,4.78-1.23,9.49-1.89,14.24c-0.6,4.38-1.87,8.81-3.51,12.46c-2.96,6.59-6.79,10.76-12.71,14.89
		c-5.2,3.63-11.76,4.34-17.07,7.81c-1.03,0.67-2,2.25-2.4,3.41c-0.35,1.03-0.53,3.32-0.31,4.39c1.46,7.22,2.93,14.44,4.39,21.66
		c0.78,3.84,0.55,7.45,2.44,10.88c1.89,3.43,5.08,6.37,8.96,6.95c3.69,0.55,7.34-1.08,10.61-2.87c7.05-3.87,13.53-8.7,20.58-12.57
		c12.07-6.62,25.76-10.27,39.52-10.55c2.01-0.04,4.7,0.62,4.69,2.63c-0.01,1.46-1.54,2.37-2.88,2.96
		c-18.59,8.13-39,11.21-58.04,18.23c-1.5,0.55-3.03,1.16-4.22,2.23c-3.15,2.85-2.83,7.8-2.26,12.01c0.15,1.09,0.46,2.38,1.51,2.72
		c0.33,0.11,0.69,0.09,1.04,0.07c15.69-0.79,31.34-2.28,46.89-4.44c4.33-0.6,8.83-1.33,12.42-3.82c4.37-3.04,6.72-8.23,8.13-13.37
		c4.05-14.77,5.27-19.7,2.23-34.71c-0.79-3.91-3.46-14.94-4.99-18.62c-1.32-3.19-4.66-9.85-6.47-12.79
		c-8.96-14.59-18.23-29.14-29.92-41.65c-9.9-10.59-21.56-19.77-29.2-32.08c-7.64-12.32-10.31-29.34-1.43-40.8
		c0.8-1.04,1.82-2.08,3.12-2.19c3.05-0.27,3.94,4.05,3.7,7.11c-0.65,8.27-1.03,16.65,0.48,24.81c0.33,1.76,0.77,3.57,1.91,4.96
		c1.13,1.39,3.14,2.21,4.77,1.47c1.63-0.74,2.18-3.35,0.7-4.36c-1.82-1.24-3.89,1.18-3.96,3.38c-0.05,1.53-0.89,5.86,3.85,10.61"/>
	<path class="st22" d="M808.29,155.65c8.99,0.39,17.98,0.77,26.97,1.16c2.98,0.13,6.1,0.3,8.68,1.8c3.31,1.93,5.06,5.66,6.62,9.16
		c3.65,8.2,7.38,17.05,5.66,25.86c-1.53,7.87-9.54,14.85-16.98,13.44c-1.86-0.35-3.31-1.95-3.27-3.84c0-0.08,0.01-0.16,0.01-0.25
		c0.12-1.97,3.01-2.16,3.36-0.21c0.33,1.85,0.49,3.73,0.49,5.61c0,2.57,2.31,4.51,4.84,4.08c8.78-1.49,18.34-1.21,22.88,5.94
		c2.19,3.44,2.53,7.7,2.8,11.77c1.96,29.44,3.47,58.91,4.5,88.4c0.09,2.6-0.1,5.6-1.02,8.02c-0.92,2.42-4.48,1.86-4.59-0.72
		c-1.01-23.86-2.02-47.73-3.03-71.59c-0.07-1.67-0.21-3.49-1.38-4.68c-1.1-1.12-2.79-1.34-4.35-1.51l-14.82-1.54
		c-1.86-0.19-3.74,0.76-4.47,2.49c-1.29,3.08,2.2,5.25,5.09,6.11c2.76,0.82,5.58,1.46,8.43,1.9c3.98,0.62,7,3.9,7.26,7.91
		c1.45,22.2,2.02,49.14,0.56,71.34c-0.41,6.26-2.33,11.67-9.98,12.7c-22.94,3.1-45.65,3.97-68.75,2.66
		c-2.07-0.12-4.65,0.02-5.53,1.9c-0.31,0.65-0.33,1.4-0.35,2.12c-0.06,2.03-0.11,4.06-0.17,6.1c0.27,0.48,1.05,0.4,1.42-0.02
		c0.36-0.42,0.42-1.01,0.46-1.57c0.3-4,0.6-8,0.9-12.01c0.23-3.06-0.18-8.35-4.83-10.1c-13.2-4.98-14.46-24.67-26.85-30.49
		c-6.72-3.16-14.62-2.54-21.83-0.74s-14.43,3.56-21.45,5.96c-3.54,1.21-8.09-1.02-9.5-2.4"/>
	<path class="st22" d="M697.67,319.72c-2.17,7.86-0.43,16.2,1.3,24.16c1.63,7.48,1.63,7.48,3.27,14.97"/>
	<path class="st22" d="M730.27,306.06c-2.6,2.4-3.39,6.14-3.75,9.66c-1.48,14.55,2.16,29.09,5.76,43.26"/>
	<path class="st22" d="M737.14,229.46c-0.51-2.38-2.77-4.1-5.15-4.62c-2.38-0.53-4.86-0.08-7.23,0.52c-4,1.01-7.89,2.45-11.59,4.29
		c-1.02,0.51-2.2,1.48-1.71,2.54c0.38,0.81,1.39,0.95,2.12,0.44c1.06-0.73,1.17-2.05,1.18-3.24c0.05-4.24-0.5-8.48-1.65-12.56
		c-1.32-4.72-3.79-9.58-8.27-11.57c-2.17-0.96-4.42,0.41-6.79,0.5c-3.95,0.15-8.05-0.54-11.69,1c-0.49,0.21-1.03,0.48-1.21,0.98
		c-0.35,0.97,0.84,1.76,1.83,2.07c1,0.31,2.03,0.55,3.07,0.73c2.48,0.42,4.34,2.6,4.27,5.11c-0.05,2.1-0.71,4.02-2.4,5.64
		c-2.92,2.79-5.04,4.9-10.35,6.95c-0.83,0.32-0.85,1.71-0.05,2.52c0.55,0.56,1.42,0.72,2.17,0.48c3.82-1.26,8.35-2.57,14.01-8.32
		c0.61-0.62,1.07-1.58,2.01-1.45c0.83,0.11,1.3,0.98,1.08,1.79c-0.27,1.01-0.93,2.5-3.69,4.71c-3.83,3.07-6.35,3.95-6.35,3.95
		c-3.32,2.18-0.38,3.47,0.8,3.09c9.97-3.22,11.21-9,12.77-7.44c1.56,1.56-5.31,6.54-10.81,9.25c-1.28,0.63-0.01,2.68,1.38,2.36
		c7.36-1.7,13.85-7.1,16.67-14.14c2.81-7.03,1.83-15.41-2.33-21.71c-0.97-1.47-0.34-3.47,1.28-4.16c8.61-3.66,17.37-6.99,26.23-9.98
		c-0.73-0.01-1.45-0.02-2.18-0.03"/>
	<path class="st22" d="M711.42,75.84c1.53-2.92,3.62-5.53,6.12-7.67c2.33-2,5.91,0.11,5.18,3.1c-0.19,0.8-0.48,1.59-0.84,2.32
		c-1.29,2.66-3.4,4.83-5.47,6.94c-1.04,1.06-2.12,2.14-3.49,2.69c-1.38,0.55-3.14,0.41-4.09-0.72c-4.05,5.59-8.52,10.88-13.35,15.81
		c-1.05,1.07-2.17,2.16-3.61,2.58c-1.04,0.31-2.15,0.23-3.23,0.16c-2.87-0.2-5.74-0.4-8.61-0.6c-1.24-0.09-2.53-0.18-3.63-0.77
		c-1.29-0.69-2.15-1.95-2.96-3.16c-2.34-3.49-4.7-7.04-6.06-11.02c-1.32-3.87-1.64-8.02-1.62-12.12
		c0.04-12.31,1.23-24.97,9.03-34.49c8-9.76,21.39-15.58,33.65-12.36c4.22,1.11,9.74,5.03,12.34,8.54c2.66,3.59,5.02,7.9,5.68,12.1
		c0.82,5.24,0.97,11.34-2.87,14.99c-1.88,1.78-4.42,2.66-6.65,3.97c-3.25,1.91-5.16,4.42-7.15,8.06c-0.45,0.82-1.74,0.42-1.58-0.51
		c0.48-2.88,3.2-6.08,1.99-8.88c-1.68-3.89-8.58-2.22-10.79-5.83c-0.8-1.3-0.72-2.94-1.02-4.44c-0.3-1.5-1.35-3.13-2.88-3.06
		c-0.73,0.03-1.38,0.46-2.01,0.84c-2.54,1.53-5.45,2.42-8.41,2.59c-1.27,0.07-2.63-0.02-3.68-0.75c-0.43-0.31-0.96-0.9-1.37-1.57
		c-0.95-1.54-2.88-2.13-4.48-1.29c-4.39,2.3-7.49,7.05-8.69,12.04c3.93-1.67,8.71-3.27,12.2-0.81c1.25,0.88,2.26,2.26,3.76,2.55
		c1.54,0.3,3-0.65,4.42-1.29c4.4-2,9.94-1.17,13.56,2.04"/>
	<path class="st22" d="M680.33,70.16c-0.1,2.25-1.32,4.43-3.18,5.7c-0.64,0.43-1.44,0.94-1.38,1.71c0.04,0.55,0.54,0.95,1.01,1.24
		c4.09,2.54,9.64,2.49,13.68-0.12c-0.07,1.29,1,2.32,1.9,3.24c0.91,0.92,1.79,2.22,1.3,3.41c-0.28,0.69-0.95,1.12-1.58,1.5
		c-2.36,1.41-3.61,3.52-6.18,4.5c-2,0.76-5.55,0.46-7.47-0.48c-2.31-1.14-3.08-3.99-3.81-6.46c-0.2-0.67-0.58-1.47-1.28-1.49
		c-0.76-0.02-1.16,1.07-0.73,1.7c0.43,0.63,1.33,0.77,2.06,0.57c0.74-0.2,1.37-0.65,2.03-1.03c0.66-0.38,1.42-0.68,2.17-0.54
		c1.34,0.27,2.29,1.92,3.64,1.67c0.87-0.16,1.43-1.08,2.29-1.25c1.05-0.22,1.95,0.71,2.96,1.07c0.88,0.31,1.91,0.14,2.65-0.43"/>
	<path class="st22" d="M672.73,68.18c0.35-0.71,0.85-1.45,1.62-1.62c0.58-0.13,1.2,0.11,1.66,0.49s0.79,0.89,1.11,1.39"/>
	<path class="st22" d="M693.35,69.83c0.57-0.67,1.23-1.4,2.1-1.49c1.22-0.13,2.16,1,2.87,2"/>
	<path class="st22" d="M711.45,83.66c-1.39,2.96,0.83,6.22,2.03,9.26c2.22,5.62,0.85,12.12-2.05,17.42
		c-2.91,5.29-7.21,9.66-11.28,14.12s-8.02,9.26-9.98,14.97c-1.36,3.97-1.7,8.21-1.93,12.4c-1,18.05-0.28,36.15,0.44,54.22"/>
	<path class="st22" d="M690.79,205.48c-0.33-17.99-0.6-35.99-0.8-53.98c-0.04-3.72-0.04-7.62,1.68-10.93
		c2.18-4.19,6.74-6.63,11.3-7.87c4.56-1.24,9.34-1.52,13.9-2.78c2.04-0.56,4.05-1.33,5.73-2.62c2.74-2.11,4.33-5.41,5.2-8.76
		c1.18-4.58,1.18-9.36,1.17-14.09c-0.01-3.54,0.2-7.2-0.91-10.56c-2.19-6.66-7.13-8.84-9.07-10.5c-0.9-0.77-0.21-2.26,0.95-2.01
		c1.97,0.41,4.18,1.41,7,3.86c5.55,4.82,10.21,8.81,16.21,13.26c1.92,1.42,5.29,3.75,9.02,7.81c4.58,4.98,4.32,8.83,2.04,15.2"/>
	<path class="st22" d="M667.63,98.64c-6.97,10.6-6.16,21.63,0.58,32.02c0.52,0.8,1.17,1.51,1.96,2.04c3.14,2.06,5.73-0.17,8.16-1.81
		c2.33-1.57,4.95-2.72,7.69-3.37c1.07-0.25,2.27-0.41,3.2,0.17c0.65,0.4,1.05,1.1,1.32,1.82c1.21,3.29-0.52,7.38-3.73,8.8
		c-0.82-0.7-0.17-2.02,0.51-2.85c2.08-2.56,4.16-5.12,6.24-7.68c0.64-0.79,1.33-1.83,0.9-2.76c-0.22-0.48-0.69-0.79-1.16-1.03
		c-2.15-1.15-4.61-1.58-6.89-2.45c-7.09-2.7-11.49-7.17-11.49-15.07c0-5.41-3.79-10.92-5.6-11.85c-2.25-1.16-6.76-0.13-8.78,1.38
		s-3.4,3.72-4.69,5.89c-8.43,14.1-15.84,29.61-15.72,46.03c0.05,6.45,1.26,12.83,1.67,19.26c0.08,1.32,0.12,2.69-0.4,3.9
		c-0.49,1.14-3.93,2.92-3.97,2.79c0-0.02,0.24,1.91,0.24,1.92c0.45,14.71-1.34,13.54-5.93,18.87c-0.95,1.1-1.92,2.22-3.19,2.92
		c-3.88,2.16-7.9-0.99-11.85-3.01c-0.48-0.25-0.98-0.51-1.28-0.96c-0.56-0.84-0.21-1.96,0.07-2.93c1.94-6.61-0.3-14.26-5.49-18.79
		c0.32,5.06-2.01,10.22-6.02,13.33c-4.01,3.11-9.58,4.08-14.41,2.51c-1.36,5.56-4.76,10.46-8.86,14.46s-8.89,7.21-13.66,10.39
		c-0.8,0.53-1.62,1.08-2.56,1.27c-1.14,0.23-2.31-0.07-3.43-0.37c-1.96-0.53-3.92-1.06-5.88-1.59c-0.58-0.16-1.2-0.34-1.56-0.82
		c-0.33-0.45-0.36-1.05-0.36-1.61c-0.08-5.13-0.15-10.26-0.23-15.4c-0.05-3.46,0.26-7.6,3.26-9.33c0.43,3.82,1.08,7.68,2.7,11.17
		c1.62,3.49,4.33,6.62,7.91,8.02c3.58,1.41,8.06,0.8,10.67-2.03"/>
	<path class="st22" d="M635.84,214.16c-4.29-0.39-8.07,0.2-9.78,4.16c-1.27,2.96-0.05,5.55-1.55,6.03
		c-0.55,0.18-1.67-2.91-0.69-5.68c0.79-2.23,0.8-5.15-0.83-2.06c-1.39,2.63-1.35,3.66-1.32,5.7c0.01,0.79,1.03,2.96,0.05,3.74
		c-0.82,0.66-1.88-0.47-2.32-1.91c-1.57-5.2,2.14-8.81,1.5-9.06c-0.5-0.19-1.42,0.81-2.47,3.29c-0.68,1.6-1.22,5.85-2.43,5.22
		c-2.43-0.19,0.41-8.11,1.46-10.05c0.36-0.66-3.57,3.62-3.57,6.61c0,0.71-0.41,1.54-1.1,1.65c-0.95,0.14-1.32-1.23-1.17-2.18
		c0.51-3.18,2.36-6.03,4.72-8.23c2.36-2.19,5.21-3.78,8.11-5.18c3.93-1.89,8.63-3.46,12.54-1.53c1.81,0.9,3.2,2.45,4.55,3.96
		c0.2,0.22,0.41,0.49,0.38,0.79c-0.02,0.25-0.21,0.44-0.38,0.62c-2.2,2.2-4.88,3.91-7.79,5c-2.46,0.92-5.38,1.64-6.52,4
		c1.87,0.89,4.03-0.17,5.82-1.2c5.18-2.99,10.39-6,14.98-9.84c0.51-0.43,1.06-1,0.93-1.65c-0.08-0.38-0.39-0.68-0.75-0.85
		c-1.17-0.55-2.5,0.14-3.7,0.62c-1.2,0.48-2.91,0.54-3.44-0.64c3.36-0.56,6.65-1.55,9.76-2.93c1.07-0.48,2.14-1.01,3.04-1.77
		c1.78-1.51,2.74-3.8,3.09-6.1c0.35-2.3,0.14-4.65-0.06-6.97c-0.51-5.72,0.07-11.2,0.99-16.87c1.91-11.8-0.21-23.84-2.33-35.61"/>
	<path class="st22" d="M620.73,205.56c-11.03,1.34-19.47,10.07-29.17,15.49c-8.8,4.92-19.49,7.62-25.49,15.73
		c-1.92,2.59-3.21,5.57-4.49,8.53c-0.47,1.08-0.94,2.22-0.8,3.38c0.1,0.87,0.54,1.66,0.99,2.41c2.09,3.54,4.55,6.87,7.32,9.9
		c2.66,2.91,5.87,6.65,4.33,10.29c-0.57,1.34-1.7,2.33-2.8,3.28c-2.41,2.07-5.38,4.3-8.97,0.97c-0.61-0.57-1.11-1.24-1.55-1.94
		c-3.77-6.02-7.99-12.14-14.07-15.88c-5.19-3.19-11.32-4.4-17.3-5.55c-3.78-0.73-7.94-1.39-11.27,0.53
		c-2.43,1.4-4.07,4.02-6.22,5.74c-1.17,0.93-2.87-0.15-2.55-1.62c0.65-2.99,2.95-5.74,5.08-8.12c8.32-9.26,16.51-19.86,17.25-32.28
		c0.29-4.81-0.57-9.74,0.63-14.4c1.04-4.03,3.52-7.51,6.09-10.78c1.63-2.08,3.81-4.35,6.57-3.55c1.31,0.38,2.31,1.41,2.89,2.63
		c1.11,2.36,0.76,4.93,0.53,7.43c-0.5,5.62,0.12,12.15,4.68,15.47c2.25,1.64,5.11,2.19,7.88,2.45c8.72,0.82,17.66-0.84,25.5-4.74
		c3.58-1.78,6.91-4.01,10.26-6.19c3.58-2.34,7.22-4.67,11.25-6.09c4.03-1.41,8.55-1.85,12.57-0.38c3.41,1.25,5.04,5.68,11.36,5.65"
		/>
	<path class="st22" d="M607.5,181.32c0.7-0.61,1.18-1.44,1.41-2.33c0.39-1.53-1.56-2.58-2.69-1.47l-4.53,4.44
		c-0.69,0.68-1.83,0.02-1.59-0.92l2.76-10.68c1.33-5.15,2.57-10.99-0.27-15.49l-3.99,2.02l0.18-5.38c-2.79,0.27-5.5,1.33-7.73,3.03
		l2.65-5.2c-4.53-0.05-9.05,1.55-12.55,4.42c0.96-2.73,2.47-5.27,4.41-7.41c-2.71,0.22-5.36,1.19-7.57,2.78
		c-0.12-1.46,0.35-2.96,1.29-4.08c-1.98,0.93-3.76,2.29-5.18,3.95l-0.24-3.58c-9.92,3.39-13.11,15.58-14.82,25.92
		c0.16-1.17-0.06-2.37-0.58-3.43c-0.56-1.14-2.19-1.05-2.63,0.14c-1.1,2.97-1.52,6.19-1.23,9.35c0.15,1.64,2.45,1.85,2.88,0.26
		c0.52-1.94,0.4-4.26,0.32-6.31c-0.44-10.88,4.18-22.08,12.86-28.65c8.68-6.56,21.38-7.8,30.66-2.12
		c9.28,5.68,13.94,18.36,9.62,28.35c4.54,3.5,7.39,9.09,7.55,14.81c0.06,1.96,0.07,4.3,0.57,6.22c0.68,2.61,4.07,3.36,5.82,1.31
		c2.53-2.97,3.92-6.93,3.67-10.83c-0.48-7.5-6.31-13.73-13.48-15.94c-1.28-0.39-1.44-2.14-0.22-2.71l0.03-0.01
		c0.88-0.4,1.89-0.38,2.85-0.26c6.3,0.76,11.61,4.9,16.56,8.88c1.23,0.99,2.5,2.03,3.15,3.46"/>
	<path class="st22" d="M568.13,163.46c1.37-0.12,2.77-0.25,4.11,0.05s2.65,1.09,3.22,2.35c0.74,1.65,0.05,3.58-0.85,5.14
		c-1.32,2.28-3.09,4.29-5.19,5.89c-0.3,0.23-0.62,0.47-0.74,0.82c-0.16,0.49,0.14,1.04,0.58,1.3s0.98,0.3,1.49,0.26
		c0.26-0.02,0.53-0.05,0.77,0.05c0.33,0.14,0.5,0.5,0.69,0.8c0.81,1.3,2.5,1.98,3.99,1.61"/>
	<path class="st22" d="M565.77,191.77c-0.85-1.29-0.81-2.95-1.11-4.46s-1.32-3.17-2.87-3.16c-0.2,0.79,0.67,1.51,1.49,1.52
		s1.56-0.42,2.3-0.76c1.64-0.75,3.63-1.04,5.23-0.19c0.73,0.39,1.37,1.01,2.18,1.14c0.85,0.14,1.69-0.29,2.55-0.32
		c1.83-0.06,3.19,1.58,4.35,3.01s2.81,2.92,4.57,2.42c0.23-0.28-0.04-0.74-0.39-0.82s-0.71,0.09-1.03,0.28
		c-1.56,0.94-2.72,2.41-4.14,3.55c-1.42,1.14-3.36,1.95-5.05,1.27c-1.43-0.57-2.38-1.92-3.99-2.04
		C568.22,193.08,566.9,193.46,565.77,191.77z"/>
	<path class="st22" d="M565.52,169.22c0.65-0.58,1.59-0.83,2.44-0.64s1.6,0.8,1.95,1.61"/>
	<path class="st22" d="M585.99,174.45c0.67-0.53,1.63-0.67,2.42-0.34s1.38,1.1,1.48,1.95"/>
	<path class="st22" d="M581.87,171.55c1.21-1.98,3.58-3.05,5.9-3.07c2.32-0.02,4.56,0.89,6.49,2.17c1.26,0.84,2.43,1.84,3.82,2.43"
		/>
	<path class="st22" d="M552.31,177.77c-2.13-0.19-4.31,1.13-5.13,3.1c-0.82,1.97-0.22,4.44,1.42,5.82
		c-4.79,0.93-9.54-4.38-14.06-2.55c-0.71,0.29-1.37,0.74-2.13,0.79c-1.98,0.12-2.93-2.29-4.15-3.86c-1.47-1.88-3.85-2.76-5.88-4.01
		c-7.81-4.82-10.24-15.91-6.75-24.39c2.69-6.53,8.1-11.52,11.58-17.66c0.6-1.06,1.15-2.32,0.68-3.44c-0.32-0.78-1.08-1.3-1.45-2.05
		c-0.76-1.53,0.25-3.3,1.23-4.7l4.49-6.44c0.46-0.67,0.01-1.57-0.8-1.62c-6.09-0.4-11.92-3.94-15.07-9.17
		c-0.37-0.62,0.11-1.4,0.83-1.35c5.83,0.4,11.5,2.88,15.78,6.86c0.86,0.8,0.23,2.24-0.94,2.14c-3.07-0.25-6.05-1.66-8.16-3.9
		c-0.49-0.52-0.51-1.32-0.06-1.87l7.74-9.54c1.95-2.4,3.94-4.88,4.87-7.83c0.74-2.34,0.77-4.86,1.5-7.21
		c0.51-1.64,1.51-3.26,2.91-4.18c0.84-0.55,1.96,0.07,1.88,1.08l-0.81,10.53c-0.11,1.44,1.65,2.2,2.64,1.14
		c6.23-6.65,10.18-16.15,10.17-25.08c0-0.98,0.09-2.19,1.18-2.44c0.92-0.21,1.81,0.47,2,1.4c0.94,4.64,1.4,9.62-0.17,14.13
		c-1.09,3.14-2.19,6.04-4.17,8.71c-6.06,8.17-12.23,15.04-18.36,23.16"/>
	<path class="st23" d="M551.88,81.81c1.68-4.78,2.18-10.13,0.84-15.01c-0.11-0.41-0.34-0.91-0.77-0.91c-0.38,0-0.62,0.4-0.75,0.76
		c-0.61,1.67-0.54,3.49-0.6,5.26c-0.15,4.59-1.19,9.14-3.04,13.34c0.84-5.04,1.54-10.31,0.03-15.19c-0.11-0.37-0.33-0.8-0.71-0.81
		c-0.49-0.02-0.68,0.62-0.71,1.11c-0.32,4.59-0.65,9.18-0.97,13.78c0.09-2.08,0.16-4.25-0.74-6.13c-0.9-1.88-3.11-3.3-5.06-2.59
		c-0.59,0.21-1.18,0.79-0.98,1.39c0.12,0.35,0.46,0.55,0.77,0.74l0.87,0.5c0.9,0.51,1.13,1.71,0.47,2.52
		c-0.35,0.44-0.67,0.83-0.74,0.95"/>
	<path class="st22" d="M516.57,106.02c-1.27,3.39-3.05,6.59-5.25,9.46c-0.56,0.74-1.17,1.47-1.94,1.99
		c-0.81,0.55-1.76,0.86-2.63,1.29c-2.32,1.15-4.06,3.17-5.7,5.17c-7.72,9.39-14.84,19.59-18.42,31.2
		c-1.59,5.14-2.45,10.72-0.96,15.89c1.03,3.59,3.13,6.76,5.26,9.83c6.89,9.9,14.45,19.31,21.48,29.11c2.75,3.84,5.45,7.8,7.06,12.24
		c1.61,4.44,2.04,9.49,0.23,13.85c-2.26,5.47-4.13,10.57-4.96,16.43c2.28-1.79,4.56-3.58,6.84-5.37c0.66-0.52,1.58-1.06,2.28-0.6
		c0.56,0.36,0.62,1.2,0.31,1.79c-0.31,0.59-0.88,0.99-1.43,1.36c-1.22,0.83-2.44,1.66-3.66,2.5c-1.23,0.84-2.5,1.72-3.2,3.03
		c-1.11,2.08-0.5,4.63-0.86,6.97c-0.55,3.59-3.33,6.41-6.18,8.66c-3.49,2.76-7.32,5.09-11.36,6.93c-5.03,2.29-10.61,3.32-14.29,7.43
		c-0.37,0.41-0.56,0-1.1,0.15c-0.54,0.15-1.21-0.05-1.41-0.56c-0.26-0.66,0.33-1.33,0.9-1.76c6.12-4.68,14.86-5.38,20.18-10.94
		c-9.77,1.2-19.53,2.4-29.3,3.6c-6.06,0.75-12.76,1.34-17.76-2.18c-0.73-0.51-1.48-1.37-1.13-2.2c0.15-0.34,0.46-0.58,0.77-0.79
		c1.87-1.26,4.07-1.92,6.24-2.55c14.64-4.29,29.4-8.46,44.55-10.3c0.67-0.08,1.5-0.31,1.6-0.97c0.03-0.24-0.04-0.47-0.12-0.7
		c-0.73-2.2-1.46-4.41-2.19-6.61c-0.42-1.26-0.84-2.56-0.71-3.88c0.27-2.69,2.67-4.59,4.87-6.15c3.89-2.76,7.77-5.53,11.66-8.29"/>
	<path class="st22" d="M627.7,218.66c2.67,3.29,3.56,7.63,4.36,11.79c0.63,3.24,1.19,6.84-0.54,9.65c-1.13,1.84-3.12,3.07-4.11,5
		c-0.58,1.13-0.78,2.41-1.26,3.59c-0.56,1.37-1.49,2.55-2.4,3.71c-1.44,1.83-2.94,3.71-4.99,4.83s-4.8,1.28-6.57-0.25"/>
	<path class="st22" d="M649.06,206.58c-0.64,2.82,1.18,5.66,3.44,7.45c2.26,1.79,5,2.91,7.28,4.68c5.14,3.98,7.39,10.85,7.24,17.35
		c-0.15,6.5-2.37,12.76-4.75,18.81c-4.11,10.48-8.99,21.08-17.42,28.54c-4.68,4.14-10.92,7.26-17.05,6.03
		c-3.02-0.61-5.75-2.22-8.26-4.01c-7.1-5.07-12.99-11.82-17.05-19.54c-0.42-0.81-1.43-1.14-2.16-0.59
		c-0.69,0.52-0.44,1.32-0.16,1.97c5.2,12.39,15.94,22.32,28.69,26.55c0.34,0.11,0.71,0.25,0.87,0.57c0.16,0.32-0.14,0.81-0.47,0.67
		c-18.39-7.86-40.18-0.38-59.63,3.88c-0.68,0.15-1.34,0.46-1.81,0.98c-1.44,1.6-0.1,3.5,1.32,4.6c5.37,4.14,12.79,3.97,19.56,3.62
		c18.67-0.98,37.33-1.95,56-2.93c4.26-0.22,8.6-0.46,12.58-1.99c4.45-1.7,8.26-5.02,10.56-9.2c-2.48-1.65-4.96-3.3-7.43-4.95
		c-0.93-0.62-1.89-1.25-2.98-1.43c-1.04-0.17-2.11,0.08-3.14,0.32c-4.39,1.06-8.78,2.12-13.16,3.18c-2.45,0.59-4.99,1.23-6.93,2.84
		s-3.04,4.52-1.83,6.73c-2.72,0.45-5.44,0.9-8.16,1.35c-0.89,0.15-1.86,0.34-2.42,1.04c-0.36,0.44-0.49,1.02-0.62,1.57
		c-1.44,6.39-2.89,12.78-4.33,19.17c-0.28,1.25-1.29,2.85-2.4,2.22c0.57-5.59,1.62-11.12,3.16-16.53c0.12-0.43-0.27-0.83-0.7-0.71
		l-0.12,0.03c-1.18,0.32-2.13,1.22-2.47,2.4c-1.32,4.51-2.32,9.11-2.96,13.77c-9.13,0.71-18.64,1.53-26.51,6.21
		c-10.1,6.01-15.99,18.4-14.28,30.03"/>
	<path class="st22" d="M539.78,361.31c1.36-2.18,2.14-4.72,2.26-7.29c0.03-0.62,0-1.29-0.37-1.79c-0.38-0.51-1.03-0.72-1.64-0.91
		c-2.46-0.74-4.92-1.48-7.38-2.22c-0.99-0.3-2.03-0.63-2.69-1.42c-0.81-0.98-0.83-2.37-0.77-3.64c0.35-7.5,1.76-14.95,4.18-22.06
		c0.22-0.64,0.48-1.33,1.05-1.69c0.56-0.35,1.27-0.3,1.93-0.24c4.47,0.41,8.94,0.82,13.41,1.23c0.02-1.23-1.5-1.78-2.71-1.99
		l-7.47-1.28c-0.81-0.14-0.83-1.31-0.02-1.46c2.49-0.45,5.07-0.45,7.56,0.03c0.81,0.16,1.64,0.37,2.3,0.86
		c0.86,0.63,1.36,1.63,1.8,2.61c2.33,5.1,4.14,10.44,5.39,15.9c0.18,0.77,0.38,1.62,1.02,2.1c0.61,0.46,1.44,0.46,2.21,0.43
		c3.43-0.11,6.86-0.23,10.29-0.34c0.81-0.03,1.66-0.07,2.33-0.51c0.62-0.4,0.98-1.08,1.37-1.71c2.42-3.96,6.42-6.92,10.91-8.06
		c0.88-0.22,1.73-0.65,2.29-1.36c0.8-1.01,0.4-1.69,0.02-2.34c-2.58-4.32-5.16-8.64-7.75-12.97c-0.79-1.32-1.61-2.68-2.83-3.62"/>
	<path class="st22" d="M540.73,255.76c-2.59,4.43-1.62,10.09-3.34,14.92c-1.8,5.06-6.27,8.58-10.34,12.08
		c-4.46,3.83-8.71,8.01-11.82,12.99c-3.11,4.99-5.03,10.88-4.49,16.73c7.15,0.56,14.3,1.13,21.44,1.69
		c3.42,0.27,6.87,0.54,10.29,0.16c5.71-0.64,11.29-3.1,17-2.47c4.23,0.47,8.71,2.57,12.5,0.63c0.65-0.33,1.3-0.86,1.38-1.59
		c0.05-0.46-0.14-0.91-0.38-1.3c-1.43-2.28-4.42-2.85-6.93-3.85c-2.5-1-5.07-3.55-3.99-6.02c0.94-2.13,4.03-2.63,4.97-4.77
		c0.4-0.93,0.31-1.98,0.21-2.99c-0.34-3.38-0.68-6.82-1.91-9.99c-0.96-2.48-2.43-4.74-3.54-7.16c-1.32-2.88-2.12-5.99-2.35-9.14
		c-0.08-1.09,0.01-2.4,0.95-2.96c0.85-0.51,1.96-0.11,2.79,0.43c4.29,2.81,5.28,8.51,6.8,13.4c1.3,4.19,3.26,8.17,5.78,11.76
		c0.95,1.35,2.02,2.68,3.45,3.5c1.52,0.86,3.31,1.08,5.06,1.2c4.51,0.31,9.05,0.13,13.52-0.54"/>
	<path class="st22" d="M511.73,311.97c-1.62,0.02-3.24,0.04-4.87,0.06c-0.48,0.01-1,0.02-1.38,0.32c-0.52,0.4-0.59,1.14-0.79,1.76
		c-0.89,2.79-4.44,3.43-7.04,4.78c-4.95,2.57-6.99,8.48-8.59,13.83c-2.97,9.92-5.94,19.84-8.9,29.76c-1.37,0.16-1.67-2.9-1.24-4.21
		c2.42-7.48,4.85-14.97,7.27-22.45c-1.26-0.13-2.71,0.11-3.89,0.66c-0.24,0.11-0.51-0.09-0.48-0.35c0.77-7.97,1.72-15.95,2.48-23.92
		c0.06-0.66,0.14-1.35,0.51-1.9c0.42-0.62,1.15-0.94,1.84-1.21c3.89-1.57,7.92-2.8,12.03-3.67c0.72-0.15,1.5-0.29,2.18,0
		c1.22,0.53,1.49,2.1,1.91,3.36s1.81,2.59,2.92,1.84c0.39-2.91-1.34-5.79-3.71-7.53s-5.3-2.51-8.17-3.09
		c-10.76-2.18-21.98-2.14-32.72,0.13c-1.15,0.24-2.33,0.53-3.23,1.28c-1.47,1.23-1.78,3.33-1.99,5.23
		c-0.72,6.51-1.44,13.01-2.16,19.52c-0.08,0.7-0.15,1.47,0.21,2.08c0.38,0.65,1.14,0.97,1.84,1.24c7.5,2.84,15.19,5.22,22.99,7.11
		c1.49,0.36,1.49,0.36,3.03,0.17"/>
	<path class="st22" d="M477.74,284.93c4.95,1.57,10.35,0.23,15.14-1.76c9.36-3.89,17.66-10.31,23.78-18.4
		c2.35-3.1,4.48-6.54,7.36-9.07c0.63-0.55,1.54,0.23,1.11,0.94c-9.08,14.85-22.96,27.03-39.57,32.1
		c-5.65,1.73-11.55,2.63-17.45,2.66c-2.84,0.02-5.96-0.08-8.17,1.7c-1.35,1.09-2.14,2.71-3.27,4.03c-3.05,3.57-8.49,4.8-10.73,8.92
		c-1.63,3.01-1.08,6.69-1.76,10.04c-0.95,4.7-4.33,8.75-4.67,13.53c-0.23,3.29,1.02,6.47,1.7,9.7c1.49,7.02,0.28,14.3-0.93,21.37"/>
	<path class="st22" d="M685.82,206.57c-1.44,0.92-3.29,0.98-4.97,0.66c-1.68-0.32-3.28-0.98-4.94-1.39
		c-0.43-0.11-0.89-0.2-1.33-0.13c-1.39,0.23-1.98,1.86-2.31,3.23c1.68,0.58,3.32-1.2,5.09-1.12c1.5,0.07,2.68,1.66,2.48,3.15
		c-0.2,1.49-1.6,2.67-3.1,2.81c-0.49,0.05-1,0-1.47,0.15c-0.57,0.18-1.01,0.64-1.41,1.09c-3.57,3.96-6.36,8.61-8.17,13.62"/>
	<path class="st22" d="M662.91,221.27c1.47-4.3,4.28-8.13,7.95-10.81c-0.19,0.16-0.38,0.31-0.57,0.47"/>
	<path class="st22" d="M700.43,275.53c-3.24-10.87-6.23-22.35-10.66-32.84c-0.31-0.73-1.39-0.66-1.6,0.11
		c-0.57,2.07-0.47,4.61,0.15,6.43c2.22,6.57,3.4,13.76,1.54,20.45c-1.55,5.59-5.15,10.54-6.06,16.27c-6.02-2.47-12.3-4.3-18.71-5.45
		c-1.63-0.29-3.33-0.54-4.93-0.1c-1.81,0.5-3.46,2.12-3.15,4.08c0.14,0.91,0.95,1.65,1.84,1.44c1.06-0.25,1.27-1.6,1.28-2.67
		c0.06-7.98-0.3-17.57,1.2-26.04"/>
	<path class="st22" d="M636.26,361.58c2.24-17.09,4.48-34.18,6.73-51.27c0.11-0.83,0.29-1.79,1.03-2.2
		c0.85-0.48,1.99,0.11,2.44,0.98s0.41,1.9,0.36,2.88c-0.33,6.94-0.2,13.89,0.38,20.81c0.44,5.29,1.19,10.71,3.75,15.36
		c0.76,1.38,2.27,2.86,3.67,2.15c0.67-0.9-0.28-2.33-1.4-2.35s-2.06,0.97-2.37,2.05c-0.3,1.08-0.12,2.24,0.06,3.35
		c0.36,2.19,0.72,4.38,1.09,6.57"/>
	<path class="st22" d="M476.73,261.94c-3.25-12.75-6.5-25.49-9.75-38.24c-0.41-1.62-0.81-3.4-0.07-4.89s3.17-2.13,4.04-0.71
		c0.31,0.51,0.35,1.15,0.2,1.73c-0.48,1.83-2.66,2.77-4.53,2.51c-1.87-0.26-3.48-1.41-4.98-2.57c-4.24-3.27-8.25-6.85-11.98-10.69
		c-0.32-0.33-0.64-0.68-0.76-1.12c-0.26-0.98,0.59-1.87,1.37-2.53c7.88-6.67,16.52-14.4,17.19-24.7c0.64-9.83-6.96-24.29-2.13-29.01
		c4.62-1.65-3.28,15.74-6.69,23.15s-5.79,16.59-1.19,23.32"/>
	<path class="st22" d="M465.82,222.17c1.31,0.21,2.56,0.2,3.43,0.01c2.67-0.59,4.37-1.6,6.51-3.31c3.16-2.52,5.37-6.02,7.4-9.51
		c3.54-6.07,6.75-12.34,9.61-18.76c0.15-0.33,0.25-0.79-0.05-0.98s-0.44,0.6-0.14,0.4"/>
	<path class="st22" d="M486.37,145.08c-4.11-5.97-7.02-12.76-8.53-19.85c-1.06-4.99-3.55-10.42-7.89-13.11
		c-2.28,5.81-2.71,11.73-2.77,17.84c-0.01,1.46,2.08,1.66,2.38,0.23c0.92-4.39,0.12-9.34-0.76-13.86c-0.3-1.52-0.63-3.1-1.62-4.28
		c-0.96-1.13-2.4-1.73-3.8-2.24c-2.98-1.09-6.06-2-8.72-3.74c-2.65-1.73-4.87-4.48-5.04-7.65c-0.18-3.34,1.89-6.41,2.13-9.74
		c-3.24,2.23-6.45,4.5-9.65,6.79c-0.7,0.5-1.43,1.06-1.67,1.89c-0.22,0.77,0.06,1.58,0.3,2.35c4.68,14.3,0.13,31.18-11.1,41.2
		c-6.02,5.37-14.11,9.43-17.59,16.42c-0.75,1.51,1.5,2.82,2.39,1.38c0.07-0.1,0.12-0.21,0.17-0.32c0.61-1.33,0.43-2.88,0.19-4.33
		c-1.57-9.27-5.25-18.03-8.91-26.7c-2-4.73-4.02-9.51-7-13.69c-2.69-3.78-6.09-6.98-9.46-10.16c-4.7-4.42-9.39-8.83-14.09-13.25
		c-0.4-0.37-0.81-0.76-1.33-0.91c-1.18-0.35-2.38,0.64-2.83,1.78c-0.45,1.14-0.39,2.41-0.55,3.62c-0.43,3.19-2.58,6.09-5.5,7.43
		c0.81,1.43,3.82,0.38,4.07,2.17c0.12,0.88-0.61,1.64-1.49,1.69l-13.62,0.75c-2.42,0.13-4.95,0.29-7.05,1.5
		c-0.99,0.57-1.85,1.45-2.4,2.45c-0.83,1.52,1.28,2.92,2.35,1.56c1.64-2.08,2.43-5.09,3.43-7.67c4.35-11.12,15.97-17.18,25.28-24.66
		c1.18-0.95,2.41-2.07,2.62-3.56s-1.28-3.21-2.66-2.6c0.41,2.48-2.47,4.48-4.96,4.2c-2.49-0.28-4.54-2.02-6.42-3.69
		c-2.56-2.27-5.16-4.6-6.91-7.54c-1.21-2.03-1.95-4.43-1.88-6.76c0.03-1.02,1.39-1.3,1.83-0.39c1.79,3.72,4.03,7.23,6.67,10.41
		c0.77,0.93,1.62,1.87,2.72,2.35c1.24,0.55,2.67,0.47,4.02,0.3c7.91-0.99,13.03-6.7,20.76-10.78c1.41-0.74,0.98-2.89-0.6-3.06
		c-3.79-0.41-7.82,1.33-9.92,4.53c-1.56-3.98,1.05-8.28,3.53-11.76l8.85-12.38c1.13-1.58-0.52-3.65-2.32-2.9l0,0
		c-0.78,0.33-1.45,0.86-1.94,1.55c-2.76,3.92-7.62,9.19-11.35,14.29c-0.64,0.87-2.04,0.31-1.87-0.76c0.66-4.27,2.62-9.61,4.52-13.1
		c0.79-1.45,1.53-3.04,1.11-4.71c-0.16-0.63-0.27-1.46-1.42-1.5c-1.66-0.07-2.67,1.64-3.34,3.11l-5.59,16.01
		c-0.22,0.49-2.06-0.2-2.08-0.74c-0.13-4.23,4.15-11.45,3.21-15.36c-0.2-0.85-1.16-1.23-1.87-0.71c-3.44,2.47-3.58,11.64-5.8,15.54
		c-0.71,1.26-2.64,0.63-2.55-0.81c0.1-1.62,0.28-6.31,0.29-7.93c0.01-0.74-0.03-1.56-0.55-2.08c-0.76-0.75-2.14-0.36-2.78,0.49
		c-0.64,0.86-0.74,1.99-0.81,3.05c-0.32,4.6-1.58,9.82,2.34,22.64"/>
	<path class="st22" d="M414.75,153.44c0.65,10.78-2.16,21.43-3.56,32.13c-1.27,9.71-1.4,19.52-1.39,29.31
		c0.01,5.07,0.05,10.15,0.59,15.19c2.26,21.15,13.26,40.65,27.68,56.28c1.67,1.81,3.51,4.33,2.54,6.59
		c-2.53,5.88-5.07,6.97-4.33,5.25c2.17-5.03,5.65-9.61,8.61-14.33c0.59-0.94,1.42-2,2.52-1.87c1,0.12,1.61,1.26,1.53,2.27
		c-0.08,1.01-0.64,1.9-1.15,2.77c-6.35,10.75-7.7,12.55-8.1,32.22c-0.04,1.93,2.11,1.91,2.05-1.05
		c-0.22-11.74,2.15-20.64,7.54-29.96c0.36-0.61,0.71-1.35,1.4-1.49c0.56-0.12,1.12,0.18,1.59,0.5c1.75,1.17,3.26,2.87,3.72,4.92
		c0.46,2.06-1.28,5.55-2.21,5.45c-1.87-0.19,1.9-7.59,0.94-11.27c-0.41-1.56-3.6-3.12-4.87-4.1c-0.72-0.55-0.3-1.69,0.61-1.68
		c9.63,0.11,21.78,3.49,30.65-0.09c-0.42,0.52-0.84,1.03-1.27,1.55"/>
	<path class="st22" d="M450.48,88.82c-0.53,0.69-1.56,0.86-2.39,0.58c-0.83-0.28-1.49-0.92-2.04-1.6
		c-2.77-3.43-3.36-8.09-3.52-12.49c-0.18-5.21,0.1-10.46-0.75-15.61c-0.86-5.14-3.04-10.31-7.18-13.48c-1.84-1.41-4-2.37-6.16-3.2
		c-5.26-2.03-10.85-3.46-16.48-3.27c-11.96,0.41-23.24,8.85-27,20.2"/>
	<path class="st23" d="M402.92,76.76c0.47-0.68,1.47-0.62,2.29-0.49c1.67,0.28,3.35,0.55,5.02,0.83"/>
	<path class="st23" d="M405.24,81.24c0.01-0.65,0.5-1.25,1.13-1.4c0.63-0.15,1.34,0.17,1.64,0.74"/>
	<path class="st23" d="M419.66,75.88c2.61-0.83,5.22-1.65,7.83-2.48c0.74-0.23,1.67-0.42,2.19,0.15"/>
	<path class="st23" d="M411.75,89.2c-0.54,0.11-0.68,0.92-0.32,1.33c0.37,0.41,1.01,0.47,1.54,0.32c0.51-0.14,0.98-0.43,1.5-0.45
		c0.53-0.02,1.03,0.26,1.52,0.45s1.1,0.3,1.53-0.01c0.17-0.12,0.3-0.31,0.47-0.44c0.79-0.64,2.19-0.1,2.83-0.89"/>
	<path class="st23" d="M411.49,96.24c0.21-1.5,1.52-1.87,2.85-1.67c0.83,0.13,1.62,0.67,2.49,0.55c0.78-0.11,1.24-0.69,1.93-0.97
		c0.84-0.33,1.8,0.03,2.56,0.52c0.76,0.49,1.46,1.12,2.33,1.38s2,0,2.31-0.85c-0.64-0.56-1.61,0.03-2.26,0.59
		c-1.55,1.34-3.21,2.55-4.96,3.6c-2.3,1.38-5.77-0.71-7.95-2.27c-0.63-0.45-1.3-1-2.07-0.91"/>
	<path class="st23" d="M410.98,108.29c2.36,2.2,6,2.03,9.21,1.73c0.95-0.09,1.91-0.18,2.83-0.45c2.85-0.82,3.83-2.66,5.07-5.35
		c1.24-2.7,3.82-7.95,4.15-10.9c0.51-4.7-1.3-8.78-1.42-13.51c-0.12-4.83,0.7-8.81-1.82-12.82c-0.69-1.1-2-2.47-3.03-3.27
		c-3.98-3.09-10.64-2.47-15.57-0.82c-5.16,1.73-7.43,5.16-8.31,10.28c-0.7,4.07-0.41,7.88,0.95,11.78c1.35,3.9,3.29,7.58,4.43,11.55
		c0.64,2.22,1.01,4.52,1.25,6.82c0.3,2.89,0.37,5.86-0.44,8.66c-0.81,2.79-2.61,5.41-5.24,6.64c3.12-4.47,2.94-10.52,1.41-15.76
		c-1.53-5.24-4.25-10.06-5.94-15.25c-1.09-3.36-1.74-6.9-1.63-10.43c0.14-4.38,1.47-8.68,3.53-12.55c1.02-1.91,2.23-3.74,3.77-5.26
		c3.01-2.99,7.26-4.7,11.51-4.64c0.87,0.01,1.79,0.12,2.48,0.66c0.68,0.54,1.26,2.3,0.39,2.29c-1.74-0.01-2.25-2.66-3.25-4.08
		c-0.59-0.83-1.15-1.7-1.92-2.37c-1.83-1.59-4.58-1.78-6.88-0.98c-2.29,0.79-4.19,2.43-5.87,4.18
		c-6.57,6.89-10.42,16.32-10.56,25.84c-0.1,6.99,1.72,13.88,1.91,20.87c0.03,1.24-0.21,2.81-1.41,3.15"/>
	<path class="st23" d="M421.98,79.24c0.1-0.61,0.6-1.13,1.2-1.26c0.6-0.13,1.27,0.13,1.62,0.64"/>
	<path class="st23" d="M375.35,89.81c0.95,0.95,2.55,0.99,3.73,0.36s1.99-1.79,2.53-3.02c2.87-6.52,1.11-14.93,2.59-20.67"/>
	<path class="st23" d="M441.82,119.01c0.39,1.47-2.39,3.11-3.81,2.59s-2.25-2-2.85-3.39c-1.56-3.6-2.54-7.46-2.69-11.37
		c-0.1-2.59,0.16-5.17,0.37-7.76c0.85-10.31,0.96-20.68,0.21-31c-0.18-2.44-0.41-4.92-1.4-7.15c-0.99-2.23-2.89-4.2-5.29-4.65
		c-2.1-0.39-4.39,0.5-5.67,2.21c-0.25,0.34-0.47,0.79-0.27,1.16c0.31,0.57,1.19,0.31,1.67-0.11c1.39-1.22,1.5-3.46,2.86-4.71
		c3.81-3.48,6.43-2.58,7.14-2.35c1.98,0.64,2.62,2.07,3.07,3.73c3.14,11.69-1.35,21.49,2.13,33.08c0.43,1.43,0.98,2.87,1.94,4.02
		c2.06,2.44,3.39,0.67,4.88,0.73"/>
	<path class="st23" d="M451.05,210.48c-7.89-7.91-10.76-12.26-16.09-20.03c-0.94-1.38-1.89-2.8-2.3-4.42
		c1.99,0.03,2.85,2.49,3.32,4.42c1.71,7.02,5.39,13.44,9.81,19.16c4.42,5.72,9.58,10.82,14.65,15.97c1.75,1.78,3.51,3.59,4.75,5.75
		c1.06,1.84,1.71,3.88,2.21,5.94c1.9,7.69,1.95,15.84,4.73,23.26c0.45,1.21,1.42,2.63,2.67,2.29"/>
	<path class="st23" d="M347.11,96.47c-0.61-0.07-1.23-0.14-1.84-0.21c1.36,3.47,1.52,7.39,0.45,10.96
		c-1.12,3.77-1.54,7.07-6.15,7.25c0.14-1.19,0.02-2.41-0.36-3.54c-1.01,1.18-2.45,1.99-3.98,2.23c0.06-0.92-0.12-1.85-0.51-2.69
		c-1.22,1.52-2.72,2.81-4.41,3.79c0.14-1.68-0.13-3.38-0.77-4.94c-0.94,0.91-1.89,1.83-2.83,2.74c-0.14-1.55-0.69-3.06-1.6-4.33
		c-1.25,0.97-2.75,1.62-4.32,1.86c-0.35-0.54-0.56-1.16-0.59-1.8c-1.76,1.4-3.71,2.55-5.78,3.43c-0.16-1.53-0.32-3.06-0.48-4.59
		c-1.4,1.79-3.18,3.28-5.19,4.35c-0.42-1.76-1.23-3.43-2.37-4.84c-1.3,3.67-2.6,7.34-3.9,11.01c-0.37,1.04-0.39,2.67,0.71,2.75
		c0.82-3.07,0.14-6.5-1.79-9.03c-1.65-2.16-4.1-3.65-5.54-5.96c-1.41-2.27-1.67-5.06-1.61-7.73c0.12-5.44,1.46-10.93,4.44-15.48
		c2.98-4.55,7.7-8.07,13.05-9.01c13.21-2.31,25.7,3.25,32.14,14.85c-0.47-0.07-1.08,0.1-1.56,0.03
		C342.9,88.41,346.95,96.45,347.11,96.47z"/>
	<path class="st23" d="M306.9,154.52c0.78,0.14,1.69,0.69,1,0.84c-6.92,0.4-13.81,1.27-20.61,2.61c-4.6,0.91-9.38,2.37-12.45,5.92
		c-0.9,1.04-1.39,2.37-1.57,3.74c-2.2,16.24-10.32,30.23-15.49,45.73c-0.93,2.8-1.87,5.61-2.34,8.52c-0.42,2.63-0.43,5.45,0.77,7.83
		c0.82,1.63,2.14,2.94,3.48,4.18c6.22,5.76,13.24,10.57,20.23,15.36c2.79,1.91,5.58,3.82,8.37,5.73c0.5,0.34,1.01,0.69,1.61,0.8
		c1.32,0.25,2.56-0.7,3.89-0.83c3.66-0.37,6.26,5.29,10.07,3.15c0.71-0.4,1.27-1,1.71-1.68l7.17-10.95l-5.97-6
		c-0.38,0.75-1.52,0.27-2.14-0.29c-5.23-4.66-10.46-9.33-15.68-13.99c-1.98-1.77-4.02-3.57-6.49-4.52
		c-4.11-1.58-11.72,0.75-13.43,3.46c-0.61,0.96,0.54,2.04,1.48,1.41c0.85-0.56,1.55-1.64,2.11-2.56c1.47-2.43,4.23-3.6,7.03-4.56
		c0.99-0.34,0.93-1.77-0.08-2.01c-3.96-0.92-8.63-0.32-11.17,2.37c-0.44,0.46-0.07,1.21,0.56,1.15c2.34-0.25,4.51-1.8,6.63-3.01
		c1.48-0.85,2.37-1.65,3.31-2.29c2.21-1.51,3.89-3.7,4.56-6.29c2-7.73,6.22-15.11,9.53-22.33c0.51-1.11,0.42-1.94,1.26-2.83
		c0.43-0.45,1.01-0.87,1.62-0.75c0.74,0.15,1.11,1.06,0.93,1.8s-0.72,1.31-1.24,1.85c-1.91,1.97-3.43,3.74-5.34,5.71"/>
	<path class="st23" d="M297.2,106.2c-2-0.99-4.4,1.12-4.58,3.35s1.02,7.71,2.78,9.08c8.9,6.93,6,11.81,8.72,16.02
		c2.86,4.42,10.73,11.18,19.8,13.8c-13.26-1.27-22.94-13.18-22.52-18.54c-1.4,0.28-1.96,2.66-1.33,4.92
		c1.68,6.01,5.87,11.27,11.34,14.26c-9.57-0.45-18.93-4.55-25.74-11.28l13.2-4.16c-4.23-0.74-8.57-0.84-12.83-0.28
		c-1.13,0.15-2.33,0.38-3.14,1.17c-0.79,0.77-1.05,1.91-1.28,2.98c-1.61,7.47-3.22,14.95-4.83,22.42c9.17-4.82,19.83-6.74,30.1-5.42
		"/>
	<path class="st23" d="M332.25,75.88c0.51,0.8,2.71,1.18,3.65,1.08s1.8-0.57,2.6-1.09c6.49-4.25,9.8-11.98,15.57-17.16
		c0.68-0.62,1.44-1.21,2.34-1.39c0.9-0.18,1.98,0.19,2.32,1.04"/>
	<path class="st23" d="M369.06,151.26C368.8,157.71,374,164,374,169c0.89,9.81-0.6,19.63-3.07,29.44c-0.33,1.3-2.27,0.96-2.13-0.37
		c0.07-0.69,0.06-1.39,0.19-2.07c2.6-12.78,9-21,16-30c-1-6-4.25-6.36-6.09-15.9c-0.3-1.57-1.87-2.37-1.9-3.42
		c-0.01-0.43,0.16-0.84,0.46-1.15l0,0c0.36-0.36,0.88-0.55,1.38-0.44c3.16,0.67,3.38,5.07,6.15,6.92c2,1,5.1,0.71,6.1,1.71
		c1.1,1.1,0.68,3.59,0.59,5.19c-0.08,1.43-2.3,1.35-2.29-0.08c0.01-2.19-0.54-4.31-1.82-6.1c-4.09-5.67-5.42-11.04-7.58-18.72
		c-0.67-2.37,1-3,2-2c2,3,3.09,6.65,4.27,9.59c0.55,1.36,1.04,3,1.5,3c1.63,0,1.23-1.58,1.23-2.58l0.29-12.75
		c0-0.69,0.56-1.26,1.26-1.26l0,0c1.65,0,1.61,1.42,1.65,1.88c0.58,5.53,0.14,7.9,0.2,12.67c0.01,0.72,0.58,1.46,1.3,1.46l0,0
		c0.49,0,0.46-0.26,0.7-0.69c2.63-4.7,3.35-6.76,5.28-10.46c0.29-0.55,1.12-0.5,1.65-0.18c0.01,0,0.02,0.01,0.02,0.01
		c0.61,0.36,0.81,1.15,0.48,1.78c-1.75,3.34-2.93,7.01-3.81,10.53c0,1,0.97,2.01,1.97,1.01c2-3,4.66-7.05,7.11-8.38
		c1.63-0.98,1.49,1.53,0,3.47c-5.18,6.72-5.18,18.71-11.11,22.91c-2.35,1.67-2.22,4.51-0.03,6.09c1.13,0.82,1.75,2.17,1.45,3.53
		c-3.72,17.04-6.67,33.26-11.42,50.38c-1,3-3,7-6,9c-3.66,1.83-7.31,2.82-10.2-0.08c-0.62-0.62-0.91-1.56-0.65-2.41
		c0.2-0.66,0.71-1.13,1.86-0.52c1.55,0.83,2.17,2.63,2.17,3.63c2,20,5.83,38.37-1.53,58.02"/>
	<path class="st23" d="M359.57,139.35c-0.4,3-1.08,5.88-2.5,8.5c-0.79,1.45-3.4,5.28-0.43,4.86c4.53-0.64,10.19-12.85,7.62-12.67
		c-0.27,0.77-0.08,0.81,0,0c-1.45,4.86-7.55,14.79-4.7,15.26c3.59,0.6,7.68-7.63,8.14-10.73c-1.29,2.29-2.72,4.91-3.26,7.5
		c-0.74,3.52,1.04,4.64,2.75,2.19c7.67-10.94,2.75-16.48-5.34-19.07"/>
	<path class="st23" d="M355.02,140.44c-0.08,2.92-2.17,5.78-3.83,7.8c-0.6,0.74,0.65,1.78,1.58,1.54c4.29-1.14,6.14-6.42,6.81-10.43
		"/>
	<path class="st23" d="M344.44,114.84C344,128,340,144,327,149c2.09-2.03,5.77-0.05,0,0c4-2,9-4,12-9c3-3,8-4,12-2
		c0.81,0.41,1.54,0.52,2.38,0.87c0.27,0.11,0.59,0.28,0.62,0.58c0.03,0.3-0.29,0.55-0.59,0.55c-0.3,0-0.58-0.16-0.83-0.33
		c-0.6-0.4-1.16-0.86-1.68-1.36c-0.53-0.51-3.38-1.93-4.14-2.37c-0.77-0.44-1.3-1.54-0.69-2.19c0.63-0.68,1.74-0.19,2.55,0.25
		c2.56,1.37,5.57,1.88,8.43,1.44c1.58-0.24,3.03-0.89,4.81-0.24"/>
	<path class="st23" d="M314.86,238.89c-0.12,1.75-0.26,3.55-1.03,5.13c-0.37,0.76-0.88,1.45-1.38,2.13
		c-0.85,1.15-1.69,2.29-2.54,3.44"/>
	<path class="st23" d="M305.66,256.59c-2.27,1.49-4.79,3.04-7.49,2.74c-1.45-0.16-2.78-0.85-4.17-1.3c-1.39-0.45-3-0.63-4.23,0.17
		c1.41,3.48,1.64,7.43,0.63,11.04c-0.82,2.95-2.45,5.9-1.82,8.9c0.34,1.64,1.33,3.05,2.15,4.51c1.9,3.38,2.96,7.22,3.08,11.1
		c1.13,1.11,1.85,1.67,3.25,2.41c2.14,1.13,4.5,1.77,6.87,2.25c3.96,0.8,7.99,1.17,12.03,1.39c18.98,1.01,38.27-1.47,55.92-8.49
		c-0.1,1.12-1.22,1.82-2.21,2.33c-9.14,4.63-19.08,7.64-29.25,8.87c-0.41,0.05-0.86,0.11-1.16,0.39c-0.32,0.29-0.41,0.75-0.49,1.18
		c-1.51,8.73,0.07,43.23,0.43,52.09c0.04,1.04,0.19,2.24,1.06,2.79c1.65-1.96-0.69-30.43-0.85-32.99
		c-0.42-6.59-0.17-13.21,0.74-19.75c0.07-0.52,0.17-1.09,0.56-1.45c0.31-0.29,0.74-0.39,1.16-0.48c8.88-1.85,18.48-2.62,25.71-8.11
		c1.44,1.94,0.14,4.62-0.43,6.96c-0.83,3.39,0,6.93,0.48,10.39c0.81,5.87,2.68,48.22,2.61,47.78"/>
	<path class="st23" d="M295.32,294.89c2.5,6.12,3.56,12.72,4.59,19.24c0.9,5.68,4.89,40.63,5.8,46.31c0.03,0.18,0.03,0.41-0.13,0.5
		c-0.16,0.09-0.31-0.27-0.13-0.25"/>
	<path class="st23" d="M342.27,117.78c-2.14-0.2-4.31-0.08-6.41,0.37c-0.83,0.18-1.67,0.41-2.36,0.89
		c-0.65,0.45-1.14,1.09-1.54,1.77c-1.9,3.21-1.81,7.5,0.23,10.63c0.17,0.26,0.36,0.54,0.38,0.85c0.04,0.52-0.39,0.94-0.79,1.29
		c-0.76,0.66-1.54,1.34-2.47,1.72c-0.93,0.38-2.07,0.42-2.89-0.16c-0.49-0.34-0.83-0.86-1.32-1.21"/>
	<path class="st23" d="M318.93,121.43c0.26-0.49,0.81-0.8,1.36-0.77c0.55,0.03,1.06,0.4,1.27,0.91"/>
	<path class="st23" d="M336.17,122.33c0.22-0.41,0.71-0.66,1.17-0.59s0.86,0.45,0.95,0.9"/>
	<path class="st23" d="M312.66,116.24c4.63-0.36,9.36,0.8,13.3,3.27"/>
	<path class="st23" d="M317.69,137.62c1.52,1.45,3.8,2.04,5.83,1.52c0.56-0.14,1.18-0.36,1.69-0.08c0.31,0.18,0.5,0.5,0.75,0.76
		c0.25,0.25,0.66,0.43,0.96,0.23c0.14-0.1,0.22-0.27,0.35-0.39c0.4-0.4,1.06-0.2,1.62-0.09c1.86,0.35,3.67-0.69,5.28-1.7
		c-0.2,0.13-0.41,0.27-0.61,0.4"/>
	<path class="st23" d="M284.4,205.08c-0.16,0.92,0.11,1.85,0.36,2.74c1.41,5.03,2.24,10.23,2.47,15.45"/>
	<path class="st23" d="M336.85,143.68c2.7-1.57,5.2-3.48,7.43-5.66c2.73,2.46,2.82,6.94,1.05,10.16s-5,5.37-8.28,7.02
		c-2.21,1.11-4.51,2.05-6.87,2.8c-0.82,0.26-1.73,0.5-2.53,0.19c-0.81-0.31-1.33-1.43-0.75-2.08c0.21-0.23,0.51-0.36,0.81-0.44
		c2.08-0.58,4.36,0.53,5.69,2.23s1.9,3.87,2.24,6.01c0.94,5.81,0.51,11.8,1.67,17.57c1.29,6.45,4.5,12.35,6.43,18.64
		c2.33,7.62,2.75,15.71,2.51,23.68c-0.15,4.94-0.54,9.91,0.07,14.82c0.57,4.62,2.01,9.08,3.01,13.62c3.25,14.7,1.82,30.4-4.02,44.27
		c0.99,0.48,1.68-0.71,2.76-0.91c-0.45-1.35-0.45-1.35-0.9-2.69"/>
	<path class="st23" d="M242.58,78.57c0.11,0.41,0.8-0.12,0.55-0.47c-0.25-0.35-0.77-0.3-1.2-0.25c-3.19,0.4-6.56-0.96-8.57-3.47
		c0.15,1.81,0.29,3.63,0.44,5.44c-3.1-0.98-5.83-3.07-7.59-5.81c-1.35,1.1-2.49,2.44-3.37,3.93c-0.79-1.38-1.08-3.04-0.8-4.6
		c-2.31,2.87-5.85,4.72-9.52,4.97c2.01-1.12,3.16-3.6,2.72-5.86c-2.12,0.53-4.33,1.06-6.46,0.59c-2.13-0.47-4.15-2.25-4.1-4.44
		c-2.78,4.62-2.94,10.71-0.42,15.47c-2.74,1.08-4.41,4.34-3.69,7.19c-0.16-2.89-3.94-3.78-6.13-5.67
		c-2.83-2.45-2.95-6.73-2.78-10.47c0.2-4.33,0.49-8.73,1.94-12.81c3.39-9.6,13.43-16.3,23.6-16.15c10.18,0.15,19.85,6.93,23.83,16.3
		c3.64,8.57,2.72,18.28,3.4,27.57c0.36,4.84,1.17,9.7,0.67,14.53c-0.74,7.09-4.24,13.58-8.18,19.51c-1.98,2.97-4.51,6.11-8.06,6.49
		c-2.26,0.24-4.46-0.71-6.53-1.65c-4.55-2.05-9.16-4.14-13.05-7.28c-3.89-3.14-7.03-7.5-7.65-12.45c-0.18-1.42-0.2-3-1.19-4.04
		c-0.9-0.95-2.31-1.13-3.52-1.6c-5.21-1.99-6.42-8.68-6.84-14.24c-0.06-0.83-0.1-1.76,0.44-2.4c1-1.19,2.97-0.4,4.12,0.65
		c2.25,2.04,3.81,4.81,4.39,7.79c0.29,1.48,0.16,2.52,0.02,4.02c-1.15,0.04-1.64-1.66-0.98-2.6c0.66-0.94,1.88-1.26,3-1.51
		c3.59-0.81,7.19-1.62,10.78-2.44c1.76-0.4,3.57-0.79,5.34-0.46c3.07,0.58,5.62,3.32,8.75,3.14c3.53-0.2,6.38-4.09,9.85-3.38
		c2.09,0.43,3.61,2.48,5.73,2.72"/>
	<path class="st23" d="M213.02,97.38c0.2-0.73,0.84-1.33,1.59-1.49s1.57,0.14,2.05,0.73"/>
	<path class="st23" d="M233.18,97.24c0.22-0.77,0.94-1.37,1.73-1.44c0.79-0.08,1.61,0.37,1.98,1.08"/>
	<path class="st23" d="M229.45,102.48c-0.55,1.59,0.3,3.37,1.51,4.54c0.31,0.3,0.66,0.59,0.8,0.99c0.25,0.71-0.24,1.5-0.91,1.84
		c-0.66,0.35-1.44,0.36-2.19,0.35c-0.75,0-1.53,0-2.2,0.33c-0.54,0.27-1.28,0.71-1.63,0.22c-0.08-0.11-0.12-0.25-0.22-0.34
		c-0.1-0.09-0.31-0.07-0.32,0.07"/>
	<path class="st23" d="M216.45,115.29c2,0.39,4.27,0.72,5.93-0.47c0.46-0.33,0.97-0.8,1.51-0.63c0.24,0.08,0.42,0.26,0.59,0.44
		c0.73,0.71,1.87,1.28,2.73,0.73c0.52-0.33,0.86-1.02,1.48-1.02c0.23,0,0.45,0.11,0.66,0.22c1.1,0.57,2.25,1.14,3.49,1.22
		c1.24,0.07,2.6-0.5,3.08-1.64c-1.98-0.26-3.51,1.57-5.09,2.79c-2.05,1.58-4.76,2.27-7.32,1.87c-2.56-0.4-4.92-1.89-6.4-4.02
		C215.66,112.65,213.83,114.78,216.45,115.29z"/>
	<path class="st23" d="M185.41,126.17c2.36,0.9,4.72,1.79,7.07,2.69c2.44,0.93,4.94,1.89,6.88,3.65c1.93,1.75,3.2,4.5,2.47,7
		c-0.27,0.94-1.05,1.93-2.09,1.58c-0.75-0.25-1.15-1.05-1.11-1.84c0.08-1.7,0.47-3.36,0.82-5.02c1.94-9.24,0.7-15.57-0.46-24.93
		c-0.14-1.13-0.91-2.47-1.95-2.93c-2.45,10.1,2.8,21.54,12.05,26.27c3.03,1.55,6.42,2.45,9.38,4.07c1.26,0.69,1.22,2.57-0.11,3.1
		c-0.51,0.2-1.04,0.31-1.58,0.38c-1.31,0.16-1.78-1.73-0.52-2.14c1.65-0.54,3.67-0.6,5.43-0.69c3.38-0.17,6.73-1.02,9.79-2.47
		c2.21-1.05,5.98-5.49,3.16-5.6c-1.74,1.32,1.55,5.97,3.41,8.62c4.78,6.8,4.58,15.75,5.23,24.03c1.07,13.61,4.89,26.86,6.73,40.39
		c1.47,10.86,1.66,21.88,3.41,32.7c2.06,12.78,6.27,25.09,10.51,37.32c0.74,2.14,0.1,5.26-1.49,6.87c-1.47,1.49-3.41,2.42-5.33,3.26
		c-17.44,7.66-36.92,10.61-55.84,8.46c-4.01-0.46-8.12-1.18-11.55-3.33c4.06,0.33,8.11,0.66,12.17,0.99
		c0.58,0.05,1.19,0.09,1.72-0.15c1.26-0.57,1.35-2.29,1.32-3.67c-0.17-7.2,1.31-14.32,2.14-21.47c0.62-5.37,0.89-10.77,1.15-16.17
		c0.19-3.99,0.39-7.99,0.58-11.98c0.16-3.31,0.32-6.62,0.4-9.93c0.18-7.55-0.08-15.1-0.44-22.65c-0.96-20.12-2.01-46.26-6.86-65.81"
		/>
	<path class="st23" d="M176.22,118.15c-2.03,0.08-3.55-3.18-3.67-5.22c-0.11-2.03,0.91-3.96,2.11-5.6c1.2-1.64,2.63-3.15,3.53-4.98
		c0.82-1.67,1.21-3.62,2.53-4.93c1.26-1.25,6.53-1.63,9.78-4.38"/>
	<path class="st22" d="M187.46,144.78c-1.1,1.5-2.87,2.34-4.65,2.87s-3.63,0.8-5.37,1.46c-0.85,0.32-1.77,0.85-1.95,1.74
		c-0.08,0.39-0.01,0.8,0.09,1.19c0.8,3.41,2.78,6.52,5.54,8.68c0.17,0.14,0.35,0.27,0.47,0.46c0.3,0.48,0.08,1.15-0.35,1.52
		s-1.01,0.51-1.56,0.62c-2.13,0.43-4.3,0.65-6.47,0.66c-0.64-0.62-0.2-1.92,0.68-2.03c0.15,0.2,0.31,0.39,0.46,0.59"/>
	<path class="st22" d="M174.08,168.66c0.11-0.16,0.24-0.34,0.43-0.38c0.39-0.08,0.6,0.43,0.93,0.66c0.64,0.45,1.43-0.28,1.87-0.92
		c0.81,0.66,1.94,0.83,2.96,0.62c1.02-0.2,1.95-0.74,2.78-1.37c0.46-0.35,0.95-0.94,0.67-1.45c-0.77-0.01-1.08,0.95-1.24,1.7
		c-0.31,1.46-0.87,2.9-1.81,4.05c-0.68,0.84-1.55,1.5-2.43,2.12c-1.29,0.91-1.79,0.96-3.37,0.99c-1.47,0.02-3.85,0.09-4.8-1.04
		c-0.95-1.13-1.44-2.6-1.5-4.07c-0.02-0.45-0.01-0.93-0.23-1.33c-0.57-1-1.42-0.29-1.24,0.6c0.15,0.74,0.94,1.09,1.54,1.31
		C170.46,170.84,172.91,170.27,174.08,168.66z"/>
	<path class="st22" d="M245.43,96.5c0.38,3.78,2.86,6.99,5.4,9.82c1.82,2.02,3.72,3.96,5.69,5.82c1.35,1.27,2.73,2.5,3.95,3.88
		c1.77,2.01,3.17,4.33,4.24,6.78c0.76,1.77,1.36,3.72,0.92,5.59c-0.48,2-2.04,3.53-3.53,4.94c-2.72,2.57-5.43,5.13-8.15,7.7
		c-2.16,2.04-4.43,4.27-5.04,7.18c-0.05,0.22-0.08,0.47,0.02,0.67c0.19,0.4,0.76,0.43,1.17,0.28c1.57-0.55,2.12-2.67,1.43-4.18
		c-0.7-1.51-2.27-2.43-3.85-2.9c-1.59-0.48-3.26-0.6-4.86-1.04c6.75-2.59,10.87-9.69,12.17-16.8c0.12-0.66,0.23-1.35,0.6-1.92
		c0.37-0.56,1.09-0.96,1.73-0.74c0.36,0.13,0.63,0.42,0.91,0.69c1.93,1.85,5.2,5.63,5.55,5.88c5.49,3.93,11.29,7.41,17.34,10.41"/>
	<path class="st23" d="M271.48,243.72c3.53,3.3,2.71,8.94,2.42,13.76c-0.56,9.15,1.89,18.47,6.87,26.17
		c-3.46-0.23-6.92-0.45-10.38-0.68c-2.61-0.17-5.37-0.39-7.52-1.88c1.13-1.46,2.94-3.07,4.56-2.19c1.31,0.71,1.38,2.65,0.68,3.97
		c-0.7,1.32-1.92,2.27-2.81,3.46c-1.69,2.25-2.09,5.19-2.44,7.98c-0.71,5.69-1.43,11.37-2.14,17.06
		c-2.05,16.3-4.09,32.75-2.65,49.12"/>
	<path class="st23" d="M229.19,362.69c-0.68-8.93-2.2-17.8-4.55-26.45c-1.18-4.35-2.58-8.7-2.83-13.21
		c-0.02-0.43-0.03-0.9,0.22-1.26c0.4-0.57,1.31-0.57,1.88-0.16c0.57,0.41,0.86,1.1,1.07,1.77c0.99,3.19,0.63,6.62,0.23,9.93
		c-1.21,10.09-2.7,20.15-4.47,30.16"/>
	<path class="st22" d="M848.15,361.82c0.11-3.53,4.34-5.35,7.86-5.53c3.53-0.18,7.45,0.29,10.22-1.9c2.75-2.18,3.22-6.1,3.47-9.6
		c0.46-6.44,0.92-12.87,1.38-19.31c0.15-2.05,1.06-4.78,3.1-4.49c1.63,0.23,2.2,2.27,2.34,3.91c0.72,8.58-0.18,17.2-1.08,25.76
		c-0.29,2.73-0.83,5.88-3.22,7.24c-1.7,0.97-3.79,0.69-5.74,0.76s-4.22,0.8-4.78,2.67"/>
	<path class="st22" d="M375.34,280.98c13.6,2.87,27.37,4.95,41.21,6.23c1.92,0.18,4.07,0.28,5.28-1.63
		c0.73-1.15,0.72-2.62,0.18-3.87c-0.05-0.11-0.1-0.22-0.15-0.33c-1.61-3.16-6.44-2.19-6.9,1.32c-3.18,24.11-1.9,49.47-5.6,72.24
		c-0.24,1.46-2.4,1.29-2.4-0.19c-0.05-19.7,0.07-39.4,0.37-59.1"/>
	<path class="st22" d="M489.65,96.12c-0.32-0.72-0.49-1.98-0.37-2.76c0.26-1.74,0.93-3.83,2.26-6.08c-2.64-0.23-3.47-0.25-5.21-1.3
		c-1.95-1.18-3.35-3.05-4.12-5.19c-0.83-2.3-3.33-5.03-5.92-5.43c-1.7-0.27-2.41,2.3-0.8,2.89c0.27,0.1,0.56,0.16,0.85,0.16
		c1.42,0.01,2.69-0.82,3.98-1.42c4.55-2.1,11.41-0.68,15.13,2.67c-1.71-4.44-0.81-8.67,2.28-11.47s8.88-4.43,7.68-9.54
		c-0.44-1.86-2.46-0.67-2.64,1.14c-0.12,1.19,0.43,2.32,0.95,3.41c1.76,3.67,2.29,7.91,1.47,11.9c-0.22,1.08-0.95,3.94-0.95,3.94
		s6.54,1.55,9.24,4.66c1.57,1.81,0.62,4.66-1.73,5.1c-1.4,0.27-3.03,0.11-4.4-0.25c-3.42-0.91-9.27-0.62-9.56-4.14
		c-0.04-0.48,0.28-1.36,1.29-0.9C504.15,85.85,494.22,106.56,489.65,96.12z"/>
	<path class="st22" d="M97.32,166.99c-2.64-0.08-5.27-0.64-7.72-1.64c-1.26-0.51-2.5-1.17-3.35-2.23s-1.21-2.59-0.59-3.8
		c1.02-1.98,3.89-1.99,5.95-1.16c2.06,0.84,3.99,2.26,6.22,2.25c-1.43-3.94,0.85-8.18,3.06-11.75c0.79-1.29,1.83-2.72,3.34-2.79
		c1.37-0.06,2.55,1.12,2.92,2.44c0.37,1.32,0.11,2.73-0.22,4.05c-1.19,4.81-3.26,9.4-6.09,13.47c3.37-1.45,5.8-4.43,8.09-7.3
		c2.16-2.71,4.41-5.62,4.86-9.06c0.08-0.61,0.01-1.37-0.55-1.61c-0.28-0.12-0.6-0.06-0.9,0.02c-1.52,0.42-2.88,1.38-3.78,2.67"/>
	<path class="st22" d="M309.04,47c-3.66-0.23-7.36,1.22-9.98,3.78c-1.07,1.05,0.36,2.83,1.55,1.92c0.08-0.06,0.15-0.12,0.22-0.19
		c0.66-0.63,0.77-1.7,0.1-2.31c-0.92-0.82-2.22-0.03-3.12,0.73c-4.23,3.6-8.47,7.2-12.7,10.8c-0.67,0.57-1.4,1.25-1.44,2.13
		c2.96,0.8,5.61-1.91,7.38-4.41c3.51-4.96,6.66-10.46,7.2-16.51c0.36-4.05-0.83-8.7-4.73-10.37c-0.9-0.38-1.96-0.38-2.76,0.17
		c-1.81,1.25-0.82,3.69-1.28,5.64c-0.53,2.23-2.83,3.45-4.8,4.62c-0.53,0.31-1.07,0.66-1.37,1.19c-0.69,1.23,0.17,2.71,1,3.85
		c1.23,1.68,2.54,3.43,4.58,4.07c0.69,0.22,1.44,0.24,2.14,0.07c2.89-0.72,2.89-3.66,1.51-5.29c-0.92-1.08-2.32-1.65-3.73-1.87
		c-5.16-0.79-10.53,3.45-10.96,8.66c-0.07,0.85-0.02,1.74,0.37,2.5c1.25,2.46,4.86,2.14,7.46,1.19c4.16-1.52,8.09-3.71,11.57-6.44
		c4.55-3.57,8.85-8.3,14.61-8.86"/>
	<path class="st22" d="M114.91,156.92c-5.07,1.8-10.03,5.19-13.83,9c5.29-2.34,10.93-3.87,16.68-4.49"/>
	<path class="st22" d="M599.02,112.18c-1.37-0.82-2.83-0.93-2.64,0.66c0.18,1.59,2.77,2.69,5.9,4.69
		c6.97,4.43,13.58,10.47,16.12,18.32c-0.56,0.63-1.55-0.11-2.02-0.81c-1.49-2.22-2.78-4.57-3.87-7.02
		c-0.94-2.12-1.65-4.82-0.15-6.59c1.12-1.33,3.04-1.57,4.78-1.7c2.46-0.18,5.01-0.28,7.31,0.6c3.7,1.42,6.01,5.1,7.54,8.75
		c0.38,0.9,0.73,1.87,0.55,2.83c-0.38,2.04-3.01,2.91-4.99,2.31s-3.5-2.15-5.12-3.43c-5.25-4.17-8.03-7.31-14.6-5.94
		c-0.52-11.18-1.83-21.06,4.24-30.46c0.9-1.4,2.28-2.92,3.9-2.57c1.27,0.28,2,1.63,2.25,2.9c0.86,4.34-1.89,9.09-0.02,13.1
		c0.44,0.95,1.12,1.77,1.61,2.69c1.62,3.05,4.41,4.04,1.09,7.66"/>
	<path class="st22" d="M825.54,82.7L825.54,82.7c0.12-1.9-1.66-3.41-3.5-2.92c-2.29,0.62-4.48,1.95-6.52,3.24
		c-6.7,4.25-13.81,9.01-17.39,15.9c-0.76,1.46,1.47,2.65,2.26,1.21c0.01-0.01,0.02-0.03,0.02-0.04c3.57-6.66,6.82-13.7,7.54-21.22
		s-1.46-15.68-7.22-20.57c-0.68-0.58-1.45-1.13-2.33-1.28c-1.39-0.23-2.74,0.56-3.8,1.48c-3.24,2.82-5.01,7.06-5.47,11.33
		c-0.46,4.27,0.29,8.58,1.41,12.72c0.37,1.37,0.84,2.82,2.12,3.56c0.63,0.36,1.42,0.44,2.08,0.12c1-0.49,1.11-1.49,0.92-2.36
		c-0.55-2.47-3.34-3.99-5.86-3.72c-2.52,0.26-4.7,1.92-6.31,3.88c-2.49,3.03-3.85,7.55-1.74,10.85l0.02,0.03
		c1.36,2.13,3.85,3.33,6.35,2.92c2.13-0.35,4.25-1.07,6.26-1.85c10.63-4.12,20.87-10.25,27.29-19.73c0.85-1.25,1.44-2.69,1.53-4.2
		c0.27-4.73-3.96-5.83-7.18-4.95c-4.49,1.23-7.75,6.75-8.01,7.09"/>
	<path class="st22" d="M872.17,191.29l-0.19-0.11c-1.26-0.69-0.51-2.62,0.89-2.28l0,0c0.82,0.21,1.48,0.77,2.07,1.39
		c2.45,2.56,8.33,8.25,10.54,11.02c2.79,3.5,5.82,7.04,7.49,11.25c1.03,2.6,1.48,5.5,0.99,8.22c-0.24,1.34-2.01,1.66-2.71,0.48
		c-1.21-2.04-1.49-4.81-1.62-7.11c-0.23-3.99-0.27-7.99-0.22-11.99c0.08-6.17,0.02-12.97,3.61-18.1c2.75-3.93,7.2-6.21,11.59-8.21
		c0.91-0.42,0.46-1.88-0.5-1.62c-0.07,0.02-0.14,0.04-0.2,0.08c-0.77,0.4-1.08,1.31-1.27,2.15c-0.87,3.91-0.86,10.29,0.83,13.92
		c2.28,4.9,8.66,8.88,7.11,14.06c-0.11,0.37-0.26,0.75-0.55,1.02c-0.64,0.6-1.66,0.42-2.51,0.21c-2.62-0.66-6.66-2.7-9.36-2.56
		c-2.7,0.14-5.47,1.16-7.15,3.28c-0.89,1.13-1.5,2.59-3.1,2.91c-0.95,0.19-1.83-0.44-1.78-1.4c0.06-1.14,1.54-1.5,2.67-1.54
		c4.12-0.16,12.55,1,16.68,0.86c4.23-0.14,5.62,2.92,7.12,8.04c1.92,6.55,1.57,5.49,1.72,7.24c0.06,0.68-0.03,1.39-0.35,2
		c-1.28,2.41-4.66,1.25-6.78-0.22c-5.79-4.02-11.02-8.85-15.48-14.3"/>
</g>
</svg>
