<?xml version="1.0" encoding="utf-8"?>
<!-- Generator: Adobe Illustrator 24.1.0, SVG Export Plug-In . SVG Version: 6.00 Build 0)  -->
<svg version="1.0" xmlns="http://www.w3.org/2000/svg" xmlns:xlink="http://www.w3.org/1999/xlink" x="0px" y="0px"
	 viewBox="0 0 900 600" style="enable-background:new 0 0 900 600;" xml:space="preserve">
<style type="text/css">
	.st0{display:none;}
	.st1{display:inline;}
	.st2{fill:#D53119;}
	.st3{fill:#DF862C;}
	.st4{fill:#DFCF33;}
	.st5{fill:#018AC7;}
	.st6{fill:#028AC8;}
	.st7{fill:#5B4085;}
	.st8{fill:#E6E6E6;}
	.st9{fill:#EACE62;}
	.st10{fill:#D1E8B2;}
	.st11{fill:#B0E1B7;}
	.st12{fill:#DCE9B0;}
	.st13{fill:#FBD000;}
	.st14{fill:#D3E5C0;}
	.st15{fill:#9691C1;}
	.st16{fill:#EE7F00;}
	.st17{fill:#DE151C;}
	.st18{fill:#CCECF9;}
	.st19{fill:#898989;}
	.st20{fill:#F8D32B;}
	.st21{fill:#94C23B;}
	.st22{fill:none;stroke:#000000;stroke-width:0.9;stroke-linecap:round;stroke-miterlimit:10;}
	.st23{fill:none;stroke:#000000;stroke-width:0.9;stroke-linecap:round;stroke-linejoin:round;stroke-miterlimit:10;}
	.st24{fill:none;stroke:#000000;stroke-width:0.872;stroke-linecap:round;stroke-linejoin:round;stroke-miterlimit:10;}
</style>
<g id="Images" class="st0">
</g>
<g id="Shading">
	<path class="st8" d="M151.96,341c-10.22-25.07-11.65-53.63-3.99-79.59c2.53-8.57,7.22-17.93,15.93-19.93
		c4.6-1.06,9.37,0.23,13.91,1.5c0.98,0.27,1.98,0.57,2.75,1.23c1.44,1.24,1.62,3.36,1.68,5.26c0.85,26.89-1.81,53.88-7.9,80.08
		c2.43,2.83,7.1,2.28,10.26,0.3c3.16-1.99,5.51-5.05,8.62-7.12c3.11-2.07,7.68-2.86,10.32-0.22c2.46,2.46,3.24,7.54,6.71,7.28
		c1.73-9.19,1-18.83-2.09-27.65c-0.2-0.57-0.43-1.17-0.88-1.58c-1.38-1.26-3.65,0.07-4.56,1.7s-1.34,3.66-2.86,4.75
		c-2.05,1.47-5.12,0.35-6.59-1.69c-1.48-2.04-1.78-4.68-2.04-7.19c-0.99-9.7-1.98-19.4-2.98-29.11c-0.15-1.45-0.24-3.08,0.72-4.18
		c1.57-1.8,4.59-0.76,6.36,0.84c1.77,1.6,3.39,3.75,5.76,4.03c-1.7-10.15-3.41-20.4-2.91-30.69c0.5-10.28,3.39-20.75,9.95-28.68
		c1.63-1.97,4.03-3.49,6.53-2.74c-0.7,5.06-4.43,10.45-5.79,15.7c-1.5,5.75-2.16,11.71-1.93,17.65c0.05,1.29,0.31,2.82,1.49,3.33
		c0.74,0.32,1.59,0.11,2.36-0.13c7.48-2.25,15.48-5.89,22.73-2.98c2.89,1.16,5.35,3.3,8.32,4.22c4.69,1.46,9.71-0.32,14.29-2.07
		c9.97-3.81,19.94-7.63,29.91-11.44c1.8-0.69,3.68-1.39,5.61-1.22s3.89,1.48,4.14,3.4c0.38,2.98-3.15,4.77-6.04,5.61
		c-10.39,3.01-20.86,5.76-31.39,8.26c-1.71,0.41-3.49,0.83-4.87,1.93c-4.4,3.51-1.9,10.47-2.52,16.06
		c-0.9,8.02-8.89,14.16-8.9,22.22c5.47-0.52,11.11,0.93,15.66,4.01c0.46,1.01-0.51,2.19-1.59,2.43c-1.08,0.25-2.2-0.12-3.28-0.35
		c-6.99-1.49-14.73,3.26-16.58,10.16c-0.42,1.58-0.55,3.31,0.1,4.8c1.77,4.02,13.9-5.49,16.53-1.97c1.09,1.45-11.52,9.13-3.69,14.47
		c5.8,3.96,13.24,4.08,18.82,8.34c5.35,4.08,5.18,12.04,4.5,18.73c-0.37,3.64-0.98,7.72-3.92,9.9c-4.19,3.11-10.09,0.4-14.4-2.53
		c-10.33-7.03-19.8-15.31-28.14-24.61c-2.3-2.56-4.69-5.33-7.99-6.35c-3.29-1.02-0.81,14.19-1.22,17.61
		c5.74,12.79,17.29,21.57,29.43,28.58s25.15,12.94,35.4,22.51c0.99,0.93,2.04,2.32,1.37,3.51c-0.62,1.1-2.2,1.07-3.44,0.81
		c-8.2-1.69-15.47-6.23-22.66-10.5c-14.14-8.39-28.71-16-43.28-23.61c-16.02-8.37-33.04-16.96-51.09-15.99
		c-1.24,0.07-2.55,0.17-3.66-0.39C158.17,347.33,152.84,343.15,151.96,341z"/>
	<path class="st8" d="M195.94,262.95c-1.2-6.07-2.2-12.17-2.98-18.31c-1.34-10.48-2.02-21.37,1.32-31.4
		c5.31-15.91,19.93-27.01,35.25-33.81c-1.24-0.73-2.04-2.16-2-3.6c4.64,1.69,9.7,2.22,14.6,1.54c-1.01-0.55-1.7-1.67-1.73-2.82
		c3.48,2.51,7.76,3.87,12.05,3.84c-0.19-0.62-0.39-1.25-0.58-1.87c2.8,3.02,6.18,5.49,9.91,7.23c0.39,0.18,0.79,0.36,1.08,0.67
		c0.85,0.89,0.37,2.46-0.58,3.24s-2.2,1.06-3.35,1.51c-1.84,0.73-3.48,1.98-4.66,3.57c1.1-0.62,0.53-2.52-0.66-2.96
		c-1.19-0.44-2.5,0.07-3.66,0.57c-2.12,0.91-4.25,1.83-6.27,2.94c-4.4,2.42-8.27,5.79-11.29,9.81c0.14-3.65,1.44-7.24,3.66-10.14
		c-8.1,2.68-15.28,8.09-20.08,15.14c-0.23-2.09,0.18-4.25,1.15-6.12c-9.34,3.88-15.33,13.52-17.28,23.44s-0.47,20.18,1.45,30.1
		c0.9,4.66,1.88,9.63,0.1,14.04c-0.38,0.93-0.97,1.9-1.94,2.15c-1.7,0.45-3.04-1.49-3.56-3.17c-0.96-3.11-1.19-6.45-0.66-9.66"/>
	<path class="st8" d="M335.62,237.79c2.89-0.86,6.25-1.65,8.71,0.08c3.34,2.35,2.64,7.38,1.86,11.38
		c-4.3,21.84,0.05,45.26,11.9,64.1c1.05,1.67,2.21,3.65,1.5,5.5c-0.61,1.6-2.38,2.39-4.01,2.93c-5.8,1.93-12.25,2.9-16.74,7.05
		c-0.79,0.73-1.52,1.56-2.51,1.99c-1.11,0.48-2.37,0.38-3.57,0.27c-7.01-0.64-14.02-1.28-21.03-1.92c0.33-4.26-0.83-8.47-1.48-12.7
		c-1.45-9.53-0.2-19.47,3.57-28.34c2.81,2.93,8.21,1.06,10.17-2.5c1.96-3.56,1.52-7.9,1.03-11.93c-0.74-6.04-1.48-12.08-2.21-18.12
		c-0.37-3.01-0.81-6.19-2.73-8.53c-1.4-1.7-3.49-2.72-5.67-2.87C321.37,241.78,328.56,239.89,335.62,237.79z"/>
	<g>
		<path class="st8" d="M407.27,378.39c-4.32,0.79-8.76,0.85-13.07,1.71c-5.64,1.13-10.9,3.61-16.1,6.07
			c-19.65,9.29-39.3,18.58-58.95,27.87c-2.03,0.96-4.2,2.05-5.23,4.05c-0.72,1.4-0.76,3.05-0.58,4.61c0.46,3.8,2.18,7.44,1.98,11.26
			c-0.2,3.82-3.68,7.92-7.29,6.66c-2.42-0.85-3.53-3.56-5.26-5.45c-5.82-6.35-16.67-2.2-24.66-5.42
			c-5.87-2.36-10.67-8.82-16.88-7.62c-2.59,0.5-4.71,2.31-6.73,4.01c-16.39,13.78-78.85,44.74-82.82,45.96
			c-5.95,1.83-13.11,1.39-17.49-3.02c-2.25-2.26-3.53-5.33-4.25-8.44c-2.28-9.94,0.83-20.25,4.03-29.94
			c2.78-8.43,5.64-16.83,8.51-25.23c3.68-10.79,7.71-22.12,16.37-29.54c4-3.43,9.52-7.67,6.77-12.77c-1.01-1.88-2.86-3.16-4.93-3.67
			c-5.1-1.27-10.49-3.15-15.8-2.36c-10.35,1.55-16.44,12.15-21,21.57c-3.11,6.43-6.23,12.86-9.34,19.3
			c-5.27-8.15-6.63-18.72-3.6-27.94s10.39-16.92,19.47-20.36c-7.47-2-15.19,1.5-22.14,4.91c-0.91,0.45-1.91,1-2.18,1.97
			c-0.25,0.87,0.18,1.77,0.38,2.64c1.36,5.67-5.64,9.43-8.59,14.45c-3.73,6.36-0.61,14.39,2.62,21.02
			c4.22,8.64,8.7,17.64,8.52,27.26c-0.15,7.86-3.41,15.27-6.47,22.51c-5.26,12.41-10.21,25.38-10.09,38.86
			c0.12,13.48,5.49,29.68,17.57,35.65c-4.64,0.7-9.2,1.86-13.61,3.46c-2.69,0.97-5.68,2.45-5,6.3c0.25,1.44-0.43,4.44,0.39,5.64
			c2.95,4.33,5.79,6.86,9.85,8.07c3.79,1.13,10.05-2.32,13.51-0.4c4.22,2.34,5.28,7.82,5.89,12.61c0.7,5.45,1.39,10.91,2.09,16.36
			c0.55,0.22,1.21-0.44,0.99-0.99c-2.91-7.3,3.48-15.7,8.95-21.34c1.23-1.26,2.6-2.45,4.24-3.07c2.43-0.92,5.14-0.53,7.71-0.11
			c49.98,8.1,87.93,20.14,150.05,23.15c17.81,0.86,35.87,3.36,53.12-1.17c7.59-1.99,14.95-4.88,21.87-8.58
			c1.85-0.99,3.78-2.14,4.41-4.25c0.27-0.9,0.16-1.91-0.35-2.7c-0.91-1.43-2.23-1.31-3.46-1.19c-33.37,3.25-67.08,4.42-100.48,1.55
			c-46.53-4-93.45-8.07-138.18-21.53c-3.13-0.94-6.24-1.93-9.33-2.96c3.81-3.96,10.12-3.72,15.59-3.19
			c15.65,1.52,16.85-0.01,32.5,1.51c10.24,0.99,29.08,0.32,43.63-0.73c2.08-0.15,2.07-3.22-0.01-3.35
			c-2.83-0.18-5.67-0.13-8.39-0.19c-25.65-0.55-51.27-2.63-76.68-6.23c-0.33-0.59,7.41-3.74,11.29-5.69
			c15.2-7.69,27.3-18.18,42.51-25.87c3.03-1.53,17.96-6.11,21.84-6.48c1.05-0.1,2.14-0.21,3.06-0.74c1.03-0.59,1.72-1.64,2.28-2.7
			c2.43-4.55,3.28-9.93,2.38-15.01c-0.35-1.98-0.97-3.98-0.67-5.97c0.29-1.99,1.5-3.99,3.51-3.85c11.92-8.72,12.16-9.85,25.45-16.29
			c3.44,3.23,7.77,2.78,9.05,13.08c1.43,11.5,23.47,13.99,38.17,11.31c-1.87,11.45-4.54,32.41-10.46,42.39
			c-5.92,9.97-10.06,12.2-21.13,15.67c10.56-1.43,16.27-1.87,26.91-2.5c12.66-0.76,27.91-1.73,30.57-2.53c0.81-0.24,1.45-1,1.71-1.8
			c0.78-2.4-2.76-3.56-5.21-4.18c-7.74-1.94-12.07-10.7-11.99-18.68c0.07-7.98,3.4-15.51,5.98-23.07c2.57-7.56,4.4-15.96,1.52-23.4
			c-1.02-2.64-2.63-5.21-2.48-8.04c0.1-1.81,0.93-3.56,0.78-5.37c-0.23-2.86-2.86-5.28-2.51-8.13c0.33-2.75,3.18-4.35,5.69-5.51
			c12.53-5.79,25.06-11.58,37.6-17.37c8.75-4.04,17.61-8.12,27.08-9.94c8.21-1.58,17.04,0.37,24.93-2.39s16.26-9.25,16.24-19.83
			C427.65,370.84,417.07,376.59,407.27,378.39z"/>
	</g>
	<path class="st8" d="M419.43,269.72c-0.76,2.57,4.9,3.71,4.05,6.25c-0.42,1.25-2.18,1.5-2.86,2.63c-1.34,2.26,2.52,3.98,3.71,6.33
		c1.08,2.13-0.25,4.62-0.68,6.98c-0.43,2.35,1.49,5.6,3.6,4.47c-1.27,2.26-1.69,5.08-0.75,7.5c0.94,2.42,3.35,4.3,5.95,4.26
		c2.16-0.03,4.76-1.14,6.18,0.48c0.59,0.67,0.72,1.6,0.84,2.48c0.86,6.69,1.72,13.37,2.58,20.06c0.37,2.9,0.91,6.11,3.22,7.9
		c2.31,1.79,6.75,0.42,6.42-2.48c-0.08-0.72-0.44-1.38-0.79-2.02c-5.18-9.73-7.87-20.77-7.75-31.79c0.02-1.7,0.05-3.56-1.01-4.89
		c-0.73-0.91-1.87-1.43-2.56-2.36c-0.73-0.99-0.86-2.29-0.95-3.52c-0.39-4.89-0.77-9.78-1.16-14.68
		c-0.34-4.31-0.38-12.32-5.76-13.68C428.78,262.91,420.27,266.86,419.43,269.72z"/>
	<path class="st8" d="M453.61,312.59c9.89,16.48,19.56,33.08,29.01,49.81c1.94,3.43,3.88,7.66,1.96,11.09
		c-0.95,1.68-2.66,2.78-4.41,3.6c-4.65,2.19-46.82,10.91-68.66,13.76c-10.61,1.38-20.93,4.54-31.6,5.27
		c-0.45,2.11,2.4,3.24,4.55,3.45c27.37,2.77,54.96,2.16,82.47,1.55c18.56-0.41,37.19-0.83,55.55-3.56
		c4.67-0.7,10.05-2.09,11.92-6.42c1.71-3.95-0.37-8.47-2.7-12.09c-3.57-5.56-7.83-10.63-12.07-15.7
		c-9.45-11.27-18.97-22.62-30.33-31.98c-10.53-8.68-22.56-15.55-35.39-20.21c-0.73-0.27-1.6-0.51-2.25-0.08
		S452.85,312.74,453.61,312.59z"/>
	<path class="st8" d="M374.54,518.38c-2.48-2.5-5.8-4.22-8.07-6.92c-2.49-2.98-5.47-6.91-7.69-10.1
		c-5.75-8.27-9.59-17.46-9.41-27.92c33.37,2.9,66.87,4.36,100.37,4.35c1.69,0,3.94,0.5,3.99,2.19c0.03,0.83-0.56,1.53-1.11,2.15
		c-3.55,3.99-7.23,7.99-9.52,12.82c-2.29,4.83-3,10.72-0.5,15.44c2.47,4.65,7.5,7.3,12.41,9.18c13.1,5.02,27.4,3.24,41.4,4.27
		c4.82,0.35-1.16,5.75-2.58,7.18c-10.26,10.41-93.59,10.68-140.84,9.69c-15.27-0.32-30.64-0.65-45.62-3.66
		c-1.99-0.4-4.06-0.9-5.56-2.26c-1.49-1.37-2.13-3.89-0.81-5.44c0.68-0.8,1.71-1.18,2.72-1.46c3.14-0.87,6.42-1.01,9.67-1.15
		c15.88-0.68,31.76-1.36,47.64-2.04c5.82-0.25,11.82-0.47,17.28,1.56c3.47,1.29,13.3,10.87,15.22,6.68
		C386.11,528.86,380.63,524.52,374.54,518.38z"/>
	<path class="st8" d="M644.8,45.8c-19.39-2.77-39.71,1.51-56.34,11.86c-7.48,4.66-14.18,10.45-20.79,16.27
		c-3.91,3.45-7.87,6.98-10.59,11.43c-5.17,8.46-5.19,18.93-6.28,28.78c-1.27,11.47-4.22,22.75-8.71,33.38
		c-0.77,1.81-1.59,3.67-1.6,5.64c-0.01,1.46,0.44,2.88,0.76,4.3c2.79,12.16-2.97,25.69,2.22,37.04c2.46,5.39,7.37,10.55,5.88,16.29
		c-0.6,2.32-2.2,4.24-3.18,6.43c-0.97,2.19-1.13,5.13,0.73,6.64c0.95,0.77,2.23,0.99,3.34,1.52c5.64,2.67,4.61,10.79,6.24,16.8
		c1.83,6.73,8.37,11.83,15.34,12.13c24.04,1.04,46.16-10.85,66.21-24.15c-16.01,5.58-32.35,10.2-48.91,13.83
		c-5.93,1.3-13.89,1.48-16.16-4.15c5.45-0.44,10.79-2.12,15.51-4.88l-17.9-1.71c-0.98-0.09-1.94-0.56-2.47-1.39
		c-1.41-2.17,1.29-4.45,3.13-6.21c2.4-2.29,3.74-5.65,3.58-8.96c-0.08-1.64-0.68-3.52-2.92-3.49c-0.82,0.01-1.61,0.31-2.33,0.73
		c-4.05,2.36-8.59,3.88-13.24,4.44c-0.79,0.1-1.7,0.13-2.27-0.43c-0.87-0.84-0.36-2.28,0.2-3.35c3-5.72,6.01-11.44,9.01-17.15
		c0.32-0.61,0.67-1.25,1.25-1.61c1.18-0.73,2.68-0.04,3.9,0.61c15.06,8.09,32.54,11.59,49.56,9.91c1.09-0.11,1.97-1.07,1.85-2.15
		c-0.11-1.04-0.92-1.27-1.65-1.46c-18.3-4.71-36.6-9.42-54.9-14.14c-6.33-10.28-13.21-20-13.9-32.05
		c-0.36-6.37,0.95-12.71,2.25-18.96c2.05-9.82,4.09-19.64,6.14-29.47c11.64,5.92,18.48,18.03,26.3,28.49
		c4.54,6.07,10.28,12.01,16.83,15.62c5.44,3,11.49-2.93,8.65-8.45c-2.33-4.53-4.46-9.17-6.39-13.89c-1.91-4.68-3.61-9.85-2.75-14.71
		c0.19-1.09,1.48-1.56,2.34-0.88c6.12,4.84,12.72,9.08,19.66,12.65c3.78-7.28-3.33-15.74-2.73-23.92c0.08-1.16,0.39-2.41,1.32-3.11
		c0.87-0.65,2.05-0.65,3.13-0.62l9.31,0.26c4.06,0.11,7.29-3.39,6.85-7.43l-0.01-0.08c-0.29-2.76,0.63-5.84,2.98-7.34
		c1.17-0.75,2.56-1.04,3.91-1.31l6.2-1.27c4.32-0.88,7.33-4.55,7.85-8.92c0.17-1.43,0.88-2.69,2.46-3.52
		c0.85-0.45,1.81-0.64,2.78-0.67c8.92-0.31,17.86-0.43,26.79-0.37c1.17-2.41-1.15-5.02-3.33-6.6
		C676.91,52.57,660.73,48.07,644.8,45.8z"/>
	<path class="st8" d="M492.65,196.77c-7.65,15.69-11.18,33.05-13.84,50.3c-2.23,14.44-3.91,29.02-3.74,43.63
		c0.04,3.4,0.2,6.88,1.42,10.05c1.64,4.27,5.03,7.58,8.33,10.75c13.03,12.53,26.06,25.07,39.09,37.6c0.71,0.68,1.64,1.42,2.57,1.09
		c1.23-0.43,1.16-2.19,0.82-3.45c-3.81-14.03-11.87-26.47-17.69-39.79c-9.72-22.25-13.11-47.23-9.67-71.26
		c0.24-1.68,1.05-3.82,2.75-3.71c0.87,0.06,1.55,0.75,2.14,1.39c6.88,7.47,13.76,14.94,20.64,22.41
		c2.14-16.14-13.1-29.35-16.29-45.32c-2.08-10.41,1.21-21.25,6.44-30.48c3.88-6.84,11.27-13.01,14.33-20.03
		c4.1-9.41-7.68,0.42-10.83,3.07C508.07,172.27,498.96,183.82,492.65,196.77z"/>
	<path class="st8" d="M530.38,448.54c-3.21-3.77-6.42-7.54-9.63-11.31c-0.67-0.79-1.36-1.6-2.26-2.12
		c-1.72-1.01-3.85-0.83-5.85-0.93c-7.31-0.35-13.92-4.88-18.37-10.69s-7.02-12.81-9.25-19.78c14.51,0.3,29.06-1.45,43.08-5.18
		c5.4-1.44,11.04-3.18,16.46-1.85c0.7,2.82-0.86,5.73-2.87,7.82c-2.01,2.09-4.51,3.69-6.4,5.89c-0.68,0.79-1.3,1.77-1.11,2.79
		c0.6,3.25,6.24,0.7,8.79,2.81c1.58,1.3,1.23,3.82,0.36,5.67s-2.15,3.67-2.01,5.71c0.19,2.71,2.82,4.66,3.5,7.29
		c0.32,1.23,0.19,2.56,0.6,3.77c0.86,2.51,3.82,3.7,6.47,3.68c2.65-0.02,5.22-0.92,7.86-1.17c1.32-0.12,2.99,1.68,1.7,1.98
		c-1.04,9.19-5.85,17.61-10.74,25.46c-4.4,7.06-8.8,14.12-13.2,21.19c-1.53,2.45-3.11,5.4-2.03,8.08c1.37,3.39,5.87,3.91,9.53,3.89
		c12.43-0.05,24.86-0.11,37.29-0.16c1.94-0.01,3.97,0,5.71,0.87s3.08,2.88,2.51,4.74c-0.53,1.76-2.44,2.68-4.18,3.29
		c-9.9,3.47-20.59,3.8-31.08,4.1c-7.04,0.2-14.07,0.4-21.11,0.59c-6.39,0.18-13,0.32-18.9-2.14c10.5-11.84,18.45-25.93,23.17-41.03
		c1.39-4.45,2.51-9.22,1.38-13.74S535.04,448.23,530.38,448.54z"/>
	<path class="st8" d="M657.47,231.52c1.85,29.74-7.89,46.33-14.55,66.72c6.84-6.1,12.75-27.72,17.21-43.18
		c0.35,5.48-0.94,12.9-1.78,17.32c-2.15,11.26-0.32,12.42-3.02,23.56c7.85-15.26,13.02-27.82,17.27-44.44
		c0.67,5.29-1.36,10.75-1.75,16.07c6.3-14.71,11.96-34.46,13.06-50.42c0.2-2.9,0.29-6.05-1.39-8.43s-5.82-3.09-7.33-0.61
		c0.24-6.97,0.48-13.94,0.71-20.92c0.05-1.58,0.05-3.32-0.97-4.52c-1.4-1.63-3.92-1.46-6.04-1.15c-5.97,0.88-14.5,0.56-20.02,2.93
		c-6.51,2.8,0.23,3.79,2.9,9.53C656.89,204.97,656.71,219.41,657.47,231.52z"/>
	<path class="st8" d="M699.93,210.98c-2.51,10.35-5.03,20.71-7.54,31.06c-2.63,10.86-5.29,21.98-4.1,33.08
		c0.89,8.28,3.87,16.16,5.91,24.23c4.02,15.89,4.4,32.53,8.58,48.38c2.73,10.36,7.09,20.4,7.89,31.08c0.26,3.46,0,7.3-2.39,9.82
		c-7.28-5.87-17.99-2.11-26.46,1.85c3.76-1.42,7.64-1.12,11.4,0.31c1.92,0.73,3.7,1.81,5.64,2.47c13.11,4.46,18.83-8.44,17.04-19.29
		c-0.58-3.54-2.15-6.83-3.51-10.15c-4.66-11.33-7.1-23.56-7.15-35.8c-0.04-10.08,1.51-20.21,0.15-30.2
		c-1.1-8.02-4.07-15.76-4.4-23.85c-1.02-25.13,23.05-45.6,23.72-70.73c0.23-8.89-2.53-17.55-4.28-26.27
		c-0.93-4.62-1.58-9.3-2.23-13.96c-0.78-5.58-1.44-11.2-2.37-16.76c-4.61,6.97-5.25,20.81-7.27,29.16
		C705.68,187.27,702.81,199.12,699.93,210.98z"/>
	<path class="st8" d="M704.87,447.92c1.67-8.24-3.15-20.22-9.65-22.6c6.44-2.15,12.88-4.3,19.32-6.45c1.05-0.35,1.35-1.03,1.83-1.84
		c1.11-1.89,2.37-5.18,2.77-7.34c2.45-13.35,5.18-22.77,5.11-36.32c-0.05-9.71-1.41-19.37-2.19-29.05
		c-1.3-16.15-0.99-32.38-0.68-48.58c4-0.39,8.33-0.71,11.76,1.39c2.18,1.33,3.38,3.79,3.33,6.35c-0.08,4.19-2.87,4.16-4.75,5.55
		c-2.41,1.78-2.67,5.23-2.7,8.23c-0.13,10.66-0.15,21.81,4.71,31.3c0.66,1.28,1.4,2.54,2.07,3.83c1.09,2.1,0.38,4.65-1.58,5.98
		c-1.62,1.1-2.81,3.18-3.07,5.19c-0.42,3.27,0.59,6.58,0.32,9.87c-0.34,4.09-2.65,8.09-1.68,12.08c1.02,4.2,5.34,7.04,8.38,10.2
		c2.09,2.17,0.6,5.77-2.41,5.84c-0.92,0.02-1.84,0.21-2.72,0.66c-1.5,0.75-2.52,2.3-2.3,3.96c0.26,1.92,1.89,2.6,3.29,3.43
		c1.35,0.8,2.57,1.83,3.59,3.03c2.16,2.53-0.01,6.33-3.32,6.02c-3.32-0.31-6.71-0.02-9.92,0.88l1.15,3.83
		c0.95,3.15-2.55,5.74-5.3,3.95c-1.56-1.02-3.17-1.93-4.91-1.88c-4.06,0.11-6.01,5.11-6.02,9.17
		C709.29,438.67,707.43,444.76,704.87,447.92"/>
	<path class="st8" d="M637.77,479.21c-3.99,1.43-8.57,3.73-12.77,4.25c-8.34,1.04-15.03-1.4-21.77-6.43
		c-9.3-6.94-9.75-11.11-11-16.32c-0.31-1.31-1.09-2.5-2.03-3.47c-0.81-0.83-1.87-1.38-2.78-2.1c-2.24-1.78-3.51-4.71-3.29-7.56
		c0.06-0.78,0.22-1.58-0.03-2.32c-0.3-0.87-1.1-1.44-1.74-2.11c-2.09-2.2-2.3-5.94-0.47-8.36c-0.1-1.71-2.46-1.95-4.01-2.67
		c-3.35-1.54-3.27-6.77-0.72-9.44s6.44-3.44,10.08-4.08c3.9-0.69,7.81-1.37,11.71-2.06c2.4-0.42,5.4-0.6,6.7,1.46
		c-3.94,4.27-10.66,5.08-14.55,9.4c-0.55,0.61-1.05,1.35-1.01,2.16c0.04,0.71,0.47,1.32,0.94,1.86c5.37,6.21,14.82,6.31,22.3,9.69
		c1.41,0.64,2.83,1.46,3.63,2.78c0.8,1.32,0.77,3.26-0.44,4.22c-0.81,0.64-1.92,0.72-2.95,0.74c-5.33,0.13-10.68-0.33-15.91-1.37
		c2.43,4.36,8.18,5.43,12.05,8.59c2.89,2.36,4.69,6,4.81,9.73c-0.48,0.26-0.97,0.53-1.45,0.79c1.89,5.34,7.64,8.54,13.28,9.11
		c5.64,0.57,11.25-1,16.7-2.55c3.93-1.11,8.14-2.49,12.25-2.51C654.66,474.41,641.31,477.94,637.77,479.21z"/>
	<path class="st8" d="M609.88,418.6c-3.51-3.36-4.89-9.02-2.62-13.31c0.67-1.26,1.67-2.42,3.02-2.88s3.06-0.03,3.74,1.22
		c0.42,0.75,0.41,1.66,0.46,2.52c0.12,2.23,0.65,4.44,1.54,6.49c0.47,1.09,1.06,2.14,1.87,3.01c2.9,3.11,7.78,3.12,11.99,2.48
		c2.55-0.39,5.22-0.93,7.65-0.07s4.35,3.77,3.13,6.04c-0.13,0.24-0.29,0.47-0.53,0.6c-0.81,0.44-1.64-0.48-2.28-1.14
		c-3.85-4-9.78-1.01-14.34-0.61C618.82,423.37,613.33,421.9,609.88,418.6z"/>
	<path class="st8" d="M627.72,314.51c-5.73-9.87-13.14-18.64-18.05-29.21c-4.91-10.57-4.06-6.38-13.83-22.69
		c-5.23-8.73-10.1-9.69-11.74-10.48c2.12,0.98,12.69-5.03,15.18-6.01c5.48-2.17,10.96-4.34,16.44-6.51
		c6.43-2.55,18.04-8.45,23.71-10.22c15.43-4.84,11.17,34.73,4.42,50.15C639.1,290.38,633.62,304.24,627.72,314.51z"/>
	<path class="st13" d="M413.15,371.01c-1.37,0.15-2.85,0.13-4,0.89c-1.2,0.79-1.75,2.23-2.56,3.42c-1.64,2.43-4.6,3.92-7.53,3.79
		c-0.94-0.04-2.05-0.17-2.66,0.54c-0.42,0.49-0.42,1.2-0.4,1.85c0.19,6.65,0.38,13.3,0.58,19.95c0.03,1.21,0.23,2.69,1.65,2.9
		c0.83,0.12,1.64-0.33,2.12-1.02l2.69-3.95c0.96-1.4,3.16-0.89,3.38,0.79c1.18,9.05-0.05,16.48,2.57,23.69
		c0.78,2.15,3.75,2.33,4.81,0.31l1.94-3.72c0.44-0.85,1.7-0.68,1.9,0.25c1.61,7.32,2.78,12.24,3.01,18.18
		c0.16,4.08,6.04,4.47,6.73,0.44c0.21-1.24,0.36-2.48,0.46-3.66c1.6-19.39,3.19-38.77,4.79-58.16c0.35-4.23,3.88-18.53-4.47-17.71
		C422.56,360.34,420.77,370.16,413.15,371.01z"/>
	<path class="st13" d="M418.26,197.1c-2.42,3.17-3.6,7.56-2.03,11.22c1.91-1.82,2.29-4.66,2.93-7.22s2.04-5.37,4.63-5.88
		c-0.98,2.47-1.67,5.06-2.06,7.7c1.17-0.21,1.67-1.55,2.1-2.66c0.43-1.1,1.41-2.34,2.53-1.98c-0.96,4.75-0.81,9.71,0.44,14.39
		c1.7-1.67,1.75-4.33,1.99-6.7c0.23-2.37,1.12-5.13,3.41-5.79c1,5.08,2.46,10.08,4.37,14.9c2.06-1.7,2.22-4.77,1.95-7.43
		c-0.27-2.66-0.77-5.51,0.49-7.87c3.17,5.76,3.47,12.64,3.16,19.21c-0.31,6.57-1.15,13.2,0.01,19.67
		c2.99-10.62,4.05-21.78,3.12-32.78c-0.23-2.66-0.58-5.37-1.73-7.78c-2.22-4.65-7.37-7.68-12.39-8.33
		C426.08,189.11,421.25,193.18,418.26,197.1z"/>
	<path class="st13" d="M302.5,546.29c0,0.01,0,0.02-0.01,0.02c-0.89,0.59,0.09,0.87,0.51,0.99c4.6,1.27,9.4,1.78,14.16,1.51
		c1.67-0.1,3.5-0.37,4.59-1.64c0.29-0.34,0.51-0.74,0.86-1.03c0.45-0.37,1.05-0.5,1.62-0.58c3.44-0.5,7.18,0.14,10.42-0.8
		c0.75-0.22,0.72-1.31-0.04-1.47c-6.31-1.34-12.77-1.95-19.21-1.82c-1.25,0.03-7.27,0.4-3.23-1.33c0.25-0.11,1.52-1.07-0.94-1.03
		c-4.99,0.1-11.01,0.48-16.98,3.6c-0.63,0.33-0.5,1.28,0.2,1.42c2.17,0.44,5.1,0.83,7.22,0.94
		C305.76,545.28,302.69,545.81,302.5,546.29z"/>
	<path class="st13" d="M498.03,473.74c3.95,2.11,5.97,6.76,4.4,10.95c-0.01,0.03-0.02,0.06-0.04,0.09c-0.64,1.68-1.6,3.35-1.11,5.18
		c0.28,1.04,1.17,1.89,2.25,1.88c1.05-0.01,1.59-0.8,2.07-1.55c1.53-2.38,3.07-4.75,4.6-7.13c0.43-0.66,0.94-1.39,1.71-1.55
		c0.96-0.2,1.9,0.62,2.19,1.56c0.29,0.94,0.1,1.95-0.1,2.91c-1.85,9.19-3.9,18.34-6.13,27.45c0.6,0.76,2,0.25,2.48-0.59
		c6.12-10.89,9.25-20.73,13.23-31.7c0.45-1.24,2.27-0.98,2.35,0.33l0.01,0.11c0.09,1.41,1.87,2.02,2.76,0.93
		c4.46-5.44,6.76-12.65,6.13-19.67c0.19,2.17-19.68,6.4-22.36,6.82c-3.64,0.58-17.54,2.06-17.54,2.06S496.34,472.84,498.03,473.74z"
		/>
	<path class="st13" d="M509.05,522.19c5.72-1.25,11.61-1.68,17.45-1.27c-0.05,0.98-1.17,1.5-2.13,1.69
		c-0.96,0.19-2.09,0.36-2.57,1.22c2.74,1.49,6.03,1.29,9.15,1.25c3.4-0.04,6.8,0.15,10.18,0.58c0.81,0.1,1.83,0.43,1.86,1.25
		c0.03,0.86-1.06,1.24-1.92,1.35c-5.59,0.71-11.22,1.07-16.85,1.08c-3.07,0.01-6.24-0.07-9.06,1.16c0.18,1.17,2.66,0.64,2.74,1.82
		c0.04,0.61-0.69,0.95-1.28,1.1c-3.3,0.83-6.7,1.28-10.1,1.35c-0.9,0.02-1.86,0-2.63-0.47c-0.77-0.47-1.25-1.54-0.77-2.31
		c0.57-0.91,2.26-1.35,1.87-2.35c-0.17-0.44-0.69-0.61-1.16-0.69c-1.11-0.21-2.24-0.27-3.36-0.18c3.13-1.91,6.19-4.5,8.93-6.93
		C509.28,521.6,509.33,522.13,509.05,522.19z"/>
</g>
<g id="Stroke">
	<path class="st23" d="M141.8,570.07c-0.73-4.65-3.41-23.11-4.14-27.76c38.46,6.77,81.3,15.43,119.67,22.72
		c9.08,2.04,47.51,5.04,56.51,5.04c133.33-1.1,238.48-19.1,368.49-43.08c8.13-1.5,14.54-7.87,15.95-16.01
		c0.45-2.57,0.55-4.68,0.47-5.58c-2.34,3.93-7.79,6.79-12.36,7.62c-205.93,37.26-291.62,37.16-328.78,40.53
		c-22.52,1.13-45.04,0-67.56-1.13c-38.28-3.38-74.31-10.13-112.6-16.89c-18.02-2.25-34.9-5.63-52.92-11.26
		c-4.5-1.13-10.13,3.38-7.88,9.01c3.21,5.34,9.45,6.63,15.86,6.75c0.63,0.01,1.21,0.37,1.5,0.93l0,0c0.47,0.95-0.05,2.12-1.08,2.34
		c-5.03,1.11-10.66,0.25-16.89-3.61c-5.58-3.46-8.39-15.42-1.63-17.67c7.88-3.38,16.83-2.87,24.77-3.38
		c56.45-3.6,108.66-3.35,162.7-5.6c20.27-1.13,56.06-3.58,57.81-3.77c-6.38-4.7-17.84-30.04-15.59-40.17
		c14.64-9.01,31.53-12.39,48.42-15.76c12.39-1.13,22.55-2.86,36.03-4.5c15.69-1.91,32.66-2.71,48.42-2.25
		c19.17,0.56,39.41,0,58.55,5.63c3.38,1.13,6.76,6.76,3.38,9.01c-21.39,11.26-45.04,10.13-67.56,12.39
		c-29.27,3.38-111.88,2.2-123.17,0.09c-1.46-0.27-2.26-2.01-1.73-3.4c0.43-1.13,1.21-0.93,1.91-0.41c0.78,0.58,1.11,1.59,0.97,2.56
		c-1.28,9.13,1.73,16.12,6.04,23.68c11.26,18.02,27.02,34.9,48.42,40.53c30.4,1.13,59.68,0,90.08-5.63
		c7.88-1.13,13.51-6.76,18.02-12.39c12.39-18.02,22.52-33.78,29.27-54.05c-2.25-6.76-9.01-7.88-14.64-10.13
		c-7.88-2.25-14.64-2.25-22.52-3.38c-21.39-1.13-42.87-2.19-64.18,0c-14.73,1.52-43.5,2.99-42.79,7.88c0.17,1.18,1.18,1.74,2.3,1.84
		c9.25,0.81-18.36-41.63-19.17-64.48c-0.03-0.85-0.71-1.54-1.57-1.54l0,0c-0.49,0-0.97,0.22-1.26,0.62
		c-1.53,2.1,0.75,6.14,3.92,6.14c43.91,3.38,86.7,0,129.49-1.13c6.76-1.13,12.39-1.13,19.14-2.25c4.5-1.13,9.01-3.38,11.26-6.76
		c4.5-10.13-2.25-20.27-7.88-29.27c-20.27-25.9-47.09-46.69-68.6-69.15c2.96,1.3,16.59,8.76,13.89,9.61
		c-1.1,0.35-2.16-0.65-2.07-1.8c2.29-26.96-2.68-56.35,7.23-81.66c5.63-16.89,14.64-32.65,25.9-47.29
		c9.01-11.26,20.27-16.89,31.74-24.23c3.66-3.94,0.54-0.08,0,0c3.16-2.79,4.29-7.29,5.41-10.67c1.13-14.64,6.76-27.02,5.63-41.66
		c0-4.5,9.01-14.64,11.26-18.02c14.64-15.76,32.65-27.02,54.05-31.53c12.39-2.25,25.41-1.64,37.91,1.31
		c5.31,1.25,10.38,4.8,15.6,8.01c1.68,1.03,3.18,1.75,4.14,1.77c1.15,0.02,3.83-2.62-0.27-3.45c-19.83-4.01-38.56,2.68-55.12,11.51
		c-20.27,11.26-31.53,29.27-48.42,45.04c-5.63,4.5-15.16-5.51-16.95-9.35c7.71-0.65,14.7,5.97,18.08,11.6
		c14.64,24.77,30.4,47.29,55.17,61.93c13.51,6.76,28.15,10.13,41.66,4.5c7.88-3.38,18.02-9.01,21.39-18.02l-1.13-1.13
		c-2.25,0-4.5,2.25-4.5,3.38c-1.13,11.26,1.13,21.39-1.13,32.65c-1.13,4.5-2.25,11.26-9.21,12.55c0.97-5.69,9.34-2.69,0,0
		c0.97-5.69,1.31-11.46,1.52-17.21c0.19-5.29,0.86-10.16-5.89-9.28c-10.83,1.41-21.96,4.97-32.66,0.83
		c16.83,0.56,18.03,28.75,19.08,40.61c1.53,17.3,0.38,34.84-3.41,51.79c-1.82,8.17-3.18,18.44-10.65,23.45
		c5.67-14.57,11.35-29.14,17.02-43.71c0.14,15.25-4.07,30.08-8.22,44.62c10.61-13.99,16.02-30.99,21.26-47.52l-2.3,17.18
		c6.51-12.63,12.12-25.72,16.78-39.14c-0.75,7.45-1.84,14.86-3.27,22.21c6.69-10.21,10.07-21.47,13.45-32.73
		c5.63-28.15,12.39-52.92,19.14-81.07c4.5-19.14-3.38-37.16-11.26-55.17c-3.38-9.01-11.26-20.27-22.52-22.52
		c-12.39-3.38-23.65-3.38-36.03-2.25c-11.26,1.13-20.27,7.88-30.4,13.51c-2.25,2.25-4.5,3.38-7.88,5.63
		c-13.51,12.39-28.15,23.65-36.03,40.53c-1.13,2.25,0,5.63,1.13,7.88c9.01,14.64,16.89,27.02,29.27,39.41
		c7.88,6.76,15.76,11.26,23.65,16.89c6.76,5.63,10.86,12.11,15.76,19.14c20.65,29.62,7.46,70.29,4.49,70.53
		c4.51-13.11,4.51-27.75-1.12-41.26c-1.13-2.25-5.63-1.13-7.88,0c-22.52,14.64-44.75,24.86-70.94,22.52
		c-12.45-1.11-13.11-23.58-13.11-23.58c0.56,0.14,3.77,5.44,6.28,6.82c2.17,1.19,3.8,1.81,4.87,2.19c1.32,0.46,3.54,0.78,4.94,0.71
		l11.43-0.6c3.15-0.16,6.15-1.3,7.45-4.17c-5.98,2.15-13.15,3.13-18.31-0.58c-0.64-0.46-1.26-1-2.03-1.18
		c-1.57-0.37-2.38,0.86-4.02-0.05c-0.6-0.33-1.14-1.84-1.78-2.09c-0.42-0.17-0.88,0.01-1.31,0.13c-2.11,0.61-4.56-0.17-5.92-1.9
		c2.32-0.23,4.65-0.46,6.97-0.7c4.21-0.42,9.08-1.16,11.26-4.79c2.16-3.61-2.2-8.66-2.18-9.51c0.03-1.56,2.07-0.06,2.57,0.92
		c1.53,3.01,0.05,6.88-2.59,8.99c-3.95,3.16-9.81,3.14-14.3,3.42c-0.63,0.04-1.26,0.07-1.89,0.07c-4.19,0-12.48,0.15-11.36-6.58
		c2.55-9.58,7.24-15.94,10.62-23.82c2.25-5.63,2.25-12.39-1.13-18.02c-4.5-9.01-11.26-14.64-14.09-23.69c3.94,1.87-0.78,3.64,0,0
		c2.83,2.3,3.95,7.93,2.83,11.31c-4.5,14.64-2.25,29.27,7.36,39.96"/>
	<path class="st23" d="M265.52,393.35c12.64,6.19,25.29,12.39,37.93,18.58c2.56,1.25,5.31,2.54,8.14,2.15
		c1.41-0.2,2.73-0.81,4.02-1.41c18.97-8.84,37.94-17.68,56.91-26.52c3.22-1.5,6.54-3.08,8.79-5.83c1.96-2.4,2.89-5.46,4.16-8.29
		c5.3-11.79,17.54-20.13,30.45-20.75c6.36-0.3,13.62,1.79,16.34,7.54c0.93,1.96,1.23,4.19,1.06,6.36
		c-0.54,6.78-5.61,12.58-11.71,15.59s-13.08,3.66-19.88,3.68c-3.45,0.01-6.93-0.12-10.32,0.5c-3.27,0.6-6.36,1.87-9.43,3.14
		c-22.2,9.17-44.47,18.37-65.36,30.23c-0.76,0.43-1.22,1.48-0.92,2.3c0.4,1.1,1.65,1.08,2.66,0.97c3.77-0.41,6.87-0.19,10.64-0.55
		c14.42-1.39,25.59-2.47,40.01-3.87c0.89-0.09,1.85-0.16,2.63,0.29c0.73,0.43,1.14,1.24,1.51,2l1.7,3.54
		c0.6,1.24-0.26,2.69-1.64,2.76c-10.12,0.52-20.21,1.48-30.25,2.88c-4.53,0.63-9.25,1.33-13.58-0.13c-1.33-0.45-2.6-1.17-3.69-2.09
		c-3.4-2.85-1.67-8.4,2.75-8.81l43.4-4.03c1.23-0.11,2.55-0.21,3.62,0.4c1.02,0.58,1.61,1.68,2.14,2.73l4.99,9.76
		c0.75,1.47-0.23,3.23-1.87,3.37c-18.55,1.59-37.1,3.18-55.65,4.77c-0.8,0.07-1.68,0.17-2.22,0.77c-0.52,0.56-0.57,1.4-0.59,2.17
		c-0.14,5.82-0.3,12.51-4.82,16.18c-1.58,1.29-3.54,2.02-5.47,2.66c-7.18,2.35-14.87,3.6-22.33,2.39
		c-7.99-1.3-15.7-5.66-19.72-12.77c-0.68-1.21-0.83-2.69-0.28-3.97c0.76-1.76,2.13-1.79,3.42-1.8c5.48-0.06,9.95-0.11,16.43-0.19
		c0.56,2.74,2.14,5.26,4.36,6.97c0.87,0.67,2.15,1.2,3,0.5c0.54-0.44,0.66-1.23,0.55-1.92c-0.36-2.11-2.57-3.46-4.69-3.69
		c-2.12-0.23-4.24,0.37-6.35,0.71c-9.57,1.55-20.02-1.51-25.82-9.28c-11.8,7.52-23.6,15.03-35.4,22.55
		c-0.68,0.44-1.4,0.91-1.76,1.63c-0.37,0.74-0.3,1.61-0.22,2.43c0.33,3.29,0.79,6.56,1.38,9.81c0.16,0.87,0.4,1.85,1.16,2.3
		c0.88,0.51,2.06,0.03,2.67-0.78c0.61-0.82,0.78-1.86,0.93-2.87c0.85-5.56,1.69-11.13,2.54-16.69c1.54,6.18,1.7,12.71,0.47,18.96
		c-0.3,1.51-1.3,3.75-2.13,5.05c-0.68,1.07-0.82,2.13-2.18,2.15c-16.52,0.22-31.66,8.87-45.43,17.99
		c-13.78,9.12-27.52,19.19-43.62,22.91c-3.33,0.77-6.91,1.24-10.1,0.02c-3.52-1.35-5.97-4.52-8.23-7.54
		c-2.71-3.62-5.45-7.3-7.11-11.5c-2.08-5.27-2.34-11.09-1.92-16.74c1.6-21.42,12.47-40.88,19.1-61.32
		c4.92-15.16,7.58-31.12,14.28-45.59c3.21-6.93,7.85-13.89,15.02-16.52c3.53-1.29,7.41-1.42,11.12-1.1
		c4.8,0.41,9.45,2.01,13.24,4.98c8.79,6.86,13.58,19.01,12.13,30.05c-0.86,6.56-1.71,13.12-2.57,19.69
		c-0.3,2.27-0.65,4.66-2.09,6.43c-1.15,1.41-2.85,2.23-4.49,3.01c-12.87,6.11-25.75,12.22-38.62,18.33
		c-1.46,0.69-3.19,1.39-4.63,0.64c3.59-5.64,11.17-6.73,17.78-7.75c18.51-2.86,36.44-9.45,52.38-19.28c0.96-0.59,2.08-0.91,3.2-0.77
		c2.12,0.27,2.18,1.77,2.81,4.37c14.61-9.3,30.07-18.88,47.36-19.85c18.68-1.06,33.85,9.92,50.22,18.99
		c2.82,1.57,3.12,5.55,2.33,8.68s-3.6,6.34-1.94,9.11c2.74,4.59,1.97,10.98-1.78,14.79c-1.72,1.75-3.98,3-5.26,5.1
		c-0.84,1.37-1.16,2.99-1.5,4.56c-1.78,8.38-4.12,16.63-6.45,24.88c-2.06,7.29-3.68,15.31-9.02,20.69
		c-12.07,12.15-28.85,14.1-29.03,12.61c-0.12-1,1.95-2.23,2.07-1c0,0.01,1.09,0.05-8.15,10.52c-2.96,3.35-4.94,10.92-1.15,15.5
		c3.45,4.18,11.81,4.41,15.85,4.01c8.37-0.81,10.57-2.35,17.42-6.22c1.18-0.67,2.37-1.42,3.15-2.53c0.78-1.11,1.09-2.66,0.41-3.84
		c-3.67,2.07-7.52,3.83-11.48,5.25c1.22-2.26,2.31-4.17,2.68-6.12c-2.73,0.13-5.36,0.36-8.37,1.19l4.23-6.14
		c-3.16-0.71-6.45-0.85-9.67-1.13c0.87-0.82,0.73-2.33-0.02-3.27s-1.92-1.41-3.07-1.75c3.19-2.58,7.09-4.27,11.15-4.84
		c0.01,0.98-0.57,5.54-0.57,5.54s5.86,0.91,8.83,1.05c-0.89,1.23-1.38,2.82-1.06,4.31s1.54,2.81,3.04,3.02
		c-0.65,0.77-1.14,1.65-1.41,2.63c-0.29,1.03,0.75,2.58,1.73,2.34"/>
	<path class="st23" d="M431.72,262.91c-3.32,0.82-4.6,0.92-7.38,2.02c-1.69,0.67-2.9,1.94-3.91,3.45c-1.01,1.51-1.11,3.77,0.22,5.02
		c0.48,0.45,1.11,0.75,1.49,1.3c1.5,2.16-2.36,4.72-1.84,7.29c0.34,1.65,2.25,2.38,3.37,3.63c1.64,1.84,1.41,4.8,0.1,6.89
		c-0.46,0.73-1.06,1.54-0.82,2.37c0.33,1.13,1.87,1.3,2.76,2.07c1.98,1.73-0.14,4.96,0.29,7.56c0.5,2.99,4.13,4.18,7.15,4.42
		c7.54,0.6,15.23-0.97,21.93-4.47c1.55-0.81,3.14-1.83,3.69-3.53c0.29-0.89,0.14-1.9-0.42-2.66c-0.81-1.1-1.82-0.97-2.77-0.83
		c-6.17,0.88-12.35,1.75-18.52,2.63c-0.02,0.35-0.12,0.7-0.06,1.04c2.07,12.71,4.27,27.61,5.33,34.89c0.37,2.52,2.62,4.33,5.16,4.14
		l1.67-0.12c2.73-0.2,4.75-2.6,4.48-5.32c-0.87-8.75-2.83-26.9-4.99-36.29"/>
	<path class="st23" d="M265.52,393.35c-31.58-18.82-64.24-40.21-102.52-43.59c-3.38,0-6.76,1.13-9.01,4.5
		c-0.4,0.8-0.91,1.6-1.27,2.41c-0.96,2.21,2.39,3.72,3.4,1.53c1.48-3.21,1.53-6.76,5.75-8.45c9.01-3.38,18.02-5.63,27.02-11.26
		c3.38-2.25,9.01-2.25,12.39-1.13c24.77,11.26,46.16,27.02,70.94,37.16c19.14,6.76,40.53,15.76,60.8,6.76
		c13.51-11.26,14-30.5,11.49-46.96c7.68-0.06,15.49-0.31,24.08,1.07c5.63,13.51,6.09,27.87,3.84,42.5c-0.31,2.9-3.38,2.9-3.38,0
		c1.13-11.26,2.25-21.39,3.38-32.65c0.76-5.1,0.15-9.85,0.15-9.85s15.27,1.08,21.94,2.03c22.01,3.14,44.02,6.27,66.04,9.41
		c5.59,0.8,11.23,1.6,16.56,3.5c1.1,0.39,2.25,0.88,2.92,1.84c0.86,1.24,0.47,3.49-1.6,3.24c-1-0.12-1.88-0.78-2.4-1.65
		c-9.86-16.57-12.98-30.17-23.45-42.66c-1.11-1.33,2.95,13.13,8.95,10.43c2.58-1.16,2.46-15.64,2.45-18.97
		c-0.02-5.89-0.84-8.86-1.48-12.11c-1.6-8.06-3.83-15.53-7.46-23.15c-0.51-1.07-1.08-2.18-2.09-2.79c-0.79-0.47-4.54-0.86-5.45-0.95
		"/>
	<path class="st23" d="M307.48,313.26c3.38-10.45,6.41-24.94,6.03-34.7c-0.62-0.63-1.8-0.25-2.23,0.52
		c-0.44,0.77-0.33,1.73-0.13,2.59c0.94,4,4.65,7.95,8.95,6.01c1.15-0.52,2.09-1.43,2.75-2.51c2.7-4.43,0.86-9.97,1.1-14.41
		c0.21-4.06-0.56-8.08-1.81-11.95c-1.14-3.53-1.71-8-3.19-12.02c-1.03-2.8-4.95-2.91-6.13-0.17c0,0-3.83,6.16-4.67,8.42
		c-0.66,1.76,0.26,2.52,1.06,2.64c1.1,0.17,2.08-0.71,2.26-1.8c0.74-4.53-1.2-9.54-2.13-14.06c-3.63-17.54-8.73-36.17-22.47-47.67
		c-6.33-5.3-14.33-8.92-18.9-15.79c-0.75-1.13-1.47-2.39-2.7-2.96c-1.23-0.57-3.1,0.13-3.05,1.49c0.02,0.48,0.25,1.03-0.06,1.4
		c-0.34,0.4-0.98,0.2-1.44-0.03c-3.64-1.79-7.28-3.59-10.92-5.38l0.86,3.46c-3.96-0.1-7.92-0.54-11.81-1.31
		c0.28,0.65,0.56,1.3,0.84,1.95c0.11,1.06-1.43,1.33-2.48,1.17c-3.5-0.53-6.99-1.05-10.49-1.58c-0.35,1.02,0.24,2.66,1.19,3.17
		c-22.21,7.85-37.81,31.38-36.38,54.89c0.58,9.55,3.89,38.68,7.08,34.45c0.68-0.9,0.52-2.22-0.3-3c-2.2-2.08-7.56-3.55-8.67-1.65
		c-1.39,2.4-0.55,5.41,0.18,8.09c2.25,8.34,2.97,17.09,2.12,25.68c-0.34,3.46-0.67,7.65,2.92,9.3c3.13,1.44,7.08-0.15,8.66-3.21
		c2.29-4.45,1.84-6.95,0.49-7.91c-1.63-1.15-3.54,1.09-2.3,2.65c7.57,9.54,11.58,22.66,8.59,36.27c-0.32,1.44,1.74,2.07,2.24,0.69
		c0.25-0.69,0.39-3.42,0.38-4.51c-0.02-2.18,0-3.63,0.03-4.85c0.04-1.29,1.64-1.83,2.47-0.85c10.86,13,21.57,21.58,36.92,29.92
		c2.84,1.55,5.8,3.01,8.98,3.56c2.9,0.5,5.87,0.23,8.78-0.15c5.34-0.7,10.8-1.86,15.18-4.99c4.32-3.09,7.15-7.79,9.67-12.46
		C299.89,332.55,304.08,323.04,307.48,313.26c5.33,3,4.68,10.75,3.3,16.71c6.79,0.78,13.44,0.71,20.23,1.48
		c1.21,0.14,2.49,0.3,3.47,1.03c0.98,0.73,1.51,2.22,0.78,3.2s-2.74,0.47-2.6-0.74c2.28-1.44,4.9-2.36,7.58-2.67
		c1.45-0.17,2.28-1.71,1.59-2.99l-1.36-2.49l47.09-15.12c0.82-0.26,1.62-0.57,2.37-1c5.47-3.13,3.59-8.15,1.79-12.22
		c-9.05-20.45-15.75-41.93-19.93-63.9c-0.51-2.69-1.2-5.77-5.58-5.58c-0.73,0.03-1.45,0.18-2.15,0.37l-42.4,11.69
		c-6.4,1.76-13.5,4.08-16.52,9.99c-0.51-4.45-1.99-8.78-4.3-12.61c-1.63-2.71-3.68-5.17-5.08-8.01c-4.54-9.21-1.8-21.27-8.01-29.45
		c-2.49,2.66-5.86,4.46-9.45,5.06l3.99-7.78c-4.8,2.09-9.59,4.18-14.39,6.27c1.72,0.97,3.62-0.9,4.72-2.54
		c1.25-1.87,2.56-3.93,2.04-6.25c-0.27-1.21-1.18-2.25-2.39-2.51c-1.47-0.31-2.39,0.63-3.22,1.52c-2.4,2.55-4.79,5.11-7.19,7.66
		c-3.11-1.16,2.13-6.9-1.81-8.91c-0.85-0.44-1.87-0.49-2.78-0.18c-2.09,0.71-3.28,2.66-4.35,4.5l0.53-5.22
		c-8.17,1.67-15.83,5.73-21.79,11.56c0.57-3.49,1.79-6.87,3.58-9.93c-7.9,3.25-14.93,8.59-20.18,15.34
		c-0.33-2.15,0.03-4.4,1.02-6.33c-10.5,5.03-16.54,16.65-18.11,28.18c-1.58,11.53,0.57,23.2,2.42,34.69
		c0.38,2.36,0.41,5.42-1.77,6.42c-2.39,1.1-8.8-18.29-10.7-20.1c-1.9-1.81-2.29,30.97-2.86,33.54c-3.07,24.54-9.26,41.99-9.77,43.4
		c-0.25,0.7-0.35,2.55,1.49,2.92c1.53,0.31,2.63-1.07,2.76-2.15c0.93-7.49,2.86-65.03,4.42-80.24c0.15-1.47-0.74-2.91-1.75-4.01
		c-0.73-0.8-1.66-1.38-2.67-1.76c-5-1.88-10.16-3.9-15.53-3.9c-4.96,0-10.22,2.06-12.74,6.34c-1.17,1.98-1.67,4.28-2.15,6.53
		c-1.59,7.37-3.18,14.73-4.76,22.1c-1.08,5.01-2.16,10.04-2.52,15.15c-0.36,5.2,0.02,10.42,0.51,15.61
		c0.87,9.2,2.07,18.43,4.91,27.23c1.5,4.65,3.45,9.15,4.82,13.84c0.28,0.96,0.45,2.2-0.37,2.77c-0.63,0.45-1.49,0.22-2.23,0.02
		c-8.87-2.45-19.02,0.59-25.08,7.52c-0.64,0.73-1,0.72-1.6,1.48c-0.6,0.75-1.83,1.22-2.5,0.52c-0.28-0.3-0.37-0.74-0.34-1.15
		c0.19-2.13,3.41-2.68,5.03-1.28c1.61,1.4,1.98,3.72,2.25,5.84c-7.08,2.77-11.73,10.73-10.67,18.26c0.56,3.97,2.49,7.58,4.04,11.28
		c2.13,5.08,4.29,16.16,4.63,16.22c2.39,6.75,3.41,13.16,2.96,20.3"/>
	<path class="st23" d="M233.91,289.53c-3.28,5.51-5.93,11.4-7.87,17.52c-0.34,1.09-0.67,2.24-0.41,3.35c0.3,1.3,1.13,1.75,2.66,3.77
		c2.16,2.85,2.27,2.6,4.59,4.73c0.77,0.7,1.6,1.43,2.63,1.56c0.86,0.11,1.7-0.22,2.51-0.54c10.9-4.3,24.33-6.3,35.93-7.98
		c3.54-0.51,7.18-0.93,10.35-2.58c3.17-1.65,5.81-4.88,5.6-8.45c-7.8,0.43-15.59,0.97-23.37,1.64c-1.03,0.09-2.1,0.19-3.01,0.69
		c-1.21,0.67-2,1.99-3.29,2.49c-1.85,0.72-3.88-0.51-5.87-0.47c-0.91,0.02-1.8,0.32-2.66,0.61c-4.87,1.64-9.74,3.28-14.62,4.92
		c-0.84,0.28-1.74,0.61-2.23,1.34c-0.81,1.21-0.13,2.84,0.7,4.03c3.4,4.84,20.14,18.19,32.26,15.33
		c10.16-2.4,12.56-7.67,16.35-13.76c1.75-2.81,2.78-5.67,4.69-8.37c3.42-4.86,6.99-10.91,4.66-16.37c-1.11-2.61-3.39-4.5-5.64-6.21
		c-5.73-4.35-9.39-6.35-15.81-9.59c-1.12-0.57-4.15-2.37-5.88-1.73c2.4,1.84,4.65,3.34,6.02,5.81c0.96,1.74,0.5,4.05-0.85,5.5
		c-1.36,1.45-3.04,1.23-5.02,1.05c-1.2-0.11-2.97,0.16-3.23-1.02c-0.26-1.18,1.49-2.19,2.17-1.2c1.55,2.26-1.78,6.66-4.55,8.42
		c-2.26,1.44-5.21,1.4-7.75,0.53c-2.27-0.78-4.29-2.15-6.24-3.56c-0.47-0.34-0.67-0.98-0.4-1.49c0.61-1.16,2.41-1.44,2.92-0.36
		c1.09,2.29-2.46,2.11-4.5,2.79c-2.16,0.73-4.58,1.3-6.58-1.17c-0.56-0.69-0.95-1.52-1.13-2.4c-0.58-2.79,0.49-5.46,1.57-7.99
		c3.23-7.57,6.79-15.25,5.83-23.75c-0.42-3.69-1.83-7.25-4.39-9.94c-7.01-7.34-17.38-4.49-25.89-1.05
		c-3.94,1.59-8.09,3.48-10.31,7.1c-1.15,0.04-0.98,2,0.09,2.42c1.07,0.43,2.25-0.16,3.26-0.71c9.13-4.9,19.56-7.36,29.92-7.06
		c5.04,0.15,10.3,0.9,14.95-1.05c3.08-1.29,5.57-3.64,8.32-5.52c7.77-5.33,17.51-6.86,26.92-7.33c3.81-0.19,8.53,0.34,9.96,3.87
		c-7.81,5.64-20.1-0.58-27.85,5.13c-1.94,1.43-4.43,3.6-6.31,2.1c-0.56-0.45-0.83-1.16-0.77-1.87c0.24-2.62,3.37-2.44,4.14-0.76
		c0.33,0.72,0.25,1.55,0.16,2.34c-0.49,4.28-0.97,8.56-1.46,12.85c6.53-6.34,17.32-7.75,25.26-3.3"/>
	<path class="st23" d="M211.26,268.44c8.96-8.04,24.46-8.12,24.19-8.04"/>
	<path class="st23" d="M431.72,262.91c-3.77-12.71-7.92-25.31-12.43-37.77c-2.38-6.58-4.9-13.56-3.46-20.41
		c1.26-5.99,5.02-12.16,10.73-14.36c1.97-0.76,3.95-0.53,6.03-0.16c1.69,0.3,4.03,1.54,5.43,2.52c8.09,5.71,8.09,12.54,7.96,18.59
		c-0.42,19.64-1.44,30.59-2.15,46.93c-0.01,0.32-0.03,0.66-0.21,0.93c-0.3,0.46-0.93,0.53-1.48,0.56c-2.67,0.15-3.84,0.32-6.52,0.43
		c-0.49,0.02-1.02,0.03-1.45-0.22c-0.35-0.21-0.58-0.57-0.79-0.93c-1.94-3.31-3-7.05-4.05-10.74c-1.71-6.07-3.24-12.59-4.94-18.66
		c-2.25-8.08-2.51-10.29-3.27-16.01c-0.71-5.37-0.56-8.86,0.2-13.23c0.4-2.33,1.51-4.88,2.81-6.85c1.31-1.98,3.61-3.46,5.96-3.14
		c2.31,0.32,5.61,2.46,6.85,4.43c4.43,7.06,4.8,15.84,5.03,24.17c0.4,14.22-0.75,28.21-0.35,42.43c-2.29,0-4.59-0.01-6.88-0.01
		c-5.13-14.86-7.04-30.63-8.49-46.28c-0.55-5.95-1.04-11.96-0.32-17.89c0.22-1.84,0.58-3.73,1.61-5.27c0.45-0.68,1.1-1.31,1.9-1.38
		c1.38-0.1,2.26,1.41,2.75,2.71c7.32,19.62,4.29,41.36,5.88,62.24c0.13,1.76,0.3,3.56-0.17,5.26c-0.16,0.58-0.5,1.23-1.09,1.3
		c-0.91,0.12-1.34-1.07-1.44-1.98c-1.6-14.72-3.19-29.45-4.79-44.17c-0.89-8.18-1.78-16.42-1.19-24.63
		c4.89,21.3,3.94,43.49,7.23,65.09c0.28,1.83,1.63,6.3,3.47,6.49c2.76,0.29,4.56,0.43,7.37,0.66"/>
	<path class="st23" d="M554.59,180.18c1.96,4.94,6.24,8.9,11.31,10.48c3.21,1,6.62,1.08,9.96,1.55c11.76,1.66,22.48,8.23,34.31,9.27
		c3.42,0.3,6.15,1.1,9.58,0.96c0.33-0.31-0.2-0.78-0.64-0.88c-2.86-0.61-5.73,0.7-8.54,1.53c-8.87,2.63-19.06,0.17-25.75-6.22
		c0.41,0.07,0.82,0.19,1.21,0.36c-0.62,0.97-1.25,1.95-1.87,2.92c0.97-0.35,1.94-0.69,2.91-1.04c-1.06,0.95-1.85,2.2-2.24,3.57
		c1.51-0.94,3.02-1.88,4.53-2.82c-1.08,1.49-1.8,3.24-2.08,5.06c1.09-1.63,2.49-3.05,4.12-4.15c-0.79,1.75-1.43,3.57-1.91,5.43
		c1.5-1.21,2.79-2.67,3.8-4.31c-0.69,1.68-1.17,3.44-1.42,5.24c1.17-1.31,2.22-2.73,3.11-4.25c-0.59,1.5-0.91,3.1-0.93,4.72
		c1.22-1.27,2.36-2.61,3.43-4.01c-0.83,1.24-0.79,2.99,0.08,4.19c0.72-1.21,1.43-2.42,2.15-3.63"/>
	<path class="st23" d="M545.11,166.34c0.43,0.94,0.15,2.08-0.46,2.91s-1.49,1.42-2.36,1.96c1.25,0.66,2.66-1.48,3.94-0.88
		c-0.74,0.82-1.53,1.6-2.34,2.35c1.41-0.1,2.81-0.38,4.16-0.83c-0.48,0.96-1.21,1.8-2.1,2.41c0.99,0.15,2.02,0.02,2.94-0.35
		c-0.36,0.53-0.73,1.05-1.09,1.58c0.98,0.31,2.06,0.33,3.05,0.06"/>
	<path class="st23" d="M507.29,174.87c-5.23,14.04-10.47,28.08-15.7,42.11c-0.39,1.06-0.8,2.17-0.64,3.29
		c0.28,1.92,2.06,3.2,3.67,4.29c30.01,20.5,46.36,56.78,50.36,92.91c2.65,23.95,1.22,50.38,16.1,69.33
		c7.37,9.39,18.78,17.14,19.81,29.04c0.56,6.47-2.22,12.71-5.07,18.55c-6.72,13.79-14.13,27.25-22.2,40.3
		c-4.38,7.08-9.91,13.13-14.36,20.16c-1.3,2.06-2.71,4.22-5.22,4.89c-1.34,0.36-2.84,0.02-3.74-1.03c-1.54-1.8-0.49-4.33,0.57-6.33
		c3.05-5.76,5.16-9.73,8.22-15.49c1.65-3.11,4.27-8.07,4.96-11.52c0.69-3.45,0.28-7.3-1.9-10.06c6.42-2.19,12.71-4.74,18.85-7.61
		c1.16-0.54,2.34-1.12,3.19-2.08c1.81-2.07,1.45-4.96,0.47-7.68c-0.6-1.66-2.45-2.5-4.11-1.92l-17.2,6
		c-1.84,0.64-6.27,3.75-4.34,3.49c3.17-0.42,13.43-6.73,20.14-10.1c1.15-0.58,2.34-1.18,3.12-2.2c1.64-2.11,0.97-4.91-0.27-7.44
		c-0.7-1.42-2.28-2.18-3.82-1.83l-22.63,5.03c-2.98,0.38-4.8,2.86-3.23,2.77c4.54-0.27,17.18-6.35,25.33-10.52
		c0.98-0.5,1.6-1.5,1.66-2.59c0.11-2.08,0.02-4.16-0.27-6.22c-0.24-1.75-1.9-2.95-3.64-2.6l-28.16,5.7
		c-1.82,2.61,15.14-1.37,22.23-4.28c2.45-1,5.09-2.17,6.35-4.49c0.84-1.55,0.93-3.31,0.69-5.08c-0.32-2.47-1.91-4.56-4.25-5.41
		c-5.61-2.02-12.55-0.48-18.4,1.49c-14.55,4.91-30.12,6.77-45.42,5.41c-1.19-0.11-2.6-0.14-3.33,0.81c-0.74,0.97-0.3,2.35,0.17,3.47
		c2.97,7.12,6.13,14.38,11.48,19.95c5.35,5.57,13.42,9.17,20.87,7.17c-6.91-2.52-11.66-6.04-15.92-10.97
		c-3.5-4.05-6.1-8.72-8.29-13.61c-0.46-1.03-1-2.13-1.99-2.67s-2.55-0.13-2.72,0.98c-1.14,3.04,16.07,0.65,23.71-2.29
		c-1.7,3.87-1.24,8.61,1.18,12.07c0.92,1.32,2.14,2.58,2.23,4.18c0.08,1.41-0.77,2.73-0.8,4.14c-0.09,3.6,4.76,5.48,5.53,9.01
		c0.42,1.9-0.44,3.98,0.29,5.77c0.86,2.12,3.43,2.81,5.44,3.9s3.72,3.92,2.05,5.48"/>
	<path class="st23" d="M704.57,189.14c-4.12,18.99-8.25,37.99-12.37,56.98c-1.63,7.52-3.28,15.12-3.28,22.82
		c-0.02,18.83,9.69,36.51,10.72,55.32c0.22,4.04,0.04,8.1,0.55,12.11c0.73,5.72,2.86,11.15,4.62,16.65
		c3.33,10.36,5.43,21.11,6.24,31.96c0.06,0.8,0.11,1.63-0.2,2.37c-0.61,1.49-2.51,2.1-4.09,1.78c-1.58-0.32-2.92-1.34-4.19-2.33
		c-4.65-3.62-34.83-0.31-22.99,28.45c1.62,3.93-1.29,8.17-5.5,7.61c-0.37-0.05-0.73-0.12-1.07-0.2c-3.15-0.73-5.74-2.88-8.27-4.9
		c-6.71-5.38-14.33-10.48-22.93-10.84c-6.3-0.26-11.73,4.01-18.75,1.15c-2.28-0.93-3.68-3.27-5.65-4.76
		c-1.97-1.49-4.7-2.45-6.88-1.29c-1,0.53-1.71,1.41-2.24,2.43c-2.53,4.83-1.73,10.86,1.95,14.89c2.41,2.64,5.75,4.56,9.21,5.54
		c5.99,1.68,12.35,1.06,18.54,0.43c0.83-1.09-0.82-2.39-2.17-2.65c-4.59-0.86-9.28,0.28-13.94,0.59c-4.66,0.31-9.89-0.51-12.77-4.18
		c-1-1.27-1.72-2.88-3.16-3.61c-1.11-0.57-2.43-0.49-3.67-0.4c-5.37,0.39-12.3,1.83-17.67,2.22c-0.67-0.11,1.02-11.7-1.22-15.38
		c-2.3-3.79-6.78-5.53-10.53-7.9c-8.47-5.36-13.77-14.69-16.47-24.34s-3.09-19.77-3.76-29.77c-1.69-25.29,8.67-49.07,19.27-72.1
		c0.86-1.87,1.99-3.94,3.99-4.44c0.02,2.73,0.03,5.46,0.05,8.19c0.01,1.09,0.02,2.23,0.51,3.21c0.65,1.3,2.01,2.06,3.29,2.74
		c10.22,5.46,20.44,10.92,30.66,16.38c4.37,2.34,12.62,8.03,14.57,11.63c0.78,1.43-1.41,2.61-2.26,1.22l-30.6-50.22
		c-0.44-0.72-0.9-1.46-1.62-1.89c-1.07-0.64-2.43-0.44-3.66-0.21c-5.78,1.08-11.65,2.2-17.49,1.55c-5.84-0.65-11.75-3.38-14.78-8.41
		c-1.33-2.21-3-5.25-5.48-4.56c0.2,3.84,0.42,7.68,0.65,11.52c0.06,1.01,0.15,2.08,0.75,2.89c0.76,1.01,24.17,5.72,25.41,5.97"/>
	<path class="st23" d="M647.24,270.85c-10.9,29.84-27.41,53.1-33.26,83.21c-0.16,0.82-0.32,1.66-0.51,2.5
		c-0.48,2.09-3.63,1.47-3.28-0.65c1.39-8.4,5.44-16.43,9.42-24.1c4.44-8.58,9.07-17.4,16.46-23.63
		c9.21-7.76,21.46-10.52,32.76-14.67c0.51-0.19,1.04-0.39,1.45-0.74c1.29-1.09,1.1-3.09,0.8-4.75c-0.6-3.29-1.21-6.58-1.81-9.87
		c-0.14-0.79-0.28-1.65,0.13-2.34c0.34-0.57,0.98-0.88,1.6-1.13c4.37-1.75,9.62-2.14,12.71-5.69c1.18-1.36,1.34-4.02,1.92-5.73
		c1.86-5.58,5.18-15.41,7.26-20.31"/>
	<path class="st23" d="M624.99,483.45c-16.9,2.7-29.07-10.68-33.19-21.1c-0.97-2.46,1.13-2.25,1.13-2.25
		c6.76,2.25,12.63,7.61,16.96,11.46c-9.65-5.51-20.24-11.85-26.12-21.09c-0.62-0.97-0.69-2.2-0.17-3.23l0,0
		c0.22-0.43,0.7-0.66,1.16-0.53c3.92,1.06,19.66,8.03,25.06,14.51c-10.13-4.5-19.14-10.13-27.02-18.02
		c-1.13-1.13-2.25-2.25-2.25-3.38c0-2.25,0-4.5,3.38-4.5c7.88,2.25,15.7,4.51,23.08,8.84c2.31,1.35,2.31,1.35,2.95,2.08
		c1.06,1.2-0.18,3.07-1.69,2.53c-1.5-0.54-17.59-10.08-25.47-13.45c-3.38-2.25-10.56-8.35-5.63-12.39
		c4.71-3.86,11.39-4.22,17.57-4.43c3.8-0.13,7.62,0.2,11.29,1.2c1.55,0.42,2.67,0.99,2.67,2.11c0,2.25-8.61,5.17-9.01,1.13
		c-0.04-0.4,1.13-1.13,1.13-1.13c9.01,0,15.76,4.5,25.04,4.12"/>
	<path class="st23" d="M677.57,397.26c1.03-2.73,3.2-5,5.88-6.16c4.76-2.05,10.45-0.93,15.39,0.64c3.33,3.73,13.03,2.17,15.74-2.04
		c1.54-2.39,1.72-5.39,1.61-8.22c-0.48-11.74-5.29-22.81-7.9-34.26c-4.77-20.99-1.99-43.18,4.85-63.59
		c6.84-20.41,17.6-39.28,29-57.53c6.16-9.86,12.74-20.28,12.86-31.9c0.09-8.74-3.61-17.2-8.89-24.17
		c-5.27-6.97-10.06-12.64-16.94-18.03c-2.76-2.16-5.62-4.38-7.32-7.44c-1.71-3.06-1.74-9.31,0.95-10.07
		c10.45-2.98,18.59,11.58,25.06,20.31c7.69,10.39,11.6,23.06,14.76,35.6c6.26,24.87,11.28,100.45,11.56,107.13
		c0.68,16.5,0.03,43.85-1.1,60.33c-1.89,27.47-2.21,32.07-4.1,59.54c-0.29,4.18-0.58,8.4-1.84,12.4
		c-2.54,8.05-8.82,14.49-16.01,18.91s-15.3,7.06-23.33,9.66c-5.42,1.75-10.84,3.51-16.26,5.26c-1.71,0.55-3.57,1.1-5.32,1.01
		c-1.45-0.07-2.16-1.87-1.17-2.94c0.96-1.04,2.33-1.77,3.73-2.11c2.28-0.55,4.65-0.27,6.99-0.13c10.78,0.66,21.73-1.76,31.24-6.88
		c2.98-1.61,5.92-3.57,7.72-6.44c3.6-5.74,1.54-13.64-2.95-18.7c-4.5-5.06-16.61-11.31-19.16-12.43c-1.17-0.52-5.68-2.15-9.48-2.53
		c-1.3-0.13-2.21-1.3-1.98-2.59c2.68-14.83,3.59-29.2,3.18-44.42c-0.34-12.57-2.24-26.33-2.58-38.9
		c-0.14-5.35-0.29-10.71-1.22-15.98c-0.9-5.1-2.53-10.23-2.59-15.33c-0.02-1.82,2.63-2.23,3.08-0.46c0.61,2.39,0.28,5.32-0.14,7.83
		c-5.46,32.57,4.73,66.24-0.59,98.83c-1.13,6.93-0.88,15.53-7.41,18.11c-6.73,2.65-14.78,4.79-21.83,6.37
		c12.42,7.93,8.71,22.73,4.46,33.64c-0.87,2.23-2.01,4.46-3.88,5.96c-3.11,2.5-7.47,2.49-11.46,2.36
		c-4.9-0.16-12.49-2.22-14.71-0.48c-1.42,1.11,0.94,2.86,3.99,1.77c5.34-1.9,10.94-3.02,16.41-4.53c1.61-0.45,3.29-0.92,4.54-2.03
		c1.5-1.32,2.17-3.32,2.78-5.22c1.51-4.72,3.04-9.52,3.22-14.48c0.18-4.96-1.17-10.18-4.69-13.68c-3.47-3.45-8.48-4.75-13.24-5.91
		c4.11-1.7,13.14-1.44,14.42-0.57c1.88,1.28,7.08,4.52,10.08,11.12c3.27,7.17,2.63,12.86,0.17,21.83
		c-2.12,7.74-3.82,12.33-11.05,15.79c-1.92,0.92-3.98,1.53-6.08,1.88c-4.3,0.7-8.64,1.2-12.98,1.51c-1.87,0.13-3.82,0.23-5.58-0.42
		c-1.74-0.64-3.28-2.19-3.33-4.04l-39.11,13.01c-1.33,0.44-2.86,0-3.58-1.2c-3.32-5.56,34.62,6.09,47.49,9.64
		c5.11,1.41,9.7,1.88,14.83,3.22c5.99,1.57,13.5,3.63,16.58,9c2.05,3.57,2.33,8.77,1,12.65c-0.94,2.75-3.43,6.03-6.67,8.9
		c-6.05,5.34-15.05,4.92-22.94,6.6c-0.88,0.19-1.79,0.42-2.45,1.02c-0.81,0.74-1.1,1.88-1.34,2.95c-2.78,12.41-4.7,26.68-5.79,39.35
		c-0.12,1.34-0.21,2.75,0.36,3.96s2.04,2.12,3.28,1.59c-0.03-14.28-0.55-28.56-1.56-42.81c-0.1-1.42-0.24-1.78-1.11-2.76
		c-1.19-1.34-2.99-1.94-4.75-1.62l-10.53,1.92c-1.71,0.31-3.53,0.68-4.76,1.9c-1.47,1.46-1.71,3.73-1.84,5.8
		c-0.84,13.08-3.85,39.32-0.83,38.09c4.48,0.6,1.05-25.43-1.13-38.55c-0.39-2.33-2.61-4-4.95-3.72
		c-16.14,1.92-63.27,11.08-82.54,13.23c-7.19,0.8,9.1,1.74,16.96,12.11c4.64,6.12,8.74,12.66,11.91,19.65"/>
	<path class="st23" d="M739.19,456.2c-1.84,0.49-3.23,1.98-4.39,3.48c-8.4,10.88-4.67,24.64-4.59,45.71
		c0.06,14.59,0.5,20.04,0.58,30.92c0.12,17.36-0.75,27.85-1.91,46.18"/>
	<path class="st23" d="M594.68,490.19c0.9,0.18,4.09,0.67,4.69,2.87c0.24,0.88-0.1,2.12-0.98,1.88c1.83,1.53,3.64,3.08,5.42,4.66
		c-1.24,0.99-2.53,1.88-4.38,3.14c0.7,1.78,1.4,3.56,2.09,5.34c-0.65,0.17-1.3,1.06-1.47,1.71c-1.52-0.29-2.99-0.59-4.48-0.18
		c0.95,1.49,2.65,3.96,3.6,5.45c-6.95,1.34-11.51,0-16.56-1.19c2.28-1.09,4.38-2.55,6.18-4.31c-2.02-0.92-4.27-2.22-5.65-3.95
		c2.75-1.95,6.2-2.58,3.01-5.64c-1.38-1.32-3.57-1.77-4.63-3.36c1.69-1.17,4.61-0.84,6.61-1.42c-0.17-1.18-0.54-2.34-0.86-3.51
		c-0.1-0.38-0.2-0.82,0.02-1.15c0.3-0.45,0.96-0.25,1.5-0.29c1.88-0.14,23.79-1.59,24.92,11.73c0.45,5.24-4.73,10.21-9.83,11.95
		c-2.26,0.77-3.75,1.07-4.7,1.14"/>
</g>
</svg>
