<?xml version="1.0" encoding="utf-8"?>
<!-- Generator: Adobe Illustrator 24.1.0, SVG Export Plug-In . SVG Version: 6.00 Build 0)  -->
<svg version="1.0" xmlns="http://www.w3.org/2000/svg" xmlns:xlink="http://www.w3.org/1999/xlink" x="0px" y="0px"
	 viewBox="0 0 900 600" style="enable-background:new 0 0 900 600;" xml:space="preserve">
<style type="text/css">
	.st0{display:none;}
	.st1{display:inline;}
	.st2{fill:#D53119;}
	.st3{fill:#DF862C;}
	.st4{fill:#DFCF33;}
	.st5{fill:#018AC7;}
	.st6{fill:#028AC8;}
	.st7{fill:#5B4085;}
	.st8{fill:#E6E6E6;}
	.st9{fill:#EACE62;}
	.st10{fill:#D1E8B2;}
	.st11{fill:#B0E1B7;}
	.st12{fill:#DCE9B0;}
	.st13{fill:#FBD000;}
	.st14{fill:#D3E5C0;}
	.st15{fill:#9691C1;}
	.st16{fill:#EE7F00;}
	.st17{fill:#DE151C;}
	.st18{fill:#CCECF9;}
	.st19{fill:#898989;}
	.st20{fill:#F8D32B;}
	.st21{fill:#94C23B;}
	.st22{fill:none;stroke:#000000;stroke-width:0.9;stroke-linecap:round;stroke-miterlimit:10;}
	.st23{fill:none;stroke:#000000;stroke-width:0.9;stroke-linecap:round;stroke-linejoin:round;stroke-miterlimit:10;}
	.st24{fill:none;stroke:#000000;stroke-width:0.872;stroke-linecap:round;stroke-linejoin:round;stroke-miterlimit:10;}
</style>
<g id="Images" class="st0">
</g>
<g id="Shading">
	<path class="st2" d="M619.78,262.69c-0.26-0.99-0.21-2.41,0.79-2.62c0.38-0.08,0.78,0.07,1.13,0.24c2.2,1.06,3.96,3.01,4.8,5.31
		c0.01-1.29-0.54-2.52-0.65-3.8s0.42-2.82,1.68-3.12c1.2-0.28,2.3,0.72,3.03,1.71c2.39,3.23,3.56,7.34,3.22,11.34
		c1.57-1.15,3.62-1.43,5.57-1.42c1.57,0,3.25,0.21,4.46,1.22c5.98,5.02-9.88,6.93-13.03,5.81
		C625.24,275.39,621.15,267.99,619.78,262.69z"/>
	<path class="st3" d="M331.25,50.88c-0.22-0.22-0.46-0.44-0.75-0.51c-0.51-0.13-1.05,0.2-1.32,0.65s-0.34,0.99-0.4,1.51
		c-0.24,2.19-0.55,4.62-2.23,6.05c-0.8,0.68-1.82,1.04-2.71,1.6c-0.89,0.56-1.71,1.45-1.68,2.5c0.01,0.2,0.04,0.41-0.02,0.6
		c-0.07,0.21-0.24,0.37-0.4,0.52c-1.11,1.02-2.13,2.15-3.04,3.35c-0.67,0.88-1.29,1.83-1.51,2.92s0.03,2.32,0.88,3.03
		c0.5,0.41,1.14,0.61,1.79,0.65c2.68,0.18,4.86-2.02,7.37-2.97c1.27-0.48,2.63-0.62,3.97-0.46c1.31,0.16,2.17,0.5,2.81-0.97
		c0.33-0.75,0.17-1.48,0.26-2.27c0.13-1.12,0.59-2.16,0.8-3.26C335.92,59.23,334.56,54.2,331.25,50.88z"/>
	<path class="st6" d="M194.85,164.43c-0.25,1.27-0.17,2.7,0.58,3.72c0.74,1,2.02,1.41,3.21,1.34s2.32-0.55,3.42-1.06
		c6.71-3.08,13.33-7.53,16.62-14.52c0.41-0.88,0.77-1.91,0.44-2.83c-0.4-1.09-1.67-1.56-2.74-1.33c-1.07,0.23-1.96,0.99-2.77,1.77
		c-1.15,1.11-2.23,2.3-3.22,3.57c0.33-2.51-0.64-5-1.66-7.29c-0.57-1.28-1.22-2.63-2.36-3.35c-1.74-1.1-4.13-0.31-5.42,1.35
		c-1.29,1.67-1.65,3.97-1.54,6.13c0.08,1.61,0.43,3.17,0.67,4.76c0.25,1.67-0.2,1.54-1.44,2.27
		C196.74,160.11,195.3,162.13,194.85,164.43z"/>
	<path class="st9" d="M750.69,99.26c5.42,14.62-1.7,25.74-13.89,30.26c-12.19,4.52-25.25-0.27-30.26-13.89
		c-4.65-12.66,1.7-25.74,13.89-30.26C732.62,80.85,746.17,87.07,750.69,99.26z"/>
	<path class="st8" d="M139.4,320.61c-6.09-0.26-12.17-0.51-18.26-0.77c-1.23-0.05-2.6-0.17-3.43-1.08c-1.18-1.3-0.58-3.34,0.08-4.96
		c11.87-28.97,24.89-57.46,39.04-85.39c1.08-2.13,2.2-4.44,1.82-6.8c-0.2-1.29-0.86-2.55-0.67-3.85c0.27-1.89,2.15-3.04,3.84-3.93
		c18.66-9.8,37.75-18.8,57.18-26.96c-8.24,30.47-19.43,60.14-33.35,88.46c-7.17,14.59-15.31,30.32-12.17,46.27
		c2.07-1.45,5.14-0.15,6.46,2c1.32,2.15,1.38,4.82,1.4,7.35c0.28,39.93,0.65,82.66,0.92,122.59c-8.4,2.2-17.19,1.59-25.76,0.21
		c-9.2-1.48-17.06-1.71-17.06-1.71s0.16-39.58,0.13-51.81C139.57,393.58,139.92,320.63,139.4,320.61z"/>
	<path class="st8" d="M338.15,126.97c-16.11,16.23-22.86,24.77-37.55,40.21c4.59,0.31-9.66-0.49-5.07-0.19
		c0.94,0.06,1.98,0.17,2.64,0.84c0.87,0.87,0.74,2.29,0.55,3.5c-3.35,22.11-4.76,44.52-4.21,66.88c0.02,0.74,0.06,1.54,0.53,2.11
		c0.59,0.7,1.61,0.8,2.52,0.85c18.57,0.92,37.13,1.83,55.7,2.75c0,1.33,0,2.67,0,4c-22.58-0.55-45.17-1.1-67.75-1.65
		c0.26-10.88,0.51-21.76,0.77-32.63c0.22-9.33,0.42-18.85-2.33-27.76c-2.26-7.36-6.46-11.64-11.61-16.95
		c-3.71-3.82-4.03-3.05,1.46-6.32c4.28-2.55,8.74-4.84,13.1-7.26C304,145.88,321.07,136.42,338.15,126.97z"/>
	<path class="st8" d="M11.19,518.26c225.13-24.65,455.62-44.44,681.46-61.37c-127.88-1-235.25-2.98-352.37-3.35
		c-46.77-0.14-98.82,0.14-145.56-1.5c-11.74-0.41-19.24,0.44-30.98,0c-8.18-0.31-22.21-1.77-29.97,1.5
		c-19.84,8.37-31.83,15.32-50.36,26.31c-11.25,6.67-22.5,13.34-33.75,20.01c-5.63,3.34-11.25,6.67-16.88,10.01
		C28.58,512.36,15.95,517.74,11.19,518.26z"/>
	<polyline class="st8" points="170.28,309.39 737.49,311.22 735.5,343.33 162.83,346.53 173.17,310.56 	"/>
	<path class="st8" d="M556.65,122.6c-4.54,13.35-9.08,26.7-13.62,40.06c15.1-1.45,30.28-2.01,45.44-1.66
		c0.39,2.54,0.77,5.08,1.16,7.63c-21.2,1.56-42.36,3.75-63.43,6.58c0.07,19.78-0.4,39.57-1.42,59.32
		c14.58-0.6,29.41-1.73,44.67-1.02c0.01,2.52-0.19,9.47-0.18,11.99c-18.98,1.46-38.85,0.38-57.87-0.42
		c-1.3-7.61,0.2-14.5-1.72-22.76c-2.36-10.14-2.95-21.25-4.93-31.82c-0.27-1.44-0.62-3.01-1.79-3.88c-1.65-1.23-6.31,0.75-8.34,1.09
		s-2.02-5-1.95-7.06c3.58-7.3,7.01-11.79,10.63-18.58c0.15-0.28-1.71-0.98-2.01-1.16c6.42-7.57,18.5-13.96,26.72-19.78
		C537.17,134.65,547.5,129.08,556.65,122.6z"/>
	<path class="st8" d="M284.34,184.41c-20.26,36.99-43.3,72.47-68.85,106.03c52.42-14.89,105.77-28.57,158.61-41.92
		c-30.95-3.14-60.6-4.67-91.57-1.66C282.85,226.52,284.03,204.75,284.34,184.41z"/>
	<path class="st8" d="M494.46,186.77c-21.97,28.88-43.95,57.76-65.92,86.64c57.04-9.72,114.71-18,171.75-27.72
		c-29.78-0.78-58.6-2.28-88.36-0.9c-1.82-18.98-3.69-38.15-6.86-56.95c-3.78-0.29-7.21-1.6-10.99-1.89
		C493.87,185.52,494.05,186.54,494.46,186.77z"/>
	<polygon class="st8" points="247.4,446.33 245.78,327.73 252.19,327.73 251.11,353.83 384.28,351.75 384.28,356.25 252.88,357.75 
		253.65,420.68 387.5,421.9 387.69,449.24 500.66,449.42 500.26,330.63 506.11,329.81 506.11,351.9 651.68,351.34 651.65,355.84 
		505.83,358.42 505.74,429.37 649.32,429.66 647.77,451.92 702.62,451.31 727.33,456.23 179.73,452.04 	"/>
	<polyline class="st8" points="727.33,450.9 725.8,322.07 773.12,323.27 773.88,443.06 727.33,450.9 	"/>
	<path class="st8" d="M73.9,485.48c-1.78,1.05-1.99-108.12-1.99-108.12l77.06-4.74l-4.3,78.28L73.9,485.48z"/>
	<g>
		<g>
			<path class="st7" d="M796.55,423.05c-0.37-0.52-0.7-1.06-0.99-1.62c-0.08-0.15-0.15-0.3-0.22-0.46c-0.04-0.08-0.07-0.15-0.1-0.23
				c0.07,0.16,0.07,0.17,0.01,0.01c-0.1-0.28-0.21-0.55-0.3-0.84c-0.19-0.61-0.32-1.22-0.44-1.85c-0.06-0.36,0.02,0.23-0.02-0.1
				c-0.02-0.15-0.04-0.3-0.04-0.45c0-0.12,0.06-0.55-0.01-0.11c0.05-0.16,0.03-0.13-0.05,0.09c-0.07,0.11-0.17,0.2-0.28,0.27
				c-0.5,0-1.01,0-1.51,0c-0.15-0.12-0.18-0.14-0.11-0.06c0.07,0.08,0.05,0.05-0.07-0.1c-0.04,0.07,0.31,0.37,0.04,0.03
				c0.1,0.13,0.13,0.41,0.18,0.58c0.14,0.53,0.27,1.06,0.4,1.59c0.27,1.07,0.54,2.14,0.82,3.21c0.19,0.76,1.08,1.29,1.85,1.05
				c0.79-0.25,1.25-1.03,1.05-1.85c-0.31-1.21-0.61-2.42-0.92-3.63c-0.14-0.55-0.25-1.11-0.44-1.64c-0.27-0.75-0.64-1.28-1.27-1.77
				c-0.39-0.3-1.12-0.27-1.51,0c-0.86,0.58-1.21,1.52-1.13,2.54c0.07,0.85,0.22,1.7,0.44,2.52c0.43,1.55,1.12,3.04,2.05,4.34
				c0.45,0.64,1.33,1,2.05,0.54C796.65,424.69,797.04,423.73,796.55,423.05L796.55,423.05z"/>
		</g>
	</g>
	<g>
		<g>
			<path class="st7" d="M812.8,427.94c-0.11-0.23-0.23-0.46-0.33-0.69c-0.03-0.07-0.06-0.13-0.09-0.2c0.02,0.05,0.04,0.11,0.07,0.16
				c-0.07-0.13-0.11-0.27-0.16-0.41c-0.17-0.44-0.31-0.89-0.44-1.35c-0.13-0.46-0.23-0.92-0.31-1.38c-0.02-0.13-0.04-0.25-0.06-0.38
				c-0.06-0.4,0.02,0.23-0.01-0.09c-0.01-0.08-0.02-0.16-0.02-0.24c0-0.35-0.04,0.18-0.02,0.08c0.01-0.03,0.02-0.07,0.03-0.1
				c-0.04,0.17-0.13,0.32-0.26,0.45c-0.48,0.43-1.51,0.51-1.8-0.19c0.13,0.32-0.03-0.06-0.01-0.08c-0.02,0.04,0.14,0.37,0.16,0.42
				c0.16,0.46,0.3,0.92,0.43,1.39c0.12,0.47,0.23,0.95,0.31,1.43c0.02,0.13,0.04,0.26,0.06,0.39c0.06,0.4-0.02-0.21,0.01,0.1
				c0.03,0.26,0.06,0.52,0.08,0.78c0.06,0.78,0.65,1.54,1.5,1.5c0.76-0.03,1.57-0.66,1.5-1.5c-0.08-1.08-0.24-2.17-0.5-3.22
				c-0.12-0.47-0.25-0.94-0.41-1.4c-0.18-0.54-0.35-1.08-0.7-1.53c-0.57-0.73-1.57-0.93-2.38-0.49c-0.66,0.36-0.95,1.12-1,1.83
				c-0.04,0.51,0.09,1.04,0.17,1.54c0.08,0.47,0.18,0.93,0.3,1.38c0.3,1.14,0.75,2.25,1.28,3.3c0.35,0.7,1.4,0.96,2.05,0.54
				C812.98,429.53,813.18,428.69,812.8,427.94L812.8,427.94z"/>
		</g>
	</g>
	<g>
		<g>
			<path class="st7" d="M826.07,419.67c-0.12-0.22-0.24-0.44-0.35-0.67c-0.06-0.13-0.14-0.26-0.18-0.39
				c0.02,0.05,0.04,0.11,0.07,0.16c-0.03-0.07-0.05-0.13-0.08-0.2c-0.18-0.47-0.33-0.96-0.45-1.45c-0.06-0.25-0.11-0.49-0.15-0.74
				c-0.02-0.11-0.12-0.39-0.01-0.03c-0.04-0.13-0.03-0.3-0.04-0.43c-0.04-0.5-0.05-1.01-0.02-1.52c-0.85,0.35-1.71,0.71-2.56,1.06
				c0.05,0.05,0.1,0.11,0.15,0.16c0.13,0.13-0.18-0.25-0.07-0.1c0.07,0.11,0.15,0.21,0.22,0.32c0.07,0.12,0.14,0.25,0.2,0.38
				c0.02,0.05,0.04,0.11,0.07,0.16c-0.06-0.1-0.12-0.3-0.04-0.08c0.2,0.51,0.33,1.05,0.46,1.58c0.28,1.17,0.56,2.36,1.2,3.4
				c0.41,0.67,1.36,0.98,2.05,0.54c0.67-0.43,0.98-1.34,0.54-2.05c-0.08-0.13-0.15-0.25-0.22-0.39c-0.03-0.05-0.05-0.11-0.08-0.16
				c-0.14-0.28,0.09,0.24,0.03,0.07c-0.1-0.27-0.19-0.53-0.27-0.81c-0.16-0.55-0.28-1.11-0.42-1.67c-0.32-1.28-0.78-2.52-1.7-3.5
				c-0.41-0.44-1.11-0.54-1.64-0.31c-0.57,0.24-0.89,0.76-0.92,1.37c-0.12,2.36,0.47,4.74,1.62,6.79c0.39,0.68,1.38,0.97,2.05,0.54
				C826.23,421.27,826.49,420.4,826.07,419.67L826.07,419.67z"/>
		</g>
	</g>
	<g>
		<g>
			<path class="st7" d="M838.17,429.25c-0.48-1.47-0.85-2.98-1.06-4.52c-0.07-0.51-0.15-1.43-0.18-2.09
				c-0.02-0.36-0.02-0.71-0.03-1.07c0-0.18,0-0.36,0-0.54c0-0.1,0-0.2,0.01-0.29c0,0.3-0.15,0.55-0.46,0.73c-0.5,0-1.01,0-1.51,0
				c-0.13-0.11-0.13-0.11-0.01,0.01c-0.03-0.03-0.06-0.07-0.09-0.1c0.08,0.15,0.08,0.15,0.01-0.01c0.01,0.04,0.03,0.08,0.04,0.13
				c0.03,0.13,0.07,0.26,0.1,0.39c0.02,0.1,0.06,0.41,0.03,0.13c0.1,0.77,0.18,1.54,0.27,2.31c0.18,1.51,0.36,3.02,0.54,4.52
				c0.09,0.78,0.62,1.54,1.5,1.5c0.73-0.03,1.6-0.67,1.5-1.5c-0.21-1.75-0.42-3.51-0.62-5.26c-0.2-1.72-0.17-3.64-1.75-4.72
				c-0.43-0.29-1.09-0.27-1.51,0c-1.05,0.66-1.05,1.77-1.04,2.87c0.01,0.89,0.06,1.79,0.17,2.67c0.22,1.91,0.6,3.79,1.2,5.63
				c0.24,0.74,1.05,1.31,1.85,1.05C837.86,430.85,838.43,430.05,838.17,429.25L838.17,429.25z"/>
		</g>
	</g>
	<g>
		<g>
			<path class="st7" d="M856.54,423.15c-0.13-0.53-0.25-1.05-0.36-1.58c-0.06-0.29-0.11-0.57-0.16-0.86
				c-0.01-0.05-0.07-0.47-0.02-0.1c-0.02-0.14-0.03-0.29-0.05-0.43c-0.05-0.53-0.07-1.07-0.04-1.6c0.01-0.14,0-0.29,0.04-0.43
				c-0.01,0.05-0.01,0.1-0.02,0.16c0.01-0.08,0.03-0.16,0.04-0.24c0.05-0.28,0.12-0.56,0.21-0.83c0.23-0.75-0.28-1.67-1.05-1.85
				c-0.82-0.19-1.59,0.25-1.85,1.05c-0.77,2.47-0.23,5.07,0.35,7.51c0.18,0.76,1.09,1.29,1.85,1.05
				C856.29,424.74,856.74,423.97,856.54,423.15L856.54,423.15z"/>
		</g>
	</g>
	<g>
		<g>
			<path class="st7" d="M866.39,430.74c-0.19-0.58-0.35-1.17-0.47-1.76c-0.04-0.18-0.07-0.37-0.1-0.55
				c-0.01-0.07-0.06-0.47-0.03-0.16c-0.04-0.3-0.07-0.61-0.09-0.91c-0.04-0.61-0.04-1.22-0.01-1.82c0.02-0.3,0.05-0.61,0.08-0.91
				c0.04-0.36-0.04,0.17,0.02-0.16c0.03-0.18,0.06-0.37,0.1-0.55c0.15-0.77-0.21-1.66-1.05-1.85c-0.74-0.17-1.69,0.22-1.85,1.05
				c-0.54,2.8-0.41,5.7,0.49,8.42c0.24,0.74,1.05,1.31,1.85,1.05C866.09,432.34,866.65,431.54,866.39,430.74L866.39,430.74z"/>
		</g>
	</g>
	<g>
		<g>
			<path class="st7" d="M881.97,432.4c-0.02-0.1-0.03-0.2-0.04-0.3c0.02,0.13,0.04,0.27,0.05,0.4c-0.11-0.85-0.11-1.7,0-2.54
				c-0.02,0.13-0.04,0.27-0.05,0.4c0.05-0.37,0.12-0.74,0.21-1.1c0.1-0.38,0.05-0.81-0.15-1.16c-0.18-0.31-0.54-0.61-0.9-0.69
				c-0.78-0.18-1.64,0.23-1.85,1.05c-0.39,1.57-0.43,3.15-0.17,4.74c0.06,0.35,0.4,0.73,0.69,0.9c0.32,0.19,0.8,0.27,1.16,0.15
				c0.36-0.12,0.71-0.34,0.9-0.69c0.05-0.12,0.1-0.24,0.15-0.36C882.04,432.93,882.04,432.67,881.97,432.4L881.97,432.4z"/>
		</g>
	</g>
	<path class="st10" d="M788.61,435.37c2.97,0.34,5.39,3.89,3.92,6.5c0.56-1.89,1.22-3.9,2.77-5.11s4.3-1.06,5.05,0.76
		c1.46-1.4,4.21-0.13,4.61,1.85c0.4,1.98-1,3.96-2.79,4.91c-1.78,0.94-3.87,1.08-5.88,1.2c0.83,3.8-3.2,7.75-6.98,6.84
		c2.01,0.26,2.48,3.29,1.15,4.82c-1.33,1.53-3.51,1.91-5.52,2.19c1.33-0.36,2.87,0.37,3.43,1.63c0.56,1.26,0.07,2.89-1.09,3.64
		c0.35-2.2,2.75-3.84,4.93-3.38c2.18,0.47,3.7,2.95,3.12,5.1c0.83-2.46,4.35-3.5,6.38-1.89s1.82,5.28-0.39,6.64
		c1.27-1.36,3.42-1.79,5.11-1.03c1.69,0.76,2.8,2.66,2.62,4.51c-0.39-1.87,0.54-3.94,2.2-4.9c1.65-0.96,3.91-0.73,5.34,0.54
		c-0.43-2.06,0.43-4.4,2.24-5.46s4.47-0.5,5.5,1.33c1.03,1.83-0.11,4.57-2.18,4.92c0.92-2.38,4.3-3.36,6.36-1.85
		s2.12,5.03,0.12,6.62c1.54-0.83,3.19-1.68,4.93-1.55s3.5,1.69,3.15,3.4c0.37-2.45,2.59-4.49,5.07-4.64
		c2.47-0.15,4.93,1.6,5.59,3.99c0.87-1.67,1.84-3.44,3.52-4.28c1.68-0.84,4.24-0.11,4.51,1.75c1.12-2.17,3.59-3.58,6.03-3.43
		c2.44,0.15,4.72,1.85,5.56,4.14c1.64-0.54,3.07-1.58,4.67-2.22c1.6-0.64,3.6-0.81,4.91,0.31c1.32,1.12,1.09,3.77-0.6,4.12
		c-0.07-1.08,0.98-2.08,2.05-1.97c1.07,0.11,1.89,1.31,1.6,2.35c1.72-0.54,2.47,2.11,2.27,3.9c-0.14,1.3-0.28,2.6-0.43,3.89
		c-0.07,0.64-0.14,1.29-0.39,1.88c-1.15,2.73-5.45,2.61-7.47,0.44c-2.03-2.16-2.39-5.35-2.66-8.31c-0.4,2.99-1.31,6.17-3.74,7.95
		s-6.68,1.11-7.46-1.8c-1.27,4.41-8.11,5.77-10.97,2.17c-1.12,3.84-6.05,6-9.63,4.23c-0.8-0.39-1.52-0.94-2.37-1.2
		c-1.63-0.5-3.35,0.14-5.04,0.42c-1.68,0.28-3.78-0.05-4.44-1.63c-0.06,3.05-2.64,6.01-5.69,5.96c-3.05-0.05-5.59-3.71-4.16-6.4
		c-1.13,1.66-3.37,2.46-5.29,1.88c-1.92-0.57-3.36-2.47-3.39-4.48c-0.88,1.87-3.09,3.01-5.13,2.64c-2.03-0.37-3.7-2.22-3.87-4.28
		c-0.84,1.56-3.22,2-4.56,0.83c-1.34-1.16-1.25-3.58,0.17-4.63c-1.61,2.01-4.72,2.63-6.97,1.39c-2.25-1.24-3.4-4.2-2.56-6.63
		c-1.38,1.27-3.57,1.81-5.18,0.85c-1.61-0.96-2.04-3.62-0.53-4.73c-1.68-0.04-3.35-0.38-4.92-0.98c0.55-1.61,1.11-3.22,1.66-4.83
		c-1.89,1.66-5.21,1.63-6.68-0.4c-1.47-2.04,0.12-5.59,2.63-5.43c-2.92,1.47-6.47-2.43-5.26-5.47c1.21-3.04,5.54-3.93,8.32-2.22
		c-2.84,0.06-3.78-3.85-3.32-6.66c0.27-1.65,0.78-3.39,2.1-4.42c1.32-1.03,3.64-0.84,4.27,0.72c-0.45-2.08,1.2-4.37,3.32-4.6
		c-0.2,0.36-0.37,0.74-0.51,1.13C783.46,436.98,785.76,435.04,788.61,435.37z"/>
	<path class="st10" d="M770.01,187.62c0.5,0.3,1.13,0.21,1.69,0.34c1.76,0.39,2.15,3.3,0.55,4.13c0.85,0.22,1.7,0.43,2.55,0.65
		c0.08,1.11,0.16,2.21,0.24,3.32c2.75-0.22,4.23,4.28,1.89,5.74c2.46,1.51,2.94,5.43,0.9,7.48c2.81,0.06,4.65,3.94,2.92,6.16
		c1.94-0.33,3.35,1.89,3.62,3.84s0.05,4.11,1.2,5.71c0.81,1.11,2.24,1.87,2.46,3.22c0.24,1.45-1.09,2.91-0.6,4.3
		c0.22,0.62,0.76,1.06,1.14,1.6c0.42,0.6,0.64,1.31,0.84,2.01c0.56,1.85,1.11,3.69,1.67,5.54c0.52,1.73,1.04,3.59,0.51,5.31
		c-0.44,1.42-1.52,2.54-2.62,3.54c-10.88,9.91-26.82,13.92-41.1,10.35c-1.97-0.49-3.99-1.17-5.45-2.58
		c-1.46-1.42-2.19-3.77-1.2-5.55c1.69-3.05,6.17-2.15,9.65-1.99c4.1,0.19,8.26-1.35,11.24-4.18c-2.43-0.34-4.82-1-7.08-1.95
		c3.92-3.4,8.68-5.82,13.73-6.98c-2.4,0.09-4.69-1.9-4.94-4.28c-0.25-2.39,1.59-4.81,3.96-5.21c-2.34-1.68-4.84-3.59-5.53-6.39
		c-0.82-3.35,1.78-7.11,5.21-7.52c-2.28-1.89-4.73-4.09-5.04-7.04c-0.39-3.79,2.85-6.82,4.9-10.02c0.31-0.48,0.6-1.02,0.58-1.59
		c-0.08-1.75-2.6-1.96-3.97-3.05c-3.3-2.61,0.36-6.85,2.44-8.71c-3.61-1.42-1.17-4.77,1.14-5.85c-0.65,0.58-1.21,1.49-1.87,2.11
		C774.02,179.15,767.12,185.87,770.01,187.62z"/>
	<path class="st11" d="M60.15,353.52c-1.35-0.48-2.98-1.67-2.37-2.97c-4.38-0.91-8.92-0.47-13.37-0.92
		c-4.45-0.46-9.17-2.09-11.53-5.89c-0.37-0.59-0.68-1.29-0.48-1.96c0.16-0.54,0.61-0.94,1.07-1.27c1.86-1.32,4.18-1.98,6.45-1.83
		c-1.73-0.24-2.06-2.89-0.86-4.15s3.1-1.49,4.84-1.63c-1.37-0.24-2.38-1.74-2.1-3.1c0.28-1.36,1.8-2.33,3.15-2.02
		c-0.38-3.24,2.39-6.51,5.65-6.67c-1.48-1.01-1.57-3.29-0.67-4.83c0.9-1.55,2.5-2.54,4.03-3.46c-0.98-1.84,0.04-4.23,1.71-5.47
		c1.67-1.24,3.81-1.62,5.87-1.97c-1.63-1.31-1.34-4.05,0.05-5.61c1.39-1.57,3.49-2.26,5.49-2.88c-1.67-0.73-2.87-2.42-3.01-4.23
		c2.48,0.18,4-2.58,4.94-4.89c0.94-2.3,2.67-5.01,5.12-4.58c-0.57-2.47,0.31-5.22,2.2-6.91c0.81-0.72,1.78-1.26,2.46-2.1
		c0.76-0.96,1.06-2.19,1.33-3.38c0.74-3.23,1.48-6.47,2.22-9.7c2.61,7.67,2.19,16.33-1.14,23.72c-0.81,1.8-1.8,3.56-2.1,5.51
		c-0.3,1.95,0.27,4.2,1.96,5.22c-1.05,0.84-2.14,1.75-2.62,3c-0.47,1.26-0.04,2.96,1.23,3.4c0.56,0.19,1.23,0.13,1.68,0.52
		c0.56,0.49,0.44,1.39,0.27,2.12c-0.94,3.96-1.87,7.91-2.81,11.87c-0.18,0.76-0.36,1.56-0.16,2.32c0.27,0.99,1.17,1.82,1.06,2.84
		c-0.12,1.1-1.36,2.26-0.62,3.08c0.55,0.61,1.54,0.18,2.36,0.16c1.62-0.03,2.72,1.87,2.5,3.48c-0.22,1.61-1.33,2.93-2.4,4.15
		c2.19,0.62,3.62,3.17,3.01,5.36c-0.16,0.57-0.43,1.22-0.1,1.72c0.2,0.31,0.58,0.46,0.93,0.58c3.49,1.23,7.01,2.47,10.67,2.97
		c2.44,0.33,4.91,0.34,7.37,0.32c5.53-0.04,11.07-0.19,16.59-0.44c-1.29,0.06-4.73,3.77-5.96,4.58c-2.31,1.51-4.75,2.82-7.27,3.92
		c-5.12,2.24-10.5,3.51-16.04,4.09C80.54,356.64,69.97,357.01,60.15,353.52z"/>
	<path class="st12" d="M872.51,209.07c-0.88,2.23,0.02,4.77,1.25,6.84c0.44,0.74,0.95,1.56,0.8,2.41c-0.39,2.24-3.7,1.5-5.97,1.33
		c-3.22-0.24-6.05,1.96-8.52,4.03c-1.21,1.02-2.43,2.03-3.64,3.05c0.69-2.76-3.15-5.23-5.53-3.67c-2.38,1.56-2.05,5.69,0.4,7.13
		c2.51,1.48,6.23,0.53,8.14,2.73c-1.03,2.78-4.58,3.4-7.22,4.75c-3.03,1.55-5.14,4.41-7.15,7.16c-0.38,0.52-0.76,1.06-0.91,1.68
		c-0.49,2.1,2.03,3.82,4.18,3.69c2.16-0.14,4.07-1.37,6.15-1.98c2.07-0.6,4.8-0.28,5.69,1.68c0.88,1.92-0.5,4.28,0.26,6.25
		c0.84,2.15,3.84,2.88,4.57,5.07c0.84,2.54-1.86,4.74-4.17,6.09s-4.96,3.65-4,6.15c0.3,0.78,0.94,1.42,1.08,2.25
		c0.34,1.89-1.92,3.1-3.75,3.67c-2.61,0.81-5.22,1.62-7.82,2.44c-3.02,0.94-6.31,1.88-9.29,0.82c-2.98-1.06-5.02-5.1-2.97-7.52
		c-2.3-1.69-6.04-0.75-7.27,1.82c-0.49,1.03-0.62,2.22-1.24,3.17c-1.24,1.89-4.06,2.12-6.09,1.12c-2.02-1-3.43-2.89-4.76-4.71
		c-2.19,1.43-5.29,0.67-7.16-1.16s-2.7-4.47-3.12-7.05c-0.34-2.07-1.69-4.94-3.56-3.99c-0.54,0.27-0.88,0.83-1.17,1.36
		c-1.1,2.01-2.03,4.2-2.01,6.49c0.02,2.29,1.17,4.69,3.27,5.61c1.42,0.62,3.04,0.5,4.53,0.92c1.49,0.42,2.98,1.79,2.57,3.28
		c-0.29,1.07-1.4,1.66-2.4,2.13c-3.58,1.68-7.15,3.35-10.73,5.03c0.76,1.06,1.83,1.9,3.05,2.38c-2.07,0.69-4.53,1.85-4.64,4.03
		c-0.12,2.33,2.81,3.79,5.08,3.25c2.27-0.54,4-2.31,5.81-3.79c1.81-1.48,4.12-2.78,6.37-2.16c1.33,0.37,2.42,1.39,3.08,2.61
		c1.28,2.36,0.94,5.51-0.83,7.54c-1.03,1.18-2.59,2.31-2.36,3.86c0.34,2.27,3.96,2.36,4.96,4.43c1.17,2.44-2.15,4.55-4.8,5.09
		c-2.65,0.54-6.13,1.88-5.71,4.56c0.32,2.08,3.05,2.9,5.06,2.29c2.01-0.62,3.61-2.13,5.48-3.09c0.64-0.33,1.34-0.59,2.06-0.53
		c1.85,0.15,2.87,2.45,2.46,4.26c-0.41,1.82-1.74,3.25-2.89,4.71c-0.41,0.53-0.83,1.13-0.79,1.8c0.08,1.37,1.88,1.88,3.23,1.67
		s2.8-0.77,4.02-0.16c3.33,1.67,0.17,8.82,3.8,9.64c-2.58-0.72-4.63,3.56-2.44,5.11c3.42,2.43,8.23-3.83,11.83-1.67
		c3.45,2.07,0.34,8.43,3.39,11.05c0.85,0.73,2,0.97,2.95,1.56s1.7,1.85,1.09,2.79c-0.67,1.04-2.3,0.73-3.37,1.37
		c-1.66,1-1.06,3.65,0.3,5.05c1.36,1.39,3.26,2.33,4.1,4.08c-2.13,0.32-4.25,0.63-6.38,0.95c-0.69,0.1-1.46,0.25-1.88,0.81
		c-0.67,0.92,0.11,2.28,1.15,2.75c1.04,0.47,2.23,0.4,3.34,0.66c2.87,0.67,4.91,3.81,4.36,6.7c6.56,0.53,13.22-0.09,19.57-1.82
		c1.2-0.33,2.49-0.69,3.67-0.3c1.13,0.38,1.92,1.38,2.88,2.08c2.43,1.78,5.89,1.57,8.61,0.26c2.72-1.31,4.86-3.55,6.93-5.74
		c-1.49-0.45-2.74-1.62-3.31-3.07c1.47-0.44,3.02-0.93,4.07-2.06s1.33-3.12,0.17-4.14c-0.86-0.76-2.24-0.78-3-1.64
		c-0.8-0.91-0.56-2.3-0.92-3.46c-0.51-1.64-2.13-2.61-3.41-3.75s-2.32-3.09-1.35-4.5c0.5-0.72,1.38-1.06,1.98-1.69
		c3.08-3.2-3.46-8.65-1.28-12.52c-3.53-1.91-8.14-1.64-11.42,0.67c-0.65-1.67-1.3-3.34-1.95-5.01c1.92-0.81,3.89-1.66,5.38-3.11
		c1.49-1.45,2.43-3.68,1.79-5.66c-0.68-2.09-2.94-3.56-3.05-5.76c-0.18-3.86,5.68-4.65,7.85-7.84c1.85-2.72,0.5-6.46-1.38-9.16
		c-1.89-2.7-4.36-5.23-4.83-8.48c-2.9-0.15-4.61-3.79-3.71-6.54s3.54-4.58,6.23-5.67c1.52-0.62,3.16-1.1,4.31-2.26
		c1.15-1.16,1.54-3.3,0.29-4.36c-0.66-0.56-1.59-0.69-2.28-1.21c-1.26-0.97-1.2-3.01-0.28-4.3c0.92-1.29,2.44-2.01,3.91-2.6
		c-0.78-1.55-1.56-3.09-2.34-4.64c1.76,0.36,3.15-1.66,3.26-3.45s-0.47-3.61-0.11-5.37c0.2-1.01,0.71-2,0.53-3.02
		c-0.31-1.71-2.28-2.43-3.61-3.55c-2.33-1.98-2.57-5.96-0.48-8.2c0.82-0.88,2.01-1.71,1.92-2.91c-0.17-2.29-4.06-1.68-5.54-3.43
		c-1.27-1.5-0.03-3.89,1.65-4.92c1.68-1.03,3.74-1.39,5.25-2.65c0.77-0.64,1.35-1.48,1.91-2.31c1.57-2.3,3.72-5.3,3.16-8.26
		c-0.66-3.54-2.06-2.35-4.44-3.57C880.14,211.67,875.31,202.01,872.51,209.07z"/>
	<path class="st8" d="M788.89,492.37c-1.05,0.47-1.8,1.56-1.85,2.72c1.56,1.4,3.45,2.43,5.48,2.99c-0.74,1.66-1.48,3.33-2.21,4.99
		c7.63,3.3,16.04,4.27,24.33,4.83c16.13,1.09,32.36,0.77,48.43-0.97c4.94,1.05,10.37-0.62,13.87-4.25s4.96-9.12,3.72-14.02
		c-16.3-3.95-33.08,3.49-49.84,4.02c-8.59,0.27-17.15-1.29-25.39-3.72c-6.7-1.98-15.76-8.28-22.71-7.31
		C768.88,483.57,781.47,492.07,788.89,492.37z"/>
	<polyline class="st8" points="299.38,209.85 329.49,184.41 329.49,198.59 299.23,224.39 299.38,209.85 	"/>
	<polyline class="st8" points="299.38,229.84 329.49,204.4 329.49,207.16 299.23,232.95 299.38,229.84 	"/>
	<polyline class="st8" points="252.88,385.2 276.74,365.02 276.74,379.2 252.74,399.74 252.88,385.2 	"/>
	<polyline class="st8" points="252.88,405.18 276.4,385.37 276.4,388.12 252.74,408.3 252.88,405.18 	"/>
	<polyline class="st8" points="283.81,385.2 314.47,359.27 314.47,373.45 283.66,399.74 283.81,385.2 	"/>
	<polyline class="st8" points="283.81,405.18 314.13,379.62 314.13,382.38 283.66,408.3 283.81,405.18 	"/>
	<polyline class="st8" points="357.27,385.2 387.94,359.27 387.94,373.45 357.12,399.74 357.27,385.2 	"/>
	<polyline class="st8" points="357.27,405.18 387.6,379.62 387.6,382.38 357.12,408.3 357.27,405.18 	"/>
	<polyline class="st8" points="320.13,385.2 351.72,358.59 351.72,372.77 319.98,399.74 320.13,385.2 	"/>
	<polyline class="st8" points="320.13,405.18 351.27,378.74 351.27,381.49 319.98,408.3 320.13,405.18 	"/>
	<polyline class="st8" points="505.91,385.2 532.6,362.26 532.6,376.44 505.76,399.74 505.91,385.2 	"/>
	<polyline class="st8" points="505.91,405.18 532.26,382.61 532.26,385.37 505.76,408.3 505.91,405.18 	"/>
	<polyline class="st8" points="538.72,385.2 571.11,357.89 571.11,372.08 538.57,399.74 538.72,385.2 	"/>
	<polyline class="st8" points="538.72,405.18 570.76,378.24 570.76,381 538.57,408.3 538.72,405.18 	"/>
	<polyline class="st8" points="616.72,385.2 644.03,361.38 644.03,375.57 616.58,399.74 616.72,385.2 	"/>
	<polyline class="st8" points="616.72,405.18 643.69,381.73 643.69,384.49 616.58,408.3 616.72,405.18 	"/>
	<polyline class="st8" points="577.22,383.83 609.65,356.32 609.65,370.5 577.07,398.37 577.22,383.83 	"/>
	<polyline class="st8" points="577.22,403.82 609.43,376.56 609.43,379.31 577.07,406.93 577.22,403.82 	"/>
	<polyline class="st8" points="333.56,229.84 362.9,205.05 362.89,207.81 333.41,232.95 333.56,229.84 	"/>
	<polyline class="st8" points="332.69,209.85 362.8,184.41 362.8,198.59 332.54,224.39 332.69,209.85 	"/>
	<polyline class="st8" points="525.94,209.85 556.05,184.41 556.05,198.59 525.79,224.39 525.94,209.85 	"/>
	<polyline class="st8" points="525.94,229.84 556.05,204.4 556.05,207.16 525.79,232.95 525.94,229.84 	"/>
	<polyline class="st8" points="560.12,229.84 589.46,205.05 589.46,207.81 559.97,232.95 560.12,229.84 	"/>
	<polyline class="st8" points="559.25,209.85 589.36,184.41 589.36,198.59 559.1,224.39 559.25,209.85 	"/>
</g>
<g id="Stroke">
	<path class="st22" d="M345.11,63.87c-3.31-0.21-6.66,1.1-9.02,3.42c-0.97,0.95,0.33,2.56,1.4,1.73c0.07-0.05,0.13-0.11,0.2-0.17
		c0.59-0.57,0.7-1.54,0.09-2.09c-0.83-0.74-2.01-0.03-2.82,0.66c-3.83,3.25-7.65,6.51-11.48,9.76c-0.61,0.52-1.27,1.13-1.3,1.93
		c2.67,0.72,5.07-1.73,6.67-3.99c3.17-4.48,6.02-9.45,6.51-14.92c0.33-3.66-0.75-7.87-4.27-9.37c-0.81-0.35-1.77-0.35-2.5,0.15
		c-1.64,1.13-0.74,3.34-1.15,5.1c-0.48,2.01-2.56,3.12-4.34,4.17c-0.48,0.28-0.96,0.6-1.24,1.08c-0.62,1.11,0.16,2.45,0.91,3.48
		c1.11,1.51,2.29,3.1,4.14,3.68c0.62,0.2,1.3,0.22,1.93,0.06c2.61-0.65,2.61-3.31,1.36-4.78c-0.83-0.98-2.1-1.49-3.37-1.69
		c-4.66-0.71-9.52,3.12-9.9,7.82c-0.06,0.77-0.02,1.57,0.33,2.26c1.13,2.23,4.39,1.93,6.74,1.07c3.76-1.38,7.31-3.35,10.46-5.82
		c4.12-3.23,8-7.5,13.21-8.01"/>
	<path class="st23" d="M634.6,277.48c2.33-0.07,4.65-0.56,6.8-1.44c1.11-0.45,2.2-1.03,2.95-1.97c0.75-0.93,1.07-2.29,0.52-3.35
		c-0.9-1.74-3.43-1.76-5.24-1.02c-1.81,0.74-3.52,1.99-5.48,1.98c1.26-3.47-0.75-7.21-2.69-10.35c-0.7-1.13-1.61-2.4-2.94-2.46
		c-1.21-0.06-2.24,0.99-2.57,2.15c-0.33,1.16-0.1,2.4,0.19,3.57c1.05,4.24,2.88,8.28,5.37,11.87c-2.97-1.28-5.11-3.9-7.13-6.43
		c-1.91-2.39-3.89-4.95-4.28-7.98c-0.07-0.53-0.01-1.21,0.49-1.42c0.25-0.1,0.53-0.05,0.79,0.02c1.34,0.37,2.54,1.22,3.33,2.35"/>
	<path class="st23" d="M619.09,268.6c4.47,1.58,8.84,4.58,12.18,7.93c-4.66-2.07-9.63-3.41-14.7-3.96"/>
	<path class="st23" d="M221.32,159.75L221.32,159.75c0.07-1.23-0.99-2.2-2.1-1.88c-1.38,0.4-2.69,1.25-3.91,2.09
		c-4.02,2.74-8.28,5.8-10.43,10.24c-0.45,0.94,0.88,1.71,1.36,0.78c0-0.01,0.01-0.02,0.01-0.03c2.14-4.29,4.09-8.82,4.52-13.66
		c0.43-4.84-0.87-10.1-4.33-13.25c-0.41-0.37-0.87-0.73-1.4-0.82c-0.83-0.15-1.64,0.36-2.28,0.95c-1.94,1.81-3,4.55-3.28,7.29
		s0.17,5.53,0.85,8.19c0.22,0.88,0.51,1.81,1.27,2.29c0.38,0.23,0.85,0.28,1.25,0.08c0.6-0.32,0.66-0.96,0.55-1.52
		c-0.33-1.59-2-2.57-3.52-2.4c-1.51,0.17-2.82,1.24-3.79,2.5c-1.49,1.95-2.31,4.86-1.04,6.99l0.01,0.02
		c0.82,1.37,2.31,2.14,3.81,1.88c1.28-0.22,2.55-0.69,3.76-1.19c6.38-2.65,12.52-6.6,16.37-12.71c0.51-0.81,0.87-1.73,0.92-2.71
		c0.16-3.05-2.38-3.76-4.3-3.19c-2.69,0.8-4.65,4.35-4.8,4.57"/>
	<path class="st23" d="M526.08,236.49c-1.69,0.11-3.34,0.13-5.03,0.24c-0.37-18.85-0.42-37.32-0.77-56.15
		c-0.01-0.52,0.49-0.87,1-0.73c0.22,0.06,0.39,0.23,0.39,0.45c0.44,15.58,1.87,52.64,1.87,52.64s25.85-0.58,31.73-0.58
		c2.87,0,34.39,0.01,34.39,0.05c-0.35-17.44-1.28-35.28-1.63-52.72c-9.21-0.33-17.17-0.27-27.43,0
		c-0.37,15.61-0.21,31.97,0.18,47.58c-11.5,0.09-23.19-0.64-34.69-0.56c0.32-15.25-0.48-31.4-0.73-46.66
		c10.21-0.21,20.8-0.29,31.01-0.51c0.17,0,0.23,39.78,0.53,59.5c14.27-0.64,28.84-0.37,43.12,0.07l-0.28,5.95
		c-29.18-0.2-58.81-0.07-87.99,0.28c-0.03-1.09-0.33-2.47-0.36-3.56c-0.01-0.19,0-0.41,0.12-0.55c0.14-0.15,0.37-0.17,0.57-0.17
		c2.44-0.06,4.88-0.12,7.33-0.18c27.14-0.63,55.62-0.78,82.82-0.3c0.74,0.01,1.13,0.88,0.65,1.45c-0.01,0.02-0.03,0.03-0.04,0.05
		c-0.54,0.64-1.58,0.24-1.55-0.6c0.24-6.93,0.16-16.05,0.26-21.57c0.3-16.17-0.13-27.93,0.27-42.41c6.11,0.17,12.05-0.19,18.16-0.17
		c2.64-3.13,5.15-6.2,7.7-9.4c-2.12-1.01-4.3-1.67-6.16-3.1c-8.95-6.9-22.14-15.2-32.6-21.66c-13.46-8.31-20.31-12.44-33.07-20.32
		c0.07-0.5-0.87-0.4-1.27-0.09c-4.61,3.63-9.52,6.87-14.41,10.11c-12.67,8.39-37.05,25.59-38.02,25.16
		c-1.16-0.51,1.06-2.23,2.09-2.97c3.11-2.24,10.96-7.66,10.53-7.26c-46.19,0.61-91.96,1.38-138.15,1.98l-0.03,0
		c-1.44,0.02-2.04,1.85-0.88,2.71c4.51,3.37,9.04,6.91,13.1,10.78c0.81,0.78,2.13,0,1.83-1.08l-0.01-0.02
		c-0.23-0.81-1.37-1.35-1.93-0.73c-0.4,0.44-0.27,1.13-0.12,1.7c2.07,7.66,4.13,15.32,6.2,22.98c-2.68,0.13-5.63,0.13-8.56,0.15
		c-2.62,0.01-5.23,0.03-7.63,0.14c2.54-0.6,6.18-1.39,8.73-1.98c-1.19-5.19-3.03-11.04-4.81-16.06
		c-37.23,0.54-72.21,0.51-109.44,0.35c0.15,1.51,0.18,3.25,0.33,4.76c4.02-0.08,7.89-0.05,11.91-0.13
		c32.19-0.62,62.73-0.08,96.58-0.01c0.23,0.56,0.24,1.21,0.01,1.77c-14.79-0.23-23.5,0.48-40.8,0.07
		c-21.49-0.51-43.24-0.12-64.74,0.25c2.7,2.96,5.27,5.72,7.98,8.68c0.17-0.17,0.05,40.24,0.17,60.58c0.01,1.34-0.1,2.69-0.17,4.03
		c-0.05,0.8-1.1,1.13-1.54,0.46c-0.03-0.05-0.06-0.1-0.09-0.15c-0.33-0.57,0.11-1.29,0.77-1.27l17.52,0.41
		c24.83,0.58,49.37,0.53,74.49-0.42c0-1.7,0.51-70.46-0.7-70.45c-0.6,0.01-1.63,65.2-1.63,65.2c-31.24,0.48-62.9,0.88-95.35,0.54
		c-0.24-0.4-0.32-0.89-0.22-1.35c17.09-0.18,34.17-0.35,51.26-0.53c0.29-21.67,1.03-41.29,0.54-62.96
		c-10.81-0.35-21.45-0.7-32.22,0.33c-0.46,19.02-0.7,38.05-0.72,57.08c-0.4,0.39-0.95,0.9-0.62,1.36
		c22.09,0.24,44.17,0.25,66.26,0.01c1.12-19.89,0.96-40.14,0.27-60.05c-9.87,0.32-19.66,0.25-29.53,0.57
		c0.28,18.71,0.29,37.03,0.57,55.74c-11.38,0-22.78-0.02-34.16-0.03c-0.11-21.86,0.54-44.24,1.37-66.08
		c-11.13-0.36-22.01-0.76-33.13-0.24c1.5,1.49,3,2.98,4.51,4.48c-0.96,0.66-2.24-0.12-3.11-0.9c-1.24-1.11-2.43-2.28-3.55-3.51
		c0.19-0.9,0.22-1.05,0.4-1.94c23.79-11.12,46.01-25.78,69.63-37.28c0.7-0.34,1.42-0.69,2.2-0.74c2.54-0.16,30.49,20.49,33.81,22.34
		c-0.14-0.05-1.13,1.3-1.63,2c-12.55-8.06-25.09-15.89-37.26-24.5c-0.97,0.31-30.72,15.65-44.49,22.99c-4.12,0-8.4-0.31-12.52-0.31
		c-17.58,7.27-34.48,14.93-51.29,23.84c-19.74,41.51-36.44,83.85-50.5,127.61c13.87-32.09,23.6-55.59,35.41-84.83
		c13.34-33.03,13.62-34.84,14.94-35.14c1.35-0.31,1.06,1.44,0.64,2.21c-0.42,0.77-1.25,1.22-2.03,1.62
		c-21.01,10.88-42.28,21.26-63.79,31.12c19.63-0.51,29.23-0.26,41.24-0.2c1.01,0,2.31,0.02,2.5,1.14c0.15,0.92-0.61,1.75-1.54,1.77
		c-3.77,0.09-7.45-0.07-11.85,0.04c-0.39,10.66-1.46,21.49-1.65,32.15c3.74-9.24,7.63-19.29,10.73-28.76
		c-14.09,1.31-26.56,0.3-42.04,0.34c-1.54,0-2.2-2.12-0.84-2.82c0.17-0.09,0.36-0.15,0.56-0.16c1.4-0.1,2.54,1.28,2.7,2.67
		c0.16,1.39-0.4,2.75-0.95,4.03c-11.61,27.04-23.2,50.5-40.76,86.03"/>
	<path class="st23" d="M526.19,236.48c23.09-0.28,45.18,0.19,68.27-0.08c-1.51-20.55-1.1-39.99,0.28-60.54
		c-27.11,0.64-56.25,0.55-83.36-0.37c-0.24,20.22,1.13,63.28,1.38,63.16s-5.83-34.37-8.68-51.64c4.91-5.7,7.28-8.93,11.11-14.08
		c40.26,0.75,68.12-1.91,104.02,0.14l-0.02-5.37c-37.21-0.48-74.7,0.67-111.89,2.04c-3.92,5.32-7.7,10.75-11.33,16.29
		c-0.26,0.39,6.68,0.95,6.96,1.32c0.85,1.13-4.5,0.14-9.53,0.41c-0.32-3.82-0.32-3.82-0.73-7.1c4.3-6.45,6.72-11.57,10.38-17.65
		c0.87-1.44-0.63-3.29-2.31-3.31c-0.77-0.01-1.62,0-2.47,0.08c-1.3,0.12-1.3,2.04,0,2.13c0.36,0.03,0.73,0.04,1.08,0.04
		c42.13,0.81,84.37-3.45,126.35,0.21c0.81,0.07,1.77,0.23,2.07,1.04c0.32,0.86-0.31,1.71-1.2,1.91c-1.29,0.29-2.39-0.53-3.36-1.3
		c-8.2-6.53-17.44-11.9-26.85-18.58c7.08-0.41,16.93,0.41,24.01,0c18.36,9.59,36.17,19.44,54.31,29.45
		c21.58,36.24,39.01,74.77,56.39,113.21c1.5,3.33,5.92,11.99,6.78,15.51c0.27,1.08-1.26,1.62-1.75,0.63l-38.43-77.29
		c-0.82-1.65-1.97-3.54-3.82-3.6c-0.57,1.6,1.13,3.03,2.61,3.88c12.2,6.93,24.45,13.16,37.4,18.54
		c12.57,25.95,25.67,52.28,39.24,77.73l-47.32-1.2c-2.53-0.06-2.77,3.79-0.24,3.92c0.92,0.05,1.83-0.1,2.8-0.11
		c9.8-0.12,19.91,0.25,29.76,0.3c2.89,0.02,11.26-0.05,11.26-0.05s0,5.58,0.14,8.58l-3.95,0.41c2.48,33.38,1.07,67.12-0.49,100.55
		l-34.57,0.01c0.19,5.55,0.5,10.82,0.46,15.09c-2.93,0.21-5.38-0.04-8.26,0.55c-2.71,0.55-2.54,4.52,0.21,4.74
		c0.06,0.01,0.13,0.01,0.19,0.01c1.41,0.08,2.55-1.15,2.48-2.56c-1.99-43.84-1.67-89.09,1.28-132.83c5-0.08,5.86-0.21,11.45-0.05
		c-0.09-5.2,0.09-7.11-0.21-11.98c-0.09-1.49,1.23-2.69,2.7-2.44l0.08,0.01c2.44,0.41,2.65,3.86,0.28,4.54
		c-1.11,0.32-2.32,0.45-3.67,0.45c-186.14-0.43-372.29-0.85-558.43-1.28c-1.88,4.53-2.61,6.53-4.56,12
		c-1.17-3.66-1.62-7.54-1.33-11.37c0.17-2.25,3.52-2.2,3.66,0.06l0.01,0.08c0.06,1.04-0.76,1.91-1.8,1.9
		c-18.68-0.14-37.36,0.68-55.95,2.45c-2.07,0.2-3.13-2.41-1.53-3.73l0.05-0.04c0.95-0.78,2.35-0.59,3.06,0.41
		c1.24,1.76,0.02,8.73,1.15,9.68c1.13,0.94,2.74,0.95,4.22,0.9c4.23-0.13,40.02-0.51,44.24-0.64c0.06,0.82-31.42,1.89-31.39,2.71
		c1.15,37.88,0.51,66.58,0.21,103.35c-0.03,3.8,0.5,7.58,0.75,11.36c0.13,1.98,0.29,4.05,1.3,5.76c1.16,1.95,3.82,3.25,5.8,1.75
		c1.1-0.83,1.4-2.52,0.53-3.6c-0.75-0.92-1.92-1.28-2.8-0.82c-38.93,20.45-86.65,47.29-134.41,73.45c-0.01,0.01-0.03,0.02-0.04,0.02
		c-1.42,0.78-0.55,3.2,0.96,2.61c18.95-7.38,28.4-11.9,41.12-18.24c37.06-18.45,60.18-32.06,94.82-47.42l566.4,4.45"/>
	<path class="st23" d="M10.27,384.97c18.74-2.33,42.87-5.6,61.64-7.6c-0.1-5.29,0.17-9.5,0.15-14.11c-0.01-1.46,1.12-2.64,2.57-2.76
		c10.3-0.81,20.54-6.49,32.07-12.68c2.05-1.1,4.27-2.24,6.52-2.86c1.67-0.46,2.41,2.02,0.79,2.61c-15.42,5.56-26.38,3.92-43.59,3.77
		c-15.94-0.14-29.57-7.08-34.37-8.99c-0.84-0.33-1.79-0.6-2.66-0.27c-1.15,0.45-0.93,2.14,0.3,2.27c19.72,2,40.17,3.77,58.78-2.98
		c7.38-2.67,14.24-6.62,21.62-9.27c0.76-0.27,1.65-0.15,2.2,0.43c1.11,1.15-0.15,2.83-1.42,3.61c-2.55,1.59-5.53,2.33-8.48,2.91
		c-19.1,3.81-39.27,2.04-57.41-5.03c-3.55-1.38-7.57-2.94-11.12-2.25c-1.28,0.25-1.53,2.04-0.38,2.66c2.19,1.18,4.9,1.51,7.44,1.6
		c19.41,0.69,37.86-7.51,56.32-13.56c1.94-0.64,4.01-1.26,5.99-0.42c1.17,0.49,2.06,1.59,2.07,2.86c0.02,2.18-2.36,3.3-4.38,3.87
		c-7.44,2.09-15.21,2.76-22.93,2.63c-5.2-0.08-10.46-0.54-15.36-2.27c-7.15-2.53-13.49-7.75-21.21-7.72c-1.1,0-2.11,0.84-2.11,1.95
		c0,1.29,1.37,1.78,2.52,2c10.57,2.08,21.6,0.83,31.88-2.36c8.97-2.78,17.43-6.99,25.55-11.75c1.09-0.64,2.17,0.92,1.16,1.68
		c-1.91,1.46-4.66,2.22-7.13,2.5c-6.71,0.77-13.56,0.27-20.08-1.49c-6.99-1.88-14.04-5.2-21.09-5.22c-2.37-0.01-3.26,3.17-1.19,4.33
		c1.21,0.68,2.58,1.14,3.93,1.39c7.77,1.46,15.5-2.41,22.07-6.8c5.59-3.73,11.07-8.03,17.35-10.23c1.53-0.54,2.57,1.59,1.21,2.47
		c-1.04,0.68-2.32,1.14-3.52,1.38c-4.75,0.99-9.74,0.75-14.37-0.69c-3.98-1.24-7.67-3.34-11.74-4.23c-2.71-0.6-5.76-0.51-8.24,0.58
		c-1.79,0.79-1.62,3.45,0.25,4.04c4.46,1.42,9.56,0.85,13.97-0.91c5.61-2.23,10.35-6.13,15.04-9.94c1.41-1.15,3.39-2.26,5.07-2.28
		c1.47-0.02,1.85,1.97,0.48,2.49c-4.87,1.84-18.05,1.16-24.95-2.06c-1.41-0.66-2.91-1.44-4.45-1.03c-0.91,0.24-1.76,1.25-1.75,2.2
		c0.01,0.83,0.5,1.32,1.1,1.52c5.66,1.93,10.63-0.21,14.86-3.6c3.4-2.72,6.82-6.64,10.86-7.6c1.36-0.32,1.99,1.74,0.66,2.17
		c-2.67,0.87-6.75-0.14-9.5-1.41c-3.16-1.46-6.38-3.45-9.74-3.76c-0.95-0.09-1.42,1.15-0.6,1.66c2.25,1.38,5.18,1.67,7.61,0.6
		c2.67-1.18,8.17-7.05,12.36-6.98c1.37,0.03,1.48,2.11,0.13,2.31c-2.46,0.36-6.35-1.24-8-2.25c-2.32-1.41-3.4-4.33-3.26-7.04
		c0.07-1.22,0.06-2.47,0.16-3.67c0.14-1.7,2.69-1.56,2.66,0.15l0,0.05c-0.58,37.98-4.26,76.52-3.63,114.5
		c-0.51,0.32-0.35,1.03,0.15,1.36s1.14,0.3,1.74,0.26c17.05-1.23,34.11-2.45,51.16-3.68c7.9-0.57,15.29-1.5,23.17-2.35
		c-0.07,21.39-0.23,42.56,0.56,63.93c0.05,1.22,0.18,7.8,1.18,8.51c1.28-1.53,1.32-8.89,1.29-10.89
		c-0.42-29.16-0.84-58.32-1.26-87.49c-0.01-0.7-0.03-1.44-0.17-2.14c-0.29-1.43-2.53-1.11-2.31,0.34c0.05,0.35,0.18,0.68,0.4,0.95
		c0.85,1.08,2.33,1.54,3.7,1.57c10.38,0.22,12.82-0.17,20.29-0.21c-0.05,12.44,2.19,77.75,2.15,90.18c0,1.16,0.53,7.95,1.65,7.66
		c1.96,0.4-0.91-69.91-0.86-75.94c0.15-18.34-1.44-31.82-0.72-47.08c-0.02,0.14-0.14-0.1-0.08-0.23c0.06-0.13,0.23-0.15,0.37-0.15
		c7.32-0.05,14.64-0.08,21.96-0.09c0.07,1.42,0.06,1.96,0,3.46c-1.34,0.08-2.18,0.02-3.21,0.17c-0.05,1.39,0.09,2.98,0.03,4.37
		c-1.67,0.08-2.24,0.14-4.26,0.16c-0.05,1.7-0.07,2.77,0.07,4.57c1.39-0.12,2.24-0.08,3.55-0.18c-0.13,1.77-0.04,2.89-0.15,4.66
		c1.57-0.15,3.34,0.04,4.91-0.11c0,2.16-0.13,4.57-0.02,6.88c-1.17,0.12-2.81,0.12-4.24,0.22c0.03,1.43-0.12,2.99-0.07,4.51
		c-1.02-0.12-3.26,0-3.26,0.09c-0.08,1.94,0.03,3.11,0.03,4.8c1.37-0.02,2.48,0.07,3.9,0.03c-0.07,1.63-0.16,3.07-0.23,4.71
		c1.31,0,2.4,0.02,3.55,0.04c-0.1,1.82-0.22,3.65-0.22,5.62c-0.97,0.08-2.18,0.06-3.15,0.14c0,1.61-0.1,2.66-0.09,4.39
		c-1.24,0.07-1.95,0.04-3.15,0.01c0.07,1.69,0.12,4.62,0.01,4.67c1.15-0.11,2.07,0.03,3.45,0.02c0.03,1.57-0.15,3.35-0.12,4.93
		c1.74-0.04,2.42-0.11,3.33-0.08c-0.01,2.64,0,3.98-0.03,6.07c-0.93,0.09-1.91,0.08-3.5,0.21c0.04,2.36-0.1,3.39,0.09,4.51
		c-1.2,0.22-3,0.24-4.36,0.23c0,1.51,0.05,2.98,0.05,4.5c1.33,0.02,2.66,0.09,4,0.1c0.07,1.26,0,2.5,0.14,3.71
		c1.09,0.04,2.41-0.01,3.5,0.03c-0.14,1.63,0.08,3.42-0.06,5.05c-1.09,0.07-2.3-0.06-3.39,0.01c0,1.15,0,2.29,0,3.44
		c-1.33,0-2.87,0.09-4.2,0.09c-0.07,1.73,0.16,2.55,0.21,4.49c1.45,0.05,2.91,0.03,4.21,0.01c0.04,2.04,0.04,3.13-0.05,5.03
		c1.32,0.14,2.32-0.02,3.47,0.05c0.06,1.88,0.09,3.52,0.14,5.4c-1.4,0.03-1.92,0.18-3.61,0.23c0.07,1.39,0.03,2.36,0.1,3.75
		c0.01,0.11-0.05,0.27,0.06,0.3c-2.12,0-3.29,0.13-5.24,0.22c-0.03,1.44,0.06,4.35,0.05,4.18c1.7-0.01,3.71-0.06,5.4-0.07
		c0,1.63,0,3.39,0,5.02c1.27-0.1,2.54-0.11,3.81-0.21c0,1.33,0,7.87,0,9.2c15.11-0.47,26.4-0.24,41.56-1.24
		c0.9-0.06,1.59,0.63,1.4,1.51c-0.27,1.24-1.36,1.39-2.12,0.36c-1.03-1.4-0.38-2.97-0.47-4.49c-2.61-40.99,0.11-77-0.65-115.15
		c-0.03-1.32-1.66-2.1-2.59-1.15c-0.2,0.2-0.34,0.45-0.39,0.73c-0.25,1.33,0.94,2.57,2.25,2.92s5.7,0.54,12.23,0.31
		c45.53,0.11,85.61-0.22,131.14,0.48c-1,32.68-1.46,59.19-1.64,93.38c-10.53-0.33-20.05-0.9-30.58-0.38
		c0.29-25.37,0.53-42.57,0.82-67.6c0.01-0.54,26.53-1.63,26.54-2.18c-35.48,0.59-97.7,1.49-133.17,2.08
		c0.05-6.78-0.37-13.83-0.32-20.61c46.31,0,89.22-0.63,134.04-0.27c0.27,4.3-0.25,9.03-0.09,13.53c-5.18-0.08-8.44,0.02-14.62,0.05
		c-4.17,0.02-8.04-0.08-12.92,0.01c-0.06-3.37-0.1-6.99-0.16-10.36c-2.32-0.02-3.22,0.05-4.98,0.13c1.07,16.84-0.44,33.73-1,50.59
		c-0.38,11.54-0.21,22.91-0.15,34.45c0,0.48-21.34-0.5-30.97-0.09c-0.25-28.83,0.47-56.37-0.54-85.18c-1.95-0.05-3.13,0.2-4.72,0.18
		c0.1,28.43-0.46,56.12-0.36,84.55c-2.7-0.33-20.52-0.02-31.06-0.1c0.4-28.1,1.14-55.84-0.28-83.91c-1.88-0.06-4.53,0.09-6.43,0.2
		c0.28,27.25-0.42,55.16-0.14,82.41c0,0.43-0.35,0.81-0.78,0.84c-7.77,0.54-14.7,0.27-21.97,0.42c-0.72-20.42-1.2-42.5-0.76-62.93
		c-0.47-0.17-1.12,0.47-1.13,0.97c-0.17,7.88-0.56,55.01-0.63,63.85c45.82,0.46,91.57,1.02,137.38,1.27
		c0.16,7.6-0.98,17.79-0.82,25.39c-0.01-0.94,107.52,0.43,112.97,0.18c0.51-39.41,0.13-79.38-0.4-118.79
		c-0.02-1.6,0.33-3.31-0.49-4.69c-1.32,0.33-2.33,1.62-2.34,2.98c0,0.24,0.03,0.49,0.19,0.66c0.21,0.23,0.55,0.24,0.86,0.24
		c2.03,0,4.05-0.01,6.08-0.01c22.76-0.04,44.69,0.13,67.45,0.24c26.46,0.13,52.93,0.25,79.39-0.17c0.06,2,0.12,3.93,0.17,5.93
		c0.14,5.28,0.29,10.56,0.43,15.85c-0.17,0.12-0.44-0.13-0.33-0.31c-9.08-0.04-18.71-0.04-27.79,0.03
		c-34.61,0.3-74.51,0.84-120.01,0.51c0.54,22.61-0.79,46.54,0.09,72.57c0.02,0.65,0.68,1.1,1.3,0.87c0.01,0,0.01,0,0.02-0.01
		c0.38-0.14,0.63-0.5,0.62-0.91c-0.52-29.62-0.46-59.17,0.47-88.78c3.63,0.13,15.98-0.2,25.79-0.36c0.09,12.49,0.43,23.02,0.48,34.4
		c0.09,18.75,0.18,37.76,0.28,56.51c0,0.26,3.97,0.33,6.24,0.22c-0.31-29.72-0.62-61.48-0.94-91.19c0-0.25,21.55-0.13,33.09-0.2
		c0,30.36-0.78,59.98,0.23,90.75c2.64,0.04,3.85,0.06,5.72,0.09c-0.01-30.51-0.18-60.35-0.48-90.86
		c11.55,0.05,34.24-0.45,34.05-0.54c-1.44,30.22-2.25,59.92-2.07,90.17c3.32,0.09,5.32,0.09,8.04,0
		c-0.28-29.79-0.13-59.04,0.85-88.81c9.24-0.26,27.19-0.81,26.94-0.82c-0.99,29.13-1.03,61.79-1.35,91.13
		c-0.01,0.84-140.58,2.44-140.59,3.27c1.83-0.03,145.61-1.01,148.04-1.11c1-0.04,1.72,0.97,1.33,1.89
		c-0.02,0.04-0.03-3.92-0.05-3.88c-0.62,1.31-2.7,4.82-2.65,3.37c0.86-22.28,2.08-52.17,2.32-73.82c0.02-1.64-1.21-1.86-1.24-0.23
		c-0.28,14.94-2.91,66.84-2.63,96.31c18.88,0.48,54.85-0.61,54.85-0.61l0-8.15h5.09v-3.81h4.72v-4.36h-4.72v-5.45h-3.9l-0.09-5.99h4
		v-4.63h3.72l-0.09-5.45h-3.63v-4h-3.81l-0.14-5.81h3.95v-4.54h4.36l-0.18-5.81h-4.18v-4.18h-4.54v-6.54h4.54l-0.14-6.36h4.59
		l0.09-4.18h-4.54v-4.72h-3.45l-0.09-4.5c1.45-0.09,2.44-0.22,3.76-0.23c-0.05-1.82-0.03-3.81-0.08-5.63
		c-0.07-0.05,2.73-0.12,3.96-0.27c0.05-1.58-0.15-3-0.1-4.57c-1.39-0.02-2.83-0.01-4.21,0.12c0.07-1.86-0.06-2.95-0.01-4.45
		c-1.79-0.1-3.02,0.1-4.18,0.05c0.05-1.99,0.1-3.63,0.05-5.68c1.32,0.01,2.99-0.02,4.31,0c0.15-1.81-0.08-3.51,0.06-5.33
		c1.58,0,2.86,0.25,4.43,0.1c0.15-1.63,0.08-3.65,0.36-5.22c-1.63,0-2.27,0-4.27-0.09c-0.03-1.33,0.06-2.37,0.07-4.04
		c-1.57,0-2.75-0.05-4.33-0.05c-0.06-2.18,0.23-3.91,0.17-6.09H212.69c-0.75-1.04-0.01-2.49,1.27-2.49
		c171.04-0.17,333.31,0.46,500.01-0.17c7.69-0.03,14.93-0.17,22.61-0.54c0.08,4-0.04,8.02,0.04,12.01c-2.6,0.09-5.42-0.2-8.02-0.11
		c0.04,0.85-0.11,1.44-0.07,2.29c11.63,0.38,22.69,0.33,34.21,0.21c0.06,0.67,0.08,1.11-0.04,1.89c-11.51,0.03-23.32-0.4-34.83-0.36
		c-0.03,2.91-0.45,6.07-0.48,8.98c0.02-0.13,5.52,0.07,8.11,0.16c-1.18,29.89-1.23,60.01-1.08,89.92
		c11.56,0.29,23.12,0.42,34.69,0.38c0.05-17.44,0.14-34.89,0.18-52.32c25.97,2.72,47.51,5.56,72.29,7.6
		c0.4-1.66-2.24-3.81-3.65-4.77c-6.3-4.24-13.15-7.65-20.34-10.1c-2.33-0.79-4.77-1.5-7.22-1.23c-2.21,0.24-4.27,1.27-6.46,1.6
		c-2.2,0.33-4.84-0.33-5.71-2.38c-0.87-2.05,1.8-4.79,3.5-3.35c-0.65-1.82,0.18-4.06,1.86-5.01c1.68-0.96,4.03-0.53,5.26,0.97
		c2.03-1.57,4.34,1.8,6.84,2.38c0.97,0.23,1.98,0,2.97-0.05c5.26-0.25,11.09,4.3,15.24,1.06c0.06-2.89-0.77-6.3-3.47-7.33
		c-1.63-0.62-3.45-0.15-5.19-0.2c-1.74-0.04-3.8-1.02-3.83-2.77c-0.02-1.19,0.92-2.19,1.1-3.36c0.44-2.9-3.61-4.25-6.51-3.79
		c-2.9,0.46-6.39,1.38-8.37-0.79c-1.79-1.97,1.7-8.44,3.06-6.66c0.63,0.83-0.27,1.99-1.28,1.72c-3.08-0.85-5.7-1.96-9.18-2.89
		c-1.66-0.44-3.5-0.63-4.63-2c-0.66-0.81-0.9-1.94-0.48-2.9c0.85-1.96,3.35-0.75,3.99-3.23c0.51-2-0.66-4.07-2.57-4.86
		c-3-1.23-6.34-0.1-9.45-0.75c-1.5-0.31-3.01-1.15-3.57-2.56c-0.57-1.42,0.41-5.37,2.46-4.01c0.89,2.38-3.8,1.56-4.42,0.12
		c-0.62-1.44,0.45-3.24,1.96-3.66c1.51-0.42,3.18,0.33,4.14,1.56c1.7-2.06,4.31-3.35,6.99-3.44l0,0c-1.24-0.92-0.42-2.86,1.11-2.64
		c1.38,0.21,2.85,0.61,4.2,0.51c2.52-0.19,4.19-3.01,2.99-5.23c-1.12-2.08-4.39-2.19-5.77-0.38c-1.58-1.85-3.81-3.14-6.21-3.58
		c-0.96-0.18-2.01-0.2-2.82,0.33c-0.82,0.54-1.22,1.51-1.72,2.36c-2.52,4.28-9.04,5.5-12.94,2.42c0.31-3,2.19-3.91,3.56-3.52
		c1.79,0.5,1.24,3.22-0.62,3.14c-2.13-0.1-4.83-0.2-6.21-1.01c-1.82-1.07-3.18-3.22-2.65-5.26c0.81-3.11,4.91-3.76,7.85-5.27
		c1.46-0.75,1.24-2.92-0.33-3.4l-0.08-0.02c-2.37-0.72-1.67-4.36,0.79-4.03c0.97,0.13,1.9,0.52,2.65,1.17
		c0.67,0.58,1.29,1.37,2.17,1.42c0.85,0.04,1.54-0.65,2.11-1.29l3.97-4.45c1.5-1.68,1.89-4.17,0.75-6.12
		c-1.97-3.38-6.13-1.93-9.34-0.75c-2.9,1.07-7.18,1.11-7.98-1.89c-0.41-1.56,0.41-3.17,1.76-4.04c2.6-1.67,5.71-0.92,8.55-0.83
		c0.8,0.03,1.61-0.13,2.27-0.58c3.21-2.16-0.73-6.97,1.5-9.51c0.69-0.79,1.8-1.09,2.53-1.84c1.94-2.03-0.06-5.61,1.18-8.12
		c1.57-3.17,4.19-1.17,7.38,0.38c2.3-2.46,6.4-4.43,8.36-2.66s1.95,5.02,0.62,7.3c3.07-0.69,6.5,1.4,7.29,4.45
		c0.22,0.86,0.26,1.77,0.61,2.59c1.12,2.6,5.91,3.17,6.21-1.19c-0.41-8.98-6.27-4.62-2.39-0.37c1.33,1.46,3.62,1.66,4.94,0.19
		c1.09-1.22,0.27-2.55,2.16-3.77c3.47-2.24,8.78,1.95,7.41,5.84c2.21,2.49,6.62-2.75,9.27-0.74c1.9,1.44,0.46,5.04,3.2,6.21
		c1.55,0.67,3.39-0.05,4.22-1.52c1.54-2.75-0.37-5.88-2.91-7.3c-2.22-1.24-4.83-1.5-7.33-1.93c-5.05-0.86-9.96-2.48-14.53-4.78
		c-0.67-0.34-1.24-0.89-1.51-1.59c-0.68-1.82,0.94-2.95,2.43-3.45c2.47-0.82,6.83-0.56,9.97,0.43c1.51,0.47,1.77,2.64,0.35,3.34
		c-2.49,1.23-4.04-4.87-3.32-6.27c0.89-1.74,3.04-2.39,4.98-2.7l0.06-0.01c2.58-0.41,3.56-3.61,1.65-5.39l-2.82-2.64
		c-0.93-0.87-1.94-2.13-1.35-3.26c0.3-0.58,0.95-0.89,1.55-1.16c2.3-1.03,4.6-2.05,6.9-3.08c-1.59-1.51-5.3-1.53-8.64-1.4
		c-2.32,0.09-4.37-1.58-4.71-3.88c-0.44-2.95-1.95-4.13-3.94-5.92c-0.8-0.71-1.66-1.58-1.62-2.65c0.05-1.22,1.22-2.03,1.98-2.99
		c1.51-1.9,0.89-4.69-0.7-6.43c-2.23-2.44-6.18,0.74-4.23,3.41c0.45,0.62,1.05,1.15,1.73,1.46c2.45,1.12,5.3,0.6,7.99,0.75
		c2.69,0.15,5.81,1.56,6.09,4.24c0.11,1.1-0.29,2.19-0.2,3.29c0.32,3.83,5.93,4.61,9.28,2.74l0.62,2.69
		c2.21-0.73,3.69-3.23,3.26-5.52c-0.25-1.31-1.09-2.46-2.21-3.18c-1.64-1.05-2.66-2.83-2.5-4.77l0.22-2.72
		c0.1-1.19,0.26-2.52,1.46-3.11c1-0.5,2.23-0.1,2.89,0.8c1.22,1.68,0.27,3.89-1.3,4.95c2.57,0.5,5.3,0.99,7.75,0.08
		s4.38-3.79,3.3-6.17c-0.4-0.88-1.14-1.57-1.52-2.46c-0.85-1.98,0.41-4.36,2.25-5.5c0.25-0.15,0.51-0.29,0.77-0.41
		c2.12-0.98,4.52,0.18,5.46,2.32c0.48,1.08,1.38,1.98,2.52,2.29c2.63,0.73,5.72-1.81,5.02-4.66c-0.23-0.92-0.28-1.91,0.11-2.78
		c0.62-1.37,1.72-1.59,2.89-1.23c1.83,0.58,3.01,2.4,2.93,4.32c-0.06,1.43,0.63,3.11,1.34,4.29"/>
	<path class="st23" d="M217.9,336.27c3.46-0.27,5.98-0.23,8.98-0.17c0.19,2.97-0.12,9.34-0.12,9.34l-8.87,0.05
		C217.9,345.48,217.9,338.25,217.9,336.27z"/>
	<path class="st23" d="M440.8,337.28c0,0,5.18-0.37,7.74-0.38c0.05,2.99,0.24,5.81,0.04,8.72c-1.59-0.01-7.6,0-7.6,0L440.8,337.28z"
		/>
	<path class="st23" d="M674.65,337.93c3.87-0.33,6.18,0.03,9.44-0.33c-0.08,2.57,0.03,5.68,0,8.25c0.01-0.49-9.48,0-9.48,0
		S674.38,340,674.65,337.93z"/>
	<path class="st23" d="M771.54,280.84c-2.4-0.71-4.24-2.79-5.16-5.12c-0.92-2.33-1.08-3.7-0.92-6.2c0.18-2.81-0.05-7.42,0.47-10.83
		c0.19-1.26,1.9-1.55,2.44-0.4c0.3,0.66,0.44,1.3,0.18,1.58c-0.65,0.7-1.75,0.67-2.7,0.6c-5.44-0.42-12.62-0.8-18.62-0.34
		c-1.42,0.11-1.63,2.14-0.26,2.53c1,0.28,1.98,0.45,2.53,0.44c7.21-0.13,16.07,0.89,23.22-1.01c8.86-2.36,13.37-13.04,22.44-14.39
		c0.06,1.62-1.92,2.43-3.52,2.74c-14.87,2.9-33.73,3.15-48.71,0.94c-0.78-0.12-1.57-0.07-2.33,0.15l-0.03,0.01
		c-1.48,0.42-1.28,2.6,0.26,2.71c8.13,0.59,20.14-2.3,27.43-5.07c3.78-1.36,7.56-2.71,11.34-4.06c4.65-1.59,9.37-3.61,14.33-3.9
		c0.53-0.03,1.11-0.03,1.43,0.54c0.41,0.72,0.02,1.67-0.74,2c-5.49,2.41-11.64,2.17-17.57,1.73c-9.01-0.68-17.76-0.79-26.67-2.27
		c-2.95-0.49-8.53-1.72-9.46,1.08c-0.21,0.64-0.01,1.39,0.53,1.79c0.74,0.54,1.69,0.52,2.58,0.47c17.85-1.08,28.81-8.46,46.35-11.93
		c0.74-0.15,1.55,0.24,1.78,0.96c0.26,0.81-0.3,1.25-0.84,1.59c-3.59,2.28-24.69-1.55-33.67-2.51c-4.15-0.44-9.66-1.24-15.23,0.37
		c-1.22,0.35-1.12,2.14,0.13,2.36c4.21,0.75,11.33,0.82,14.94-0.06c7.1-1.74,14.09-3.9,20.93-6.48c3.65-1.37,7.41-2.89,11.25-3.1
		c1.26-0.07,1.63,1.72,0.45,2.14c-1.11,0.39-2.46,0.47-3.64,0.43c-12.34-0.47-24.65-1.86-36.78-4.14c-1.53-0.29-3.12-0.59-4.64-0.23
		c-0.22,0.05-0.44,0.12-0.65,0.21c-1.6,0.65-1.17,3.07,0.55,3.09c14.1,0.2,28.1-8.45,41.88-6.63c0.91,0.12,0.96,1.42,0.06,1.62
		c-12.2,2.67-28.68-6.84-41.5-5.83c-0.55,0.04-1.16,0.17-1.71,0.38c-1.32,0.5-1.05,2.46,0.36,2.57c3.9,0.3,11.16-1.04,15-2.21
		c7.95-2.41,16.17-3.9,24.46-4.44c0.96-0.06,1.37,1.27,0.52,1.71c-1.64,0.86-3.97,0.56-5.87,0.57c-8.86,0.06-17.73-1.23-26.2-3.8
		c-2.5-0.76-5.17-1.19-7.54-0.44c-0.8,0.25-0.71,1.41,0.12,1.52c8.66,1.24,19.94-3.71,29.73-5.85c2.27-0.5,4.66-0.86,6.94-0.59
		c1.13,0.13,1.15,1.81,0.02,1.93c-1.78,0.19-3.92-0.2-5.67-0.5c-6.76-1.14-13.53-2.29-20.29-3.43c-2.25-0.38-4.69-0.61-6.87-0.04
		c-0.81,0.21-0.72,1.4,0.1,1.52c8.9,1.27,19.84-6.02,29.35-6.39c0.94-0.04,1.22,1.26,0.36,1.63c-3.81,1.61-9.4,0.27-13.8-0.79
		c-4.76-1.14-10-2.46-14.8-0.92c-0.6,0.19-0.56,1.06,0.06,1.16c4.35,0.71,9.17-0.12,13.18-1.79c3.84-1.6,8.74-5.27,12.23-5.23
		c1.24,0.02,1.32,1.91,0.08,2.05c-2.81,0.33-8.07-0.67-10.83-1.72c-4.11-1.56-8.59-3.45-12.74-2.01l-0.03,0.01
		c-1.11,0.39-0.78,2.04,0.38,1.98c4.73-0.23,9.42-1.14,13.89-2.7c3.29-1.15,8.28-3.45,10.11-2.04c0.35,1.95-5,1.38-7.33,0.23
		c-2.33-1.15-4.33-2.93-6.74-3.9s-5.61-0.85-7.11,1.28c3.43,1.38,7.29-0.07,10.61-1.69c3.32-1.62,7.75-4.22,10.5-2.91
		c0.95,2.23-4.79,0.92-7.23,0.62c-4.49-0.56-8.17-4.98-11.82-2.31c2.81,1.24,6.35,0.59,8.54-1.57c1.35-1.33,2.13-3.17,2.26-5.06
		c0.11-1.73-2.47-2.02-2.68-0.3c-0.02,0.16-0.03,0.32-0.04,0.47c-1.06,15.68-2.12,31.36-3.18,47.04
		c-1.21,17.83-2.41,35.68-2.36,53.56c0.01,2.96-0.38,6.57-2.6,8.19c-0.61,0.44-1.51,0.16-1.69-0.57c-0.01-0.04-0.02-0.09-0.03-0.13
		c-0.27-1.23,1.5-1.78,2.04-0.64c0.31,0.67,0.51,1.43,0.67,2.14c2.5,11.1,19.55,37.88,19.55,37.88s0.22,77.24,0.75,116.19
		c0.04,2.65-0.98,4.5-0.17,7.02c1.73-0.2,2.1-2.99,0.68-4s-3.54-0.36-4.66,0.98c-1.12,1.34-1.47,3.15-1.68,4.88
		c-0.14,1.13-0.22,2.34,0.31,3.34c0.53,1.01,1.9,1.65,2.85,1.03c-3.37-2-8.42,0.53-8.85,4.42c-0.15,1.41,0.27,2.94,1.38,3.82
		c1.11,0.88,2.94,0.85,3.81-0.26c-1.53-0.16-2.61,1.59-2.67,3.13c-0.15,3.5,3.28,6.72,6.77,6.34c-0.76,1.19-0.61,2.88,0.34,3.92
		c0.95,1.04,2.62,1.34,3.87,0.7c-0.17,0.9-0.33,1.85-0.04,2.72c0.29,0.87,1.2,1.61,2.08,1.37c0.77-0.21,1.66-1.04,2.19-0.44
		c0.2,0.23,0.2,0.56,0.22,0.86c0.14,2.31,1.9,4.43,4.15,4.99c2.25,0.56,4.79-0.5,5.99-2.48c-1.3,1.58-1.06,4.2,0.5,5.52
		c1.57,1.32,4.18,1.11,5.52-0.44c-0.61,1.8,1.07,3.73,2.93,4.11c1.87,0.38,3.77-0.3,5.55-0.98c-0.4,1.64,1.3,3.19,2.99,3.3
		c1.69,0.11,3.27-0.74,4.74-1.57c0.29,2.38,2.7,4.3,5.08,4.05c2.39-0.25,4.35-2.62,4.15-5.01c1.96,3.01,6.93,3.36,9.29,0.66
		c2.55,2.65,6.86,2.52,10.36,1.4c1.12-0.36,2.33-0.92,2.7-2.03c0.37-1.11-0.97-2.54-1.9-1.82c-0.34,1.4,1.43,2.3,2.83,2.64
		c2.31,0.56,4.77,1.11,7.02,0.34c2.25-0.76,4.04-3.4,3.01-5.54c-1.43,2.02,0.5,5.09,2.95,5.45c2.45,0.36,4.8-1.18,6.42-3.05
		c2.04-2.37,3.31-5.39,3.59-8.5c-1.71-0.31-2.32,2.2-2.08,3.92c0.49,3.45,2.16,7.57,5.64,7.82c0.27,0.02,0.62-0.05,0.68-0.31
		s-0.53-0.27-0.38-0.04"/>
	<path class="st23" d="M777.74,441.47c1.86-3.46,5.46-5.92,9.35-6.4c1.18-0.15,2.45-0.1,3.43,0.55c0.99,0.66,1.53,2.08,0.89,3.08
		c-0.25,0.78-1.61,0.36-1.71-0.45c-0.09-0.81,0.56-1.51,1.2-2.02c3.32-2.62,8.18-3.62,11.85-1.52c3.67,2.1,5.1,7.73,2.18,10.79
		c0.28-2.44,1.89-4.95,4.32-5.3c2.43-0.34,4.87,2.7,3.4,4.66c-0.67,0.59-1.15-0.93-0.74-1.71c1.49-2.81,4.22-5.03,7.36-5.55
		c3.14-0.51,6.61,0.87,8.24,3.61c1.63,2.74,1.03,6.69-1.54,8.58c-0.46-1.06,0.54-2.14,1.44-2.86c2.93-2.34,6.48-4.83,10.11-3.89
		c4.23,1.1,5.96,6.15,6.38,10.5c1.58-1.83,3.57-3.45,5.94-3.94c2.37-0.49,5.14,0.41,6.26,2.55c-0.57-3.33,1.39-6.93,4.51-8.25
		s7.06-0.23,9.06,2.49c1.16,1.58,1.07,4.58-0.89,4.74c-0.41-2.42,1.28-4.81,3.43-5.99c2.15-1.18,4.68-1.43,7.13-1.65
		c-0.42,0.16-0.84,0.32-1.27,0.47"/>
	<path class="st23" d="M796.54,456.23c0.44-12.79,0.87-25.73-1.85-38.24c-0.29-1.35-0.69-2.79-1.77-3.65
		c-1.94,3.55-0.63,8.52,2.82,10.64"/>
	<path class="st23" d="M813.25,466.59c0.28-14.02-0.07-28.05-1.04-42.04c-0.12-1.79-0.87-4.16-2.66-4.02
		c-1.02,4.25,0.66,9.03,4.12,11.71"/>
	<path class="st23" d="M836.71,467.95c1.38-15.14,1.73-30.38,1.05-45.57c-0.04-0.81-0.09-1.66-0.54-2.33
		c-0.45-0.67-1.45-1.04-2.09-0.56c-0.49,0.37-0.59,1.06-0.62,1.67c-0.17,3.64,0.85,7.32,2.86,10.36"/>
	<path class="st23" d="M828.22,461.12c2.46-14.46,1.44-29.49-2.94-43.49c-0.53-1.7-1.28-3.57-2.92-4.27
		c-0.34,3.42,1.23,6.97,3.99,9.01"/>
	<path class="st23" d="M859.23,462.21c3.55-12.62,7.13-25.52,6.44-38.61c-0.04-0.69-0.32-1.6-1.01-1.56
		c-0.39,0.02-0.67,0.37-0.87,0.71c-1.33,2.31-0.79,5.22,0.03,7.75c0.82,2.53,1.89,5.13,1.51,7.77"/>
	<path class="st23" d="M848.27,465.47c4.19-15.01,6.85-30.44,7.94-45.99c0.1-1.47,0.02-3.28-1.28-3.97c-2,1.44-1.95,4.48-1.09,6.8
		c0.86,2.31,2.31,4.48,2.47,6.94"/>
	<path class="st23" d="M870.98,465.34c6.2-11.21,9.83-23.83,10.55-36.62c0.02-0.31,0.02-0.65-0.17-0.9
		c-0.29-0.38-0.93-0.32-1.28,0.02s-0.47,0.83-0.54,1.31c-0.3,2.13,0.19,4.36,1.36,6.16"/>
	<path class="st23" d="M748.66,100.91c5.42,14.62-1.7,25.74-13.89,30.26c-12.19,4.52-25.25-0.27-30.26-13.89
		c-4.65-12.66,1.7-25.74,13.89-30.26C730.6,82.5,744.14,88.72,748.66,100.91z"/>
</g>
</svg>
