<?xml version="1.0" encoding="utf-8"?>
<!-- Generator: Adobe Illustrator 24.1.0, SVG Export Plug-In . SVG Version: 6.00 Build 0)  -->
<svg version="1.0" xmlns="http://www.w3.org/2000/svg" xmlns:xlink="http://www.w3.org/1999/xlink" x="0px" y="0px"
	 viewBox="0 0 900 600" style="enable-background:new 0 0 900 600;" xml:space="preserve">
<style type="text/css">
	.st0{fill:#D53119;}
	.st1{fill:#DF862C;}
	.st2{fill:#DFCF33;}
	.st3{fill:#018AC7;}
	.st4{fill:#028AC8;}
	.st5{fill:#5B4085;}
	.st6{fill:#E6E6E6;}
	.st7{fill:#EACE62;}
	.st8{fill:#D1E8B2;}
	.st9{fill:#B0E1B7;}
	.st10{fill:#DCE9B0;}
	.st11{fill:#FBD000;}
	.st12{fill:#D3E5C0;}
	.st13{fill:#9691C1;}
	.st14{fill:#EE7F00;}
	.st15{fill:#DE151C;}
	.st16{fill:#CCECF9;}
	.st17{fill:#898989;}
	.st18{fill:#F8D32B;}
	.st19{fill:#94C23B;}
	.st20{fill:#F15A24;}
	.st21{fill:#F14B94;}
	.st22{fill:#FBB03B;}
	.st23{fill:#99DDD8;}
	.st24{fill:none;}
	.st25{fill:#66CBEF;}
	.st26{fill:#8888D1;}
	.st27{fill:#FF1D25;}
	.st28{fill:#FFD800;}
	.st29{fill:#E6411C;}
	.st30{fill:#0090CF;}
	.st31{fill:#474D9B;}
	.st32{fill:#66C8EE;}
	.st33{fill:#D7D612;}
	.st34{fill:#ED830E;}
	.st35{fill:#DE0914;}
	.st36{fill:#EAD915;}
	.st37{fill:#59BAA7;}
	.st38{fill:#F09A14;}
	.st39{fill:none;stroke:#000000;stroke-width:0.9;stroke-linecap:round;stroke-miterlimit:10;}
	.st40{fill:none;stroke:#000000;stroke-width:0.9;stroke-linecap:round;stroke-linejoin:round;stroke-miterlimit:10;}
	.st41{fill:none;stroke:#000000;stroke-width:0.872;stroke-linecap:round;stroke-linejoin:round;stroke-miterlimit:10;}
</style>
<g id="Images">
</g>
<g id="Shading">
	<path class="st6" d="M207.94,244.97c-1.19,1.14-2.4,2.3-3.85,3.07c-1.77,0.94-3.78,1.27-5.7,1.85
		c-8.62,2.61-14.67,10.15-20.16,17.29c-5.31,6.9-10.66,13.87-14.32,21.76c-8.75,18.85-6.99,40.67-5.06,61.36
		c0.24,2.61-2.34,6.54-0.45,8.35c0.76-1.92,6.05-5.48,7.77-6.62c0.11,6.76,1.52,14.67,2.43,21.13c-1.4-8.28,3-16.45,7.28-22.63
		c3.31-4.78,8-9.14,8.59-14.93c0.73-7.23-5.32-13.67-5.32-20.94c0-7.66,8.09-14.22,15.58-12.63c1.23,5.73-0.21,11.66-1.89,17.28
		c-1.68,5.61-4.73,10.47-4.73,16.33c-0.01,7.36,4.47,14.31,9.95,16.39c-4.86-4.98-5.07-14.41-3.19-21.11
		c1.88-6.7,5.6-12.73,8.01-19.26c3.56-9.64,4.38-20.6,10.69-28.71c1.82-2.35,4.13-4.41,6.91-5.46c6.88-2.6,15.89,1.1,21.27-3.91
		c0.86-0.8,1.58-2,1.16-3.1c-0.38-1-1.51-1.43-2.41-2.01c-3.65-2.32-3.95-7.5-3.34-11.78c2.17-15.27,10.66-28.79,18.95-41.8
		c5.2-8.17,10.41-16.33,15.61-24.5c1.54-2.42,2.13-6.68-1.78-5.42c-2.2,0.71-6.01,6.23-7.83,7.98c-6.09,5.85-12.18,11.7-18.27,17.54
		C231.86,222,219.9,233.48,207.94,244.97z"/>
	<path class="st6" d="M233.3,303.87c-6.11,3.8-13.56,6.58-16.81,12.99c-1.88,3.71-1.98,8.02-2.83,12.08
		c-0.88,4.2-2.59,8.22-5.01,11.76c-1.76,2.57-3.89,4.9-5.42,7.62c-1.53,2.72-2.42,6.01-1.45,8.97c0.7-5.94,5.94-10.1,9.32-15.03
		c4.43-6.46,5.76-14.61,9.89-21.26c4.1-6.6,10.67-11.26,17.32-15.27c4.81-2.9,9.99-5.78,12.8-10.64c0.61-1.07,1.14-2.26,2.16-2.95
		c0.87-0.6,1.97-0.74,3.02-0.88c3.57-0.47,7.11-1.13,10.62-1.96c1.88-0.44,3.8-0.97,5.35-2.12c1.55-1.16,2.65-3.1,2.28-5
		c0.35,1.79-10.2,4.17-11.45,4.32c-3.44,0.42-9.76-2.11-12.52-0.96c-2.58,1.08-5.08,7.37-7.02,9.6
		C240.58,298.53,237.12,301.49,233.3,303.87z"/>
	<path class="st6" d="M155.6,345.07c-11.66-0.15-23.34,3.13-33.22,9.33c-10.78,6.77-19.14,16.7-27.31,26.46
		c-19.89,23.76-40.01,47.89-52.83,76.1c-2.84,6.24-5.35,13.08-4.1,19.82c2.03,10.98,12.92,17.66,22.74,22.96
		c9.43,5.08,18.86,10.16,28.28,15.23c3.68,1.98,7.53,4.01,11.71,4.15c7.24,6.45,17.23,6.5,25.58,11.43
		c9.86,5.82,15.47,16.67,23.58,24.74c2.39,2.38,5.1,4.57,8.32,5.56c3.71,1.14,7.69,0.58,11.53,0c4.23-0.63,7.81-2.73,7.49-7
		c1.32,3.99,6.18,7.65,12.11,2.73c-5.39-2.73-14.83-14.53-23.18-20.74c-5.18-3.85-11.27-6.25-17.12-8.99
		c-27.56-12.94-50.34-33.99-72.64-54.72c-4.46-4.15-9.3-9.23-8.7-15.29c0.38-3.82,2.89-7.05,5.3-10.04
		c10.98-13.61,21.95-27.22,32.93-40.82c3.97-4.93,8.05-9.95,13.43-13.28c7.85-4.86,17.46-5.57,26.6-6.85s18.87-3.67,24.87-10.68
		c6.2-7.25,6.85-18.14,3.38-27.03c-0.68-1.73-1.59-3.52-3.21-4.42C166.03,340.87,159.64,349.31,155.6,345.07z"/>
	<path class="st6" d="M168.78,408.28c-0.25,3.98-1.72,7.79-2.31,11.74s-0.1,8.44,2.85,11.13c-1.82-5.03-0.81-10.62,0.63-15.77
		c1.43-5.15,5.83-8.98,5.63-14.32c-0.12-3.08,1.11-5.59,0.87-8.66c-0.4-5.09-1.52-6.89,1.06-11.28c3.77,7.47,3.18,10.73,2.47,19.07
		c-0.27,3.16-0.87,6.32-0.65,9.49c0.22,3.17,1.41,6.46,3.99,8.3c-2.27-11.06-1.36-22.76,2.57-33.34c0.96,9.42,4.19,18.61,9.36,26.55
		c-3.38-7.93-3.17-16.87-4.78-25.35c-2.63-13.88-17.46-18.9-13.1-49.19c0.68,1.12-5.86,17.75-6.22,19.02
		c-0.82,2.92-1.78,5.79-2.88,8.62c-1.7,4.37-5.22,9.03-5.85,13.69C161.01,388.32,169.43,397.83,168.78,408.28z"/>
	<path class="st6" d="M224.44,434.52c2.83,28.02,8.18,57.48,12.82,85.26c0.52,3.09,1.09,6.3,2.89,8.87
		c7.86-0.52,15.67-1.83,23.27-3.89c-2.8-8.72,1.64-18.23,4.63-26.89c6.8-19.67,12.29-39.2,19.36-58.77
		c-2.7,1.05-4.18-0.33-7.07-0.24C246.39,439.95,224.52,435.6,224.44,434.52z"/>
	<path class="st6" d="M116.12,437.04c-0.14,2.68,0.63,5.31,0.77,7.99c0.16,3.02-0.48,6.01-1.18,8.95
		c-2.3,9.65-5.26,19.14-8.85,28.38c-0.17,0.44-0.35,0.92-0.25,1.39c0.09,0.44,0.4,0.79,0.71,1.11c6.49,6.89,14.77,12.08,23.8,14.92
		c-3.69-17.21-2.62-36.5,8-50.53c1.63-2.15,3.46-4.15,4.77-6.51c3.44-6.19,2.73-13.87,0.84-20.69c-1.9-6.83-4.88-13.39-5.8-20.41
		c-2.01,7.41-7.1,13.41-12.44,18.72C121.97,424.85,116.47,430.26,116.12,437.04z"/>
	<path class="st6" d="M156.96,553.03c-1.56-1.45-3.13-2.9-4.7-4.34c-15.06-13.89-30.39-27.97-48.7-37.18
		c-1.88-0.95-4.27-1.81-5.96-0.55c-1.01,0.75-1.42,2.05-1.73,3.27c-0.89,3.55-1.35,7.19-1.81,10.83c-1.1,8.67-2.2,17.33-3.3,26
		c-0.14,1.13-0.28,2.3,0.1,3.37s1.45,1.77,2.59,1.76c21.25-0.24,42.39-0.67,64.93-1.69C157.83,554.26,156.97,553.63,156.96,553.03z"
		/>
	<path class="st6" d="M173.21,443.3c3.34-3.38,7.55-6.06,9.86-10.21c0.52-0.94,0.96-1.96,1.79-2.65c0.85-0.7,1.99-0.94,2.97-1.44
		c1.9-0.96,3.15-2.81,4.57-4.39c1.43-1.58,3.45-3.31,5.49-2.71c0.83,0.24,3.44,4.26,4.08,7.24c7.01,32.29,9.48,65.48,13.6,98.42
		c1.13,9.06,2.65,23.34,3.3,23.66c2.76,0.08,2.99-2.59,3.59-5.79c0.54-2.88,2.11-3.68,4.89-4.59c-5.6-27.05-10.43-54.89-14.5-82.21
		c-2.19-14.7-4.5-30.25-13.86-41.79c-0.88-1.08-2.1-2.23-3.46-1.94c-0.69,0.14-1.25,0.63-1.84,1.02c-1.56,1.05-3.45,1.48-5.14,2.3
		c-2.64,1.28-4.71,3.48-6.71,5.62c-3.85,4.11-7.69,8.23-11.54,12.34c-2.25,2.4-4.59,4.98-5.24,8.2c-0.34,1.67,0.28,7.09,2.98,6.29
		C169.61,450.22,171.85,444.69,173.21,443.3z"/>
	<path class="st6" d="M345.88,103.93c-9.54-1.14-19.59-2.2-28.41,1.6c-7.06,3.04-12.5,8.87-17.29,14.88
		c-7.99,10.03-15.01,21.63-15.68,34.44c-0.22,4.21,0.26,8.42,0.73,12.61c0.28,2.48,0.56,4.96,0.84,7.44
		c0.13,1.18,0.38,2.55,1.43,3.12c2.28,6.97,5.03,13.82,8.62,20.22c1.32,2.36,2.81,4.71,4.95,6.36s5.08,2.5,7.61,1.56
		s4.26-4.04,3.17-6.52c3.77,12.21,3.87,25.54,0.29,37.81c-9.64,8.2-19.56,15.48-30.66,21.56c-2.54,1.39-5.18,2.79-6.99,5.05
		c-1.81,2.26-2.55,5.66-0.92,8.05c0.99,0.19,1.17,3.07,2.15,3.26c-0.26,4.42,0.28,6.16,0.01,10.58
		c10.38-11.04,20.76-22.09,31.14-33.13c2.85-3.04,5.74-6.1,9.17-8.46c2.21-1.52,4.71-2.82,6.17-5.07c2.75-4.26,0.67-9.92,1.48-14.92
		c1.94,2.46,5.19,3.82,8.3,3.48c-5.88-10.49-9.96-21.98-11.99-33.83c-0.32-1.88-0.59-3.85,0.02-5.66c0.57-1.66,1.82-2.99,3.11-4.18
		c6.53-5.96,14.96-9.52,21.57-15.4c7.13-6.34,12.65-15.62,21.96-17.67c-3.28-3.04-8.49-2.87-12.65-1.21
		c-4.15,1.66-7.71,4.52-11.71,6.51c-4,1.99-8.94,3.03-12.86,0.88c2.89,0.32,5.65-1.44,7.53-3.67c1.87-2.22,3.1-4.91,4.71-7.33
		c4.68-7.04,12.82-11.65,21.26-12.06c0.63-0.81-0.65-1.72-1.64-1.96c-5.79-1.36-11.58-2.72-17.36-4.08
		c-5.28-1.24-10.83-2.48-16.06-1.02c6.02-3.49,12.03-6.99,18.05-10.48c-12.23-3.96-25.85-3.46-37.75,1.39
		C319.76,109.7,331.74,106.03,345.88,103.93z"/>
	<path class="st6" d="M360.87,195.3c-0.63-0.1-0.93-0.82-1.12-1.43c-1.43-4.57-3.81-9.46-8.34-11.02c-1.44-0.5-2.98-0.61-4.5-0.71
		c-3.21-0.22-6.42-0.44-9.63-0.66c-0.11-0.29-0.22-0.57-0.32-0.86c-0.35-0.93,17.49-6.91,20.86-3.2c1.7,1.87,1.64,5.27,2.11,7.58
		C360.16,186.14,363.96,195.78,360.87,195.3z"/>
	<path class="st6" d="M258.7,335.5c0.33,1.53,0.78,3.36-0.34,4.45c-0.71-0.52-1.2-1.28-1.84-1.88c-1.95-1.84-4.98-1.96-7.24-3.4
		c-2.15-1.36-3.42-3.82-3.91-6.32c-0.49-2.5-0.29-5.08-0.09-7.62c2.1,0.12,4.01-1.09,5.9-2.03c1.89-0.93,4.26-1.57,6.02-0.41
		c0.62,0.42,1.1,1.02,1.69,1.48c3.32,2.6,2.05,1.72,0.51,5.99C258.27,328.87,258.01,332.28,258.7,335.5z"/>
	<path class="st6" d="M366.87,206.74c-1.23,1.82-3.56,2.43-5.6,3.23c-2.43,0.95-4.69,2.33-6.64,4.06c-1.15,1.02-2.21,2.18-2.99,3.5
		c-1.5,2.55-1.95,5.65-3.62,8.09c-0.16,0.24-0.36,0.48-0.64,0.56c-0.71,0.19-1.12-0.76-1.23-1.48c-0.47-3.21-0.95-6.41-1.42-9.62
		c-0.05-0.33-0.1-0.66-0.03-0.98c0.09-0.4,0.34-0.74,0.59-1.06c2.19-2.86,4.99-8.91,8.76-8.67c1.26,0.08,3.15,1.69,4.58,1.99
		C361.22,206.89,364.23,206.62,366.87,206.74z"/>
	<path class="st6" d="M258.57,374.43c4.08-0.02,8.14-1.14,11.66-3.21c5.13-3.02,8.88-7.86,12.5-12.59
		c8.79-11.47,17.57-22.94,26.36-34.41c3.66-4.78,7.34-9.59,10.16-14.91c2.16-4.08,3.82-8.44,6.38-12.27
		c8.25-12.37,22.73-16.3,37.37-18.93c0.9,0.55,2.18,1.28,1.53,2.12c-0.65,0.83-1.7,1.23-2.69,1.61c-7.73,2.93-15.18,6.6-22.21,10.95
		c-1.93,1.2-4,2.69-4.42,4.92c2.4,1.16,5.24,0.2,7.72-0.76l19.38-7.51c1.18-0.46,2.09,1.11,1.1,1.89c-1.04,0.82-2.42,1.42-3.65,1.9
		c-5.86,2.27-11.32,5.57-16.06,9.7c-0.5,0.44-1.02,0.92-0.91,1.72c0.12,0.87,0.9,1.49,1.77,1.6c1.34,0.16,2.52-0.64,3.63-1.35
		c5.83-3.74,12.69-5.87,19.61-6.1c1.11-0.04,2.64,0.42,2.46,1.52c-6.24,3.09-12.36,6.4-18.37,9.92c-2.71,1.59-3.77,4.02-3.26,7.12
		l18-5.65c0.16,2.18-2.29,3.52-4.34,4.28c-5.02,1.87-8.01,4.07-14.51,8.09c-2.73,1.69-6.59,3.77-9.27,5.54
		c-1.96,1.29-3.69,2.9-5.41,4.51c-4.95,4.61-9.96,9.29-13.47,15.07c-4.22,6.96-6.01,11.09-9.31,18.53c-0.43,0.97-0.91,1.96-1.7,2.68
		c-1.15,1.05-2.77,1.37-4.3,1.68c-4.8,0.98-10.09,2.79-12.16,7.23c-0.53,1.14-0.74,2.72,0.59,3.34c0.74,0.35,1.63,0.22,2.33-0.22
		l16.62-10.36c4.68-2.92,9.37-5.84,13.76-9.18c4.11-3.13,8.01-6.69,10.7-11.1c0.66,6.14-4.78,11.06-9.77,14.71
		c-2.76,2.02-5.63,4.11-7.26,7.12c-0.83,1.53-1.28,3.23-1.74,4.91c-1.16,4.3-2.31,8.61-3.47,12.91c9.99,5.07,21.79,4.57,32.73,6.99
		c0.77,0.17,1.64,0.42,1.72,1.44c0.08,1.06-0.87,1.91-1.94,1.87l-24.66-0.86c-0.06,1.75,1.35,3.26,2.95,3.95
		c1.61,0.69,3.4,0.76,5.14,0.93c6.02,0.61,11.88,2.7,16.92,6.05c1.98,1.31,3.98,3.07,4.25,5.42c-1.78,1.73-4.67,1.32-7.07,0.7
		c-6.05-1.56-11.97-3.64-17.66-6.21c-1.41-0.64-2.93-1.33-4.47-0.71c-0.92,0.37-1.56,1.31-1.35,2.27c0.27,1.2,1.58,1.59,2.71,1.85
		c8.48,1.99,16.62,5.4,24,10.03c0.64,0.4,1.33,0.89,1.51,1.63c0.25,1.01-0.63,2.01-1.63,2.28c-1,0.27-2.06,0.01-3.06-0.26
		c-10.22-2.73-20.21-6.32-29.84-10.7c-0.09-0.22-0.93-0.31-0.97-0.08c-0.04,0.23,0.12,0.44,0.28,0.62c0.87,1.02,1.75,2.04,2.62,3.06
		c0.85,0.99,1.71,1.98,2.56,2.97c1.92,2.23,3.87,4.48,6.29,6.15c4.16,2.88,9.5,3.92,13.19,7.37c0.82,0.77,1.41,2.35,0.38,2.79
		c-0.26,0.11-0.55,0.1-0.83,0.08c-1.14-0.07-2.27-0.14-3.41-0.21c-11.03-0.69-20.82-9.34-30.72-14.26
		c-4.01-1.99-8.05-4.01-11.49-6.87c-2.11-1.76-3.97-3.82-6.24-5.38c-4.21-2.9-9.9-4.17-12.43-8.61c-2.39-4.18-0.94-9.43,0.74-13.93
		c1-2.67,2.77-5.8,5.62-5.63c1.25,0.08,2.27-1.61,3.27-2.31c0.73-0.51,1.17-1.4,1.02-2.28c-0.22-1.33-1.44-1.72-2.55-1.81
		c-2.7-0.22-5.32,0.87-7.81,1.93c-3.29,1.4-6.58,2.81-9.88,4.21c-0.3-2.29-0.62-4.65-1.8-6.63c-1.27-2.14-3.58-4.05-3.23-6.51
		C258.55,374.06,258.84,373.18,258.57,374.43z"/>
	<path class="st6" d="M280.79,395.22c-1.63,3.49-3.15,7.4-2.07,11.1c0.81,2.77,2.94,4.91,5,6.93c3.04,2.98,6.17,6.03,10.07,7.74
		c-0.84,3.2-1.84,6.36-3.01,9.46c-0.42,1.1-0.88,2.25-1.78,3.01c-0.91,0.77-2.13,1.04-3.31,1.18c-7.56,0.91-15.49-2.84-19.59-9.25
		c-3.22-5.04-4.06-11.21-4.5-17.17c-0.62-8.37-0.6-16.78,0.04-25.15c0.05-0.66,0.11-1.35,0.41-1.94c0.48-0.98,1.5-1.55,2.46-2.06
		c7.23-3.86,14.53-7.59,21.89-11.19c-0.7,0.31,1.58,12.15,1.18,13.93C286.59,386.34,282.77,390.99,280.79,395.22z"/>
	<path class="st6" d="M293.47,297.05c0.11,2.89,0.22,5.82,1.04,8.6c1.69,5.72,6.52,10.4,12.3,11.9c0.9,0.23,1.85,0.39,2.75,0.18
		c1.03-0.25,1.88-0.96,2.67-1.67c3.61-3.28,6.68-7.15,9.07-11.4c1.81,3.36,3.62,6.71,5.43,10.07c0.43,0.79,0.87,1.64,0.81,2.54
		c-0.04,0.61-0.31,1.17-0.58,1.72c-9.52,19.33-25.97,34.28-42.88,47.63c-6.08,4.8-13.27,9.72-20.9,8.38
		c-5.87-1.03-10.41-5.53-14.55-9.81c1.37-3.12,4.28-5.21,6.81-7.49s4.92-5.29,4.63-8.69c1.89,0.9,4.26,1.34,5.98,0.15
		c2.64-1.82,1.94-5.79,1.6-8.98c-0.57-5.45,0.91-11.09,4.09-15.56c1.24-1.73,2.79-3.5,2.74-5.63c-0.02-0.83-0.29-1.63-0.44-2.44
		c-0.39-2.21,0.17-4.47,0.61-6.68c1.35-6.66,1.73-13.52,1.12-20.28c-0.14-1.55-0.33-3.12-0.04-4.65c0.38-2,1.56-3.74,2.76-5.39
		c3.56-4.9,8.02-11.57,13.19-14.8c2.33,2.75,1.04,12.29,1.18,16.02C293.06,286.19,293.27,291.62,293.47,297.05z"/>
	<path class="st6" d="M344.16,272.38c-0.22-0.38-0.66-0.83-1.02-0.58c-0.12,0.08-0.19,0.23-0.24,0.37
		c-0.38,1.13,0.14,2.34,0.64,3.42c0.89,1.91,1.79,3.82,2.68,5.73c0.1,0.22,0.22,0.45,0.42,0.58c0.24,0.15,0.54,0.12,0.82,0.07
		c1.48-0.24,3.32-0.73,4.06-1.98C348.72,277.67,346.06,275.6,344.16,272.38z"/>
	<path class="st6" d="M324.66,286.57c2.82-0.93,11.14-1.76,13.09-0.79c2.92,1.45-4.47,8.33-6.12,10.44
		c-1.9,2.43-3.83,4.93-4.76,7.86c-0.07,0.23-0.15,0.48-0.33,0.64c-0.18,0.16-0.43,0.21-0.67,0.25c-3.89,0.66-7.83,1-11.77,1.02
		c0.89-2.34,2.3-4.47,4.1-6.2c-0.94,0.73-2.31-0.6-2.12-1.77c0.19-1.17,1.19-2,2.05-2.83c1.24-1.21,2.27-2.62,3.04-4.18
		c0.76-1.53,1.35-3.31,2.83-4.18C324.15,286.76,324.38,286.66,324.66,286.57z"/>
	<path class="st6" d="M327.13,285.89c-2.15-0.26-4.54-0.69-5.8-2.46c-0.12-0.16-0.22-0.34-0.24-0.54c-0.04-0.61,0.71-0.91,1.32-1.02
		c7.03-1.28,14.12-2.23,21.21-3.09c1.25-0.15,2.69-0.24,3.6,0.63c1.09,1.04,0.8,2.87,0.13,4.22c-1.67,3.37-5.67,6.16-9.51,5.82
		C340.99,285.91,328.86,286.1,327.13,285.89z"/>
	<path class="st6" d="M421.76,213.82c-0.31,6.13-2.42,12-4.46,17.79c-9.73,27.55-18.53,55.44-26.38,83.59
		c-0.31-1.31-0.62-2.61-0.93-3.92c-1.26,1.27-2.77,2.29-4.41,3c-0.41,2.06,0.15,4.29,1.5,5.9c-0.38-1.11-1.9,0.18-2.34,1.27
		c-0.98,2.43-3.05,4.39-5.54,5.22c1.75,0.39,3.66,0.02,5.14-1c-0.63,0.98-0.9,2.19-0.75,3.35c1.04-0.58,2.09-1.16,3.13-1.75
		c-0.08,0.68-0.14,1.41,0.2,2.01c0.34,0.6,1.25,0.9,1.72,0.4c-0.96,3.79-2.67,7.39-5.02,10.52c-3.14,4.2-6.96,7.8-10.48,11.69
		c-2.37,2.62-4.77,5.3-6.22,8.52c-1.77,3.94-1.97,8.38-2.45,12.67c-0.62,5.56-1.78,11.11-4.1,16.19c-1.41,3.09-3.24,5.98-4.44,9.15
		c-2.67,7.05-2.04,14.87-1.38,22.38c0.27,2.99,0.55,6.06,1.79,8.79c1.22,2.68,3.29,4.91,4.52,7.59c2.07,4.55,1.45,9.82,0.76,14.77
		c0.5,0.8,1.6-0.31,1.81-1.23c1.71-7.62,2.05-15.53,1.02-23.27c-0.61-4.6-1.71-9.24-0.96-13.82c1.1-6.69,6.49-12.47,13.09-14.03
		c-6.51,8.85-5.83,20.92-4.51,31.83c1.31,10.91,2.8,22.69-2.57,32.28c3.55-2.9,5.16-7.6,5.64-12.16c0.48-4.56,0.01-9.17,0.26-13.75
		c0.43-7.88,3.06-15.63,7.52-22.14c-5.01,11.73,0.24,24.28-1.25,36.95c-1.41,11.99-9.25,23.37-6.87,35.2
		c0.41,2.01,2.19,4.43,3.97,3.42c-1.84-4.14-2.91-8.79-1.98-13.24c0.72-3.45,2.57-6.53,4.17-9.66c3.72-7.26,6.26-15.13,7.48-23.19
		c1.64,4.11,2.71,8.15,1.6,12.43c-1.87,7.21-7.58,14.17-5.22,21.23c0.77,2.31,2.34,4.24,3.64,6.29c3.02,4.74,4.72,10.32,4.86,15.95
		c3.76-8.73-4.5-18.43-3.15-27.84c0.62-4.28,3.18-8.05,4.13-12.27c1.82-8.14-2.61-16.39-2.55-24.73
		c0.09-11.47,8.57-21.59,8.76-33.06c0.22-13.36-10.87-25.75-8-38.8c2.17-9.86,12.08-18.28,9.6-28.06c-0.63-2.5-2.05-4.72-2.85-7.18
		c-2.15-6.66,0.59-13.94,4.41-19.8c3.82-5.86,8.77-11.02,11.77-17.33c3.14-6.59,3.96-14.01,4.61-21.28
		C421.77,251.67,421.76,232.91,421.76,213.82z"/>
	<path class="st6" d="M421.89,261.1c1.87-9.87,5.03-20.65,13.63-25.83c-3.67-7.74-8.31-15.02-13.78-21.61
		c-2.6,9.63-5.2,19.25-7.79,28.88c-0.86,3.2-1.74,6.49-1.46,9.79c0.4,4.73,3.1,8.91,4.67,13.39c1.53,4.37,0.6,9.16,1.81,13.24
		C420.63,273.38,420.79,266.9,421.89,261.1z"/>
	<path class="st6" d="M416.88,329.65c-6.17,2.79-10.25,9.62-9.81,16.37c0.19,2.83,1.09,5.61,1.04,8.44
		c-0.1,5.17-3.32,9.79-4.05,14.9c-0.85,5.9,1.76,11.88,5.66,16.4c3.89,4.52,8.98,7.81,14,11.03c1.53-2.43-0.01-5.56-1.54-7.99
		c-1.71-2.72-3.42-5.44-5.13-8.16c-1.82-2.9-3.72-6.24-2.83-9.54c0.97-3.63,5-5.85,5.83-9.51c0.56-2.5-0.51-5.04-1-7.56
		c-1.61-8.25,4.1-17.25,12.24-19.32c4.84-1.23,10.32-0.34,14.53-3.02c1.43-0.91,2.9-2.27,4.56-1.92c0.86,0.18,1.56,0.8,2.37,1.12
		c4.12,1.6,9.09-4.75,12.44-1.88c0.3-3.6,3.08-6.85,6.59-7.7c-0.32-0.66-1.36-0.78-1.83-0.22c-1.41-1.4-2.79-1.08-4.73-0.66
		c-1.94,0.42-4.42,0.49-5.42-1.22c-0.74,2.37-4.59,2.81-5.85,0.68c-0.8,1.28-1.86,2.4-3.08,3.29c-0.67-0.38-0.96-1.33-0.62-2.02
		c-1.59,1.77-3.45,3.31-5.48,4.55c0.34-0.79,0.5-1.66,0.47-2.52c-1.33,1.16-2.85,2.09-4.48,2.77c0.21-0.82,0.41-1.63,0.62-2.45
		c-1.09,1.04-2.36,1.9-3.74,2.52c-0.29-1.04-0.57-2.08-0.86-3.11c0.15,1.28-1.21,2.32-2.5,2.33c-1.29,0.02-2.46-0.67-3.56-1.34
		c-0.23,0.86-0.45,1.71-0.68,2.57c-1.11-1.54-3.88-1.35-4.75,0.34c-0.49,0.94-1.19,2.45-2.04,1.82c-0.21-0.15-0.31-0.41-0.49-0.61
		C421.22,326.28,418.42,331.4,416.88,329.65z"/>
	<path class="st6" d="M285.56,497.01c-1.3,4.71-2.43,9.62-1.7,14.45c0.73,4.83,3.73,9.61,8.38,11.11c-7.7,0.44-15.4,0.89-23.1,1.33
		c-1.97,0.11-4.3,0.07-5.45-1.54c-0.98-1.37-0.62-3.26-0.22-4.9c1.7-6.84,3.46-13.67,5.29-20.48c7.8-28.99,16.93-57.93,32.01-83.88
		c3.73,3.62,12.56,11.47,12.07,17.14c-0.25,2.9-3.29,6.87-4.53,9.48c-1.78,3.75-3.54,7.51-5.27,11.28
		C296.21,465.92,289.92,481.16,285.56,497.01z"/>
	<path class="st6" d="M231.4,555.07c-3.33-2.26-2.43-7.96,0.92-10.18c0.54-0.36,1.17-0.71,1.39-1.32c0.16-0.45,0.06-0.94-0.09-1.39
		c-0.72-2.12-2.49-3.69-3.63-5.62c-1.15-1.92-1.46-4.79,0.37-6.09c0.84-0.59,1.91-0.69,2.93-0.79c9.44-0.93,18.62-3.52,27.92-5.39
		c16.69-3.36,33.75-4.4,50.74-5.44c4.48-0.27,9.11-0.53,13.34,0.96c-16.58,3.92-33.15,7.88-49.7,11.89
		c-1.45,0.35-2.98,0.74-4.03,1.8c-1.05,1.06-1.36,3-0.23,3.97c0.87,0.75,2.16,0.63,3.3,0.48c14.33-1.96,28.31-3.87,42.76-4.28
		c6.36-0.18,10.22-2.73,13.95,0.22c6.71,5.3,15.34,13.74,17.29,22.06c-2.22-0.07-8.31,0-10.81,0.02c-0.76-3.32-1.27-7-3.11-9.86
		c-1.84-2.87-4.96-5.15-8.36-5.04c2.74,5.2,6.58,9.29,11.29,12.8c-0.98,0.21,1.45,1.99,0.45,2.08c-2.86,0.26-7.51,0.11-10.17,0
		c-5.6-0.23-11.11,0.23-16.71,0c-2.84-0.12-7.64,0-8.72,0c-3.5,0.01-8.06,0.99-10.79-1.1c-3.2-2.45-5.11-6.47-7.66-9.58
		c2.02,3.27,3.44,6.91,4.2,10.68c-7.35,0-10.49,0.02-18.25,0c-7.49-0.02-16.12,0.17-23.61,0.01c-5.24-0.11-9.27-0.81-14.51-0.92
		c-0.91-0.02-2.18-0.59-1.77-1.4C229,553.69,232.51,555.02,231.4,555.07z"/>
	<path class="st6" d="M385.35,232.97c-1.34,8.86,1.57,17.73,3.72,26.44c3,12.16,4.57,24.67,4.65,37.2
		c-6.91,7.57-15.71,12.6-25.62,15.24c1.95,0.75,2.46,3.79,0.87,5.14c-0.66,0.56-1.52,0.81-2.29,1.21c-4.21,2.2-4.54,7.99-4.31,12.74
		c5.88,4.51,12.71,7.79,19.91,9.57c3.28-8.11,7.93-4.37,10.5-12.73c5.67-18.4,9.28-50.36,3.28-68.65c-2.59-7.9-7.34-15.8-5.55-23.92
		C388.59,234.65,387.27,233.51,385.35,232.97z"/>
	<path class="st6" d="M497.78,294.11c-3.41,5.04-3.63,11.62-5.45,17.43l26.25-13.61c0.24,3.64-1.54,7.35-4.54,9.44
		c9.37,0.91,18.9,0.19,28.04-2.1c-2.01,2.23-3.21,5.18-3.31,8.19l24.28-0.68l-2.53,2.59l7.39,1.03c-5.89,4.37-6.07,13.12-4.48,20.28
		s4.4,14.53,2.48,21.6c-1.91,7.04-8.06,12.06-11.4,18.54l10.14-8.27c-3.58,5.85-9.01,10.3-14.34,14.63
		c-1.49,1.22-2.99,2.43-4.48,3.65c-4.34,3.53-8.69,7.07-13.17,10.43c-9.11,6.84-18.88,13.04-29.73,16.53
		c9.98,0.15,19.98-2.24,28.8-6.89c5.51-2.91,10.53-6.65,15.52-10.38c7.21-5.39,14.43-10.78,21.64-16.17
		c1.22-0.91,2.53-1.86,4.05-2.02c1.39-0.14,2.76,0.41,4.04,0.96c9.99,4.29,19.57,9.53,28.58,15.62
		c6.88,4.65,13.83,10.37,16.02,18.38c3.37,12.33-5.29,27.26,2.4,37.47c1.26,1.68,3.01,3.44,2.59,5.5c-0.24,1.18-1.17,2.08-1.98,2.97
		c-9.89,10.92-6.5,28.2-11.49,42.06c-1.57,4.36-4,8.42-5.18,12.9c-0.59,2.24-0.81,4.69-0.46,6.98c0.5,3.33-1.47,6.48-4.5,7.96
		c-2.77,1.35-4.72,3.49-4.2,6.75c0.47,2.93,2.78,5.22,5.66,5.94l20.9,5.23c0.49,0.12,1.14,0.18,1.37-0.27
		c0.23-0.45-0.83-0.72-0.64-0.25c11.08-36.68,20.62-64.52,19.02-97.89c-0.29-6.02-0.55-12.54-1.25-18.53
		c-0.78-6.75-1.58-13.55-3.59-20.05c-2.29-7.4-9.52-16.95-15.83-21.45c-9.16-6.53-19.89-11.1-30.18-15.59
		c-5.5-2.39-11-4.79-16.49-7.18c-0.78-0.34-1.6-0.71-2.11-1.4c-1.13-1.53-0.48-4.26-2.2-5.07c0.2,0.52,0.41,1.04,0.61,1.56
		c0.99,0.72,1.48-0.95,2.36-1.85c0.87-0.88,1.59-1.87,2.24-2.92c1.69-2.75,4.18-4.91,5.97-7.59c3.13-4.7,3.85-10.58,4.01-16.23
		c0.22-7.49-0.36-15.01-1.75-22.38c-0.73-3.92-2.65-7.49-5.3-10.47c-2.96-3.33-5.07-7.61-8.39-10.77
		c-4.5-4.29-10.77-6.12-16.87-7.34c-10.3-2.06-20.96-2.79-31.3-0.94S501.91,288.01,497.78,294.11z"/>
	<path class="st6" d="M602.97,529.14c-10.75,2.67-23.32,3.73-32.75-2.08c-6.03-3.72-11.44-6.13-18.25-13.12
		c-2.64-2.71-5.07-7.42-4.63-11.18c0.4-3.46,4.03-5.43,7.16-6.96c1.6-0.78,3.47-2.25,2.85-3.92c-0.5-1.34-2.25-1.63-3.69-1.62
		c-4.46,0.05-8.91,0.91-13.07,2.54c-2.08,0.82-4.13,1.83-6.36,2.09c-2.95,0.34-5.87-0.7-8.7-1.61c-8.96-2.88-18.29-4.61-27.68-5.14
		c-6.97-0.39-13.96-0.13-20.94,0.14c-1.89,0.07-4.25,0.48-4.77,2.3c3.31,2.42,7.62,2.83,11.51,4.13
		c8.23,2.74,14.53,9.44,22.36,13.19c7.26,3.48,16.23,4.73,21.03,11.2c3.14,4.23,7.65,6.57,11.39,10.28
		c2.49,2.47,4.99,4.95,7.13,7.73c2.64,3.44,4.71,7.3,7.43,10.68c2.72,3.38,6.24,7.03,10.58,7.07c20.28,0.15,40.01,0.41,60.33,0.42
		c1.64-6.77,3.73-5.49,3.67-11.46c-0.01-1.19-4.08-8.62-4.95-9.44c-0.65-0.61-1.58-0.77-2.46-0.9
		C613.39,532.46,609.63,527.48,602.97,529.14z"/>
	<path class="st6" d="M351.62,555.62c-1-9.38-7.09-18.07-15.57-22.21c-1.48-0.72-3.07-1.34-4.24-2.51
		c-1.93-1.92-2.31-4.85-3.09-7.46c-0.78-2.61-2.58-5.43-5.31-5.5c-4.49-0.11-10.14-1.19-13.76,1.46c-2.58-2.77-5.7-5.32-6.8-8.93
		c-1.55-5.09,1.39-10.35,4.03-14.97c8.89-15.53,15.56-32.2,22.21-48.81c0.17-0.44,0.35-0.94,0.12-1.35
		c-0.22-0.41-1.03-0.39-1.03,0.08c0.72-0.27,2.87-0.31,3.59-0.58c3.41,5.21,3.96,12.17,1.42,17.86c4.13-2.37,7.48-6.08,9.41-10.44
		c1-2.26,1.63-4.7,2.97-6.77c1.75-2.72,4.53-4.57,6.86-6.81c2.33-2.24,4.35-5.31,3.81-8.49c-0.2-1.21-0.77-2.35-0.87-3.57
		c-0.12-1.42,0.39-2.82,0.9-4.16c4.91-12.84,11.48-26.07,23.33-33.04c2.47,8.13,4.94,16.27,7.41,24.4c0.34,1.11,0.68,2.25,0.67,3.41
		c-0.02,2.73-1.91,5.02-3.21,7.42c-2.55,4.72-2.85,10.59-0.8,15.55c2.05,4.96,6.41,8.9,11.55,10.44c1.45,0.43,3.04,0.74,4.07,1.85
		c1.04,1.11,1.22,2.74,1.69,4.19c1.93,6.01,8.66,8.88,14.75,10.53c7.84,2.12,15.91,3.42,24.02,3.89c0.43,3.61,0.13,7.31-0.87,10.81
		c-4.39-0.18-8.8,0.12-13.13,0.88c0.15,1.52,2.1,2.02,3.62,2.14c5.31,0.41,10.63,0.82,15.94,1.23c0.75-0.38-0.5,0.25-0.66,1.07
		s-0.89,1.39-1.56,1.9c-12.78,9.55-23.6,21.71-31.61,35.5c-1.3,2.24-2.36,5.5-0.3,7.07c4.63-5.47,9.27-10.94,13.9-16.41
		c1.08-1.27,2.65-2.68,4.19-2.03c-1.51,7.71-3.02,15.41-4.53,23.12c-0.48,2.44-0.63,5.6,1.58,6.73c1.34-9.86,3.01-20.44,9.93-27.6
		c-0.98,8.3-1.96,16.59-2.94,24.89c-0.14,1.19-0.28,2.44,0.14,3.57c0.41,1.13,1.56,2.09,2.74,1.86c0.59-10.18,3.77-20.21,9.14-28.88
		c3.34,7.85-1.35,16.94,0.16,25.35c1.04-1.08,2.09-2.15,3.13-3.23c-0.79,1.48-1.58,2.97-2.37,4.45c0.45-0.5,0.19-1.44-0.45-1.64
		c0.15,4.47,0.3,8.94,0.45,13.4C412.48,556.02,381.76,555.29,351.62,555.62z"/>
	<path class="st6" d="M437.71,555.5c-1.2-1.91,5.21-5.14,6.1-7.21c0.88-2.08,2.28-3.9,3.26-5.93c2.54-5.23,2.21-11.38,3.96-16.93
		c2.84-9.02,10.74-15.36,18.22-21.14c4.91,3.95,9.83,7.9,14.74,11.84c2.5,2.01,5.15,4.08,8.32,4.57c2.28,0.35,4.59-0.17,6.84-0.68
		c0.43-1.1,0.69-0.37,1.4,0.58c0.71,0.95,0.8,2.21,1.26,3.3c1.22,2.89,4.79,4,7.92,3.98c3.14-0.02,6.29-0.83,9.38-0.28
		c0.58,0.1,1.18,0.27,1.59,0.68c0.5,0.5,0.63,1.25,0.87,1.91c1.14,3.02,4.77,4.18,7.97,4.6s6.75,0.64,9.03,2.92
		c1.21,1.21,1.88,2.85,2.48,4.45c1.65,4.37,3.08,8.83,4.26,13.35C545.33,554.94,437.71,555.5,437.71,555.5z"/>
	<path class="st6" d="M595.21,149.39c5.25-0.2,11.53,0.69,16.78,0.49c1.96-0.07,4.63,0.49,4.62,2.45c-0.01,0.78-0.49,1.45-0.85,2.14
		c-1.78,3.48-0.11,7.94,2.87,10.46c2.98,2.52,6.94,3.51,10.79,4.18c2.36,0.41,4.81,0.76,6.82,2.06s3.44,3.86,2.61,6.1
		c-0.6,1.62-2.22,2.74-2.69,4.41c-0.68,2.4,1.28,4.73,3.28,6.22c2,1.49,4.37,2.92,5.07,5.32c0.58,2.01-0.2,4.12-0.59,6.17
		c-0.4,2.05-0.21,4.58,1.58,5.67c1.89-2.3,3.84-4.66,6.45-6.09c2.61-1.43,6.07-1.73,8.44,0.07c2.21,1.67,2.95,4.76,2.54,7.5
		s-1.77,5.23-3.12,7.66c-2.72,4.92-5.96,10.27-11.36,11.82c-1.83,0.53-3.9,0.62-5.32,1.89c-1.09,0.98-1.55,2.45-2.02,3.83
		c-5.95,17.57-20.77,31.88-38.54,37.22c2.98,2.08,6.96,2.27,10.48,1.36c3.52-0.91,6.69-2.8,9.81-4.66
		c6.52-3.9,13.04-7.8,19.56-11.69c3.69,4.28,7.48,8.76,8.92,14.21c1.57,5.92,0.22,12.53,2.88,18.04c2.73,5.67,9.19,9.03,11.28,14.97
		c0.72,2.03,0.85,4.22,0.92,6.38c0.16,5.15-0.02,10.35,0.87,15.42c0.89,5.08,3,10.15,6.95,13.46c0.03,10.43-0.58,20.82-3.7,30.77
		c-3.13,9.95-9.94,19.31-19.77,22.82c-0.62,0.22-1.26,0.42-1.91,0.43c-0.98,0.02-1.91-0.37-2.85-0.65c-1.97-0.6-4.05-0.74-6.09-1.08
		c-6.75-1.11-12.97-4.31-18.8-7.88c-3.31-2.02-6.64-4.22-10.44-4.97c-4.97-0.98-10.05,0.62-14.86,2.2
		c20.17,11.12,33.51,31.06,42.93,52.08c5.21,11.61,9.24,24.66,5.88,36.94c1.66-10.86,3.32-21.72,4.98-32.58
		c0.41-2.72,0.86-5.52,2.32-7.85c1.85-2.95,5.06-4.71,8.13-6.35c-1.89-2.47-0.23-5.99,1.44-8.61c2.35-3.69,4.7-7.37,7.05-11.06
		c2.19-3.43,4.4-6.9,5.82-10.71c1.25-3.34,1.87-6.87,2.64-10.35c2.73-12.42,7.44-24.57,15.07-34.75c3.95-5.27,8.85-10.09,15-12.46
		c2.14-0.83,4.92-2.06,4.64-4.35c4.5-5.41,11.44-9.01,15.82-14.52c5.78-7.28,10.56-12.38,16.06-17.88c1.04-1.04,1.58-2.14,1.12-3.55
		c-0.49-1.49-2.65-2.78-4.14-3.29c-3.6-1.22-7.7-3.6-11.47-4.06c-6.1-0.74-13.37-0.92-17.5-5.47c-8.36-9.22-11.66-20.15-13.86-31.96
		s-2.3-23.9-2.39-35.91c-0.06-7.52-0.11-15.05-0.17-22.57c-0.09-12.02-0.34-24.66-6.38-35.05c-2.52-4.34-3.46-7.2-7.32-10.4
		c-3.86-3.2-10.38-4.92-15.44-5.09c-0.99-0.03-2.12-0.32-3.11-0.45c-1.1-0.14-2-0.92-3.03-1.35c-1.57-0.66-3.48-0.43-4.86,0.57
		c-0.46,0.33-1.39,0.41-1.38,0.97c0.02,1.34-2.01,0.09-2.99-0.21C642.19,135.28,620.48,129.98,595.21,149.39z"/>
	<path class="st6" d="M748.66,291.43c11.29-8.77,21.57-18.84,30.56-29.95c-0.47,0.1-0.94,0.2-1.4,0.3
		c0.36,30.39,2.44,60.42,1.75,90.8c-3.61-4.03-10.33-3.29-15.62-4.42c-7.05-1.49-13.08-6.49-20.23-7.39
		c-4.19-0.53-9.61-0.26-11.25-4.14c3.05,1.3,6.31-1.3,8.35-3.91C749.63,321.48,752.96,305.05,748.66,291.43z"/>
	<path class="st6" d="M740.77,336.84c-5.19-0.1-10.38-0.2-15.57-0.31c-2.59-0.05-5.29-0.08-7.61,1.07
		c-2.48,1.22-4.15,3.59-5.71,5.86c-1.7,2.48-3.41,4.96-5.11,7.44c-0.3,0.44-0.62,0.92-0.6,1.45c0.02,0.8,0.75,1.37,1.41,1.83
		c11.78,8.11,23.55,18.12,27.25,31.94c1.03,3.87,0.95,8.84-2.5,10.87c-1.35,0.79-3.06,1-4.15,2.13c-2.05,2.14-0.59,6.1-2.51,8.36
		c-1.59,1.87-4.81,1.71-6.25,3.69c-1.34,1.84-0.43,4.37,0.17,6.56c2.18,8.11-1.37,17.43-8.4,22.02c-4.65,3.04-10.64,4.21-14.25,8.43
		c-1.22,1.42-2.1,3.49-1.22,5.14c0.76,1.43,2.61,1.97,4.21,1.74s3.04-1.08,4.46-1.85c8.67-4.66,18.63-6.89,26.67-12.58
		c4-2.83,7.4-6.43,10.76-10c3.26-3.46,6.53-6.93,9.79-10.39c-1.55,0.55-1.89,2.86-0.84,4.13c1.05,1.27,2.96,1.54,4.54,1.09
		c1.58-0.45,2.93-1.48,4.23-2.49c7.2-5.59,14.65-11.49,18.6-19.7c1.57-3.27,2.14-7.98-0.96-9.86c-1.94-1.17-4.49-0.6-6.45,0.53
		c-1.96,1.14-3.59,2.78-5.56,3.89c-5.11,2.89-12.25,1.46-15.84-3.18c4.8,3.11,11.25,3.48,16.37,0.94
		c-3.82,1.37-8.19-0.06-11.33-2.63c-3.14-2.56-5.3-6.11-7.4-9.58c-5.9-9.77-11.8-19.53-17.7-29.3c2.82-6.12,5.34-12.36,9.87-17.36
		c0.29-0.32,0.6-0.65,1.02-0.76C740.55,335.86,740.7,336.41,740.77,336.84z"/>
	<path class="st6" d="M705.07,448.92c5.28,8.55,9.24,17.91,11.68,27.66c0.45,1.8,0.85,3.74,0.22,5.49
		c-1.32,3.68-6.13,4.48-10.03,4.26c-3.26-0.18-7.6-1.41-10.78-2.15c3.57,10.55,17.75,13.25,27.33,10.45
		c9.45-2.76,16.74-11.29,26.49-12.66c0.53-0.07,1.12-0.15,1.48-0.55c0.63-0.68,0.19-1.76-0.25-2.58
		c-8.6-15.95-8.57-36.24,0.07-52.17c-1.3,8.48-2.6,17.13-1.25,25.61c0.88,5.58,2.89,10.91,4.09,16.42
		c2.57,11.76,1.43,23.97,0.28,35.95c5.08-17.64,0.21-37.29,6.81-54.42c-0.48,8.53,6.2,16.18,5.94,24.72
		c-0.06,1.81-0.43,3.61-0.21,5.41c0.44,3.73,3.26,6.66,5.29,9.82c3.5,5.44,4.86,12.22,3.7,18.58c0.83-6.65,5.32-12.16,8.35-18.13
		c4.42-8.73,5.79-18.96,3.82-28.54c-0.7-3.42-1.82-6.75-2.5-10.18c-3.86-19.39,6.4-39.41,3.14-58.91
		c-2.05-12.26-4.04-24.35-7.8-36.2c-2.03-6.4-4.44-12.77-5.1-19.46c-12-1.13-24.61-1.3-36.51,0.64c-2.71,0.44-5.49,0.99-7.78,2.5
		c-3.72,2.45-5.48,6.93-7.01,11.12c-0.41,1.13-0.83,2.32-0.63,3.51c0.13,0.79,0.53,1.5,0.92,2.2c4.5,7.94,9.48,15.65,12.99,24.07
		s5.49,17.78,3.64,26.71c-1.02,4.94-3.19,9.59-5.82,13.89C728.39,433.81,717.83,443.52,705.07,448.92z"/>
	<path class="st6" d="M786.77,428.22c4.61-2.17,10.31,0.77,13.03,5.09c2.72,4.32,3.26,9.6,3.93,14.65
		c4.73,35.59,19.39,69.62,20.84,105.49c0-0.12-0.98,1.22-0.98,1.1c-7.11-0.02-12.74-1.59-19.85-1.6c-5-0.01-10-0.03-14.97-0.48
		c-7.64-0.7-15.13-2.44-22.6-4.18c-5.96-1.39-11.93-2.77-17.89-4.16c-27.96-6.5-55.91-13-83.87-19.49
		c-2.02-0.47-4.11-0.97-5.74-2.26c-4.35-3.43-3.31-10.17-1.85-15.51c4.8-17.56,9.59-35.12,14.39-52.68
		c0.12-0.44,0.24-0.89,0.48-1.28c0.77-1.25,2.58-1.53,3.93-0.95c1.35,0.58,2.31,1.81,3.07,3.06c2.02,3.35,3.04,7.3,2.9,11.22
		c0.13-1.39,5.38,4.66,7.5,9.44c2.3,5.18,4.6,10.37,6.91,15.55c1.6,3.6,4.44,6.56,5.79,10.26c13.57,37.03,75.31,33.95,76.05,32.32
		c0.19-0.41,4.11-7.59,3.86-7.96c-0.25-0.38-1.05-0.12-0.85,0.28c1.65-10.01,5.87-19.64,8.02-29.55c2.15-9.92,2.98-20.5-0.52-30.02
		c-1.9-5.19-5.05-9.96-6.1-15.39C780.77,443.5,783.92,435.5,786.77,428.22z"/>
	<path class="st28" d="M16.96,157.1c10.63,16.94,21.25,33.88,31.88,50.82c0.19,0.3,0.37,0.73,0.11,0.98
		c-0.26,0.25-0.63-0.43-0.28-0.38c0.76-19.98,2.16-39.74,2.92-59.72c-0.98-0.17-0.69-0.79-1.63-0.45
		c-10.6,3.87-21.46,7.02-32.49,9.41C16.86,157.9,17.41,157.54,16.96,157.1z"/>
	<polygon class="st29" points="54.33,148.26 85.01,139.32 87.51,195.48 72.48,171.53 	"/>
	<polygon class="st30" points="132.07,123.26 122.16,182.67 85.01,139.32 	"/>
	<path class="st31" d="M129.55,123.26l34.64-12.87l1.33,24.24l-0.7,24.24C164.82,158.87,159.93,144.18,129.55,123.26z"/>
	<polygon class="st32" points="208.54,89.95 208.54,100.49 204.41,146.79 164.82,113.48 164.19,110.39 	"/>
	<path class="st33" d="M244.84,70.74c0,0,6.37,32.79,5.05,49.61c0,0-6.06-10.3-23.7-19.08l-17.65-11.33L244.84,70.74z"/>
	<path class="st34" d="M283.48,47.59c0,0,1.14,43.08-1.45,49.81l-0.16,2.9c0,0-9.85-16.58-36.29-26.36l-0.75-3.2L283.48,47.59z"/>
	<polygon class="st35" points="314.9,26.42 318.6,80.48 283.48,47.59 	"/>
	<path class="st36" d="M730.18,121.27c-0.71-7.36,0.23-14.98,3.49-21.62c5.79-11.78,17.94-19,30.01-24.15
		c16.34-6.97,33.77-11.39,51.46-13.06c-15.69-9.57-32.67-17.51-51.02-18.43c-18.35-0.91-37.32,4.28-51.37,16.12
		c-3.96,3.34-7.56,7.25-9.66,11.98c-1.93,4.36-2.5,9.2-2.79,13.96c-0.42,6.8-0.24,14,3.21,19.87c2.85,4.85,7.62,8.23,12.39,11.21
		c3.46,2.16,7.22,4.26,11.3,4.29c0.37,0,0.81-0.05,0.99-0.37S730.4,120.98,730.18,121.27z"/>
	<path class="st37" d="M816.72,61.76c-19.58,0.6-38.66,6.87-56.11,15.76c-10.77,5.49-21.5,12.5-27.04,23.24
		c-4.81,9.33-5.03,20.72-1.37,30.56c3.66,9.84,11.01,18.1,19.91,23.66c0.67,0.42,0.64,1.93,0.07,1.39
		c11.68,6.78,26.75,5.54,38.06-1.84c-0.38-0.21-0.77-0.43-1.15-0.64c1.03-3.04,1.4-5.75,1.57-8.95c0.56-11.13,5.1-21.7,10.72-31.33
		c5.62-9.62,12.37-18.55,17.97-28.18c1.02-1.76,2.03-3.6,2.31-5.61c0.35-2.47-0.42-4.96-1.18-7.34c-2.11-6.62-4.23-13.24-6.34-19.87
		c3.6,0.9,6.46,4.23,6.79,7.92C819.29,60.62,818.35,61.71,816.72,61.76z"/>
	<path class="st38" d="M827.86,67.86c-1.03-1.72-2.09-3.5-2.37-5.48c-0.28-1.99,0.41-4.25,2.17-5.23c1.75-0.98,4.46,0.08,4.61,2.08
		c0.07,1.02-0.47,1.96-0.85,2.91c-2.68,6.49,1.6,13.57,5.57,19.36c8.23,12,16.59,24.36,20.38,38.41c4.95,18.36,6.98,29.4,1.15,42.72
		c-1.75,4-6.07,7.79-9.38,10.63c-2.12,1.82-4.59,3.19-7.13,4.35c-11.03,5.05-23.83,6.15-35.56,3.06
		c-9.76-2.57-13.42-15.39-15.11-25.34c-2.68-15.84,4.23-31.7,12.55-45.44S823.2,83.23,827.86,67.86z"/>
</g>
<g id="Stroke">
	<path class="st40" d="M287.37,438.22c-7.97,25.29-17.17,50.1-24.04,77.11c-0.56,2.19-1.16,4.46-0.34,6.57
		c0.82,2.1,2.77,5.02,4.88,5.81c22.52-2.59,35.59-3.49,55.2-5.86c0.85-0.1,1.69,0.42,2.16,1.14c0.47,0.72,0.66,1.58,0.84,2.42
		c0.29,1.4,0.58,2.8,0.88,4.2c0.19,0.93,0.39,1.91,0.12,2.82c-0.31-0.09-0.19,0.27-0.44,0.47c-28.23,1.93-56.68,5.69-86.06,9.74
		c-3.18,0.44-6.6,0.31-9.29,2.07s-4.17,5.79-2.12,8.26c0.16,0.2,0.36,0.39,0.61,0.42c0.27,0.04,0.52-0.11,0.76-0.24
		c2.16-1.21,4.69-1.54,7.15-1.85c13.93-1.77,28-2.82,41.89-4.91c15.45-2.32,31.01-3.84,46.62-4.54c1.62-0.07,3.3-0.13,4.79,0.52
		c1.52,0.66,2.65,1.98,3.6,3.34c2.13,3.04,2.94,7.48,2.86,8.18c-4.53-3.29-7.43-8.4-11.77-11.93"/>
	<path class="st40" d="M311.92,373.01c0.25-0.38,0.49-0.76,0.74-1.14c-4.16,2.11-8.54-3.62-13.18-3.14
		c-2.52,0.26-4.44,2.29-6.57,3.66c-3.42,2.19-7.61,2.74-11.41,4.2c-6.07,2.32-11.1,7.02-14.36,12.64
		c-3.26,5.63-4.82,12.14-5.07,18.64c-0.22,5.82,0.61,11.79,3.26,16.98c2.65,5.19,7.56,9.29,13.18,10.82
		c3.41-0.03,6.84-0.29,10.11-1.24c1.14-0.33,4.29-1.51,4.13-2.69c-0.59-0.28-3.05,0.69-3.69,0.83c-3.43,0.77-7,1.54-10.41,0.69
		c-6.19-1.54-9.93-7.91-11.53-14.08c-2.98-11.58-0.6-24.43,6.34-34.16c1.84-2.59,4.09-5.03,7.03-6.23c3.45-1.4,7.34-0.9,11.02-0.38
		c2.16,0.31,4.66,0.85,5.61,2.82c-4.27,3.95-11.63,1.59-16.51,4.76c-3.09,2.01-4.47,5.77-5.51,9.3c-0.8,2.7-1.51,5.59-0.72,8.3
		c0.96,0.28,1.97,0.7,2.55-0.12c3.03-4.28,4.51-9.64,4.09-14.87c-0.06-0.81-0.19-1.68-1.31-2.01c-0.84-0.25-1.75,0.04-2.39,0.64
		c-2.98,2.81-3.98,6.91-4.89,10.83c-0.64,2.73-1.21,5.86,0.41,8.15c0.6,0.85,1.44,1.48,2.28,2.09c4.52,3.3,9.29,6.24,14.27,8.81
		c1.96,1.01,4.3,2.65,3.77,4.79c-4.37-4.58-8.74-9.16-13.11-13.73c2.3-2.62,3.29-6.12,4-9.54c0.74-3.51,1.29-7.14,3.03-10.29
		c1.68-3.03,4.68-5.04,8.05-5.81c5.84-1.34,11.3-4.29,15.6-8.45c2.36-2.28,4.47-4.98,7.45-6.38c1.79-0.84,3.8-1.15,5.54-2.09
		c1.93-1.04,3.38-2.78,4.79-4.47c1.98-2.39,3.96-4.78,5.94-7.17c0.81-0.98,1.75-2.03,3.21-1.71c0.8,0.18,1.46,0.77,1.82,1.51
		c0.79,1.62,0.34,3.36-0.1,5.01c-0.71,2.65-1.45,5.35-2.98,7.63c-1.51,2.23-3.69,3.91-5.84,5.55c-2.44,1.86-7.41,5.64-7.4,5.94
		c0.19,3.92,0.25,8.09-1.73,11.48c-0.41,0.7-1.03,1.43-1.84,1.43s-1.42-1.25-0.71-1.64c0.31-0.17,0.69-0.09,1.04-0.01
		c10.08,2.49,20.59,2.2,30.08,6.67c0.99,0.47,1.84,1.24,2.29,2.24c1.24,2.71-0.32,4.29-2.62,4.44c-1.77,0.12-4.77,0.06-6.54,0
		c-9.16-0.33-15.31-0.54-22.89-2.42c-1.17-0.29-2.88-2.67-1.7-2.4c5.52,1.25,31.19,12.54,31.19,12.54c0.92,0.37,1.78,0.89,2.46,1.6
		c2.56,2.68,1.65,5.79-0.44,7.25c-2.36,1.65-17.65-3.19-24.84-5.42c-2.8-0.87-8.57-0.83-8.41-2.61c0.14-1.53,2.77-0.79,4.13-0.09
		c6.55,3.36,13.37,6.22,20.36,8.54c3,0.99,6.19,1.99,8.27,4.37c3.16,3.61,0.02,7.38-4.74,6.78c-4.41-0.56-8.93-2.24-13.2-3.92
		c-5.96-2.34-12.22-4.05-18.21-6.3c-0.89-0.33-1.95-1.09-1.59-1.97c1.09-0.52,2.33,0.21,3.31,0.91c5.36,3.84,10.72,7.68,16.09,11.52
		c2.85,2.04,7.48,4.33,8.43,7.7c0.34,1.23,0.34,2.73-1.26,3.35c-0.71,0.28-1.5,0.26-2.23,0.05c-12.29-3.53-21.16-10.23-35.36-15.37
		c-2.95-1.07-7.96-3.66-8.13-3.72s-5.19,11.22-7.37,16.15c-12.79-0.32-25.57-0.65-38.36-0.97c-5.64-0.14-11.31-0.29-16.82-1.48
		c-8.47-1.83-16.64-6.11-25.27-5.36c-0.9,0.08-2.1,0.78-1.63,1.55c2.81,0.33,6.37,0.31,8.79-1.16c-0.5-2.71-1.63-6.09-2.59-8.67
		c-0.6-1.61-1.29-3.21-2.33-4.59c-2.95-3.92-8.83-5.36-13.17-3.09c-1.53,0.8-2.9,2.08-3.36,3.74s0.24,3.69,1.82,4.38
		c0.62,0.27,1.32,0.32,1.9,0.65c1.12,0.62-0.3,3.26-0.7,3.4c-1.23,0.46-1.17,2.16-1.44,3.45c-0.39,1.84-2,3.35-3.86,3.62
		c-0.6,0.09-1.24,0.06-1.78,0.33c-2.11,1.05-0.68,4.97-2.67,6.24c-1.06,0.67-2.72,0.27-3.44,1.3c-0.48,0.69-0.23,1.62-0.26,2.46
		c-0.05,1.5-1.18,2.9-2.63,3.27c-1.31,0.34-2.98,0.01-3.78,1.1c-0.41,0.55-0.42,1.28-0.62,1.93c-0.67,2.21-3.64,2.53-5.85,1.86
		c-2.94-0.89-4.66-4.22-4.46-7.28s1.93-5.84,3.99-8.11c2.07-2.27,4.51-4.18,6.6-6.43c4.78-5.16,8.58-12.66,15.58-13.34
		c2.35-0.23,5.92-0.88,5.22-3.13c-4.08-0.5-7.8,4.24-6.33,8.09c1.46,3.84,7.39,4.91,10.11,1.82c4.97,11.33,6.45,23.83,7.87,36.12
		c3.45,29.85,10.28,90.09,11.34,90.5s2.23-0.47,2.67-1.51c0.45-1.04,0.42-2.22,0.64-3.33c0.87-4.39,6.27-7.21,10.37-5.44
		c-2.67-2.91-5.42-7.54-1.97-10.26c0.73-0.58,1.62-0.91,2.54-1.09c29.16-5.61,58.39-7.29,88.64-10.97c1.96-0.24,4.25,1.47,5.53,2.98
		c0.96,1.12,1.05,2.71,1.48,4.12c1.65,5.48,7.64,7.28,12.29,10.61c6.07,4.35,10.29,12.15,10.76,19.6h-59.08l-9.71-10.09l6.6,10.09
		H93.25c-1.73,0-3.04-1.58-2.69-3.28c2.33-11.35,3.53-23.19,4.8-34.66c0.21-1.87,0.28-4.08-1.56-5.09c-1.4-0.76-2.68-0.19-2.65,1.4
		c0.01,0.81,0.64,1.25,1.24,1.62c13.33,8.43,30.33,10.86,41.77,21.71c7.72,7.32,12.33,18,21.9,22.9c3.46,1.77,7.48,1.59,11.08,0.1
		c2.44-1.01,6.7-0.33,9.21-2.55c1.5-1.32,1.89-4.06,0.24-5.19c0.59,2.87,2.72,5.46,5.54,6.23c2.82,0.77,6.18-0.56,7.4-3.22
		s-0.21-6.3-3.01-7.13c-0.41,2.25,1.22,4.01,2.64,5.52c0.45,0.48,0.99,0.94,1.64,1.06c0.55,0.11,1.1-0.03,1.62-0.25
		c1.57-0.66,2.99-1.65,4.26-2.79l0.3-0.27c1.2-1.08,1.47-2.86,0.63-4.24c-4.45-7.36-8.93-15.64-16.18-20.03
		c0.2,5.48,11.22,6.21,19.83,3.73c1.28-0.37,2.35-1.42,2.78-2.74c0.25-0.75,0.16-1.61-0.34-2.23c-1.11-1.37-3.12-0.73-4.79-0.45
		c-3.12,0.53-6.26-0.55-9.23-1.62c-6.65-2.38-13.3-4.77-19.95-7.15c-5.8-2.08-13.74-3.12-19.15-6.08
		c-3.92-2.14-7.54-4.78-11.44-6.95c-5.16-2.88-10.74-4.92-15.99-7.63c-8.47-4.39-15.96-10.5-22.73-17.22
		c-5.55-5.52-10.75-11.53-17.32-15.79c-2.93-1.89-6.32-3.44-9.74-3.49c-0.77-0.01-1.02,1.04-0.32,1.35
		c3.58,1.61,7.39,2.69,11.28,3.21c2.3,0.31,4.52-0.92,5.58-3c7.79-15.29,21.24-27.68,33.77-39.44c6.21-5.83,12.54-12.19,15.49-20.07
		c0.42-1.12-0.86-2.12-1.82-1.41c-5.5,4.06-7.95,11.73-11.85,17.69c-3.98,6.08-10.23,11.71-9.75,18.96
		c0.24,3.54,2.14,6.88,1.98,10.42c-0.09,2.07-0.89,4.04-1.64,5.98c-3.66,9.37-6.66,19-8.94,28.8c4.96-4.07,4.35-11.7,6.65-17.69
		c2.3-6,7.87-11.13,7.3-17.54c-0.17-1.89-0.88-3.7-1.2-5.57c-1.48-8.61,5.31-16.22,11.56-22.33c9.13-0.05,27.37-2.36,27.78-2.88
		c0.42-0.52,0.36-1.26,0.28-1.93c-1.99-16.83-6.22-33.39-12.54-49.11c-1.59-3.96-3.39-7.98-6.44-10.96
		c-3.06-2.98-7.29-5.45-11.32-4.03c7.06-3.26,17.42-4.94,17.81-4.93s11.32,17.96,14.61,27.46c1.31,3.77,1.37,7.85,1.82,11.81
		c0.28,2.51,0.57,5.05,1.42,7.44c0.81,2.28,2.12,4.37,2.85,6.68c1.72,5.41,0.13,11.24-0.9,16.82c-1.02,5.59-1.25,11.99,2.51,16.25
		c-0.67-5.36-1.33-10.91,0.25-16.07c1.18-3.85,3.54-7.24,4.91-11.02c2.02-5.59,1.79-11.7,2.24-17.62s1.01-9.28,1.45-3.98
		c0.44,5.3,1.81,10.53,1.58,15.84c-0.14,3.31-0.91,6.59-0.81,9.9c0.09,3.31,1.26,6.86,4.04,8.66c-0.51-11.03-0.94-22.51,3.45-32.64
		c-0.5,9.12,2.58,18.39,8.45,25.39c-3.31-11.85-2.26-24.55,0.71-36.5c1.46-5.86,1.42-4.18,0.95,2.47
		c-0.57,8.08-1.5,11.95-1.18,18.48c0.32,6.53,3.4,14.63,8.85,18.24c-5.95-10.98-5.7-23-3.13-36.9c-0.76,8.33,3.77,20.09,11.44,23.43
		c3.13,1.36,6.44,0.81,8.85-0.68s2.5-6.64-0.24-7.37c0.62,2.85-3.24,4.99-5.97,3.95c-2.94-1.12-4.54-4.31-5.82-7.12
		c-2.88-6.33-5.2-12.91-6.85-19.67c-1.22-4.99-2.19-10.32-0.84-15.3c1.82-6.71,7.49-11.69,10.18-18.1c1.89-4.51,2.22-9.5,3.36-14.26
		c1.15-4.76,3.45-9.66,7.81-11.88c-3.87,2.62,22.03-10.47,27.57-24.23c4.84,1.13,12.58,2.26,18.58-0.41c8.97-4,9.01-8.75,4.15-11.38
		c-25.29,2.3-49.94-5.85-67.13-24.55c-0.89-0.97,41.75-44.2,64.12-63.94c1.16-1.02,2.98-0.2,3,1.34c0.19,15.2-0.12,23.01,0.01,35.03
		c0.23,21.2-1.3,33.15,0,52.11c2.22,2.37,3.04,27.41,1.88,32.96c-0.89,4.28-2.72,8.67-1.51,12.87c0.07,0.25-0.21-0.17,0.02-0.29
		c0.48,1.47-0.52,3.26-1.34,4.57s-1.89,2.46-2.58,3.84c-0.47,0.93-0.79,2.01-1.61,2.65c-0.82,0.65-2.38,0.43-2.52-0.6
		c1.09-0.65,2.52,0.45,2.78,1.69c0.26,1.24-0.22,2.5-0.48,3.74c-0.76,3.62,0.27,7.36,0.25,11.06c0,0.65-0.05,1.32-0.4,1.87
		c-0.32,0.5-0.85,0.82-1.37,1.11c-1.6,0.86-3.56,1.34-5.09,0.37c-0.4-0.25-0.71-0.62-1.09-0.91c-1.57-1.18-4-0.8-5.72-1.52
		c-1.12-0.47-1.77-1.55-1.74-2.76c0.05-2.09,2.51-3.72,3.91-2.03c-0.59,0.58-1.55,0.45-2.38,0.56c-2.7,0.33-4.15,3.2-5.76,5.39
		c-1.69,2.3-4.01,4.14-6.64,5.27c-1.92,0.83-4.1,1.34-5.52,2.88c5.04-0.34,10.19-1.22,15.23-1.56c0.96-0.06,1.93-0.13,2.89-0.01
		c0.79,0.09,1.77,0.22,2.2-0.44c-0.22,0.54,0.47,1.09,1.04,0.98c0.57-0.11,1.52-0.74,1.88-1.19c0.89-1.12,1.17-2.8,0-3.61
		c-0.5,2.1-1.32,4.12-2.42,5.98c-0.29,0.49-0.63,0.99-1.16,1.21c-0.43,0.17-0.91,0.13-1.38,0.08c-4.41-0.49-8.81-0.97-13.22-1.46
		c-0.92-0.1-1.89-0.2-2.76,0.13c-0.87,0.33-1.6,1.22-1.42,2.14c0.12,0.6,0.6,1.06,1.07,1.46c3.72,3.12,8.71,4.7,13.55,4.27
		c-1.41-1.53-0.01-4.53,2.07-4.42c-3.56,2.07-6.19,5.69-7.05,9.72c-0.58,2.69-0.42,5.58-1.66,8.03c-1.27,2.52-4.03,4.23-6.85,4.24
		c-2.83,0.01-5.94-2.86-8.64-3.71c-3.89-1.22-9.13-3.07-13.61-5.66c-7.61-4.41-13.18-11.66-17.49-19.33
		c-2.67-4.75-11.78-5.62-10.57-17.3c1.2-11.53,7.84-22.42,6.62-33.95c-6.24-0.32-13.18,2.72-15.13,8.65c-1,3.06-0.56,6.41,0.32,9.51
		c0.9,3.15,3.34,9.42,4.66,11c0.57,0.69,0.73,1.62,0.48,2.48c-1.52,5.08-7.44,14.83-10.76,20.23c-3.23,5.26-4.8,10.08-4.74,16.26
		c0.03,3.35-0.56,7-1.4,0.76c-0.64-4.78-1.87-9.49-2.06-14.3c-0.34-8.49,2.53-16.74,5.36-24.75c2.73-7.72-0.74-16.02-0.61-24.21
		c0.13-8.24,2.3-16.34,5.28-24.02c2.84-7.32,6.47-14.4,11.43-20.48c4.96-6.09,11.3-11.17,18.65-13.94
		c-3.74-0.1-7.51,0.72-10.86,2.37c-5.02,2.47-8.95,6.65-12.59,10.9c-11.31,13.21-21.05,28.53-23.69,45.72
		c-2.31,15.04,0.96,30.5-1.1,45.57c-0.24,1.77-0.52,3.72,0.46,5.22c2.21,0.49,1.36-8.86-1.65-11.94c-1.77-1.82-4.33-1.2-6.86-1.14
		c-9.17,0.22-18.08,3.38-26.11,7.81c-8.03,4.43-15.03,10.26-22.02,18.51c-21.65,25.52-42.37,51.74-57.4,81.63
		c-2.35,4.67-4.56,9.48-5.53,14.62c-0.97,5.14-0.62,10.68,1.94,15.24c2.84,5.08,7.99,8.36,12.79,11.66
		c12.96,8.92,27.11,17.85,41.79,22.98"/>
	<path class="st40" d="M324.9,376.33c0.98-0.85,12.98-5.89,21.22-4.31c6.04,1.16,12.1,2.72,18.24,2.49c0.76-0.03,1.6-0.07,2.21,0.4
		c0.63,0.48,0.79,1.48,0.33,2.13l-0.01,0.02c-0.65,0.92-2.12,0.53-2.21-0.59c-0.14-1.66-0.08-3.35,0.17-5
		c0.59-3.86,0.42-7.89,1.99-11.47c3.49-7.97,11.76-12.75,16.54-20.01c1.42-2.16,2.52-4.53,3.26-7.01
		c-0.55,11.32-11.93,19.34-15.15,30.2c-1.88,6.34-0.88,13.24-2.5,19.65c-2.17,8.61-8.81,15.54-11.13,24.11
		c-1.75,6.47-0.89,13.37,0.72,19.88c1.61,6.51,3.94,12.84,5.17,19.43c0.38,2.02,0.49,4.39-0.29,6.19c-0.62,1.42-2.84,0.52-2.27-0.93
		c0.12-0.3,0.26-0.6,0.41-0.89c2.38-4.57,3.76-12.61,3.18-17.73c-0.57-5.06-1.73-10.07-1.82-15.16
		c-0.19-10.96,14.01-21.29,12.12-16.03c-3.8,10.56-4.97,22.06-3.36,33.18c1,6.91,3.05,13.7,1.13,20.91
		c-0.45,1.68-1.19,3.28-2.26,4.64c-0.49,0.63-1.92,1.67-1.43,2.35c1.28,1.79,3.68-2.42,4.65-4.4c3.74-7.64,0.96-16.77,2.05-25.2
		c0.73-5.61,3.19-10.87,6.25-15.63c2.59-4.03-1.86,2.72-1.85,11.33c0.01,6.26,1.42,12.45,1.51,18.7c0.08,5.24-0.77,10.5-2.5,15.45
		c-1.49,4.26-3.63,8.31-4.63,12.71c-1,4.4-0.65,9.44,2.35,12.82c0.54,0.61,1.19,1.2,1.42,1.98c0.24,0.79-0.18,1.84-1,1.89
		c-0.68,0.04-1.19-0.58-1.52-1.17c-1.78-3.18-1.75-7.12-0.77-10.63c0.98-3.51,2.82-6.71,4.57-9.9c2.34-4.27,4.57-8.69,5.44-13.48
		c1.44-8.01,4.6-15.39,4.61-7.49c0.01,3.9,0.69,7.9-0.39,11.66c-1.24,4.31-4.69,7.86-5.23,12.31c-0.6,4.93,2.5,9.46,5.42,13.47
		c2.91,4.02,5.94,8.63,5.17,13.54l-0.01,0.03c-0.21,1.3-2.13,1.21-2.19-0.11c-0.15-3.02,1.02-6.22,0.77-9.31
		c-0.3-3.64-2.54-6.84-3.27-10.42c-1.66-8.15,4.69-15.82,5.24-24.12c0.34-5.03-1.44-10.37,0.61-14.98c1.34-3.02,4.09-5.12,6.45-7.43
		c2.3-2.25,4.29-4.81,5.92-7.58c1.1-1.88,2.06-3.99,1.85-6.16c-0.21-2.14-1.51-3.98-2.31-5.97c-1.08-2.67-1.24-5.7-0.46-8.48
		c0.85-3.02,2.73-5.62,4.12-8.43s2.27-6.18,0.99-9.05c-1.88-4.2-7.87-6.22-8.08-10.82c-0.17-3.82-0.81-6.9,0.14-10.6
		c1.41-5.52,5.25-10.81,4-16.37c-0.33-1.47-1.01-2.85-1.36-4.31c-1.4-5.75,2.39-11.51,6.81-15.45c1.17-1.04,1.37-3.13,1.37-4.7
		c1.15,1.3,1.34,3.35,0.47,4.85c2.07-0.71,3.84-2.27,4.82-4.23c1.15,1.64,3.13,2.68,5.14,2.68l-0.29-4.92c1.6,1.34,3.75,2,5.83,1.79
		l-0.51-2.98c1.88,0.99,4.03,1.49,6.16,1.42c0.28-0.75,0.27-1.6-0.04-2.34c1.27,0.37,1.94,2.07,1.25,3.2
		c1.24-1.39,2.97-2.34,4.81-2.66c-0.08,0.75-0.38,1.48-0.85,2.06c1.61-1.06,3.23-2.12,4.84-3.17c-0.32,0.87-0.64,1.73-0.96,2.6
		c1.45-0.98,2.76-2.15,3.88-3.49c-0.4,1.01,1.08,1.92,2.07,1.47c0.99-0.44,1.46-1.56,1.84-2.58c1,0.94,2.11,1.94,3.48,2.01
		c1.37,0.07,2.8-1.41,2.14-2.61c1.97,1.11,4.27,1.6,6.52,1.38c-0.03-0.55-0.06-1.1-0.09-1.64c1.04,0.35,2.12,0.71,3.2,0.56
		c1.08-0.16,2.15-1,2.17-2.1c1.01,2.25,4.84,2.29,5.9,0.07c0.08,0.76,0.42,1.49,0.96,2.04c0.34-0.61,0.68-1.22,1.02-1.83
		c0.25,0.14,0.4,0.54,0.53,0.29c-0.78-0.49-1.26-1.42-1.2-2.34c0.07-0.92,0.68-1.78,1.53-2.14c-0.77-0.35-1.53-0.72-2.28-1.12
		c-0.2-0.11-0.42-0.24-0.49-0.45c-0.09-0.27,0.09-0.55,0.25-0.78c1.25-1.85,1.94-4.09,1.93-6.32c-0.24,1.24-0.79,2.43-1.59,3.41
		c-0.34-0.82-0.82-1.58-1.42-2.24c-0.69,1.84-2.7,3.1-4.65,2.91c0.19,0.23,0.37,0.46,0.56,0.69c-2.14,1.23-4.72,1.69-7.15,1.26
		c-1.15-0.2-2.6-0.94-3.22-1.93c-0.08,0.91-0.2,1.91-0.86,2.55c-0.66,0.64-2.04,0.51-2.22-0.39c-0.92,1.05-2.63,1.27-3.78,0.5
		c0.05,0.7-0.53,1.39-1.23,1.46s-1.41-0.49-1.5-1.19l-2.13,1.52l-1.63-1.59c-3,1.01-6,2.02-8.99,3.03
		c-0.38,0.13-0.77,0.26-1.16,0.19c-0.35-0.06-0.65-0.26-0.93-0.49c-0.91-0.75-1.59-1.79-1.91-2.93c0.27,1.01,0.3,2.08,0.08,3.1
		c-1.04-0.3-2.04-0.77-2.93-1.39c0.2,0.58,0.4,1.16,0.6,1.73c-1.38,0.03-2.76,0.05-4.13,0.08c-0.43,0.01-0.9,0.04-1.19,0.35
		c-0.29,0.31-0.13,0.98,0.3,0.94c-0.59-1.37-1.18-2.73-1.77-4.1c-0.28,1.21-1.58,2.09-2.8,1.88l0.06-5.32
		c-1.47,1.89-2.94,3.78-4.41,5.66c0.39-0.03,0.29-0.72-0.09-0.8s-0.73,0.21-1.01,0.47c-1.25,1.16-2.5,2.33-3.74,3.49
		c-1.31-0.19-2.41-1.32-2.95-2.53c0.21,0.95,0.43,1.9,0.64,2.85c0.1,0.46,0.08,1.11-0.38,1.19c-0.21,0.04-0.41-0.09-0.59-0.21
		c-0.89-0.58-1.77-1.16-2.66-1.74c0.96,0.82,0.64,2.65-0.54,3.09c-1.18,0.44-2.63-0.73-2.44-1.98c-0.66,0.86-1.93,1.05-2.97,0.74
		c-1.04-0.31-1.9-1.03-2.74-1.73l-0.98,3.09c-1.35-1.25-2.53-2.68-3.49-4.26c-0.13,0.44-0.26,0.87-0.39,1.31
		c-1.3-1.12-2.19-2.69-2.47-4.38c-0.6,1.08-1.64,1.9-2.82,2.24c0.18-1.92,0.04-3.86-0.4-5.73c-1.16,2.13-3.31,3.68-5.69,4.12
		c1.46,0.69,1.79,1.23,2.68,1.22c-1.29-0.06-2.27,0.16-2.13,1.45c0.15,1.28,1.06,2.34,2.03,3.19l-3.17,0.62
		c0.76,0.84,0.33,2.25-0.51,3.01c-0.84,0.75-1.97,1.09-2.97,1.63c-0.99,0.54-1.94,1.49-1.87,2.62c2.23-0.56,4.37-1.51,6.28-2.79
		c-1.68,0.64-2.66,2.69-2.1,4.4c1.41-0.01,2.8-0.67,3.7-1.75c-0.35,1.06-0.32,2.24,0.08,3.29c1.42-0.24,2.67-1.27,3.19-2.61
		l1.62,3.52l1.76-2.34c0.26,1.63,3.03,1.95,3.66,0.43c0.67,1.22,1.59,2.31,2.68,3.18l1.74-2.51l2.11,2.69l3.36-3.37l1.9,2.35
		c0.17-0.43,3.81-1.31,3.98-1.74c0.6,0.41,2.63-4.36-1.95-7.26c-0.04,0.47-0.07,0.93-0.11,1.4c-2.26-0.26-4.44-1.21-6.17-2.69
		c0.49,1.2-0.35,2.75-1.63,2.99c0.35-0.55-0.07-1.37-0.7-1.53c-0.63-0.16-1.32,0.24-1.63,0.82c-0.06-0.43-0.12-0.87-0.18-1.3
		c-1.33,0.1-2.66,0.2-3.99,0.29c0.21-0.26,0.42-0.53,0.64-0.79c-1.4,0.15-2.84-0.13-4.08-0.8c0.17-0.33,0.34-0.66,0.5-0.99
		c-1.26-0.19-2.56-0.14-3.8,0.16c1.6-0.9,1.91-3.04,2.04-4.87c0.31-4.41,22.44-68.17,30.12-100.09c0.2-0.83,0.37-1.7,0.98-2.29
		c3.2-3.08,49.55,94.01,50.58,96.29c0.63,1.41,1.34,2.68,1.97,4.08c-0.51-0.43-1.45-0.03-1.49,0.64s0.83,1.19,1.4,0.83
		c-0.36,0.36-0.72,0.73-1.09,1.09c2.17,1.01,2.43,17.14,3.03,22.48c0.37,3.28,1.7,6.39,2.14,9.66c0.61,4.59-0.58,9.19-1.26,13.76
		c-1.1,7.41-0.86,15.03,0.7,22.36c0.6,2.8,1.39,5.58,1.51,8.45s-0.5,5.89-2.41,8.03c-1.63,1.82-4.32,3.67-3.48,5.97
		c2.2,1.87,4.44-8.7,3.57-13.53c-0.87-4.83-2.83-9.52-2.74-14.43c-0.69,9.3-2.02,18.55-4,27.67c-0.62,2.85-1.33,5.76-2.98,8.16
		c-2.99,4.35-8.52,6.26-11.98,10.25c-3.53,4.07-4.44,10.23-2.23,15.14c0.48,1.07,1.34,2.22,2.51,2.15
		c-0.07-3.76-3.55-6.71-3.97-10.44c-0.32-2.86-5.65,3.02-2.34,11.46c0.73,1.85,1.19,2.93,2,4.75c-1.87-0.44-3.22-2.07-4.2-3.73
		c-4.22-7.07-7.5,0.63-4.97,5.14c1.33,2.36,3.16,4.45,4.08,6.99c0.79,2.18,0.67,4.92-0.81,6.58c-0.5,0.57-1.47,0.2-1.4-0.56
		c0.06-0.76,0.45-1.66,0.64-2.43c0.41-1.74-0.56-3.54-1.83-4.79c-1.28-1.25-2.86-2.14-4.18-3.35c-3.24-2.96-4.55-7.58-4.45-11.97
		c0.11-4.39-5.37,4.02-2.56,12.67c0.66,2.03,1.67,4.09,3.5,5.18c0.51-2.48-1.24-4.78-2.74-6.81c-2.68-3.65-4.91-8.14-3.96-12.57
		c0.98-4.58,5.24-8.43,4.58-13.07c-0.22-1.59-1.02-3.03-1.51-4.55c-1.64-5.12,0.62-11.23,5.21-14.04c0.43-0.26,1.22-0.99,2.06-2.17
		c0.44-0.61,0.64-1.4,0.41-2.11c-0.56-1.78-2.68-1.77-4.38-1.77c-5.28-0.02-10.51-2.51-13.85-6.6c-0.54-0.11-0.99,0.55-0.89,1.09
		c0.1,0.54,0.53,0.96,0.96,1.31c6.67,5.52,16.96,6.13,24.24,1.44c4.51-2.91,7.69-7.43,11.61-11.1c2.67-2.5,6.29-4.48,8.24-7.68
		c1.95-3.21,2.69-8.18,3.63-11.85c1.44-5.6,1.16-11.47,0.87-17.24c-0.44-8.91-2.85-17.59-1.86-26.43c0.19-1.68,2.45-2.22,3.3-0.76
		c0.54,0.92,0.36,2.1,0.2,3.17c-0.8,5.37-0.46,10.9,1,16.13c0.87,3.12,2.15,6.22,2.01,9.46c-0.13,3.22-1.66,6.23-2.04,9.42
		c-0.65,5.4-3.14,20.26-4.63,22.31s1.38,10-1.39,20.16c-2.91,10.67-13.12,22.85-9.35,27.79c3.67,4.81,2.81,11.47,0.77,17.17
		c-0.85,0.01-1.71,0.03-2.56,0.04c-0.26,0-0.53,0.02-0.73,0.18c-0.24,0.19-0.28,0.53-0.3,0.84c-0.3,3.89-0.6,7.79-0.9,11.68
		c-4.06,0.32-8.23,0.03-12.25,0.66c-0.82,6.72-0.95,13.99-1.84,20.35c-3.42,0.02-10.05,0.12-10.85,0.91
		c-1.29,1.26,0.67,1.37,1.62,1.44c10.95,0.88,106.02,5.33,136.24,5.92c3.52,0.07,3.79-1.68,3.75-1.9c-0.27-1.58-1.5-2.15-2.57-2.34
		c-4.44-0.8-8.34-0.75-12.23-1.27c-0.05,0-0.12,0.01-0.16,0.01c-0.88-0.15-0.04-14.51-0.63-21.17c-32.46,0.75-65.54,1.28-97.87-1.6
		c-0.91-0.08-1.37-0.85-0.91-1.64c0.53-0.92,1.41-1.05,2.48-1c28.53,1.35,57.11,3.32,85.64,1.89c1.35-0.07,3.14-0.59,3.07-1.94
		l-6.17-0.24c0.08-2.25-0.27-4.91-0.19-7.15c-2.72-1.01-5.72-1.9-8.6-1.53c0.01-3.89-0.58-7.8-0.57-11.69
		c1.37,0.02,2.02-2.22,1.82-3.57c-0.2-1.35-1.06-2.5-1.62-3.74c-0.83-1.84-1.02-3.97-0.52-5.93c-2.74,1.96-4.95,5.45-4.92,8.82
		c0.01,0.84,0.12,1.69,0.49,2.45c0.43,0.9,1.22,1.61,2.16,1.96c-0.42,3.79-0.64,7.1-0.43,10.91c-1.76-0.44-3.9-0.74-5.71-0.62
		l-0.52-10.26c2.24-0.94,3.56-3.79,3.94-6.19c0.6-3.83-1.93-7.65-1.26-11.46c-2.96,2.67-6.11,5.71-6.58,9.67
		c-0.24,2.03,0.28,4.07,0.67,6.08c0.82,4.2,1.13,8.51,0.88,12.79c-1.03-0.22-2.1-0.24-3.14-0.14c0.09-2.47-0.04-4.95-0.39-7.4
		c-0.07-0.48-0.15-0.98,0-1.45c0.13-0.43,0.44-0.78,0.73-1.13c1.81-2.25,2.74-5.2,2.55-8.09c-0.19-2.89-1.51-5.68-3.6-7.67
		c-0.77,3.03-2.52,5.73-3.37,8.74s-0.49,6.77,2.11,8.5c-0.24,2.95-0.32,5.72-0.56,8.66c-1.52-0.74-3.26-1.02-4.93-0.78
		c0.05-2.55-0.3-4.86-0.51-7.4c0.53,0.29,1.14-0.21,1.45-0.73c0.89-1.51,0.74-3.44,0.17-5.1c-0.57-1.66-1.51-3.17-2.2-4.78
		c-0.27-0.64-0.51-1.33-0.42-2.01c0.19-1.39,1.62-2.34,1.84-3.72c-2.74,1.55-4.75,4.34-5.36,7.42c-0.61,3.09,0.18,6.43,2.12,8.91
		c0.32,0.41,0.55,1.17,0.05,1.28c-0.37,2.47,0.65,6.34,0.57,6.09c-1.83,0.08-3.71,0.21-5.52-0.05c-0.62-3.05,1.04-6.63,1.01-9.74
		c-0.05-4.3-2.96-8.42-6.99-9.91c0.99,1.66,2,3.33,2.52,5.19c0.82,2.91,0.45,6.18,1.96,8.8c-0.18,1.64-0.65,3.29-0.84,4.93
		c-0.66-0.2-1.36-0.29-2.05-0.25c-0.26-2.47-0.9-5.33-0.06-7.67c0.28-0.78,0.68-1.52,1.02-2.28c1.2-2.73,1.58-5.82,1.07-8.76
		c-0.22-1.26-0.6-2.51-0.6-3.79c0-1.92,0.84-3.72,1.67-5.44c-1.41,0.31-2.74,1-3.8,1.98c-1.3,1.2-2.18,2.78-2.91,4.39
		c-1.05,2.32-1.83,4.81-1.8,7.36c0.03,2.55,0.95,5.16,2.85,6.85c0.15,0.13,0.32,0.29,0.32,0.49c0,0.2-0.31,0.36-0.4,0.18
		c-0.55,2.56-0.33,4.08-0.4,6.7c-2.09-0.05-3.8-0.09-5.76,0.32c0.34-2.24,0.19-4.54-0.42-6.72c2.68-1.81,4.85-4.66,5.02-7.89
		c0.26-5.05-4.27-9.33-4.32-14.38c-1.25,1.85-2.38,3.77-3.41,5.75c-0.91,1.76-1.74,3.6-2.11,5.54c-0.76,3.98,0.54,8.29,3.37,11.19
		c-0.23,2.26-0.61,4.46-0.84,6.72c-1.64,0-2.91-0.02-4.55-0.02c-0.67-1.26-1.44-2.72-0.86-4.02c0.58-1.31,1.45-2.47,2.05-3.76
		c1.46-3.12,1.25-6.82,0.15-10.08c-1.1-3.26-3.02-6.18-4.95-9.03c1.49,4.95,0.63,10.34-1.14,15.19c-0.51,1.39-1.09,2.78-1.15,4.26
		c-0.05,1.34,0.35,2.69,1.12,3.78c0.75,1.07,0.72,3.16,0.89,4.46c-1.21-0.09-1.89-0.15-3.1-0.23c-0.19-1.45-0.47-3.69-0.52-5.15
		c0,0.24,0,0.48,0.01,0.71c2.11-2.32,3.14-6.12,2.78-9.24c-0.46-4.02-3.1-7.72-2.7-11.75c-2.23,2.95-4.12,6.25-4.82,9.88
		c-0.7,3.63-0.08,7.63,2.25,10.5c-0.08,1.75,0,3.33-0.09,5.07c-1.05,0.2-6.66-0.54-9.85-0.34c0.06,2.6-0.03,5.2-0.27,7.8l-3.62,0.02
		c0.18,2.62-0.02,5.26-0.58,7.82c-0.07,0.34-0.16,0.69-0.4,0.95c-0.54,0.59-1.51,0.35-2.28,0.57c-1.43,0.4-1.86,2.18-2.01,3.66
		c-0.34,3.34-0.52,6.7-0.53,10.05c-3.03,0.65-6.25,1.16-9.28,1.81c34.63,2.15,69.31,3.47,104.01,3.95c3.85,0.05,7.65,1.08,10.93,3.1
		c0.99,0.61,1.74,1.2,1.85,1.65c0.23,0.91-0.02,1.89-0.56,2.65c-1.48,2.09-5.07,3.43-7.91,5.05c-2.13,1.22-2.28,4.21-0.32,5.68
		c3.27,2.44,7.33,4.88,9.7,7.31c2.11,2.17,4.26,4.36,6.89,5.88c4.62,2.67,10.3,3.02,14.93,5.68c2.48,1.43,4.55,3.48,6.34,5.7
		c6.72,8.34,9.61,16.52,7.94,27.1c1.85-10.53,1.15-22.52-5.16-31.16c6.93-0.22,13.94,2.6,18.41,7.9c1.07,1.26,2.47,3.51-0.02,4.08
		c-4.88,1.11-4.62-9.03-8.75-11.86c-7.26-4.99-16.61-5.31-25.3-6.76c-0.99-0.17-2.03-0.37-2.79-1.03c-0.66-0.58-1.02-1.42-1.29-2.26
		c-1.21-3.72-1.53-7.66-0.94-11.53c1.52-10.06,4.32-19.92,8.3-29.28c3.35-7.88,12.85-15.44,21.28-16.88
		c6.5-1.1,13.15-1.18,19.61-2.46c0.24-0.05,0.48-0.09,0.74-0.12c1.48-0.2,1.85,2.04,0.37,2.28c-2.38,0.39-4.89,0.27-7.32,0.18
		c-5.35-0.21-15.12,0.2-21.66,0.48c-3.28,0.14-5.63-3.1-4.51-6.19c7.35-20.21,19.08-36.36,33.35-49.71c1.99-1.86,4.21-3.73,6.9-4.17
		c2.93-0.48,5.93,0.87,8.05,2.94s3.51,4.77,4.67,7.5c7.87,18.34,7.64,39.09,5.58,58.94c-2.85,27.37-11.62,63.53-20.81,89.46
		c-0.61-0.08-70.48-0.78-70.48-0.78c-1.74-9.82-7.03-19.62-15.6-24.73c-1.96-1.17-4.06-2.09-6.25-2.74
		c-26.94,3.35-55.15,5.92-82.09,9.27c-1.35,3.11-2.14,6.84-3.73,9.69c-0.46,0.82-1.41,1.32-2.31,1.08c-1.46-0.4-1.41-2.06-1.2-3.35
		c1.71-10.49,3.42-20.98,5.13-31.47c1.25,1.74-0.55,3.97-1.95,5.6c-6.84,8-5.16,20.3-10.04,29.63c-0.45,0.85-0.98,1.71-1.8,2.21
		c-0.82,0.5-2,0.52-2.65-0.19c-0.55-0.6-0.56-1.5-0.54-2.31c0.33-10.85,2.3-21.64,5.83-31.9c-0.51-0.43-1.21,0.22-1.54,0.8
		c-5.52,9.87-5.46,21.82-6.38,33c-0.13,1.56-0.6,3.09-1.48,4.38c-0.2,0.29-0.44,0.55-0.77,0.66c-1.13,0.38-1.89-1.15-2.08-2.32
		c-2.16-13.49-0.32-27.59,5.21-40.07c1.08,1.3-0.28,3.15-1.51,4.31c-4.81,4.57-8.81,10-11.73,15.95c-1.45,2.96-2.91,6.33-5.88,7.68
		c-1.4,0.64-3.09-0.03-3.53-1.5c-0.38-1.29,0.07-2.69,0.51-3.97c2.09-6.02,4.21-12.11,7.7-17.45c2.03-3.11,4.49-5.92,6.68-8.92
		c1.3-1.78,2.51-3.64,4.13-5.14c1.49-1.38,3.26-2.41,4.93-3.56c3.65-2.51,6.86-5.64,9.46-9.22c0.51-0.7,1.17-1.29,1.94-1.68
		c7.54-3.8,16.59-1.98,24.46,0.69c1.19,0.4,2.31,0.97,3.33,1.7c10.02,7.08,28.72,27.85,32.99,28.49
		c-15.25,1.67-29.76,3.81-45.01,5.48c-1.78,0.2-5.03,0.06-5.21,1.24c-0.28,1.85,5.63,1.02,10.71,0.2c2.44-0.39,4.02-2.81,3.38-5.2
		c-1.01-3.73-2.34-7.35-4.54-10.54c1.54-1.1,3.18-2.32,3.78-4.12c0.32-0.95,0.31-1.98,0.52-2.96c0.22-0.98,0.76-2,1.72-2.31
		c0.29-0.1,0.64-0.11,0.89,0.08c0.38,0.29,0.33,0.86,0.2,1.32c-0.92,3.14-3.85,5.17-6.42,7.19c-5.49,4.3-10.34,10.11-11.18,17.03
		c-0.29,2.36-1.29,7.02-2.01,9.79"/>
	<path class="st40" d="M364.32,374.3c-0.4,6.12-2,12.17-4.66,17.69c-2.46,5.1-5.92,10.15-5.61,15.8c0.12,2.26,0.86,4.45,1.03,6.7
		c0.31,4.04-1.18,8.13-0.41,12.12c0.44,2.32,1.65,4.54,1.48,6.9c-0.2,2.88-2.38,5.21-4.64,7.01c-2.26,1.8-4.79,3.42-6.25,5.91
		c-1,1.7-1.4,3.68-2.08,5.53c-1.85,5.05-5.86,9.25-10.82,11.33c-1.51,0.63-4.07,2-3.04,3.26c1.7,2.09,8.69-9.07,6.05-14.34
		c-1.33-2.65-3.78-4.67-4.87-7.43c-8.63,21.94-18.4,43.04-29.42,63.86c-0.33,0.62-1.21,0.7-1.62,0.13
		c-0.76-1.07-0.24-3.93,0.51-2.84c3.4,4.92,5.73,8.22,10.03,14.03"/>
	<path class="st40" d="M417.67,330.6c-3.99,2.81-6.67,7.4-7.16,12.26c5.92-5.57,14.7-7.91,22.61-6.03c0.88,0.21,1.77,0.48,2.48,1.03
		c1.43,1.12,1.82,3.1,1.94,4.91c0.38,5.67-0.88,11.43-3.6,16.42c-0.66,1.21-1.42,2.45-1.44,3.82c-0.02,1.38,1.07,2.88,2.43,2.7
		c0.58-0.08,1.1-0.43,1.68-0.5c1.58-0.19,2.61,1.7,4.13,2.19c2.56,0.82,5.14-2.58,7.66-1.64c0.87,0.33,1.75,1.16,2.58,0.74
		c0.58-0.29,0.74-1.04,0.77-1.68c0.13-2.22,0.09-6.52-1.38-6.45c-2.83,2.93,5.16,7.4,6.09,11.9c1.02,4.94-4.47,8.65-6.18,13.4"/>
	<path class="st40" d="M424.4,373.33c3.47,1.09,7.29,1.07,10.75-0.07c1.22-0.4,2.7-0.89,3.66-0.04c0.43,0.37,0.66,0.96,1.16,1.24
		c1.26,0.7,2.5-1.11,3.92-1.32c0.8-0.12,1.56,0.28,2.31,0.59c1.78,0.73,3.75,0.97,5.65,0.69c-0.51,0.73-1.43,1.04-2.3,1.25
		c-7.38,1.85-15.19,0.55-22.52-1.52c0.36,2.91,3.32,4.75,6.13,5.6c4.73,1.43,9.93,1.25,14.55-0.5"/>
	<path class="st40" d="M467.83,340.55c-0.57,0.19-1.05-0.43-1.42-0.91c-1.13-1.46-3.01-2.14-4.84-2.45
		c-3.34-0.56-6.85-0.11-9.95,1.27c-0.34,0.15-0.7,0.32-1.07,0.31c-0.38-0.01-0.77-0.28-0.79-0.66c-0.02-0.48,0.54-0.75,1-0.87
		c2.82-0.74,5.82-0.81,9.84-0.19"/>
	<path class="st40" d="M434.95,357.14c-4.01,4.56-9.02,9.74-14.2,12.89c-0.72,0.44-1.55,1.04-1.46,1.88
		c0.03,0.3,0.18,0.58,0.33,0.84c0.74,1.32,1.47,2.64,2.21,3.97"/>
	<path class="st40" d="M634.46,400.05c-4.1-6.06-9.87-11.38-16.02-15.35c-12.83-8.28-28.68-10.89-41.53-19.15
		c-0.05-0.03-0.1-0.06-0.14-0.09c-0.95-0.63-2.23-0.34-2.83,0.64c-2.06,3.35-4.43,6.46-6.29,9.97c-2.21,4.17-4.67,8.59-8.89,10.71
		c-2.23,1.12-5.41,1.09-7.1-0.44c-1.09-0.98,0.35-2.75,1.46-1.79c0.15,0.13,0.28,0.28,0.37,0.45c0.57,1.02,0.34,2.29,0.01,3.41
		c-2.9,9.79-11.52,16.58-17.61,24.78c-0.64,0.87-1.29,1.86-1.18,2.94c0.09,0.84,0.63,1.55,1.19,2.18
		c5.12,5.65,13.47,7.35,18.88,12.74c1.65,1.65,2.83,4.75,0.87,6.02c-1.42-3.85-0.23-8.11,0.76-12.09c3-11.95,4.21-24.36,3.57-36.66
		c-7.58,1.7-12.57,7.56-18.55,12.53c-10.77,8.95-24.66,14.47-38.65,13.89c-5.92-0.25-12.07-1.68-16.09-6.43
		c-2.41-2.85-3.15-6.71-2.32-10.35c2.13-9.34-5.36-18.71-5.66-28.37c-0.24-7.46,2.45-14.66,5.11-21.64l7.26-19.09
		c0.73-1.92,2.85-2.94,4.8-2.29c5.09,1.7,12.95,10.07,9.86,11.77c-0.98,0.54-9.92-12.61-9.92-12.61c-0.97-1.23-1.01-2.95-0.1-4.23
		l3.52-4.93c-1.98,0.92-2.88,1.28-4.86,2.19c-0.27-1.75-0.01-3.58,0.73-5.19c-0.44,1.68-3.34,0.77-3.59-0.95
		c-0.25-1.72,0.95-3.26,1.79-4.78c2.1-3.81,2.17-8.45,4.03-12.39c2.71-5.76,8.76-9.15,14.73-11.37c15.83-5.89,33.72-6.06,49.66-0.46
		c4.37,1.54,8.72,3.58,11.83,7.01c2.12,2.35,3.56,5.23,5.52,7.71c1.78,2.25,4,4.15,5.6,6.53c2.46,3.65,3.3,8.13,3.87,12.49
		c0.76,5.86,1.13,11.76,1.07,17.66c-0.03,2.86-0.2,5.76-1.26,8.41c-0.89,2.21-2.35,4.13-3.79,6.01l-7.34,9.6
		c-1,1.31-2.71,1.7-4.28,1.21c-0.19-0.06-0.4-0.09-0.6-0.09c-1.4,0.03-2.55,1.08-3.55,2.06c-5.22,5.14-10.4,10.33-15.55,15.55
		c2.23-4.86,4.47-9.72,6.7-14.59c0.34-0.73,0.68-1.49,0.68-2.29c0.01-1.29-0.83-2.4-1.54-3.47c-5.26-7.9-4.99-18.33-2.57-27.51
		c1.13-4.28,2.91-8.75,6.65-11.11c-11.52,1.93-23.17,3.05-34.84,3.37c2.42-1.43,4.64-3.21,6.58-5.24
		c-8.34,0.82-16.73,1.16-25.12,1.02c-1.07-0.02-1.5-1.4-0.64-2.03c0.27-0.2,0.55-0.37,0.84-0.53c-4.09,0.18-8.2-0.41-12.07-1.73
		c3.44-3.82,7.13-8.08,12.23-8.75c-4.36,4.24-10.14,7-16.19,7.7c-0.9,0.11-2.47-0.78-2.26-1.67"/>
	<path class="st40" d="M488.22,336.37c0.32-1.36,3.51-3.88,4.89-3.66s3.13,2.44,4.19,3.34c2.91,2.49,5.55,5.29,7.88,8.32
		c0.66,0.86,1.32,1.81,1.41,2.9c0.1,1.26-0.59,2.43-1.26,3.5c-3.26,5.24-8.1,9.66-11.03,15.26c-0.91,1.73,5.17-1.09,1.08-3.68
		c-1.48-0.94-3.59,0.34-4.33,1.93s-0.49,3.48,0.13,5.12c0.61,1.64,1.55,3.15,2.2,4.78c0.68,1.72,1.23,3.8,2.94,4.5
		c1.13,0.47,2.42,0.15,3.63,0c2.5-0.31,5.03,0.14,7.55,0.06c2.52-0.08,5.23-0.86,6.66-2.93s0.64-5.61-1.82-6.13
		c0.33,3.43,2.53,6.35,4.6,9.1c2.07,2.76,4.17,5.78,4.25,9.23c0.09,3.44-2.86,7.15-6.24,6.5c2-1.49,3.34-3.84,3.6-6.32
		c-5.18-0.75-10.33-1.71-15.44-2.9c-2.3-0.53-4.62-1.13-6.65-2.34c-4.07-2.43-6.34-6.96-8.38-11.24c0.71,4.73,1.57,9.77,4.83,13.27
		c5.17,5.56,13.98,5,21.5,4.01c-3.05,2.34-6.5,4.27-10.28,4.95c-3.78,0.68-7.92-0.01-10.89-2.44c-3.98-3.25-5.16-8.74-6.08-13.8
		c-0.41-2.22-0.81-4.45-1.22-6.67c-0.36-1.98,0.26-4.99,2.22-4.54c-0.98-0.87-2.66-0.25-3.33,0.87c-0.67,1.13-0.63,2.52-0.57,3.83
		c0.31,6.6-0.03,13.84,0.29,20.44"/>
	<path class="st40" d="M494.3,344.45c0.69-0.85,1.88-1.3,2.94-1.03c1.06,0.28,1.9,1.33,1.83,2.42c-0.02,0.36,0.05,0.91,0.4,0.82"/>
	<path class="st40" d="M525.63,360.77c1.04-0.9,2.66-1.13,3.82-0.39c1.16,0.74,1.61,2.47,0.81,3.59c0.19-0.05,0.37-0.11,0.56-0.16"
		/>
	<path class="st40" d="M529.79,347.45c-4.17-0.34-6.23,1.32-9.35,1.98c-0.55,0.12-1.21,0.19-1.57-0.24
		c-0.58-0.69,0.33-1.64,1.16-1.99c4.3-1.77,9.25-0.54,13.47,1.41c4.14,1.91,7.96,4.5,11.28,7.62"/>
	<path class="st40" d="M423.42,347.12c0.5-1.41,1.99-2.39,3.48-2.3c1.49,0.09,2.85,1.26,3.17,2.72"/>
	<path class="st40" d="M454.82,347.85c1.25-1.3,1.25-1.3,1.98-1.88c0.83-0.67,2.12-0.48,2.97,0.16c0.86,0.64,1.39,1.61,1.89,2.56"/>
	<path class="st40" d="M502.66,519.78c9.5-1.5,28.77-2.54,28.77-1.04c0,1.77-3.95,0.61-5.6-0.51c-1.65-1.12-2.91-2.74-4.49-3.95
		c-3.04-2.32-6.99-2.97-10.6-4.22c-12.12-4.19-21.29-15.55-33.97-17.52c-1.38-0.21-2.9-0.37-3.85-1.38c-0.96-1.01-0.59-3.18,0.8-3.2
		c10.8-0.18,23.71,2.34,32.77,8.21c3.2,2.07,6.24,4.49,9.83,5.76c1.01,2.19,3.36,3.28,5.72,2.81"/>
	<path class="st40" d="M351.82,556.21h187.36c-0.98-4.81-3.09-9.55-5.6-13.78c-0.75-1.27-1.63-2.56-2.93-3.25
		c-1.39-0.74-3.04-0.69-4.61-0.62c-21.11,0.9-42.2,2.42-63.22,4.57c-8.1,0.83-16.25,1.76-23.97,4.34c-0.83,0.28-1.74,0.65-2.12,1.44
		c-0.32,0.67-0.16,1.46,0,2.18c0.49,2.22,0.49,2.22,0.98,4.43"/>
	<path class="st40" d="M273.55,320.69c-1.65-0.74-3.66-0.27-5.08,0.85c-1.41,1.12-2.3,2.79-2.86,4.51
		c-1.08,3.27-1.1,6.88-0.08,10.16"/>
	<path class="st40" d="M245.51,321.57c1.6-0.85,3.24-1.63,4.91-2.33c1.95-0.82,4.13-1.53,6.15-0.89c1.77,0.56,3.13,2.1,4.93,2.57
		c0.45,0.12,0.96,0.15,1.33-0.12c0.38-0.27,0.46-0.93,0.06-1.16"/>
	<path class="st40" d="M245.86,327.76c1.49,0.45,2.97,0.9,4.46,1.35c0.86,0.26,1.75,0.53,2.65,0.49c0.9-0.04,1.84-0.45,2.28-1.24
		c0.02-0.03,0.03-0.06,0.05-0.09"/>
	<path class="st40" d="M221.53,374.93c7.88,7.5,4.97,23.9,12.21,33.46c2.35,3.1,5.75,5.81,6.18,9.67c0.8,7.15,2.61,12.98,2.99,20.16
		c2.16-2.92,2.29-6.84,1.98-10.45c-0.41-4.83-1.47-9.6-3.12-14.16c-1.38-3.8-3.2-7.55-3.32-11.59c-0.12-3.89,1.36-7.63,2.96-11.18
		c-0.43,13.88,3.55,28.65,13.96,37.84c2.03,1.79,4.52,4.05,3.8,6.65c-1.5-0.22-2.64-1.51-3.22-2.91c-0.58-1.4-0.72-2.93-1.03-4.42
		c-1.03-4.86-3.91-9.11-5.59-13.79c-2.51-7.02-2.13-15.03,1.02-21.79c-1.77,13.03,9.58,24.71,9.44,37.86
		c2.36-6.19-0.19-13.04-2.46-19.27c-2.27-6.23-2.37-22.69,1.46-21.99c0.8,0.18,0.04,1.9-0.39,2.72c-0.43,0.82-1.46,1.41-2.3,1.01
		c-0.55-0.26-0.86-0.84-1.11-1.39c-3.51-7.88,0.58-20.07-5.65-24.54c-0.81-0.58-0.25,1.32,0.58,1.88
		c5.69,3.89,11.81,8.5,13.08,15.28c0.58,3.11,0.04,6.3-0.5,9.42c-1.31,7.59-3.17,11.46-3.52,22.29"/>
	<path class="st40" d="M714.08,437.28c0.13-3.39,4.06-6.2,3.08-9.45c-0.34-1.11-1.2-1.97-2.01-2.8c-4.07-4.15-7.56-8.86-10.37-13.95
		c-0.3-0.55-0.64-1.14-1.23-1.37c-0.58-0.22-1.57,0.53-1.43,1.14c1.48,0.56,1.77,2.73,0.88,4.03c-0.9,1.31-2.53,1.88-4.09,2.13
		c-1.56,0.25-3.18,0.25-4.67,0.78c-0.92,0.32-1.89,0.85-2.81,0.54c-0.48-0.16-0.86-0.52-1.22-0.87c-1.5-1.46-3-2.94-4.48-4.42
		c-0.45-0.45-0.92-0.93-1.12-1.54c-0.34-1.06,0.22-2.19,0.8-3.14c2.19-3.58,4.95-6.83,6.74-10.62c1.8-3.8,2.51-8.44,0.48-12.11
		c-1.27-2.29-3.47-3.95-5.83-5.08c-3.07-1.47-6.19-2.01-8.96-0.05c-0.71,2.19-0.84,4.13-1.54,6.92c1.92-1.37,5.07-0.7,7.01,0.65
		s3.55,3.21,5.72,4.15c-0.03-1.43-1.2-2.64-2.53-3.15c-1.33-0.52-2.81-0.48-4.23-0.4c-1.75,0.1-3.27,2.72-5.96,4.25
		c-0.69,0.39-1.46-0.39-1.05-1.07c0.82-1.37,1.75-2.89,1.74-2.54c-0.18,3.89-2.17,9.76-3.02,13.73c-1.3,6.02-2.57,12.45-0.38,18.2
		c1.92,5.05,6.3,8.93,7.91,14.09c1.26,4.05,0.75,8.7,2.99,12.3c1.7,2.72,3.6,4.9,6.44,6.4c0.89,10.18,3.51,20.11,5.22,30.18
		s2.52,20.55-0.2,30.39l-1.26-25.49c-1.43,8.23-3.89,16.27-7.3,23.9c-0.54,1.21,1.23,2.17,1.86,1l0.02-0.03
		c0.35-0.67,0.52-1.42,0.47-2.17c-0.48-8.01-1.39-15.99-2.73-23.91c-0.83-4.92-2.07,14.9-6.03,27.01c-2-3.56-0.6-7.97,0.43-11.92
		c3.19-12.18,2.16-26.17-5.97-35.86c-0.54-0.64-0.73-1.55-0.34-2.3c0.35-0.64,0.87-0.83,1.46-0.74c1.29,0.2,2.14,1.47,2.04,2.77
		c-0.68,9.51-3.96,32.91-5.43,39.35c-1.05,4.62-0.66,12.12-5.36,12.68c-0.64,0.08-1.29,0.1-1.94,0.08
		c-1.16-0.04-1.28-1.75-0.14-1.98c0.87-0.18,1.82-0.19,2.7-0.15c7.57,0.34,14.99,2.19,22.34,4.03c15.01,3.76,30.03,7.52,45.04,11.28
		c6.77,1.69,12.89,4.06,19.79,4.4c7.36,0.37,14.72,0.74,22.08,1.12c3.55,0.18,7.34,0.44,10.15,2.61c1.61,1.24,2.73,3,3.83,4.71
		c1.28,2.01,2.61,3.13,3.92,5.23c1.49,2.37,4.14,3.47,6.93,3.59c14.17,0.58,53.04-1.53,53.04,1.64c0,3.8-22.38,2.94-22.38,2.94
		c-1.43,0.13-2.92,0.25-4.27-0.23c-3.99-1.4-4.6-6.66-4.73-10.89c-1.2-37.33-11.78-57.16-18.76-93.85
		c-0.47-2.48-2.53-16.33-6.33-22.1c-3.13-4.74-9.13-3.37-11.62-2.95"/>
	<path class="st40" d="M684.58,410.17c-0.86,2.07-2.71,3.8-4.43,5.24c-0.5,0.42-1.05,0.83-1.31,1.43c-0.29,0.67-0.15,1.45,0.01,2.16
		c0.98,4.44,2.51,8.77,4.54,12.84"/>
	<path class="st40" d="M698.65,424.22c1.74,0.23,3.43,0.78,5.1,1.33c2.8,0.92,5.61,1.85,8.41,2.77c0.5,0.17,1.07,0.4,1.23,0.9
		c0.15,0.48-0.16,0.99-0.5,1.36c-2.02,2.24-5.33,2.65-8.33,2.92c-5,0.45-10.39,0.81-14.67-1.81c-2.59-1.58-10.17-9.32-6.07-11.75
		c1.58-0.94,4.6,0.73,5.99,1.35C693.05,422.75,695.05,423.75,698.65,424.22z"/>
	<path class="st40" d="M711.64,329.13c12.65-13.63,29.53-31.68,38.45-39.57c14.27-12.63,17.64-15.81,31.32-30.74
		c0.91-1,1.44-3.12,0.1-3.22c-2.27,3.17-2.16,7.4-1.98,11.29c1.32,27.89,1.67,55.83,1.04,83.74c-0.01,0.59-0.06,1.26-0.52,1.63
		c-0.46,0.37-44.27-11.73-64.76-20.63c-21.72,8.1-31.18,31.15-29.95,26.67c3.82-13.94,16.05-22.84,23.15-26.32
		C709.8,331.34,711.27,330.55,711.64,329.13c0.37-1.42,6.4,8.52,12.86,8.77c-6.19,4.29-12.03,9.11-17.43,14.37
		c-0.35,0.34-0.7,0.69-0.88,1.15c-0.19,0.5-0.02,1.08,0.32,1.49c2.42,2.85,4.24-1.99,2.36-2.31c-5.17-0.88-10.58-0.34-15.48,1.52
		c-2.36,0.9-4.62,2.12-6.45,3.85c-4.24,4.03-6.27,11.03-7.38,16.77c0.41-0.6-2.13,11.04-4.81,17.12c-2.27,5.14-6.29,9.26-9.47,13.9
		c-2.83,4.13-5.01,8.7-6.44,13.5c4.42-0.98,9.02-1.19,13.51-0.62c0.17-0.84-0.24-1.76-0.97-2.2c-6.51,1.69-13.57,3.76-17.39,9.29
		c-2.29,3.33-3.05,7.45-3.74,11.43c-2.23,12.68-4.45,25.37-6.68,38.05c-4.52,25.72-9.03,52.07-5.08,77.8
		c0.31,2.05-1.14,3.92-3.2,4.19c-1.77,0.23-2.58,0.03-3.42-0.01c-1.46-0.07-2.61-0.02-2.59-1.23c0.02-0.78,0.72-1.38,1.51-1.37
		l12.17,0.11c0.41,0,146.57-0.42,146.57-0.42c1.21,0,1.19-1.62,0.63-2.69c-0.56-1.07-1.72-1.65-2.74-2.3
		c-5.25-3.35-7.86-10.35-6.09-16.32c1.61-5.42,0.25-10.08,1.99-15.46c4.79-14.8,9.55-30.26,7.28-45.65
		c-1.43-9.66-5.61-18.91-5.71-28.67c-0.09-8.54,2.94-16.77,4.26-25.21c3.43-21.86-1.47-42.92-9.42-63.57
		c-6.68-1.19-15.46-4.42-22.04-6.09c-10-2.54-19.85-5.63-29.57-9.09c-3.58,6.74-8.67,13.15-14.27,18.33
		c-1.15,0.61-2.09-1.55-1.14-2.45c0.95-0.9,2.45-0.7,3.74-0.45c4.63,0.92,9.4,1.9,13.33,4.52c5.45,3.63,8.49,9.85,11.09,15.86
		c2.6,6.01,5.17,12.33,10.1,16.64c4.93,4.31,13.06,5.77,17.87,1.33c-4.55,5.49-13.51,6.59-19.26,2.38c1.66,4.43,7.3,6.87,11.66,5.05
		c2.42-1.01,4.25-3.02,6.28-4.67s9.09-5,9.68-0.04c0.57,4.77-0.52,9.66-3.3,13.58s-6.59,6.96-10.36,9.95
		c-2.34,1.86-4.74,3.75-7.55,4.73c-1.5,0.53-3.16,0.75-4.74,0.57c-1.99-0.23,0.73-9.59,2.24-9.1c2.51,0.8-2.03,4.74-3.94,6.57
		c-8.17,7.83-14.89,17.7-25.12,22.53c-5.2,2.45-11.07,3.46-15.89,6.6c-3.16,2.06-6.66,2.65-10.42,3.05
		c-1.78,0.19-3.78,0.15-5.09-1.07c0.35-0.76,1.46-0.61,2.25-0.33c0.87,0.3,1.73,0.61,2.6,0.91c0.62,0.22,1.26,0.44,1.76,0.86
		c0.61,0.5,0.97,1.23,1.32,1.94c3.07,6.28,6.15,12.56,9.22,18.84"/>
	<path class="st40" d="M695.85,482.93c1.08,5.69,6.04,10.12,11.58,11.77c5.55,1.66,11.41,0.29,17.1-0.8
		c12.91-2.48,19.69-13.18,21.5-12.51c0.82,0.29,0.8,1.63,0.06,2.09s-1.76,0.15-2.36-0.48c-0.6-0.63-0.87-1.5-1.11-2.33
		c-3.03-10.87-2.5-22.61,0.94-33.35c1.02-3.2,2.3-6.31,3.57-9.42c1.53-3.74,3.06-7.48,4.6-11.23c-4.89,7.39-5.55,16.7-6.05,25.54
		c-0.25,4.3-0.49,8.68,0.49,12.88c1.11,4.77,4.1,8.88,5.71,13.5c2.16,6.22,1.09,18.33-1.41,27.35c-2.34,8.4,1.15,16.71,0.62,25.31
		c-0.1,1.55-2.44,1.53-2.42-0.02c0-0.27,0.03-0.55,0.06-0.82c1.65-15.6,10.67-30.27,9.24-45.89c-0.53-5.79,2.1-37.01,2.29-26.28
		c0.19,11.2,3.51,22.26,2.75,33.43c-0.43,6.38-2.19,12.59-2.88,18.95c-0.69,6.35-0.16,13.19,3.49,18.43
		c0.71,1.01,1.56,2.05,1.6,3.28c0,0.01,0,0.02,0,0.04c0.02,1.66-2.39,1.97-2.95,0.4c-2.06-5.79-1.51-12.3-0.18-18.35
		c1.45-6.56,3.78-12.95,4.56-19.63c1.28-10.91,9.63,4.88,7.02,18.75c-0.69,3.68-1.8,7.31-1.93,11.05c-0.08,2.5,0.36,5.12,1.52,7.3
		c0.59,1.1,2.26,0.66,2.25-0.59c-0.06-6.23-0.03-12.47,0.66-18.66c1.41-12.72,17-32.33,13.15-47.16"/>
	<path class="st40" d="M708.42,389.94c8.61-3.97,19.48-2.4,26.61,3.84"/>
	<path class="st40" d="M716.88,395.44c2.94-0.22,6.07,0.68,8.03,2.88c0.61,0.69,1.1,1.49,1.43,2.36c-2.26-1.03-4.55-2.07-6.96-2.67
		c-2.42-0.59-5.01-0.72-7.37,0.08c-1,0.33-1.81,0.59-2.8,0.29C710.56,396.5,714.56,395.61,716.88,395.44z"/>
	<path class="st40" d="M675.45,169.14c-23.38-36.22-49.75-29.48-60.13-25.52c-15.46,5.9-30.16,17.18-34.42,33.17
		c-0.42,1.59-0.76,3.25-1.69,4.61s-2.66,2.34-4.22,1.83c0.46-2.22,1.77-4.19,3.98-4.69c13.81-3.1,28.61-1.58,41.49,4.26
		c2.28,1.03,4.99,2.03,7.21,3.2c-1.51,2.93-3.5,5.61-5.86,7.9c1.5-0.27,3.01-0.53,4.51-0.8c-1.03,1.81-2.67,3.27-4.59,4.08
		c4.79,1.82,9.93,2.68,15.05,2.52c-1.66,1.6-3.32,3.2-4.98,4.8c3.35,1.05,6.97,1.24,10.42,0.54c-0.42,3.37-2.53,6.49-5.51,8.12
		c3.02,0.4,7.54,0.36,9.29-2.14c2.87-4.1,6.19-7.89,9.89-11.26c1.52-1.39,3.14-2.72,5.04-3.51c1.9-0.78,4.15-0.95,5.98-0.01
		c1.98,1.02,3.18,3.2,3.5,5.4c0.32,2.21-0.11,4.45-0.71,6.6c-2.17,7.86-5.81,13.22-10.73,19.72c-1.96,2.59-5.76,2.65-9.01,2.46
		c-1.36-0.08-2.85-0.21-3.81-1.18c-0.96-0.96-0.75-3.03,0.59-3.25c1.1-0.18,2.07,0.71,1.79,1.79c-1.21,4.61-2.42,9.22-3.63,13.83
		c-0.96,3.66-1.95,7.39-4.05,10.53c-1.75,2.63-4.2,4.71-6.7,6.64c-10.33,7.94-23.8,13.86-36.23,9.94c-3.13-0.99-5.83-2.37-5.5-5.63
		c-0.49-0.93-0.69-1.99-0.85-3.03c-0.57-3.64-0.77-7.33-0.61-11c-1.16-0.44-2.57-0.09-3.4,0.83c6.54,3.07,14.83,1.93,20.29-2.8
		c-4.76-2.75-9.3-5.91-13.54-9.41c-0.72-0.59-1.47-1.27-1.64-2.19c-0.17-0.92,0.66-2.02,1.55-1.75c0.26,1.22,1.02,2.96,0.63,4.15
		c-1.02,3.08-4.06,5.83-7.23,5.13c-0.67-0.15-1.31-0.44-1.99-0.52c-2.02-0.24-3.82,1.39-5.85,1.51c-1.92,0.11-3.74-1.27-4.43-3.06
		c-0.69-1.79,1-4.1,1.64-5.91c0.86-2.46,2.31-4.7,3.06-7.2c2.84-9.48-4.88-18.59-7.27-28.19c-1.67-6.7-0.67-13.83,1.43-20.41
		c4.88-15.33,15.81-28.65,29.91-36.4c14.1-7.75,31.55-10.18,46.63-4.58c4.51,1.67,8.32,5.14,10.4,9.47
		c-2.26-3.21-3.89-6.86-4.76-10.69c2.6-0.4,4.91,1.76,6.26,4.03c1.35,2.26,2.3,4.89,4.36,6.53c0-3.35-1.87-5.38-3.71-8.18
		c-0.38,0.62-0.4-0.83,0.31-0.97c8.26-1.56,16.82,2.91,21.98,9.54c5.17,6.63,7.44,15.07,8.59,23.39
		c3.05,21.94-0.82,44.38,1.99,66.35c2.01,15.65,2.11,19.28,9.62,33.16c6.17,11.42,10.84,17.27,15.92,20.06
		c7.84,4.32,13.3,7.8,19,6.75c1.02-0.97,2.57-2.16,3.3-3.36c0.41-0.67,0.79-1.43,0.7-2.22c-0.15-1.35-1.55-2.15-2.79-2.69
		c-4.9-2.13-10.08-3.62-15.37-4.41c-2.08-0.31-4.18-0.52-6.23-1c-2.98-0.7-5.82-1.97-8.32-3.74"/>
	<path class="st40" d="M577.03,212.58c0.31,1.34,0.62,2.75,0.28,4.08c-0.34,1.34-1.57,2.55-2.94,2.39
		c-0.22-0.27-0.04-0.72,0.26-0.89c0.31-0.17,0.68-0.15,1.03-0.13c1.4,0.1,2.8,0.21,4.21,0.31"/>
	<path class="st40" d="M583.22,214.12c1.27,1.24,3.2,1.6,4.97,1.44c1.77-0.17,3.47-0.79,5.18-1.26c5.54-1.52,11.49-1.48,17.01,0.12"
		/>
	<path class="st40" d="M595.43,217.6c-1.32,1.78-3.21,3.14-5.32,3.83c2.28,0.28,4.66-0.23,6.63-1.42c-0.14,0.49-0.28,0.97-0.42,1.46
		c0.93,0.52,2.19,0.38,2.98-0.33c0.26,0.11,0.41,0.43,0.34,0.71c2.35-0.23,4.71-0.27,7.07-0.11"/>
	<path class="st40" d="M664.61,220.44c-1.95,6.63-3.22,13.47-3.79,20.36c-0.46,5.59-0.44,11.31,1.23,16.66
		c1.63,5.2,4.73,9.79,7.39,14.55c6.19,11.09,10.08,23.45,11.36,36.08c1.7,16.8-1.17,33.93,1.62,50.58
		c-1.54-0.46-2.36-2.11-2.85-3.63c-2.34-7.34-0.99-15.26-0.94-22.96c0.08-12.28-3.21-24.31-6.47-36.15
		c-1.35-4.92-2.71-9.83-4.06-14.75c1.44-0.62,3.14,0.82,3.19,2.39c0.04,1.56-2.34,3.35-3.72,4.08c0.61-0.24,1.21-0.47,1.82-0.71
		c-15.22,7.59-33.81,8.07-49.4,1.28c0.03,1.2,0.1,2.51,0.87,3.43s2.53,1.05,3.03-0.05c0.24-0.53,0.11-1.15-0.02-1.73
		c-0.36-1.57-0.1-1.97-0.6-3.51c-1.06-3.24-2.12-6.48-3.18-9.72c-0.57-1.73-1.15-3.49-2.25-4.94c-1.1-1.45-2.82-2.55-4.64-2.42
		c-6.56,0.47-13.04,0.26-19.58,0.88c-3.85,0.37-7.77,0.8-11.32,2.34c-6.17,2.67-10.46,8.29-14.48,13.68"/>
	<path class="st40" d="M256.73,373.95c7.55,2.03,14.23-3.9,19.38-8.32c3.63-3.12,6.95-6.6,9.88-10.38
		c8.24-10.65,16.47-21.29,24.71-31.94c6.22-8.04,9.53-17,14.79-25.69c1.2-1.99,3.78-4.66,5.73-5.93c5.05-3.29,8.48-5.74,13.28-8.11
		c6.71-3.31,12.93-5.53,19.84-5.46c0.23,0,0.45,0.12,0.65,0.24c0.51,0.29,0.93,0.72,1.21,1.23c0.13,0.23,0.24,0.47,0.35,0.71
		c1.04,2.3-0.3,4.97-2.74,5.63c-7.07,1.91-14.1,4.76-20.46,8.19c-0.88,0.47-1.88,1.24-1.67,2.21c3.15,0.16,6.05-1.55,8.89-2.94
		c2.91-1.43,5.96-2.58,9.09-3.42c2.39-0.64,4.97-1.1,7.31-0.3c1.01,0.35,1.94,1.01,2.63,1.83c1.24,1.5,0.47,3.79-1.4,4.32
		l-0.02,0.01c-7.51,2.14-14.71,5.39-21.28,9.61c-0.5,0.32-1.03,0.66-1.62,0.63c-0.59-0.03-1.18-0.63-0.95-1.18
		c0.13-0.32,0.46-0.49,0.77-0.64c7.46-3.49,15.66-5.38,23.89-5.52c3.06-0.05,5.06,3.16,3.59,5.85c-1.39,2.56-4.41,3.53-7.13,4.46
		c-5.95,2.03-11.67,4.74-17.02,8.05l17.27-5.14c2.71-0.81,4.91,2.26,3.29,4.57v0c-0.78,1.11-1.87,1.97-3.14,2.44
		c-6.9,2.53-13.71,5.97-18.89,11.23c-2.57,2.61-4.73,5.66-7.65,7.89c-1.85,1.42-3.95,2.46-5.88,3.77c-4.67,3.19-8.22,7.99-9.9,13.39
		c-0.83,2.68-1.42,5.76-2.82,8.08c-0.66,1.09-2.3,0.21-1.83-0.97c4.07-10.08,14.33-16.94,23.85-22.79c-0.33,4.62,3.6,8.79,7.29,11.6
		c2.83,2.16,5.78,4.16,8.83,6c2.49,1.5,7.02,2.75,6.57,8.74"/>
	<path class="st40" d="M381.3,340.86c-4.14-1.93-8.27-3.87-12.41-5.8c-1.49-0.7-2.99-1.4-4.31-2.4c-1.53-1.16-3.38-2.8-5.07-1.9
		c-0.56,0.24-0.43,1.2,0.14,1.43c0.56,0.23,1.23-0.13,1.55-0.65c0.32-0.52,0.37-1.15,0.42-1.76c0.25-3.15,0.5-6.3,0.75-9.45"/>
	<path class="st40" d="M357.11,278.88c-4.12,1.21-8.7-4.43-12.07-7.09c-0.58-0.46-1.45-0.88-2-0.37c-0.28,0.25-0.34,0.66-0.37,1.03
		c-0.28,3.44,1.38,6.97,4.21,8.93c0.56-0.99-0.2-2.31-1.25-2.76c-1.05-0.45-2.25-0.28-3.37-0.1c-6.77,1.07-13.55,2.14-20.32,3.22
		c-0.78,0.12-1.45,0.72-1.54,1.5c-0.1,0.88,0.55,1.24,1.15,1.54c4.93,2.52,11.08,4.99,15.67,1.9c-2.94-0.5-5.92-0.73-8.9-0.68
		c-1.32,0.02-2.68,0.11-3.86,0.71c-1.31,0.68-2.22,1.92-3.07,3.12c-1.88,2.66-3.73,5.34-5.54,8.05c-1.01,1.51,0.19,3.48,2,3.36
		c3.33-0.22,6.53-1.32,8.29-4.03c-4.7,1.03-8.99,3.79-11.89,7.62c-0.26,0.35-0.52,0.8-0.34,1.19c0.2,0.42,0.77,0.48,1.24,0.45
		c1.72-0.11,3.42-0.66,4.89-1.56c-2.34,5.45-6.11,10.28-10.82,13.88c-3.54-2.08-8.09-3.24-10.91-6.23c-3.77-4-3.91-10.09-3.96-15.59
		c-0.12-12.57-0.95-25.13-2.5-37.6c-0.45-3.62-4.23-5.82-7.61-4.43c-2.71,1.12-5.42,2.24-7.98,3.56c-0.45,0.23-0.68,0.82-0.41,1.25
		c1.8,2.84,12.8-4.9,18.4-8.61c5.98-3.96,17.75-12.92,17.9-12.62c3.36-13.07,3.51-26.42-0.01-39.45c0.58,2.43-0.34,5.15-2.27,6.74
		s-4.78,1.96-7.05,0.93c-2.62-1.19-4.17-3.87-5.56-6.39c-2.03-3.69-4.05-7.38-6.08-11.06c-1.33-2.43-2.69-4.92-3.04-7.67
		c-0.35-2.75,0.54-5.83,2.88-7.32c2.33-1.48,5.5-0.99,7.84,0.48c2.34,1.47,4,3.78,5.66,5.98c2.04,2.7,6.17,8.33,3.99,9.37
		c-1.64,0.79-3.84-6.64-2.38-10.01c8.82,4.1,19.44,0.29,27.15-5.64c6.98-5.36,13.21-11.68,19.02-18.28
		c5.37-6.1,12.2-10.22,18.3-9.46c5.71,0.71,11.41,1.7,10.58,4.3c-1.97-1.04-3.27-3.07-3.96-5.19c-0.69-2.12-0.86-4.37-1.14-6.59
		c-0.82-6.63-2.58-13.14-5.23-19.27c-4.76-11.02-17.81-15.17-30.04-17.19c-4.21-0.69-11.05-0.62-15.24,0.17
		c-5.17,0.97-9.44,2.44-13.68,5.37c-10.31,7.14-18.54,17.31-23.08,29c-3.55,9.16-4.79,19.23-3.49,28.96c0.57,4.26,0.59,7,0.69,11.31
		c0.02,0.92-0.65,2.26-1.4,1.72c-0.97-0.68-0.71-2.19-0.19-3.25c2.73-5.53,10.13-8.19,15.75-5.65c3.22,1.45,5.74,4.29,9.12,5.32
		c2.71,0.83,5.63,0.39,8.37-0.33c7.84-2.05,15.07-6.36,20.61-12.28c2.26-2.41,4.24-5.09,6.64-7.36c8.17-7.75,21.14-9.93,31.39-5.27
		c15.58,7.08,13.91,31.67,9.16,48.11c-1.17-0.5-0.99-2.21-0.57-3.41c2.37-6.92,5.7-13.53,7.3-20.67
		c3.05-13.65-0.89-28.67-10.24-39.07c-2.37-2.64-5.3-5.79-4.29-9.2c4.2,2.83,1.32,13.38,1.21,20.17
		c-0.25,15.02,5.09,29.67,5.27,44.69c0.12,9.93-2.03,19.76-3.84,29.5c-0.47,2.51-1.29,4.93-2.46,7.2c-1.74,3.37-4.27,7.55-7.59,9.43
		c-6.16,3.48-14.22,4.31-20.62,1.3c-3.81-1.8-6.78-4.95-9.65-8.04c-0.77,0.67-0.71,1.95-0.15,2.81c4.19,6.38,12.11,10.3,19.74,10.5
		c7.63,0.21,15.27-5.63,20-11.62l5.71,1.68c0.44-0.15,2.23-0.45,2.48-1.05c0.16-0.39,0.07-0.84-0.23-1.13
		c-0.01,0-0.01-0.01-0.02-0.01c-0.52-0.5-1.38-0.31-1.65,0.36c-1.51,3.64-0.96,7.89-0.23,11.81c2.76,14.81,7.46,29.3,8.66,44.32
		c0.27,3.38,0.3,7.02-1.51,9.89c-1.1,1.74-2.79,3.03-4.49,4.2c-5.34,3.67-11.21,6.56-17.37,8.56c12.65-0.1,19.75-5.66,25-12.92"/>
	<path class="st40" d="M404.52,270.92c2.79-12.87-1.53-21.73,1.57-31.73c2.77,0.32,6.47,3.06,5.89,4.03
		c-1.01,1.7-3.09-2.46-4.78-3.47c-1.35-0.81-2.89-1.22-4.41-1.62c-4.51-1.19-13.03-3.06-17.53-4.25"/>
	<path class="st40" d="M378.82,172.48c-4.2-0.74-8.4,2.37-10.01,6.33c-1.6,3.96-1.08,8.48,0.2,12.55c1.27,4.07,3.26,7.9,4.59,11.95
		c0.21,0.65,0.4,1.4,0.03,1.97c-0.4,0.62-1.24,0.72-1.97,0.77c-3.23,0.21-6.46,0.42-9.68,0.63c-2.13,0.14-4.47,0.22-6.17-1.07
		s-1.91-4.51,0.1-5.24c1.92-0.71,3.69,1.29,4.77,3.03c-0.96,0.71-2.1-0.53-3.14-1.1c-2.28-1.22-4.83,1-6.46,3
		c-2.61,3.2-5.23,6.41-7.84,9.61c-0.6-0.85,0.37-2.23,1.37-1.96c1.22,4.29,1.9,8.74,2,13.2"/>
	<path class="st40" d="M335.59,179.96c5.67-3.15,12.34-3.81,18.8-4.4c0.83-0.08,1.68-0.15,2.47,0.09c0.79,0.24,1.53,0.87,1.63,1.69
		c-0.95,0.58-2.16,0.38-3.26,0.19c-3.39-0.58-6.85-0.8-10.28-0.66"/>
	<path class="st40" d="M344.91,189.09c0.27-1.06,1.09-1.89,1.96-2.56c0.65-0.5,1.37-0.95,2.19-1.02c1.39-0.12,2.59,0.9,3.61,1.84"/>
	<path class="st40" d="M372.44,183.47c0.69-0.49,0.85-2.71,3.77-2.68c0.85,0.01,1.43,0.89,2.07,1.45"/>
	<path class="st40" d="M373.71,205.94c-1.73,1.56-2.11,4.2-1.55,6.46c0.56,2.26,1.9,4.23,3.22,6.15c0.3,0.44,0.66,0.92,1.19,1.02
		c-0.88-2.53-1.92-5.01-3.1-7.41c-0.13-0.26-0.31-0.56-0.6-0.58c-0.23-0.02-0.42,0.14-0.6,0.28c-3.28,2.73-7.4,4.34-11.6,5.09
		c-4.21,0.74-8.52,0.66-12.77,0.3c-0.42,0.56,0.58,1.09,1.28,1.07c3.63-0.14,7.21-1.37,10.15-3.5c0.7-0.51,1.43-1.09,2.3-1.15
		c0.55-0.04,1.08,0.13,1.63,0.2c2.51,0.33,4.74-1.47,6.62-3.16c0.64,0.76,1.04,1.73,1.12,2.72c0.19,2.35-1.42,4.6-3.53,5.68
		c-2.1,1.07-4.59,1.15-6.93,0.79c-2.34-0.36-4.59-1.12-6.89-1.64"/>
	<path class="st40" d="M13.57,157.52c108.32-21.96,216.17-69.67,305.82-134.31c1.45-1.04,0.29-3.94-1.48-4.16
		c-3.17,2.96-3.3,7.85-3.16,12.18c0.6,18.55,2.16,37.06,4.67,55.45c0.98,0.32,1.97-0.75,1.96-1.79s-0.67-1.93-1.32-2.73
		c-1.35-1.64-2.81-3.19-4.28-4.72c-11.56-12.03-23.93-23.29-37-33.66c0.11-1.12,1.83-1.35,2.64-0.57s0.92,2.01,0.97,3.13
		c0.85,17,0.74,34.06-0.35,51.05c-0.3,4.75-0.6,9.85,1.88,13.91c2.44-0.16,2.2-3.89,1.03-6.04c-3.24-5.96-7.6-11.32-12.78-15.72
		c-7.11-6.03-15.61-10.15-23.66-14.86c-2.09-1.22-4.22-2.54-5.59-4.54s-1.79-4.84-0.36-6.79c4.57,12.39,5.42,25.78,6.23,38.96
		c0.59,9.64,1.18,19.28,1.77,28.93c2.22-0.96,2.15-4.15,1.37-6.44c-3.33-9.69-12.36-16.17-21.32-21.13
		c-8.96-4.96-18.66-9.28-25.34-17.05c-1.02-1.18-0.7-1.76,0.83-2.09c3.07,8.41,2.49,17.66,1.86,26.59
		c-1.06,15.11-2.11,30.21-3.17,45.32c2.12,0.14,3.59-2.42,3.18-4.5c-0.41-2.08-2.02-3.69-3.56-5.15
		c-10.15-9.57-20.85-18.56-32.04-26.9c-5.62-4.19-11.9-9.14-12.39-16.13c2.01-1.18,3.73,1.95,3.97,4.27
		c2.25,21.48,2.1,43.2-0.43,64.64c1.78,1.21,3.45-1.79,3.38-3.95c-0.34-10.15-6.27-19.37-13.54-26.47
		c-7.27-7.09-15.95-12.55-23.81-19c-1.98-1.63-3.97-4.73-2.02-6.39c3.79,4.99,3.01,11.96,2.04,18.16
		c-2.57,16.51-5.14,33.02-7.71,49.52c-0.22,1.44-0.42,3.03,0.39,4.25c0.8,1.22,3.04,1.42,3.52,0.05
		c-2.64-7.68-32.98-42.73-44.02-53.81c-1.36-1.36-2.21-4.38-0.3-4.55c2.26,0.25,3.03,3.11,3.24,5.37
		c2.21,23.85,3.12,47.82,2.71,71.76c1.7,0.07,2.62-1.98,2.8-3.67c0.94-8.86-30.12-50.98-41.49-61.64c-1.03-0.97,0.26-3.06,1.53-2.43
		c1.27,0.63,1.43,2.35,1.41,3.76c-0.31,23.04-1.37,46.08-3.17,69.06c-0.17,2.15,0.66,5.26,2.76,4.79
		c-1.63-11.86-27.19-45.6-32.44-56.36C7.91,144.45,12.95,157.28,13.57,157.52z"/>
	<path class="st40" d="M766.19,74.72c-12.38,5.34-24.81,12.54-31.43,24.29c-5.22,9.28-6.17,20.75-3.01,30.91
		c3.16,10.16,10.29,18.95,19.33,24.57c5.44,3.39,11.69,5.69,18.1,5.77c5.61,0.07,11.14-1.56,16.25-3.89
		c15.44-7.02,27.61-20.6,33.61-36.47c5.99-15.87,5.91-33.82,0.47-49.88c-1.97-5.81-4.61-11.41-6.08-17.37
		c4.22,0.15,8,4.13,7.63,8.27c-7.9,1.88-16.22,1.48-24.24,3.46C786.35,66.99,776.09,70.45,766.19,74.72z"/>
	<path class="st40" d="M816.44,61.82c-8.29-3.51-17.36-9.14-30.07-12.85c-13.43-3.92-27.76-4.94-41.64-3.25
		c-13.88,1.69-27.72,7.62-36.48,18.53s-9.43,31.15-5.34,40.42c3.93,8.91,17.71,18.63,27.03,16.35"/>
	<path class="st40" d="M791.17,148.81c-0.3,23.25,13.52,32.9,25.27,34.51c23.87,3.27,38.27-14.47,40.66-18.18
		c2.13-3.29,3.32-7.1,4.09-10.94c3.08-15.43-0.51-31.6-7.12-45.88s-16.11-27-25.5-39.63c-1.21-1.63-2.45-3.32-2.91-5.29
		s0.04-4.33,1.73-5.45c1.69-1.12,4.52-0.23,4.77,1.79c0.12,0.99-0.35,1.96-0.81,2.85c-5.16,9.98-10.32,19.96-15.48,29.94
		C809.87,104.12,791.51,122.78,791.17,148.81z"/>
	<path class="st40" d="M551.97,490.55c-2.97-0.28-6.01,0.07-8.84,1.03c-3.07,1.04-5.95,2.78-9.17,3.09
		c-1.55,0.15-3.11-0.04-4.65-0.22c-4.86-0.59-9.76-1.19-14.38-2.8c-2.37-0.82-5.4-2.9-7.91-2.86"/>
</g>
</svg>
